<svg xmlns="http://www.w3.org/2000/svg" viewBox="0 0 286.91 137.12"><defs><style>.cls-1{fill:#fff;}.cls-2{fill:#f7941f;}.cls-3{fill:blue;}</style></defs><title>00_logo-benoitchangeat</title><g id="Calque_2" data-name="Calque 2"><g id="Calque_11" data-name="Calque 11"><path class="cls-1" d="M16.09,121.57a8.81,8.81,0,0,1-1.54,2.58A7.45,7.45,0,0,1,12.21,126a6.74,6.74,0,0,1-3,.67,6.32,6.32,0,0,1-2.1-.39,8.45,8.45,0,0,1-2-1,7,7,0,0,1-1.62-1.56,4.21,4.21,0,0,1-.83-1.94v-6.23a10.15,10.15,0,0,1,1.16-1.9A8.86,8.86,0,0,1,5.34,112a7.57,7.57,0,0,1,1.92-1.09,6.06,6.06,0,0,1,2.23-.4,6.36,6.36,0,0,1,2.9.67A7.1,7.1,0,0,1,14.67,113a8.54,8.54,0,0,1,1.46,2.6,9,9,0,0,1,.52,3,8.16,8.16,0,0,1-.56,3m2.58-6.81a11.05,11.05,0,0,0-1.81-3.34A8.92,8.92,0,0,0,14,109.05a8,8,0,0,0-3.79-.88,7.77,7.77,0,0,0-4.38,1.25,11.48,11.48,0,0,0-3.23,3.29V100.48H0v28.07H2.35v-3.88a8.77,8.77,0,0,0,3.1,3.08,8.29,8.29,0,0,0,4.36,1.19,8.66,8.66,0,0,0,3.75-.83,9.48,9.48,0,0,0,3-2.23,10.49,10.49,0,0,0,2-3.29,11,11,0,0,0,.73-4,11.87,11.87,0,0,0-.64-3.83"/><path class="cls-1" d="M91.59,128.55h2.62v-20H91.59Zm0-24.23h2.62v-3.85H91.59Z"/><path class="cls-1" d="M25,117.47a8.77,8.77,0,0,1,.71-2.92,7.4,7.4,0,0,1,1.58-2.31,7,7,0,0,1,2.29-1.5,7.16,7.16,0,0,1,2.77-.54,7,7,0,0,1,2.75.54,7.11,7.11,0,0,1,2.27,1.5A7.92,7.92,0,0,1,39,114.53a8.15,8.15,0,0,1,.75,2.94Zm16.5-3a10.46,10.46,0,0,0-2-3.27A9.92,9.92,0,0,0,28.34,109a9.87,9.87,0,0,0-3.17,2.23,10.3,10.3,0,0,0-2.08,3.27,10.58,10.58,0,0,0-.75,4,10.85,10.85,0,0,0,.75,4,10.55,10.55,0,0,0,2.09,3.32,9.85,9.85,0,0,0,3.17,2.27,9.64,9.64,0,0,0,4,.83,10.73,10.73,0,0,0,2.81-.36,9.62,9.62,0,0,0,2.46-1,9.15,9.15,0,0,0,2-1.58,6.74,6.74,0,0,0,1.31-2l-2.27-.62a4.93,4.93,0,0,1-1,1.48,6.6,6.6,0,0,1-1.46,1.14,7.7,7.7,0,0,1-1.77.73,7,7,0,0,1-1.92.27,6.82,6.82,0,0,1-2.75-.56,7.33,7.33,0,0,1-2.29-1.56,8.21,8.21,0,0,1-1.63-2.37,8.48,8.48,0,0,1-.75-3H42.22a1.61,1.61,0,0,0,0-.43v-.61a10.57,10.57,0,0,0-.73-3.92"/><path class="cls-1" d="M62.83,113.24a7.89,7.89,0,0,0-1-2.73A4.77,4.77,0,0,0,60,108.78a5.9,5.9,0,0,0-2.8-.62,9.65,9.65,0,0,0-5,1.35,9.45,9.45,0,0,0-3.52,3.54v-4.54H46.3v20h2.61V116.28A7.14,7.14,0,0,1,50,114a9,9,0,0,1,1.75-1.83A7.68,7.68,0,0,1,53.91,111a6.63,6.63,0,0,1,2.31-.43,3.61,3.61,0,0,1,3.25,1.62,9.77,9.77,0,0,1,1.06,5.19v11.19h2.61V116.82a19,19,0,0,0-.31-3.57"/><path class="cls-1" d="M84,121.7a8.25,8.25,0,0,1-1.58,2.56A7.48,7.48,0,0,1,80.08,126a6.45,6.45,0,0,1-2.83.64,6.64,6.64,0,0,1-2.82-.62,7,7,0,0,1-2.31-1.71,8.48,8.48,0,0,1-1.56-2.54,8.35,8.35,0,0,1-.58-3.13,8.67,8.67,0,0,1,.58-3.17,8.38,8.38,0,0,1,1.58-2.59,7.34,7.34,0,0,1,2.31-1.75,6.32,6.32,0,0,1,2.81-.64,6.46,6.46,0,0,1,2.83.64,7.54,7.54,0,0,1,2.33,1.73A8.22,8.22,0,0,1,84,115.42a8.87,8.87,0,0,1,0,6.28m2.48-7.11a10.48,10.48,0,0,0-2.08-3.31A10,10,0,0,0,81.23,109a9.36,9.36,0,0,0-4-.85,9.23,9.23,0,0,0-4,.85,10,10,0,0,0-3.14,2.27,10.49,10.49,0,0,0-2.08,3.31,10.67,10.67,0,0,0-.75,4,10.88,10.88,0,0,0,.73,4,10.16,10.16,0,0,0,2.06,3.31,9.84,9.84,0,0,0,3.13,2.25,9.5,9.5,0,0,0,4,.83,9.64,9.64,0,0,0,4-.83,9.84,9.84,0,0,0,3.15-2.25,10.21,10.21,0,0,0,2.05-3.31,11,11,0,0,0,0-8"/><path class="cls-1" d="M108.9,125.47a8.35,8.35,0,0,1-1.08.52,4.86,4.86,0,0,1-2,.36,2.68,2.68,0,0,1-1.63-.52,2.06,2.06,0,0,1-.79-1.63V110.59h4.62v-2.08h-4.62v-6.77h-2.61v6.77H98.06v2.08h2.77v14.34a3.9,3.9,0,0,0,.34,1.69,3.52,3.52,0,0,0,.92,1.21,3.76,3.76,0,0,0,1.34.71,5.57,5.57,0,0,0,1.62.23,7.28,7.28,0,0,0,1.54-.15,11.55,11.55,0,0,0,1.31-.35c.38-.13.72-.26,1-.39l.67-.31Z"/><path class="cls-2" d="M125.25,121.74a3.61,3.61,0,0,1-1.43,1.44,4.18,4.18,0,0,1-2.12.56,4.05,4.05,0,0,1-1.75-.38,4.35,4.35,0,0,1-1.44-1.07,5,5,0,0,1-1-1.67,6.49,6.49,0,0,1-.35-2.17,5.46,5.46,0,0,1,1.29-3.81,4.15,4.15,0,0,1,3.21-1.42,3.86,3.86,0,0,1,3.5,1.92l6-1.8a9.47,9.47,0,0,0-3.57-3.87,11,11,0,0,0-5.88-1.48,11.82,11.82,0,0,0-4.6.84,10.08,10.08,0,0,0-3.4,2.29,9.84,9.84,0,0,0-2.12,3.34,11.24,11.24,0,0,0,0,8,9.74,9.74,0,0,0,2.14,3.34,10.46,10.46,0,0,0,3.42,2.31,11.51,11.51,0,0,0,4.56.86,11.15,11.15,0,0,0,5.94-1.5,9.06,9.06,0,0,0,3.56-3.85Z"/><path class="cls-2" d="M153.24,113a6.89,6.89,0,0,0-.9-2.46,5.24,5.24,0,0,0-1.93-1.81,6.61,6.61,0,0,0-3.29-.71,8.38,8.38,0,0,0-4,1,7.72,7.72,0,0,0-2.94,2.79V100.48H134v28.07h6.15V117a5,5,0,0,1,.77-1.46,6.79,6.79,0,0,1,1.09-1.14,4.93,4.93,0,0,1,1.23-.73,3.23,3.23,0,0,1,1.18-.25,2.61,2.61,0,0,1,2.12.92,4.48,4.48,0,0,1,.76,2.89v11.34h6.16V115.63a16,16,0,0,0-.23-2.68"/><path class="cls-2" d="M169.47,121.78a1.91,1.91,0,0,1-.88,1.46,4.54,4.54,0,0,1-1.56.92,5.7,5.7,0,0,1-1.94.34,3.21,3.21,0,0,1-2.15-.71,2.28,2.28,0,0,1-.85-1.82,2.34,2.34,0,0,1,1.1-2,4.74,4.74,0,0,1,2.79-.77,9.91,9.91,0,0,1,1.75.17,10.06,10.06,0,0,1,1.75.48Zm6.44,1.13a2.13,2.13,0,0,1-.29-1.29v-5.19a7.86,7.86,0,0,0-2.5-6.31Q170.62,108,166,108a15.67,15.67,0,0,0-4.58.65,16,16,0,0,0-4.15,2l1.8,3.85a15.13,15.13,0,0,1,3.16-1.67,8.93,8.93,0,0,1,3.15-.56q4,0,4,3.5v.92a8,8,0,0,0-2.07-.64,14,14,0,0,0-2.46-.21,11.57,11.57,0,0,0-3.5.5,8.78,8.78,0,0,0-2.73,1.39,6.19,6.19,0,0,0-1.79,2.12,5.87,5.87,0,0,0-.64,2.73,6.11,6.11,0,0,0,.54,2.56,6.4,6.4,0,0,0,3.67,3.38,7.93,7.93,0,0,0,2.79.48,8.82,8.82,0,0,0,3.94-.92,9.24,9.24,0,0,0,3.21-2.65l.12.92a3,3,0,0,0,1.11,1.9,4.27,4.27,0,0,0,2.61.67c.36,0,.76,0,1.19-.06a9.83,9.83,0,0,0,1.46-.25v-5.19a1.42,1.42,0,0,1-1-.44"/><path class="cls-2" d="M199.33,113a7.15,7.15,0,0,0-.87-2.48,5.09,5.09,0,0,0-1.84-1.84,6.12,6.12,0,0,0-3.15-.71,10.7,10.7,0,0,0-4.69,1,7.32,7.32,0,0,0-3.15,2.79v-3.39h-5.54v20.19h6.16V117a5.28,5.28,0,0,1,.75-1.42,5.67,5.67,0,0,1,1.09-1.14,5.42,5.42,0,0,1,1.27-.75,3.44,3.44,0,0,1,1.31-.27,2.46,2.46,0,0,1,2,.9,4.55,4.55,0,0,1,.75,2.9v11.34h6.15V115.63a16.68,16.68,0,0,0-.21-2.61"/><path class="cls-2" d="M217.84,120.93a5.4,5.4,0,0,1-1.73,2,4.31,4.31,0,0,1-2.54.79,4.61,4.61,0,0,1-3.42-1.46,5,5,0,0,1-1-1.64,5.57,5.57,0,0,1-.37-2.06,6.34,6.34,0,0,1,.33-2,5.65,5.65,0,0,1,.92-1.73,4.57,4.57,0,0,1,1.42-1.19,3.85,3.85,0,0,1,1.83-.44,4.44,4.44,0,0,1,2.69.94,5.55,5.55,0,0,1,1.88,2.56Zm.81-12.57v3.31A7.57,7.57,0,0,0,215.9,109a8,8,0,0,0-4-1,8.85,8.85,0,0,0-6.77,3,10.26,10.26,0,0,0-1.93,3.31,12.12,12.12,0,0,0-.69,4.14,11.72,11.72,0,0,0,.65,4,10.16,10.16,0,0,0,1.83,3.23,8.61,8.61,0,0,0,2.82,2.19,8.58,8.58,0,0,0,7.38-.06,6,6,0,0,0,2.65-2.56v2a6.14,6.14,0,0,1-.44,2.44,4.35,4.35,0,0,1-1.21,1.65,5.11,5.11,0,0,1-1.77.94,7.2,7.2,0,0,1-2.12.31,8.48,8.48,0,0,1-3.54-.75,8.15,8.15,0,0,1-2.77-2l-3.31,3.34a11.81,11.81,0,0,0,4,3,13.54,13.54,0,0,0,5.58,1,15.53,15.53,0,0,0,4.73-.69,10.89,10.89,0,0,0,3.69-2,9.1,9.1,0,0,0,2.4-3.13,9.71,9.71,0,0,0,.86-4.15V108.36Z"/><path class="cls-2" d="M233.46,116.55a4.67,4.67,0,0,1,1.37-3,4.1,4.1,0,0,1,3-1.13,4.18,4.18,0,0,1,3,1.11,4.6,4.6,0,0,1,1.38,3Zm14.48-2.12a9.67,9.67,0,0,0-2.1-3.33,10.15,10.15,0,0,0-3.38-2.29,11.67,11.67,0,0,0-4.58-.84,11.81,11.81,0,0,0-4.6.84,9.79,9.79,0,0,0-5.52,5.71,11.69,11.69,0,0,0-.73,4.14,10.63,10.63,0,0,0,.73,3.9,9.64,9.64,0,0,0,2.14,3.29,10.15,10.15,0,0,0,3.42,2.25,12,12,0,0,0,4.56.83,11.44,11.44,0,0,0,6-1.5,9.42,9.42,0,0,0,3.69-3.88l-5.23-1.46a3.36,3.36,0,0,1-1.67,1.77,5.57,5.57,0,0,1-2.6.65,4.71,4.71,0,0,1-3-1.06,4.14,4.14,0,0,1-1.48-3.1h14.92a7.06,7.06,0,0,0,.11-.9c0-.35,0-.7,0-1.06a11.13,11.13,0,0,0-.71-4"/><path class="cls-2" d="M263.37,121.78a1.91,1.91,0,0,1-.88,1.46,4.51,4.51,0,0,1-1.56.92,5.68,5.68,0,0,1-1.94.34,3.21,3.21,0,0,1-2.15-.71A2.28,2.28,0,0,1,256,122a2.35,2.35,0,0,1,1.1-2,4.74,4.74,0,0,1,2.79-.77,10,10,0,0,1,1.75.17,10.11,10.11,0,0,1,1.75.48Zm6.44,1.13a2.13,2.13,0,0,1-.29-1.29v-5.19a7.87,7.87,0,0,0-2.5-6.31Q264.52,108,260,108a15.62,15.62,0,0,0-4.58.65,16,16,0,0,0-4.15,2l1.81,3.85a15.1,15.1,0,0,1,3.15-1.67,9,9,0,0,1,3.15-.56q4,0,4,3.5v.92a8,8,0,0,0-2.07-.64,14,14,0,0,0-2.46-.21,11.58,11.58,0,0,0-3.5.5,8.82,8.82,0,0,0-2.73,1.39,6.24,6.24,0,0,0-1.79,2.12,5.87,5.87,0,0,0-.64,2.73,6.11,6.11,0,0,0,.54,2.56,6.51,6.51,0,0,0,1.46,2,6.58,6.58,0,0,0,2.21,1.35,7.94,7.94,0,0,0,2.79.48,8.81,8.81,0,0,0,3.94-.92,9.29,9.29,0,0,0,3.21-2.65l.11.92a3,3,0,0,0,1.11,1.9,4.28,4.28,0,0,0,2.62.67c.36,0,.75,0,1.19-.06a9.87,9.87,0,0,0,1.46-.25v-5.19a1.42,1.42,0,0,1-1-.44"/><path class="cls-2" d="M285.72,122.59a9.07,9.07,0,0,1-1.27.5,4.75,4.75,0,0,1-1.43.23,1.64,1.64,0,0,1-1.77-1.88V113h4.11v-4.66h-4.11v-6.42H275.1v6.42h-2.58V113h2.58v10.54a6.32,6.32,0,0,0,.44,2.5,4.24,4.24,0,0,0,1.21,1.67,4.75,4.75,0,0,0,1.79.92,7.82,7.82,0,0,0,2.17.29,12,12,0,0,0,3.29-.46,24.33,24.33,0,0,0,2.9-1Z"/><path class="cls-3" d="M138.1,30.8l0,0-.1.07.26-.15-.11.06m15.27,19.6,0,0,0,0Z"/><path class="cls-2" d="M155.63,76.42a36.6,36.6,0,0,1-16.11,1.48,35.7,35.7,0,0,1-15.11-5.58,36.62,36.62,0,0,1-10.91-11l9.16-3.4a27,27,0,0,0,28.6,9.93c1.46,2.85,2.89,5.7,4.37,8.58"/><path class="cls-2" d="M127.28,20.76a26.88,26.88,0,0,0-10,21L108.52,49a35.88,35.88,0,0,1-.67-9.25,36.1,36.1,0,0,1,8-20.85,37.11,37.11,0,0,1,8-7.37l3.1,8.43Z"/><path class="cls-3" d="M146.81,54.05h0l.39-.08.25-.07-.67.16m-12.3-20.22-.28.36,0,.07-.15.21.15-.21,0-.06.28-.36c.21-.26.43-.51.67-.76-.24.24-.46.5-.68.76"/><path class="cls-1" d="M153.38,50.4l0,0-.05.05a12.2,12.2,0,0,1-1.09,1l-.39.31,0,0-.43.31h0l-.12.08-.33.21,0,0-.22.13-.07,0-.29.17-.6.31c-.27.13-.54.25-.82.36l-.43.16c-.32.11-.65.22-1,.3.3-.08.6-.17.9-.27-.38.13-.77.24-1.15.34l-.39.08-.53.1h-.17a7.88,7.88,0,0,1-.86.1l-.47,0h-.55l-.59,0h0l-.59,0c-.18,0-.36,0-.53-.07h-.05a12.59,12.59,0,0,1-10.21-8.67v0c-.09-.29-.17-.58-.24-.87s-.1-.49-.15-.74c0-.07,0-.14,0-.21a12.61,12.61,0,0,1,0-3.83c0-.07,0-.14,0-.21,0-.25.09-.5.15-.74s.15-.59.24-.87v0c0-.16.1-.32.16-.48s.13-.34.19-.5l.17-.39.13-.29,0,0,.18-.37a10.72,10.72,0,0,1,.66-1.11l0,0a3.25,3.25,0,0,1,.19-.28l0,0,.15-.21,0-.07.28-.36c.21-.26.44-.52.68-.76h0l.3-.3,0,0h0l.32-.3h0c.12-.11.23-.21.35-.31l.34-.27.17-.14.17-.12h0l0,0c.2-.15.42-.29.63-.43l0,0h0l.3-.18h0l.05,0,.05,0,0,0,.11-.06h0l.54-.28.07,0,.59-.27.57-.22.69-.23.32-.09.66-.16h0l.32-.06.34-.06.34,0c.26,0,.53-.06.79-.08l.8,0a12.56,12.56,0,0,1,9.11,21.21m-9.15-28.93a20.29,20.29,0,0,0-2.44.15h0c-.48.07-1,.15-1.43.25v0L122.6.49a1.34,1.34,0,0,0-2.29,1.33l3.58,9.67,3.1,8.43.29.85c0,.13.08.23.11.35.69,2.12,1.37,4.25,2.06,6.39a.6.6,0,0,1,0,.34.56.56,0,0,1-.16.25,20,20,0,0,0-5.26,12.59,18.59,18.59,0,0,0,.1,3.43s0,0,0,0h0l-1.39,1.15-3.2,2.65L101.41,63a1.35,1.35,0,0,0,1.31,2.31l10.78-4,9.16-3.4,5-1.81c.58-.21,1.18-.38,1.77-.58l0,0a20.11,20.11,0,0,0,10.24,6l.58.13.57.11h0a20.26,20.26,0,1,0,3.39-40.24"/><path class="cls-2" d="M153.36,50.42l-.05.05a12.19,12.19,0,0,1-1.09,1l-.39.31,0,0-.43.31h0l-.12.08-.32.21,0,0-.22.13-.07,0-.29.17-.6.31c-.27.13-.54.25-.82.36l-.43.16c-.32.11-.65.21-1,.3s-.43.11-.64.15h0l-.5.09h-.08l-.45.06h0l-.46,0-.47,0h-.55l-.59,0h0a12.61,12.61,0,0,1-8.37-3.78l0,0a8.85,8.85,0,0,1-.61-.67c-.16-.19-.32-.39-.46-.59a1.74,1.74,0,0,1-.12-.18,12,12,0,0,1-1-1.64,12.42,12.42,0,0,1-.73-1.78c0-.07,0-.14-.06-.2-.08-.24-.15-.48-.2-.73s-.14-.59-.18-.89v0c0-.17-.05-.33-.07-.5a12.63,12.63,0,0,1,1.5-7.69l.2-.35.28-.44,0,0,.19-.28,0,0,.15-.21,0-.07.28-.36c.21-.26.44-.52.68-.76h0l.3-.3,0,0h0l.32-.3h0l.35-.31.34-.27.17-.14.17-.12h0l0,0c.2-.15.42-.29.63-.43l0,0h0l.3-.18h0l.05,0,.05,0,0,0,.11-.06h0l.54-.28.06,0,.59-.27.57-.22.69-.23.32-.09.66-.16h0l.32-.06.34-.06.34,0a12.67,12.67,0,0,0,10.69,21.13"/><path class="cls-1" d="M180.33,8.15,158,15.59a1,1,0,0,0-.12,1.92L167,21.85a1,1,0,0,0,1.14-.16L181.35,9.91a1,1,0,0,0-1-1.76"/><path class="cls-2" d="M183,11.11,173,32.44a1,1,0,0,1-1.92-.11L167.8,22.8a1,1,0,0,1,.29-1.11L181.36,9.9A1,1,0,0,1,183,11.11"/><path class="cls-1" d="M185.44,62.69,176,47.06a.81.81,0,0,0-1.48.24L172.8,54.9a.8.8,0,0,0,.32.83l11.17,8a.81.81,0,0,0,1.16-1.07"/><path class="cls-2" d="M183.65,65.21l-17.85-4a.8.8,0,0,1-.25-1.47l6.67-4.08a.8.8,0,0,1,.89,0l11.18,8a.8.8,0,0,1-.64,1.44"/></g></g></svg>