<svg xmlns="http://www.w3.org/2000/svg" viewBox="0 0 157.48 135.16"><defs><style>.cls-1{fill:#fff;}</style></defs><title>06_credibilite-disponibilite</title><g id="Calque_2" data-name="Calque 2"><g id="Calque_6" data-name="Calque 6"><path class="cls-1" d="M3.37,135.16a3,3,0,0,1-2-.73L1,134.12a3,3,0,0,1-.67-3.75l1-1.88c.73-1.3,1.45-2.6,2.19-3.9L5,122.16c1.43-2.53,2.91-5.15,4.46-7.71l0-.07C1.19,100.76.57,86.7,7.55,72.6A41.46,41.46,0,0,1,48.16,50,42.08,42.08,0,0,1,86.29,84.7a41.38,41.38,0,0,1-10,35,41.93,41.93,0,0,1-54.78,7c-4.17,2-8.43,4.06-12.55,6l-4.33,2.06A3,3,0,0,1,3.37,135.16Zm18.29-14.48a5.41,5.41,0,0,1,3.11,1A35,35,0,0,0,43,127.85,36,36,0,0,0,80.39,85.77c-3-16.6-15.88-28.29-32.75-29.78-14.21-1.26-28.48,6.67-34.71,19.26-6,12.15-5.47,24.27,1.63,36a5.51,5.51,0,0,1,.1,6.19c-1.52,2.5-3,5.11-4.42,7.64l-.36.64c3-1.44,6.09-2.91,9.1-4.38A6.13,6.13,0,0,1,21.66,120.68Zm132.82-3.33a3,3,0,0,1-1.15-.23l-.79-.32c-.51-.2-.93-.37-1.33-.56l-4.14-2c-6.26-3-12.74-6.09-19.1-9.18a57.06,57.06,0,0,1-39.21,9.74,10.48,10.48,0,0,1-1.53-.3l-.59-.14a3,3,0,0,1-2.1-4.12A45,45,0,0,0,87,80.09a3,3,0,0,1,2.49-3.65l.44-.07a7.38,7.38,0,0,1,1.37-.15l10.32,0q9.81,0,19.62,0h.15c1.72,0,2-.09,2.2-.44.66-1,.48-1.36.34-1.67-.42-.9-.79-.9-1.08-.91-3,0-5.9,0-8.84,0l-7.7-.07c-4.08,0-8.17-.08-12.25-.1-1.77,0-3.66,0-6.13.18a5.2,5.2,0,0,1-5-2.76C82,69,81,67.48,80,65.9L78.59,63.8a3,3,0,0,1,2.51-4.64H94q14,0,28,0a2.12,2.12,0,0,0,1.91-.85,1.46,1.46,0,0,0-.16-1.48c-.19-.32-.46-.76-1.88-.76H99q-13.32,0-26.64,0A8.16,8.16,0,0,1,68.24,55a43.68,43.68,0,0,0-24.45-6.7,7.91,7.91,0,0,1-1.15-.07l-.57-.06a3,3,0,0,1-2.62-3.85c.2-.66.38-1.3.56-1.93.38-1.36.78-2.77,1.28-4.15a57.2,57.2,0,0,1,38-35.8,56.63,56.63,0,0,1,50.87,9.34c15.51,11.83,23.18,27.9,22.81,47.76A54.6,54.6,0,0,1,143.68,89l-.07.11.07.12c3.29,5.65,6.57,11.43,9.74,17l2.73,4.81c.2.34.38.7.62,1.18l.38.76a3,3,0,0,1-2.67,4.37Zm-63-8.32a51,51,0,0,0,33.12-8.92,5.51,5.51,0,0,1,5.94-.46c5.59,2.72,11.28,5.45,16.84,8.1-2.91-5.12-5.9-10.38-8.89-15.53a5.75,5.75,0,0,1,.18-6.56A48.72,48.72,0,0,0,147,59.38c.33-17.84-6.54-32.27-20.45-42.87A50.7,50.7,0,0,0,81,8.15,51.25,51.25,0,0,0,46.93,40.23c-.23.65-.45,1.32-.65,2a49,49,0,0,1,15.88,3.07A7.34,7.34,0,0,1,60.62,42a7.64,7.64,0,0,1-.15-1.49,7.41,7.41,0,0,1,1.6-4.61A7.89,7.89,0,0,1,68,33c1.45,0,2.89,0,4.28,0h48c.79,0,1.58,0,2.37,0a7.56,7.56,0,0,1,7.38,7.41v.1a7.56,7.56,0,0,1-7.47,7.56c-2.48.06-5,.06-7.39,0H68.38q1.52.81,3,1.73a2.49,2.49,0,0,0,1,.17q13.31,0,26.62,0h22.91a7.66,7.66,0,0,1,7,3.66,7.39,7.39,0,0,1,.24,7.52,8,8,0,0,1-7.12,3.91q-14,0-28,0H86.68c.44.68.87,1.36,1.28,2.05,2.46-.13,4.35-.18,6.15-.17,4.09,0,8.19.06,12.29.1l7.69.07c3,0,5.92,0,8.88,0a7,7,0,0,1,6.45,4.39,7.37,7.37,0,0,1-.8,7.52c-2.06,3.08-5.22,3.11-7.14,3.11h-.19q-9.83,0-19.64,0l-8,0a49.78,49.78,0,0,1,.78,13.62A52.54,52.54,0,0,1,91.48,109Zm36.71-4.09Zm15.34-16Zm-31-46.78h2.75c2.37,0,4.83,0,7.21,0a1.54,1.54,0,0,0,1.63-1.57v0A1.58,1.58,0,0,0,122.39,39c-.68,0-1.35,0-2,0H72.26c-1.39,0-2.71,0-4,0a1.89,1.89,0,0,0-1.46.65,1.38,1.38,0,0,0-.3.87,1.67,1.67,0,0,0,0,.34c.2,1,1.28,1.26,2.15,1.26h43.83Z"/></g></g></svg>