<svg xmlns="http://www.w3.org/2000/svg" xmlns:xlink="http://www.w3.org/1999/xlink" viewBox="0 0 410 65"><defs><style>.cls-1{fill:none;}.cls-2{clip-path:url(#clip-path);}.cls-3{fill:#f8ac3a;}</style><clipPath id="clip-path"><rect class="cls-1" y="-0.36" width="410.12" height="65.36"/></clipPath></defs><title>header-soulignement-etsi</title><g id="header-soulignement-etsi"><g class="cls-2"><path class="cls-3" d="M373.69,8.12c.15.89.63.24,1.06-1.42v.19c.15,2,.71-.77.79-.25.28,1.86.61,1.7,1.26.21.17-.39.56,2,1,2.35l.29.29c.46-.59,1.09-.85,1.39-.58s1.52,1.53,2,2.14l.63-1.74c.08-.21.24-.23.31-.1.47.89.87,2.48,1.41,2.56l.44.06c.56-1.33.75-.28.44,2.34l1.14-3,1-2.49c.58,1.26,1.49,1.76,2,1.11s1.61,2.8,2.13,2.68,2,2.42,2.42,2.94l.24-2.82c0-.16.37-.65.41-.47l.46,2c.84-.52,1.69-.07,1.88,1s1.42-1.05,1.62-.51,1.1,1.44,1.5.69,2.25-.32,3.28,0l.74,1.85c.24.6,1-1.09,1.46-1.26l.35-.12c.34.52.8.58,1,.13V16l.54,3.17c1.15-1.55,2.06-1.12,2,1s.27,7,.49,6.92a.54.54,0,0,1,.73.58,13.26,13.26,0,0,1-.87,3.47c-.4.78-1.07,7.31-1.92,10.67L407.1,46,407,47c-.16,1.52-.37,2.37-.47,1.9s-.45-.53-.68.5v0c.75,1.79-.61,4.55-.36,6.54a4.11,4.11,0,0,1-.11,1.12l-1,2.78c-.24,2.16-1.21,4.46-2.16,5.12l-.52-2.84-.08-.47c-.6.93-1.51,1.71-2,1.73s-2.11-.74-2.62-.33h-.85a3.73,3.73,0,0,0-1.1-.84c-.19,0-.91-.31-1.18,0a5.93,5.93,0,0,1-3,.27c-1.15-.14-4.74-.58-5.37-1s-2.66,2-2.81,2l-.15,0-.9.22c-.87-.83-2-1.11-2.47-.62s-1.75-1.27-2.13-1.08-1.72.52-2.11,0-2.61.33-3.64.36l-.94-.09L367.55,62c-.58-.06-1.57.7-1.66-.34-.2-2.43-1.09.87-1.21-1.27a.37.37,0,0,0-.57-.34c-.47.25-1.24,1.56-1.36.92l-.42-2.22c-.61,1.49-1.33,2.22-1.59,1.61s-.93-1-1.25-1.56-1.67,1.36-1.92.51-1.66,1.79-2,2.07-1.5-2.45-2.12-3.07l-.92,2-.65,1.4a8.36,8.36,0,0,1-2-2.23c-.17-.45-1.07-1.12-1.54-1.56s-2.8,3-3.85,4.45l-.24-4.15a.31.31,0,0,0-.61-.08c-.94,2.48-1.32-1.88-2.26.41-.3.73-.75,1-1.06.79-.58-.34-1.05-1.53-1.64-1.62l-.52-.08c-.63.69-1.4,1.08-1.71.86s-1.46-.43-1.68-1.05-1.5,1.51-1.91,2.1-1.11-2.1-1.52-1.49-1.9,0-2.47-.55l-.56-.06c-.55-.06-1.18.68-1.72.58l-1-.18a8.4,8.4,0,0,0-3.92-1.31l-1,1.09-.9,1a4.47,4.47,0,0,0-3.09-1.46l-.87-.08-2.61-.25-2.61-.25-2.61-.25a14.16,14.16,0,0,0-2.62-.21l-.55,0c-.65.54-1.27,1-1.39,1.12s-.88-.49-1.49-1.06-4.42.33-4.65-.1-1-.38-1.23-.57-1.73,1-2.43,1l-.65-.06-2-.19-2.18-.21-2-.19-2-.19-2-.19-.65-.06c-.72,0-2.87,0-4.78.11s-7.63,1.37-8.46,2.46l-.14-.75-.36-1.9c-.48,1.13-1.21,1-1.63-.25l-.86,1.9c-.46,1-1.14.08-1.72,0l-.94-.09a3.91,3.91,0,0,0-2.76.5c-.49.44-1.88-1.55-2.22-2.86l-.52,1.93-.76,2.8c-.23-1.63-.87-2.73-1.43-2.44a6.16,6.16,0,0,1-2.74.46c-.4-.17-2.13.85-2.83.28l-.66-.3-.7-.31a4.26,4.26,0,0,0-2.33.9c-.47.45-1.73.66-2.5,1.8l-.65-1.19c-.54-1-1.41-.33-2.14-.4l-.73-.07A3,3,0,0,0,238,59.36l-.37,0-.37,0c-.33-.81-2-1.44-3.78-1.39s-6.73,1.78-7.18,3.43L226,58.87c-.07-.56-.9.77-1.36.94l-.45.17c-.47-.08-1.1-1.15-1.4-2.38s-2.1,1.8-2.58,1.77-2.13-.18-2.61-.26a6,6,0,0,0-2.84.77l-.5,0c-.47,0-.85-1.1-1.32-1l-.92.11a16.11,16.11,0,0,0-3.34-.45c-.87,0-3.58,1.44-4.07.91l-.47-.16-.68-.23a1.94,1.94,0,0,1-2.09-.21c-.35-.44-1.9,1.9-2.45,2.12s-2.42-.28-3-.29a22.77,22.77,0,0,0-4.47,0,47.36,47.36,0,0,1-7,.39c-1.28-.06-4.89-.17-5.21.42s-1.35-1.08-1.68-1.32-1.8,1.8-2.42,1.91-3.05-.36-4.06-.38-4.4-.47-5.41-.07-5.17.4-7.08.21l-1.74-.17L155,61.46c-2-.21-4.06-.37-4.6-.36l-.54,1.48c-.51,1.4-.39-3.24-1.19-.41l-.16.57A1,1,0,0,0,147,63c-.42.56-1.57-1.74-2.46-1l-.75-.06-5.67-.44c-6.23-.59-11.91-1.73-12.64-2.53l-.85,2.46-.13.38-1.22-1c-.43-.34-1.76-.37-2,.18s-.79-.82-1-.49a1.59,1.59,0,0,1-1.6.28l-.39-.26-2,.34h-.43c-.48,0-.89-.61-.92-1.3s-1.05.61-1.47.63l-.37-.23c-.18-.11-.33-1.12-.45-.92l-1.78,3a16,16,0,0,0-6.18-2.13l-1.6-.15-3-.29-.94-.09a4.72,4.72,0,0,1-2.72-.7c-.46-.41-2.55,2.79-3.42,3.86l-.18-3.44c0-.41-.41-.65-.57-.33l-.91,1.86a2.78,2.78,0,0,0-2.93-1l-.78.2a7.49,7.49,0,0,1-2.62-.18l-2.4-.23-2.61-.25L77.55,59l-2.61-.25-.8-.08a5.4,5.4,0,0,1-2.72-1c-.62-.52-2.73,1.67-2.93,1.25a6.56,6.56,0,0,0-2.64-1.37c-1-.33-4.17,1.35-4.53,1.24s-1.48-.29-1.67-1-1.57,1-1.93,1.18-1.33-1.55-1.82-1.09-2.05.68-2.49.89-1.64-1.56-2-1.29a5.64,5.64,0,0,1-2.66.34,21.11,21.11,0,0,1-5.36-1.5L41.94,58.8l-.26.46a3,3,0,0,0-1.87-.52l-.35-1.08-.57-1.77c-.66,1.28-1.57,2-2,1.59l-.61.67-.65.72a2.29,2.29,0,0,0-1.93-.36c-.35.22-2.45-2.37-4.39-3.13l-2,3.51-.72,1.25a3.74,3.74,0,0,0-1.9-1.26,16.12,16.12,0,0,0-2.4,0c-.44.1-1.37-.92-1.58-.65s-1.21.23-1.77.13a17.41,17.41,0,0,1-2.83-.67c-.44-.23-1.86.15-2.21-.39S12.46,59,12.39,58.52s-.49-1.61-.69-1-1.21,1.59-1.69,1.6l-.44,0c-.8-.08-1.6-.17-2.4-.23l-.44,0a11.16,11.16,0,0,0-.27-2.46A2.21,2.21,0,0,0,6,57.62c-.09.72-1.22.59-1.93,0l-.69-.09-.53-.07c-.62-.13-1-.36-.89-.51a5.45,5.45,0,0,0,.4-2.44,43,43,0,0,1,.36-5.9c.2-1.18.61-4.8.35-4.82s-.88.31-.87.78a6.58,6.58,0,0,1-.24,1.93c-.15.16-.46-.76-.61-1.65S.21,42.11.08,41.12s-.16-5,.33-5.43.5,4.83.7,5.88l.37,0c.13,0,.38-.81.51-1.4l.07-.33c0-.61-.15-1-.28-.8s-.49.1-.42-.64S2,35.29,2.53,34.83a9.34,9.34,0,0,0,2.09-3.56c.1-1,.55-4.08.64-3s.68,3,1.12,1.68l.23-1.25c.3-1.66.35-1.28.57-.47l.15.57a17.87,17.87,0,0,0,1.9.37c.73.1,2.74-2.44,2.61-2.75s.6-2.14,1.91-3.38l1.07,2.31a2.51,2.51,0,0,0,.67,1l.18.11A3.94,3.94,0,0,0,16.15,24c-.09-1-.14-3.88.12-4.15l.18.13c.21.15.39,1.23.53,1l.88-1.55a15.76,15.76,0,0,0,.78,3.78.61.61,0,0,0,.8-.72,9.77,9.77,0,0,1,.72-3.67,1.89,1.89,0,0,1,2.07-1.21c.24.15,1.27,0,1.61.22s1.46,0,1.9.66,1.86-3.44,2.12-3.28a11.39,11.39,0,0,1,.56,2.92c0,.3.19.67.32.16l0-.47.45-4.5a11.44,11.44,0,0,1,2.21,3.44l.83-1.45L33,14a5.83,5.83,0,0,0,2.36-1.7c.41-.6,1,2.17,1.18,1.92l.09-.4.17-.74c.21-.24.7,0,1.09.58l.4,0,.59,0c.68-.55,1.46-1.17,1.74-1.36S42,12,42.54,11.79s2.25-.49,2.73-.1,2.37-1.82,2.9-2,1.88,1.12,2.18.45,1.1.81,1.39.13,1,.77,1.14.25.81-1.43.92-.82.65,1.87,1,1.52a2.37,2.37,0,0,1,1.94-.34c.44.22,1.87-.31,2.2-.14s1.46-.32,1.76-.74a10.79,10.79,0,0,1,1.88-1.26c.51-.37,1.62,2.68,1.87,3.15s.95-3,1.14-3.3l.07.19.55,1.45c.79-1,1.51-1.87,1.6-2l0,.07c.33.55.64,1.85,1,1.55l.41-.37c.29.33.73.19,1-.33s1.12.06,1.47.76l.36.36.24.25a5.15,5.15,0,0,1,1.4-.62A2.25,2.25,0,0,1,76,11.43l.86-2.13c.49-1.21,1,.92,1.72-1.06.06-.19.32.82.51,1.08L80,10.46a5.41,5.41,0,0,0,2.61-2.15c.31-.72,1.06.68,1.34-.16s.83,1.44.94,1.65.67.44,1.06.88,2.18-1.2,3-1.46l.36,2.24.05.33c.22.23.62-.28.91-1.14A3.21,3.21,0,0,1,91.43,9c.35-.18,1.88.53,2.67,1.34L95,7.66c.24-.67.72.4,1.07-.09l.79-1.11a9.17,9.17,0,0,0,1.25,2.65c.23.15,1.19-.6,1.46-.07l.23.65c.3.84.85-3.08,1.09-.47,0,.25.64-1,.92-.94h.41c.39.51.83,1.11,1,1.34s1.14-.22,1.71,0,2.33-2.21,2.45-1.89a28.8,28.8,0,0,1,1,3.43l.65-2.49,1-3.79a21.57,21.57,0,0,0,2.19,4c.46.52,2.34-1.21,2.8-1.85s1.54-.57,2-1l.19.72.21.8c.13,1.23.58,1.28,1,.11l.35-.93.06-.16c.18-.22.43.1.56.71s.72,1.79,1,1.15,1.91-.47,2.2-.06,1.08.25,1.36.61,1.07-.37,1.32-.26a2.13,2.13,0,0,0,1.66-1.06c.41-.72,1.61,1.69,2.24,2.19l.66-2.36c.07-.25.29-.08.42,0l.83.61a1.85,1.85,0,0,0,2.67-.6c.55-.95,2,1.93,2.55,1.92l.51-.43.47-.4a3.78,3.78,0,0,0,1.82-.81c.52-.42,1.51,2.31,1.66,2.52l.13-.18,1.49-2a19.7,19.7,0,0,0,3.31.81,3,3,0,0,1,2.13,2.28L148.61,8,149,6.48a7.75,7.75,0,0,1,1.17,3c.09.86,1.24-1.24,1.51-1.47s.91,1.59,1.14,1.76l.15-.38.8-2a9.36,9.36,0,0,0,1.57,2.9c.39.33,1.7-.83,2-1.4s1.23.76,1.4.58a8.78,8.78,0,0,0,1.06-1.95c.23-.68.77.49,1-.31l.4,1,.44,1.07a30.21,30.21,0,0,0,2.59-1.75c.56-.45,1.79,1,2,.82s1.14.42,1.51,1l.38.18.14.07c.32-1,.55-1,.51,0s.15,3.42.54,2.69S171,9.49,171.29,9s2.13-.39,2.43-.08,1.53-1.62,1.94-1.76a2.46,2.46,0,0,1,2,.84c.3.57,2.12,0,3,0l.69-1.29L182,5.59c.22,1,.49,2.28.59,2.82s1.56-.34,2.34-1.11a2.86,2.86,0,0,1,3.14.1,1.56,1.56,0,0,0,1.76.3,4.11,4.11,0,0,1,2.3-.42c.4.19,1.66-1,1.93-1.42s.76,1.3.83,1.42l.06-.07c.43-.48.88-1.32,1.28-1.42s.62,1.09,1,.9l.53-.29a5.37,5.37,0,0,0,1.76-.82c.39-.31,1.06,1.47,1.21.77l.16-.51.12-.37c.17-.19.72.08,1.23.59s3.07-.53,3.45-.07l.27.67.34.84c.43-.85,1.05-1,1.38-.44l.32-.35.56-.62c.62-1.28,1.32-1.95,1.56-1.49s1.32.4,1.72-.06,1.11-.26,1.43-.46,1.08.49,1.31.85,1-.27,1.1.26.6,1.51,1.1,1,3.11,0,4,0,2.82-2,3.2-2.33l.41.51.78,1a25.72,25.72,0,0,1,2.61.08l.45-.63.59-.81a2.49,2.49,0,0,1,1.75.71c.29.39,1.5-.22,1.76,0l.24.26.23.25c.24.21,1.16.1,2-.24l.8-.44.67-.37c.74-.32,1.4-.58,1.47-.59a10.87,10.87,0,0,1,.81.81c.36.34,1.57.78,1.85,1.24s1,2,1.13,1.23.82-1.57,1.06-1.58,1.27-1.7,1.77-1.77,2.45,0,3.24-.11A8.1,8.1,0,0,1,251,4.73c.32.32,1.53-1.43,1.73-1.08s.65.35.79.56,1.34-.54,2.35-1.39l.82.47.6.35c.62-1,1.46-1.16,1.88-.42l.44.18.45.19c.58-.65,1.25-.32,1.49.73s2.06-2.45,2.89-3l.47,2c0,.17.31-.18.42-.53l.17-.55a5.36,5.36,0,0,1,.8-2c.29-.34,1,1.33,1.34,1.77s1.58.34,1.87.75,1.06-.12,1.32-.25,1.32.59,1.75,1,2.18-1,2.66-.47l.27-.68c.87-2.18.73,1.69,1.19,1.1l.49-.61A8.63,8.63,0,0,1,278.86,0c.39-.27,1.67.53,2,.86a1.78,1.78,0,0,0,2-.14c.38-.46,1.49.62,1.76,1.22s1.56.13,2.26-.37l.57,1.14c.4.79,1.09.75,1.68-1.54l1.48-.81c1.23,2.3,2.78,2,4.33.72.6-.5.76,3.1,1.63-.22.27-1,1.13-.41,1.68-.2l.31.12c.27.7.65,1.07.83.82a13.79,13.79,0,0,0,1.07-1.8c.4-.82,1,2.25,1.31,2.12S302.89.45,303.05.32s.68,1.4.92,2.3l.3,0c.3,0,.7-1,1.05-1.37l.58-.57c.47.85,1,1.71,1.11,1.92s.61-.4.85-.84.82.72,1,.57L309,2c.22-.46.49-1.64.62-1.57.36.17.62,1.26,1,1.21s1-1.15,1.49-1.34l.43-.16c.41.42,1.07.28,1.48-.32L314.28,1l.16.77c.38.15,1.13.51,1.67.8s2.38-1.09,2.68-.34,2.44-.09,3.63,1.21l1.42-2c.42-.59,1-.55,1.28.15l.48,1.2a13.71,13.71,0,0,0,1.9-2.64l.3,0c.3,0,.51,1.05.74,1.71l.13.38c.11.51,1,1.31,2.05,1.77s4-3,4.09-2.83.12.81.18,1.12.92,0,1.43-.26A4.81,4.81,0,0,1,339,1.68a12.82,12.82,0,0,1,2,3.15c.29.74,1.63-.88,1.83,0s1.8-2,2.49-3.09l.43,2.49.19,1.08a6.19,6.19,0,0,1,3.22-1.66l.71.23.74.24c.73.86,1.88.42,2.54-1l.48,2.33c.37,1.8,1.48-3.13,2-.64.41,2.08,1,1.71,1.7-.28,0-.13.16-.09.21,0l.41.87a5,5,0,0,1,1.28,1.13c.19.29,1.31-1.18,1.82-1.61l.39.12.82.24c.92,0,2.46,0,3.42-.07l.86.21.54.13a15.37,15.37,0,0,0,1.47,1.7c.28.24,1.11-.69,1.38-1s.88,1.24,1.07,1.4l.06-.22.74-3.05c.36,1.72,1.77,2.74,1.93,3.63"/></g></g></svg>