<svg xmlns="http://www.w3.org/2000/svg" viewBox="0 0 503.85 44.34"><defs><style>.cls-1{fill:#f8ac3a;}</style></defs><title>06_credibilite-confiance</title><g id="Calque_2" data-name="Calque 2"><g id="Calque_7" data-name="Calque 7"><path class="cls-1" d="M457,3.63c.28.53.8.13,1.16-.89l0,.12c.39,1.22.79-.49.95-.17.54,1.12.92,1,1.57.1.17-.24.89,1.17,1.42,1.41l.39.17A2,2,0,0,1,464.16,4c.4.16,2,.89,2.74,1.25l.6-1.07a.26.26,0,0,1,.37-.07c.67.53,1.32,1.49,2,1.52l.55,0c.55-.83.9-.19.78,1.41l1.1-1.84.92-1.54a2.39,2.39,0,0,0,2.61.62c.59-.41,2.27,1.66,2.9,1.58s2.66,1.42,3.28,1.73V5.85c0-.1.39-.4.46-.3l.77,1.21a2,2,0,0,1,2.41.57c.34.65,1.64-.68,1.95-.35s1.5.85,1.92.38,2.73-.25,4-.11l1.1,1.11c.36.36,1.09-.69,1.66-.8l.41-.08c.48.31,1,.33,1.26.06l0,0,1,1.92c1.26-1,2.42-.74,2.57.53s1.06,4.28,1.31,4.2.93,0,1,.34a4.43,4.43,0,0,1-.72,2.14c-.42.48-.57,4.47-1.27,6.54l.15,2.6,0,.6c0,.93-.22,1.45-.38,1.17s-.61-.31-.78.32h0c1.1,1.07-.28,2.78.23,4a1.25,1.25,0,0,1,0,.68l-.9,1.72a3.85,3.85,0,0,1-2.14,3.17l-.93-1.71L497,35.5a4.52,4.52,0,0,1-2.3,1.1c-.62,0-2.68-.39-3.26-.14h-1.05a6.57,6.57,0,0,0-1.44-.48,3.46,3.46,0,0,0-1.45,0,14.06,14.06,0,0,1-3.71.25,64.33,64.33,0,0,1-6.72-.48c-.82-.24-3.07,1.27-3.26,1.26l-.18,0-1.09.16a4.47,4.47,0,0,0-3.1-.31c-.55.31-2.28-.73-2.74-.6a5.46,5.46,0,0,1-2.59.07c-.53-.29-3.18.27-4.45.31l-1.17,0L455,36.58c-.72,0-1.86.47-2.07-.16-.49-1.47-1.26.56-1.62-.74-.07-.25-.49-.26-.74-.19-.55.16-1.37,1-1.58.59l-.75-1.34c-.6.92-1.41,1.38-1.8,1a18.12,18.12,0,0,0-1.7-.92c-.46-.32-1.92.87-2.31.36s-1.85,1.13-2.31,1.31-2.1-1.45-2.92-1.81l-.92,1.22-.66.87a10.81,10.81,0,0,1-2.71-1.3,10.23,10.23,0,0,0-2.06-.91c-.63-.26-3.14,1.88-4.29,2.81l-.72-2.52c-.06-.23-.62-.28-.76,0-.9,1.53-1.82-1.11-2.74.31a1.17,1.17,0,0,1-1.22.51c-.74-.19-1.45-.9-2.19-.94l-.64,0a3.27,3.27,0,0,1-2,.57c-.4-.12-1.84-.23-2.17-.6s-1.69,1-2.14,1.33-1.58-1.25-2-.87-2.34,0-3.1-.27l-.7,0c-.68,0-1.38.44-2.06.4l-1.26-.08a19.61,19.61,0,0,0-5-.69l-1.16.69-1,.61a9.55,9.55,0,0,0-4-.81l-1.08,0-3.24-.09-3.24-.08-3.24-.09c-1.08,0-2.16-.13-3.24-.06l-.67,0-1.6.72a7.84,7.84,0,0,1-1.94-.61c-.81-.33-5.41.31-5.73.06s-1.24-.2-1.57-.32-2,.64-2.89.7l-.81,0L360,35.1l-2.7-.07L354.85,35l-2.43-.06L350,34.83l-.81,0c-.89,0-3.53.09-5.88.19s-9.26,1-10.16,1.72l-.25-.45-.64-1.15c-.47.7-1.39.65-2-.11l-.86,1.18c-.47.64-1.4.08-2.12.06l-1.17,0a8.72,8.72,0,0,0-3.34.38c-.55.28-2.47-.89-3-1.68l-.45,1.19-.64,1.73c-.45-1-1.36-1.64-2-1.45a14.25,14.25,0,0,1-3.32.35c-.51-.09-2.54.57-3.46.24l-.85-.17-.89-.17a8.16,8.16,0,0,0-2.77.61c-.53.28-2.06.45-2.9,1.16l-.93-.71c-.77-.58-1.77-.16-2.67-.19l-.9,0a4.79,4.79,0,0,0-2.76.86h-.93c-.49-.49-2.65-.82-4.8-.75s-8.11,1.26-8.49,2.27l-.6-1.49c-.14-.34-1,.49-1.58.61l-.54.11a3.2,3.2,0,0,1-2-1.41c-.5-.74-2.4,1.15-3,1.15s-2.64-.05-3.23-.09a12.88,12.88,0,0,0-3.42.55H266c-.58,0-1.16-.64-1.73-.6l-1.12.09a40.27,40.27,0,0,0-4.15-.19c-1.07,0-4.26,1-4.91.66l-.6-.08-.86-.12A4.56,4.56,0,0,1,250,39c-.47-.26-2.15,1.21-2.79,1.35a35,35,0,0,1-3.76-.1c-.74,0-4-.07-5.51.13s-6.93.42-8.52.42-6,0-6.37.39-1.78-.62-2.2-.76-2,1.14-2.78,1.23-3.8-.14-5-.13a58.3,58.3,0,0,0-6.67.1,67.66,67.66,0,0,1-8.7.31l-2.16-.06-2.25-.06c-2.48-.08-5-.12-5.7-.1l-.51.92c-.48.87-.82-2-1.5-.22l-.14.35a2.1,2.1,0,0,0-1.87.21c-.46.35-2.11-1-3.13-.54h-.92l-7-.12c-7.73-.2-14.85-.74-15.82-1.21l-.79,1.52-.12.23-1.59-.56c-.56-.19-2.21-.18-2.41.16s-1.05-.48-1.29-.27a3.46,3.46,0,0,1-1.94.21l-.51-.15-2.46.26H145a1.31,1.31,0,0,1-1.26-.77c-.11-.42-1.23.4-1.75.42l-.48-.13c-.23-.06-.52-.68-.65-.55l-1.89,1.84a37.29,37.29,0,0,0-7.83-1.14l-2-.05-3.78-.1-1.17,0a11.23,11.23,0,0,1-3.42-.35c-.61-.24-2.85,1.77-3.82,2.44L116.36,42c-.07-.25-.57-.38-.73-.18L114.7,43a6.19,6.19,0,0,0-3.71-.52l-.94.14a18.67,18.67,0,0,1-3.24,0l-3-.08-3.24-.09-3-.08-3.24-.08-1,0a12.29,12.29,0,0,1-3.46-.55c-.81-.3-3.19,1.08-3.48.84a13.59,13.59,0,0,0-3.39-.76c-1.27-.18-5,.93-5.45.88s-1.85-.14-2.16-.59-1.82.65-2.25.77-1.8-.91-2.36-.62a22,22,0,0,1-3,.61c-.52.14-2.18-.91-2.57-.73a13.11,13.11,0,0,1-3.24.28,51,51,0,0,1-6.75-.78l-1.53,1.59-.27.29a7.19,7.19,0,0,0-2.35-.27l-.54-.65-.89-1.06a2.48,2.48,0,0,1-2.31,1l-.68.42-.73.46a5.53,5.53,0,0,0-2.41-.17c-.4.15-3.26-1.38-5.72-1.79l-2.12,2.19-.76.78a7.12,7.12,0,0,0-2.46-.72c-.54,0-2.41,0-3,.06s-1.78-.52-2-.35a6.43,6.43,0,0,1-2.16.13c-.69,0-3-.2-3.55-.33s-2.28.14-2.76-.18-1.62,1.06-1.75.78-.77-1-1-.6a3.29,3.29,0,0,1-1.91,1h-.54c-1,0-2-.06-3-.08h-.55a4.14,4.14,0,0,0-.59-1.49c-.1,0-.4.34-.44.78S8,43.74,7,43.42l-.86,0-.67,0c-.78-.06-1.3-.19-1.15-.28a1.75,1.75,0,0,0,.25-1.49A13,13,0,0,1,4.42,38c.12-.72.26-2.94-.06-2.94s-1.05.21-1,.5.06,1.08-.1,1.18-.65-.45-.92-1S.68,34.06.42,33.46-.29,30.4.27,30.15s1.11,2.93,1.46,3.56h.46c.16,0,.38-.5.49-.86l.06-.2c-.09-.37-.29-.59-.43-.48a.39.39,0,0,1-.58-.38,3.7,3.7,0,0,1,1.07-2.23C3.36,29.28,5,27.95,5,27.34s.26-2.5.48-1.82,1.14,1.82,1.55,1l.15-.77c.2-1,.3-.79.66-.3l.24.34c.4,0,1.47.13,2.38.17s3.12-1.56,2.93-1.74.52-1.32,2-2.11l1.55,1.38a2.55,2.55,0,0,0,.93.6l.23.06a1.34,1.34,0,0,0,.33-1.55c-.22-.61-.56-2.36-.28-2.53l.23.07c.27.09.6.74.75.59l.93-1a7,7,0,0,0,1.35,2.28c.21.07,1.1,0,.9-.46a3.12,3.12,0,0,1,.51-2.25c.46-.76,2.12-.87,2.42-.79s1.56,0,2,.09,1.8-.05,2.41.35,1.94-2.14,2.27-2,.93,1.58,1,1.76.3.4.41.09v-.29l.09-2.75a11.11,11.11,0,0,1,3.07,2l.87-.91.78-.82A7.86,7.86,0,0,0,40.88,15c.44-.37,1.45,1.29,1.65,1.14l.07-.25.13-.46c.24-.15.87,0,1.4.32h1.23c.78-.35,1.68-.75,2-.87s1.72-.24,2.32-.37A10.46,10.46,0,0,1,53,14.37c.63.22,2.73-1.17,3.36-1.28s2.43.63,2.73.22,1.43.46,1.73,0,1.25.44,1.43.12.85-.89,1-.52,1,1.12,1.36.9a5.28,5.28,0,0,1,2.36-.26c.56.12,2.27-.23,2.69-.14a4.23,4.23,0,0,0,2.09-.5A15.66,15.66,0,0,1,74,12.14c.59-.24,2.27,1.59,2.63,1.86s.86-1.85,1.06-2l.11.11.82.87c.87-.6,1.66-1.18,1.76-1.28l.06,0c.46.32,1,1.11,1.36.92l.46-.23a1,1,0,0,0,1.16-.22c.24-.32,1.39,0,1.88.42l.48.21.32.14a9.52,9.52,0,0,1,1.66-.41c.53-.08,2.4,0,3.06.88l.84-1.32c.48-.75,1.38.53,2-.69.06-.12.47.49.74.64l1.18.67a6.38,6.38,0,0,0,3-1.38c.31-.45,1.38.39,1.63-.13s1.17.85,1.32,1,.87.25,1.4.51,2.56-.78,3.53-1l.67,1.36.1.2c.29.14.74-.19,1-.71a2.4,2.4,0,0,1,1.33-1.06,9.18,9.18,0,0,1,3.43.75l.89-1.63c.23-.41.92.23,1.3-.08l.85-.69a7,7,0,0,0,1.81,1.58c.29.08,1.4-.4,1.79-.08l.35.39c.45.5.74-1.9,1.29-.31.05.15.68-.6,1-.6h.5c.54.3,1.13.65,1.32.79s1.39-.16,2.1,0,2.64-1.41,2.83-1.22a15.09,15.09,0,0,1,1.61,2.06l.54-1.53.82-2.33a18.14,18.14,0,0,0,3.11,2.4c.62.3,2.76-.8,3.26-1.2s1.84-.39,2.32-.63l.3.43.34.48c.28.74.84.76,1.25,0l.34-.57.06-.1c.2-.14.54.05.76.42s1.07,1.07,1.33.67,2.3-.33,2.7-.09,1.35.13,1.74.34,1.28-.25,1.6-.19a3.23,3.23,0,0,0,1.94-.69c.43-.45,2.16,1,3,1.28l.58-1.45c.06-.15.35-.06.52,0l1.09.35a3.61,3.61,0,0,0,3.22-.43c.58-.59,2.63,1.13,3.34,1.1l.58-.28.54-.26a7,7,0,0,0,2.15-.54c.59-.27,2.1,1.37,2.3,1.49l.14-.11,1.62-1.28c1.83.24,3.7.42,4.16.41a4.21,4.21,0,0,1,2.86,1.33l.68-2.07.3-.91a4.82,4.82,0,0,1,1.74,1.8c.2.52,1.4-.79,1.72-.93s1.28.94,1.58,1l.15-.23.78-1.24a7.93,7.93,0,0,0,2.23,1.73c.51.19,2-.55,2.37-.91s1.59.43,1.78.32a4.81,4.81,0,0,0,1.11-1.21c.22-.42,1,.28,1.21-.21l.59.58.65.64c1-.34,2.36-.85,3-1.14s2.31.57,2.6.44a3.63,3.63,0,0,1,2,.57l.49.1.18,0c.29-.61.57-.61.62,0s.54,2.08.94,1.62,1.68-1.74,2-2a6.29,6.29,0,0,1,3-.11c.39.18,1.71-1,2.21-1.12a5.39,5.39,0,0,1,2.6.46c.42.34,2.61-.06,3.72-.07l.72-.8.64-.72c.38.61.83,1.37,1,1.7s1.89-.24,2.76-.74a6.72,6.72,0,0,1,3.88,0,3.62,3.62,0,0,0,2.2.14,9.35,9.35,0,0,1,2.79-.31,4.65,4.65,0,0,0,2.23-.91c.29-.26,1.07.77,1.17.84l.07,0c.48-.3.95-.83,1.43-.9s.88.65,1.29.52l.62-.19a9.77,9.77,0,0,0,2.08-.54c.45-.2,1.45.87,1.56.44l.15-.31.11-.23a2.66,2.66,0,0,1,1.57.33c.68.3,3.73-.4,4.24-.13l.4.4.51.5a1.24,1.24,0,0,1,1.66-.31l.35-.22.62-.4c.63-.79,1.42-1.22,1.77-.94a2.76,2.76,0,0,0,2.11-.08c.45-.29,1.34-.19,1.71-.31a3.11,3.11,0,0,1,1.7.48c.32.21,1.26-.19,1.38.13s.89.9,1.46.58,3.83-.08,5-.13a12.77,12.77,0,0,0,3.7-1.5l.55.3,1.06.58c1.29,0,2.73,0,3.21,0l.49-.39.64-.51a5.49,5.49,0,0,1,2.23.39c.4.23,1.82-.18,2.17,0l.32.15.3.15a6.67,6.67,0,0,0,2.48-.2l.93-.29.79-.25c.88-.21,1.67-.39,1.75-.4s.61.28,1.08.47a23,23,0,0,1,2.41.71c.39.27,1.37,1.17,1.52.72a1.89,1.89,0,0,1,1.15-1c.29,0,1.38-1.07,2-1.12s3-.08,4-.15a18.28,18.28,0,0,1,4.27.74c.43.19,1.73-.91,2-.7s.84.19,1,.32a7.74,7.74,0,0,0,2.75-.91l1.05.27.77.2a1.89,1.89,0,0,1,2.28-.31l.57.1.57.1a1.38,1.38,0,0,1,1.9.41c.4.63,2.28-1.54,3.26-1.89l.77,1.19c.07.1.37-.11.46-.33l.15-.34A2.26,2.26,0,0,1,324,1.6c.33-.22,1.42.78,1.83,1s2,.17,2.37.41,1.29-.1,1.6-.19a7.36,7.36,0,0,1,2.25.55c.56.23,2.59-.65,3.22-.36l.26-.42c.85-1.35,1.07,1,1.58.64l.54-.38a5.23,5.23,0,0,1,1.77-1.74,6.15,6.15,0,0,1,2.53.47,4.07,4.07,0,0,0,2.4-.14c.42-.29,1.9.34,2.29.69s1.93,0,2.75-.28l.82.68c.57.47,1.42.43,1.92-1l1.73-.53a4.88,4.88,0,0,0,5.4.33c.69-.32,1.26,1.86,2-.18.22-.62,1.35-.28,2-.16l.39.07c.41.42.91.64,1.1.48A8.27,8.27,0,0,0,365.91.46c.41-.51,1.46,1.34,1.83,1.25a10.18,10.18,0,0,0,1.49-1c.18-.09,1,.83,1.37,1.38l.37,0c.38,0,.76-.64,1.16-.86l.66-.36c.67.51,1.37,1,1.57,1.14s.71-.26,1-.53,1.08.41,1.3.32l.17-.21c.22-.29.43-1,.6-1,.46.1.89.75,1.33.71s1.12-.73,1.7-.85l.51-.11A1.85,1.85,0,0,0,382.7.15l.42.72.28.47c.48.08,1.44.28,2.13.44s2.82-.73,3.26-.28,3-.12,4.59.65L394.93.88a1.21,1.21,0,0,1,1.58.06l.72.72A9.85,9.85,0,0,0,399.3,0l.37,0c.37,0,.74.63,1.09,1l.2.23a6,6,0,0,0,2.71,1c1.3.26,4.67-1.92,4.75-1.83s.23.49.34.68,1.13,0,1.73-.19a11,11,0,0,1,3.18-.34,12.19,12.19,0,0,1,2.75,1.87c.44.44,1.92-.58,2.26,0s2-1.29,2.75-1.94L422.2,2l.34.65a10.63,10.63,0,0,1,3.8-1.09l.89.12.93.13a2.55,2.55,0,0,0,3-.65l.83,1.4c.64,1.09,1.5-1.94,2.36-.44.72,1.26,1.38,1,2.06-.21,0-.08.19-.06.26,0l.6.52A7.83,7.83,0,0,1,439,3.1c.26.17,1.49-.76,2.08-1l.5.06,1,.13c1.13,0,3-.08,4.21-.14l1.08.1.67.07a20,20,0,0,0,2,1c.37.14,1.3-.45,1.6-.63s1.21.73,1.46.82l0-.14.6-1.88c.61,1,2.46,1.62,2.74,2.16"/></g></g></svg>