<svg xmlns="http://www.w3.org/2000/svg" viewBox="0 0 137.21 228.47"><defs><style>.cls-1{fill:#fff;}</style></defs><title>credibilite-image01</title><g id="Calque_2" data-name="Calque 2"><g id="Calque_6" data-name="Calque 6"><path class="cls-1" d="M132.66,71.9a11.06,11.06,0,0,0-.77-.87,5.6,5.6,0,0,1-.43-.48,2.3,2.3,0,0,1,.29-.61c4.13-6.95,3.44-14.5,2.08-21.63-4-20.83-18.61-37.56-39.13-44.76C74-3.7,51.93.3,35.59,14.26c-18.34,15.67-25,34.19-19.81,55,.25,1,0,1.43-.8,2.64l-.31.45c-3.85,5.8-5,12-3.32,17.35S17.55,99.47,24,102l1,.37c1.65.58,2.39.89,2.84,2.14,4.3,12,12.33,20.54,23.88,25.38,2.88,1.2,2.81,2.86,2.4,6.18a19.58,19.58,0,0,0-.21,3.43c.18,3.27-2.76,4-4.53,4.18a51.69,51.69,0,0,0-18.59,5.49c-19,9.49-28.93,22.3-30.33,39.17a231.42,231.42,0,0,0-.3,24.26c.07,3.22.15,6.54.17,9.79,0,.24,0,.49,0,.76-.07,1.24-.17,2.94,1,4.18a3.67,3.67,0,0,0,2.67,1.14h.22a3.6,3.6,0,0,0,2.65-1c1.21-1.2,1.15-2.94,1.1-4.21,0-.23,0-.46,0-.68C8,211,8,201.44,8,192.55a32.69,32.69,0,0,1,6.94-20.63c9-11.53,19.88-18.1,33.22-20.11,10.91-1.63,13.65-4.73,14-15.79.06-1.92.39-2.34.49-2.43s.55-.33,2.32-.1a62.46,62.46,0,0,0,18.1-.1c2.33-.38,2.94,0,3.07.14s.5.65.23,2.68a15.37,15.37,0,0,0,0,3.11c0,.37.06.74.08,1.11L86.5,143l3.93-1.29,2-.66,1.52-.5-.24-1.59c-.85-5.74.92-8.83,6.56-11.41,8.77-4,15.45-11.3,19.86-21.73a6.22,6.22,0,0,1,4.17-4,19,19,0,0,0,12.17-12.34C138.2,83.67,136.8,77.25,132.66,71.9ZM18.65,85A9.06,9.06,0,0,1,22,76.35l.15-.13c1.08-.92,1.41-1.1,1.73-1a7.12,7.12,0,0,1,0,.8c0,.37,0,.73,0,1.06.26,3.74.51,7.48.77,11.35L25,93.07C21.53,91.08,19.22,88.19,18.65,85Zm97.47,3.65c-.14.85-.28,1.7-.37,2.51h0c-1.33,11.68-6.48,21.12-14.91,27.29-9.78,7.17-23.28,9.53-38,6.64-18.29-3.59-28.43-16.3-30.15-37.79-.14-1.7-.25-3.43-.38-5.62l-.17-2.83-.06-.36c-1.15-4.42.57-9,5.25-13.88a117.49,117.49,0,0,0,8.19-9.93c1.62-2.1,3.28-4.28,5-6.33.18-.21.35-.43.52-.65a8.35,8.35,0,0,1,.83-1,5,5,0,0,1,1.2,1.23c1.6,2.05,3.17,4.2,4.69,6.27,4.31,5.88,8.77,12,14.38,17.05,4.59,4.16,11.53,10.44,18.26,6.47,6.47-3.81,10.86-1.6,16.42,1.2l1.64.82a15.23,15.23,0,0,0,4.46,1.12c1,.15,2.69.4,3,.74C117,83.29,116.56,85.88,116.12,88.62Zm2.93-16.56h0c-5.64,2.92-9.93,0-14.9-3.31-.76-.51-1.51-1-2.26-1.49A9.37,9.37,0,0,1,100,65.39,14.8,14.8,0,0,0,98,63.23a5.47,5.47,0,0,0-3.38-1.41,3.33,3.33,0,0,0-1.58.39c-.65.34-2.14,1.45-1.9,4.35.14,1.65,0,2.82-.54,3.29-.74.71-2.82.45-4.66.23l-.81-.1c-2.89-.34-5.07-2.28-7.62-4.79A113.33,113.33,0,0,1,57.67,38.61C56.51,36.48,55.2,34.07,52.9,34c-2.13-.05-3.65,1.92-4.88,3.87-5.27,8.38-11.94,16-18.4,23.39L28,63.12c-.43.5-.81,1.06-1.19,1.6-1.42,2.08-1.84,2.3-2.63,2-1.69-.61-1.94-2.17-2.06-5.36l0-.77c0-.57,0-1.14,0-1.71v-.76C22.7,33.33,42.41,12,67.92,8.54,92.54,5.2,117.3,21.1,124.28,44.75l.12.39c1.24,4.19,2.41,8.14,2.38,12.34C126.72,64.73,124.27,69.37,119.05,72.06ZM129,87.5a11.49,11.49,0,0,1-4.91,5.56c0-.55,0-1.1,0-1.64,0-3.79.06-7.37-.09-11a3.14,3.14,0,0,1,2.33-3.5,1.22,1.22,0,0,1,.3-.06c.31,0,.58.33,1.26,1.89.15.34.3.67.45,1A9.64,9.64,0,0,1,129,87.5Z"/></g></g></svg>