<svg xmlns="http://www.w3.org/2000/svg" viewBox="0 0 179.09 179.17"><defs><style>.cls-1{fill:#fff;}</style></defs><title>06_credibilite-methodes</title><g id="Calque_2" data-name="Calque 2"><g id="Calque_6" data-name="Calque 6"><path class="cls-1" d="M159.21,25.61a5.94,5.94,0,0,0-.64-1c-1.34-1.38-2.71-2.73-4.08-4.09-.73-.73-1.14-.75-2-.15l-5.75,4.07a4.6,4.6,0,0,1-5.3.24,33.63,33.63,0,0,0-7.82-3.25A4.67,4.67,0,0,1,130,17.38c-.37-2.27-.77-4.54-1.16-6.81-.17-1-.51-1.29-1.53-1.29h-5.78c-.94,0-1.29.31-1.45,1.23-.41,2.37-.83,4.74-1.25,7.12a4.53,4.53,0,0,1-3.5,3.83,34.53,34.53,0,0,0-7.88,3.26,4.65,4.65,0,0,1-5.36-.25l-5.82-4.08a1.22,1.22,0,0,0-1.9.17l-4,4c-.77.77-.81,1.16-.19,2,1.36,1.94,2.73,3.87,4.09,5.81a4.4,4.4,0,0,1,.38,4.91A41.79,41.79,0,0,0,91,45.93,4.22,4.22,0,0,1,87.6,49c-2.39.46-4.78.85-7.18,1.27-1.18.2-1.46.52-1.46,1.73,0,1.84,0,3.68,0,5.52,0,1,.35,1.36,1.33,1.52l7.12,1.25a4.43,4.43,0,0,1,3.72,3.38,36.18,36.18,0,0,0,3.34,8.06,4.6,4.6,0,0,1-.28,5.29q-2,2.9-4.08,5.82a1.2,1.2,0,0,0,.16,1.89l4,4c.79.79,1.16.81,2.09.16,1.87-1.31,3.75-2.61,5.61-3.93a4.73,4.73,0,0,1,5.52-.28,31.8,31.8,0,0,0,7.52,3.14,4.76,4.76,0,0,1,3.75,4.2c.36,2.28.78,4.54,1.18,6.81.17.93.51,1.2,1.47,1.2h5.78c1,0,1.32-.3,1.48-1.27q.59-3.44,1.18-6.87a4.73,4.73,0,0,1,3.74-4.07,32.33,32.33,0,0,0,7.7-3.21,4.64,4.64,0,0,1,5.35.25l5.77,4c.85.59,1.26.56,2-.17l4-4c.72-.72.75-1.11.18-1.94-1.32-1.92-2.63-3.84-4-5.74a4.68,4.68,0,0,1-.26-5.41,33.29,33.29,0,0,0,3.22-7.7,4.67,4.67,0,0,1,4-3.63c2.35-.41,4.7-.85,7-1.29a1.23,1.23,0,0,0,1.15-1.41q0-2.86,0-5.71c0-1.08-.31-1.45-1.36-1.62l-6.87-1.18a4.66,4.66,0,0,1-4-3.66,31.93,31.93,0,0,0-3.17-7.65,4.79,4.79,0,0,1,.29-5.63c1.35-1.87,2.65-3.77,4-5.66a9.11,9.11,0,0,0,.48-.91m-6.42,73a9.7,9.7,0,0,1-5.28-1.87q-1.75-1.21-3.48-2.45a.75.75,0,0,0-.85-.1c-1.31.58-2.64,1.13-4,1.66a.83.83,0,0,0-.64.72q-.37,2.28-.84,4.55a10.25,10.25,0,0,1-9.72,8.1q-3.52.08-7,0a10.36,10.36,0,0,1-10-9c-.2-1.27-.42-2.54-.68-3.81a1,1,0,0,0-.51-.6q-2-.89-4.1-1.69a1,1,0,0,0-.78.07c-1.11.74-2.19,1.52-3.28,2.28a10.31,10.31,0,0,1-13.52-.94c-1.63-1.54-3.21-3.14-4.75-4.77a10.3,10.3,0,0,1-.91-13.13c.8-1.14,1.6-2.29,2.42-3.42a.75.75,0,0,0,.09-.86c-.58-1.31-1.14-2.64-1.65-4a.89.89,0,0,0-.81-.65c-1.48-.22-3-.4-4.44-.73a10.18,10.18,0,0,1-8.13-10c-.07-2.33-.05-4.66,0-7a10.24,10.24,0,0,1,8.5-9.7c1.44-.25,2.87-.49,4.3-.78a.91.91,0,0,0,.56-.47Q84.22,38,85,35.85a.91.91,0,0,0-.11-.72c-.77-1.14-1.56-2.26-2.36-3.38A10.37,10.37,0,0,1,83.7,18.23q2.2-2.2,4.42-4.38a10.33,10.33,0,0,1,13.21-1.12c1.16.81,2.33,1.62,3.47,2.45a.79.79,0,0,0,.92.09c1.3-.6,2.62-1.18,4-1.71a.91.91,0,0,0,.66-.8c.25-1.54.48-3.09.82-4.62a10.16,10.16,0,0,1,9.44-8,60.76,60.76,0,0,1,8.24.07,10.13,10.13,0,0,1,9,8.56q.34,2.1.76,4.18a.91.91,0,0,0,.46.56q2.09.92,4.21,1.75a.91.91,0,0,0,.72-.12c1.16-.78,2.29-1.6,3.43-2.4A10.33,10.33,0,0,1,161,14c1.49,1.53,3,3,4.48,4.59a10.28,10.28,0,0,1,1.07,12.71c-.84,1.27-1.73,2.51-2.62,3.74a.8.8,0,0,0-.1.91c.59,1.33,1.14,2.68,1.67,4a.76.76,0,0,0,.67.55c1.77.31,3.55.56,5.29,1a10,10,0,0,1,7.51,9,78.75,78.75,0,0,1,0,8.12,10.21,10.21,0,0,1-8.37,9.34c-1.46.26-2.92.5-4.37.79a1,1,0,0,0-.6.5q-.91,2.05-1.73,4.15a.91.91,0,0,0,.08.72c.76,1.14,1.57,2.26,2.36,3.38a10.3,10.3,0,0,1-.88,13.28c-1.59,1.7-3.26,3.33-4.94,4.93a10.45,10.45,0,0,1-7.75,2.78M68.12,179.17c-1.94-.07-3.9,0-5.83-.25a11.75,11.75,0,0,1-9.88-9.59c-.37-2.17-.75-4.33-1.16-6.49a.9.9,0,0,0-.46-.56q-3.35-1.43-6.73-2.79a1,1,0,0,0-.77.12c-1.62,1.11-3.22,2.26-4.83,3.39A11.84,11.84,0,0,1,23,162c-2.11-2-4.16-4-6.14-6.16A11.8,11.8,0,0,1,15.81,141c1.2-1.74,2.43-3.46,3.66-5.18a.79.79,0,0,0,.07-.91c-.92-2.13-1.82-4.27-2.7-6.42a.81.81,0,0,0-.7-.59c-2.25-.36-4.51-.73-6.75-1.16a11.7,11.7,0,0,1-9.3-10.63C0,112.7,0,109.3.11,105.93A11.71,11.71,0,0,1,9.53,95.27q3.24-.59,6.49-1.14a.77.77,0,0,0,.66-.56Q18,90.26,19.43,87a.75.75,0,0,0-.1-.85c-1.15-1.6-2.27-3.21-3.41-4.81A11.93,11.93,0,0,1,17.2,65.66l5.57-5.57a11.9,11.9,0,0,1,15.49-1.33c1.63,1.14,3.26,2.28,4.86,3.45a1,1,0,0,0,1.14.12q3.2-1.38,6.44-2.66a.81.81,0,0,0,.57-.72c.33-2.11.68-4.21,1-6.32a4.61,4.61,0,1,1,9.09,1.51c-.57,3.27-1.14,6.54-1.74,9.8a4.35,4.35,0,0,1-3.26,3.6A48,48,0,0,0,45.71,72a4.44,4.44,0,0,1-5-.24c-2.54-1.75-5.06-3.54-7.59-5.31a2.7,2.7,0,0,0-4,.36l-5.34,5.34a2.65,2.65,0,0,0-.34,3.67q2.61,3.75,5.25,7.48A4.76,4.76,0,0,1,29,88.9a43.67,43.67,0,0,0-4.25,10.28,4.54,4.54,0,0,1-3.82,3.52q-4.52.81-9.06,1.57a2.83,2.83,0,0,0-2.62,3q0,3.78,0,7.56a2.82,2.82,0,0,0,2.62,3c3.08.53,6.17,1.05,9.24,1.63a4.31,4.31,0,0,1,3.53,3.25,48.5,48.5,0,0,0,4.48,10.67,4.49,4.49,0,0,1-.28,5.08C27,141,25.26,143.57,23.5,146.1a2.7,2.7,0,0,0,.36,3.87l5.25,5.25a2.73,2.73,0,0,0,4,.34q3.69-2.58,7.38-5.17a4.7,4.7,0,0,1,5.47-.26,40.93,40.93,0,0,0,10,4.16,5,5,0,0,1,4,4.44c.46,2.92,1,5.83,1.52,8.74a2.67,2.67,0,0,0,2.73,2.41c2.64,0,5.29,0,7.94,0a2.66,2.66,0,0,0,2.73-2.34c.56-3,1.08-6.07,1.62-9.11a4.55,4.55,0,0,1,3.53-3.88,44.41,44.41,0,0,0,10.34-4.28,4.71,4.71,0,0,1,5.47.27c2.47,1.75,4.95,3.48,7.43,5.21a2.71,2.71,0,0,0,3.83-.31q2.7-2.69,5.39-5.39a2.68,2.68,0,0,0,.33-3.77q-2.63-3.78-5.27-7.54a4.66,4.66,0,0,1-.26-5.36,45.06,45.06,0,0,0,4.3-10.4,4.52,4.52,0,0,1,3.84-3.5c3.22-.57,6.45-1.15,9.67-1.71a4.61,4.61,0,0,1,1.55,9.08c-2.16.38-4.33.75-6.49,1.16a1,1,0,0,0-.59.52q-1.41,3.25-2.75,6.54a1,1,0,0,0,.07.77c1.06,1.56,2.15,3.09,3.24,4.62,3.9,5.45,3.31,11.73-1.52,16.4q-2.58,2.49-5.12,5A11.91,11.91,0,0,1,98,163.33c-1.71-1.17-3.4-2.38-5.08-3.59a.85.85,0,0,0-1-.09Q88.8,161,85.6,162.33a.86.86,0,0,0-.63.75c-.36,2.17-.7,4.34-1.15,6.49a11.84,11.84,0,0,1-11.89,9.53c-1.27,0-2.54,0-3.81,0,0,0,0,0,0,.07M37.67,111A30.35,30.35,0,0,1,61.75,81.25,36.45,36.45,0,0,1,68,80.58a4.47,4.47,0,0,1,4.68,4.67A4.56,4.56,0,0,1,68,89.78a21.23,21.23,0,1,0,21,25,25.57,25.57,0,0,0,.35-3.72,4.61,4.61,0,0,1,4.59-4.68,4.56,4.56,0,0,1,4.63,4.69,30.47,30.47,0,0,1-26.27,30.07,30.35,30.35,0,0,1-34-24c-.42-2-.56-4.14-.82-6.21l.17,0m86.78-68.85A12.55,12.55,0,1,0,137,54.69a12.6,12.6,0,0,0-12.54-12.55M102.66,54.68a21.78,21.78,0,1,1,21.71,21.79,21.76,21.76,0,0,1-21.71-21.79"/></g></g></svg>