<svg xmlns="http://www.w3.org/2000/svg" viewBox="0 0 226.54 220.6"><defs><style>.cls-1{fill:#ffa014;}.cls-2{fill:#fff;}.cls-3{fill:#1d1d1b;}</style></defs><title>08_offre-pack-orientation</title><g id="Calque_2" data-name="Calque 2"><g id="Calque_7" data-name="Calque 7"><path class="cls-1" d="M129.4,121.38c5.59,3.92,12.4,4.94,18.19,7.75-.26,4.35-2.74,8.11-1.54,12.49a6.53,6.53,0,0,0,1.87-2.75,44.17,44.17,0,0,0,1.58-6.9c.33-2.68,1.48-3.86,4.26-4.06a101.43,101.43,0,0,0,10.5-1.61,14,14,0,0,0,2.72-1.1l-.21-1.14-15.58.87,1-7.6-1-.15-2.54,8.08c-6.53-1-12.58-3.91-19.26-3.88M72,155c6.79,1.51,13,4.72,19.81,5.58l.47-1.38-19.56-8,1-7.68-.88-.19a15.5,15.5,0,0,0-1.11,3.17c-.44,3.57-2.26,5.46-5.88,6.21A77.65,77.65,0,0,0,55.7,156a17.07,17.07,0,0,0-2.78,1.6l.32.75c5.41.2,10.38-2.43,15.81-2.91-.2,4.19-2.73,8-1.58,12.29,3.35-3.55,2.73-8.43,4.49-12.69m-7.26,33v-4c-.6.38-1.07.51-1.11.73-.65,3.21-2.68,3.22-5.44,2.9a27,27,0,0,0-18.42,4.59c-2.4,1.6-5.19,2.71-6.85,5.34-2.43,3.87-6.83,4.08-10.56,5.69l5.45-1.13c-2.77,5.1-4.87,6.7-10.09,7.76l-8.85,1.82c.13-.72.17-1.12.28-1.5,3.68-13.14,7.4-26.26,11-39.42a3.94,3.94,0,0,1,3.17-3.17c3.34-.88,6.62-2,9.89-3.1a16.87,16.87,0,0,0,2.65-1.45L35.46,162l-13.54,2.57c1.48-5.23,2.74-10.2,4.35-15.06.63-1.9,4.57-2.94,7.12-2a58,58,0,0,1,7.71,3.36c6.85,3.63,10.84,3.22,16.33-2.3,3.72-3.74,7-7.94,10.86-11.52a60.42,60.42,0,0,1,10.81-8.17c4.74-2.72,9.68-2.12,14,1.35,1.92,1.53,3.7,3.22,5.53,4.87,6.2,5.59,12,6.72,17.87,3.46a16.9,16.9,0,0,0,8-18c-.78-4-2.27-7.85-3.22-11.83-1.37-5.79-2-6,4.39-9.16,4.91-2.4,10-1.89,14.79.28,3.65,1.63,7.18,3.53,10.72,5.39,8.53,4.49,16.55,4.26,24-2.33,3.25-2.87,6.6-5.64,9.91-8.45l.75.36c-1.29,3.52-2.46,7.09-3.9,10.55a33.26,33.26,0,0,1-3,5.18,16.35,16.35,0,0,0-2.18,14.08c.33,1.13.52,2.31.73,3.47,1.67,8.91-2.27,16.18-10.82,19.26a112.22,112.22,0,0,1-11.61,3c-4.13,1-8,2.43-11,6.13-.59-.62-1.13-1.16-1.64-1.73A18.91,18.91,0,0,0,119.08,151c-2.9,1.66-4.86,4-5.21,7.51a10.27,10.27,0,0,1-7.43,9.2,36.69,36.69,0,0,1-6.59,1.73c-6.45.93-11.54,4.14-15.9,8.81a80,80,0,0,1-6.49,6.24A15.34,15.34,0,0,1,64.69,188m96.48,24.09,0-.44-25,3.26a90.32,90.32,0,0,0,13.32-.75c3.94-.51,7.84-1.37,11.76-2.07m37.31,1.47-69,6.62,3.34-18.82-1.4-.31c-2.7,6.13-3.4,12.93-5.71,19.5L74.7,205.41c3.49-.48,6.3-.77,9.07-1.28,6.33-1.17,10.72-4.7,12.85-10.87.8-2.32,1.78-4.59,2.49-6.93a9.38,9.38,0,0,1,5-5.76,61.21,61.21,0,0,0,7.61-4.74c3.72-2.74,4.89-6.63,4.32-11.12,0-.09,0-.18,0-.27-.53-3.56-1.94-7.32,1.33-10.27a15.89,15.89,0,0,1,13.41-4,16.67,16.67,0,0,1,14.09,11.4c1.36,3.73,3.13,6.95,6.93,9.16l-12.61,1.15,1.2-8.64-.95-.22-2.85,8.85c-3.13-.82-6.25-1.67-9.39-2.47-3-.75-5.88-2.1-9-1.74l-.36,1.19,17.85,6.58c-.16,3.91-2.61,7.42-1.74,11.29l1.1.28c.65-1.88,1.46-3.73,1.92-5.66,1.42-5.94,1.37-5.93,7.43-6.87,4-.62,7.91-1.92,11.83-1.82,4.46.11,8.91,1.3,13.29,2.35.81.19,1.54,1.91,1.76,3a11.59,11.59,0,0,1-.28,3.78c-.43,3,.43,5.54,2.9,7.19a57.89,57.89,0,0,0,8.76,4.93c3.59,1.58,7.15.9,10.3-1.47,1.67-1.26,3.2-2.71,4.92-3.89s3.52-2.06,5.29-3.08l.66.53-5.31,27.61M107.18,71.28l.29-.6L96.89,66.88l-.22.62,10.52,3.78M83,105.38l1.18-7.76-.92-.3a17.55,17.55,0,0,0-1.36,3.92c-.38,3.8-2.5,5.53-6.13,5.85a38.82,38.82,0,0,0-4,.85l2.46-3.7c3-4.56,5.72-9.35,9.08-13.62,6.73-8.54,9.11-19,13.63-28.92,1.42.49,3,1.08,4.6,1.59,8.76,2.77,17.5,5.61,26.31,8.2,2.45.72,3.79,2.23,3.61,4.4a22.81,22.81,0,0,1-2,8.28c-1.58,3.13-4,5.87-6.1,8.69-4.12,5.42-5.24,11.25-2.87,17.73a65.12,65.12,0,0,1,2.6,8.33c1.35,6.15.26,11.81-4.36,16.38a11.85,11.85,0,0,1-15.48,1.54c-2.85-1.93-5.38-4.33-8.06-6.5-6.24-5-12-5.71-18.84-1.43a59.52,59.52,0,0,0-9.79,8.19c-3.76,3.69-7.12,7.79-10.78,11.59-2.14,2.23-4.81,4-8,3.23a35.91,35.91,0,0,1-8.31-3.27c-3.86-2-7.74-2.94-12.32-1.39.18-1,.25-1.79.46-2.52,2.07-7.45,4.11-14.91,6.28-22.33.29-1,1.27-1.75,1.94-2.62A14.57,14.57,0,0,1,38,121.74c3.22,4.05,6.34,8.18,9.52,12.26.6.77,1.32,1.45,2.66,2.9.73-1.13,1.27-2.08,1.91-2.93,5.23-6.89,10.54-13.71,15.67-20.67a7,7,0,0,1,4.74-3.19c2.31-.37,4.56-1,7.13-1.65L77,121.4l1.24.3c2.94-3.56,2.26-8.44,4.09-12.63l20.46,5.34.41-1.25c-2.87-2.24-6.53-2.86-9.88-4.09s-6.83-2.43-10.4-3.69M226.54,72.59c-3,14.76-5.81,29.12-8.77,43.45a2.87,2.87,0,0,1-2,1.57c-4.57.81-9.17,1.42-13.74,2.18a6.56,6.56,0,0,0-3.05,1.5c5.89,1.29,11.67-.41,17.88-.25-1.07,5.24-2.06,10.36-3.22,15.45-.11.49-1.2,1-1.87,1.07a27.76,27.76,0,0,0-18.11,8.58c-6.29,6.55-14,9.45-22.86,10.21a78.85,78.85,0,0,0-10.5,1.68c-4.59,1-8.82,2.9-12.26,7-1.16-2.6-2.29-4.9-3.16-7.29-.15-.42.71-1.36,1.28-1.85,3.53-3,7.88-4,12.25-5a72.46,72.46,0,0,0,9-2.24c8.94-3.24,13.38-11.26,11.64-20.58a22.23,22.23,0,0,0-.66-2.93c-1.78-5.36-.65-10.22,2.44-14.77,4.43-6.51,7-13.63,6.33-21.57-.29-3.58-1.22-7.11-1.91-10.91l41.31-5.36m-36.88,96.46,17.74-1.14c-1,5.1-1.9,10-2.93,14.84-.12.55-.84,1.07-1.39,1.41-2.68,1.65-5.61,3-8.07,4.89-6.78,5.31-15.91,4.46-21.18-2.5a8.58,8.58,0,0,1-1.16-5.37c.47-6.74-.66-8.24-7.39-8.84a31.6,31.6,0,0,1-15.34-5.13c-.45-.31-.89-.64-1.53-1.09,4.45-4.6,9.69-6.59,15.42-7.52,3.86-.62,7.74-1.1,11.63-1.57a28.9,28.9,0,0,0,16.34-7.51c4.26-3.85,8.53-7.73,14.19-9.44,2.22-.67,4.53-1.06,7.33-1.71-1.18,6-2.23,11.41-3.29,16.81-.49,2.5-.89,5-1.61,7.46a3.19,3.19,0,0,1-2,1.89c-4.65.86-9.34,1.47-14,2.24a18.39,18.39,0,0,0-2.92,1l.21,1.3m-69.27-68.2c1.34-2.4,2.54-4.89,4.05-7.19,1.94-3,4.32-5.64,6.16-8.66A13.19,13.19,0,0,0,132,72.93l24.54,7.81-3.69,20.17,1.17.32a18.45,18.45,0,0,0,1.39-3c1.38-5,2.73-10,3.94-15,.39-1.62,1-2.46,2.8-2.65,6.42-.69,12.82-1.57,19.25-2.21a3.25,3.25,0,0,1,2.31,1.47,11.6,11.6,0,0,1,1,3.1c1.71,5.65,1.6,10.55-4.32,14-2.86,1.68-5.13,4.34-7.78,6.42-4.86,3.82-10.35,5-16.13,2.68-4.72-1.86-9.23-4.27-13.83-6.44-7.46-3.51-14.7-3.89-21.49,1.72l-.8-.51M62,201.53l2.25-11c.35-.2.51-.37.66-.36,7.45.47,13.23-2.8,17.85-8.27a31.83,31.83,0,0,1,19.51-11.46c4.64-.81,9.08-2.58,11.79-7.58,1.07,4.65,1,8.54-2.62,11.38a48.21,48.21,0,0,1-8,5.14,10.24,10.24,0,0,0-5.6,6.29c-.7,2.25-1.65,4.43-2.39,6.67-2.1,6.32-6.65,9.65-13,11.14A30.17,30.17,0,0,1,62,201.53m-35.75,6.64c2.85-4.75,6.08-8,11.56-8.73a34,34,0,0,0,10-3.31l-14.21,3.63c7.19-7.05,16.4-12.54,28-9.7-.94,3.5-1.85,7-2.87,10.48a2,2,0,0,1-1.24,1.16c-10.31,2.17-20.63,4.28-31.27,6.46"/><path class="cls-1" d="M45.21,116l.62-.45-6.78-12.17-.58.33L45.21,116M77.54,16.58c.06-.73.15-1,.07-1-.51-.52-1-1-1.58-1.5-9.9-9.21-21.68-11.17-34.54-9C23.13,8.19,10.78,21.21,9,39.63,7.34,56.35,13.25,71.06,21.5,85.09c.06.11.28.13.74.32-.51-1.08-.9-1.94-1.31-2.79C15.73,72,11.06,61.28,10,49.39,8.55,33.59,13.06,20,27.34,11.82,42,3.39,57.17,2.44,71.89,12.34c1.86,1.25,3.59,2.69,5.65,4.24M49.87,77.74c18.72,0,33-13.79,33-32,0-18.76-14.23-33-33-33a32.52,32.52,0,1,0,0,65m-.24,55.17C39,116.43,28.16,100.24,18,83.64c-3.56-5.82-5.88-12.51-8-19C6.68,54.64,5.3,44.33,7.7,33.92,11.59,17,25.25,5.18,43.55,2.56,65.13-.54,86.09,12.79,91.81,33.46c3.13,11.28,1.76,22.37-2.21,33.23-4.53,12.41-11.37,23.56-18.67,34.48-6.83,10.21-13.6,20.47-20.4,30.7a13.2,13.2,0,0,1-.9,1M79.21,45.51c.05,16.08-12.68,28.37-29.37,28.36-15.52,0-29-13.19-29.17-28.5C20.5,29,33.54,16,50.22,16c16.46,0,28.93,12.68,29,29.49"/><path class="cls-2" d="M198.27,162.37l-8.84,47.22-68.54,6.22-.39-.85c.74-.46,1.45-1.25,2.23-1.33,11.43-1.24,22.86-2.36,34.29-3.58,9.54-1,19.06-2.17,28.6-3.12,2.1-.21,2.21-1.58,2.5-3q4.15-19.78,8.27-39.57a15.8,15.8,0,0,1,.95-2.45l.92.42M5.2,206.17,16.54,163.7l-1.08-.29L2.83,208.08,53.3,197.77l.24-2.23L5.2,206.17m201.55-92.32,1.07.19,8.86-45.44-65.49,8.27.08.83a20.37,20.37,0,0,0,2.25,0q12.49-1.39,25-2.82c11.07-1.25,22.14-2.52,33.22-3.73,3.06-.34,3.63.33,3,3.22q-3,15-6.09,29.95c-.65,3.18-1.27,6.37-1.91,9.55M57.17,195.6l-.49,2.48c3.59,1,7,1.9,10.39,2.91,16,4.78,32.07,9.6,48.11,14.36a5.64,5.64,0,0,0,2.15-.28c-.44-.48-.81-1.24-1.35-1.4-19.52-6-39.07-12-58.81-18.07M90.46,60.38l57,17.43.43-1.32C129.09,70,110,64.46,91,58l-.5,2.42m107.12,98.05,1.17.34c1.27-3,1.44-6.45,2.17-9.66.81-3.53,1.44-7.11,2.14-10.67s1.38-6.94,2-10.42,1.26-6.81,1.89-10.21l-1.06-.18-8.35,40.8M29,118.07l-1-.2L16.41,159.59l1.12.32C21.63,146,25.19,132,29,118.07"/><path class="cls-3" d="M29,118.07l-1-.2L16.41,159.59l1.12.32C21.63,146,25.19,132,29,118.07m168.55,40.37,1.17.34c1.27-3,1.44-6.45,2.18-9.66.81-3.53,1.44-7.11,2.14-10.66s1.38-6.95,2-10.42,1.26-6.81,1.89-10.21l-1.06-.18-8.35,40.8M90.46,60.38l57,17.43.43-1.32C129.09,70,110,64.46,91,58l-.51,2.43M57.17,195.6l-.49,2.48c3.59,1,7,1.9,10.39,2.91,16,4.78,32.06,9.6,48.11,14.36a5.62,5.62,0,0,0,2.15-.28c-.45-.48-.81-1.24-1.35-1.4-19.52-6-39.07-12-58.81-18.07m149.57-81.75,1.07.19,8.86-45.44-65.49,8.27.08.83a20.37,20.37,0,0,0,2.25,0q12.49-1.39,25-2.82c11.07-1.25,22.14-2.52,33.22-3.73,3.06-.33,3.63.33,3,3.22q-3,15-6.09,29.94c-.65,3.18-1.27,6.37-1.91,9.55M5.2,206.17,16.54,163.7l-1.08-.29L2.83,208.08l50.46-10.32.24-2.23L5.2,206.17m193.07-43.8-.92-.42a15.89,15.89,0,0,0-.95,2.45q-4.16,19.78-8.27,39.57c-.29,1.39-.4,2.76-2.5,3-9.54.94-19.07,2.1-28.6,3.12-11.43,1.21-22.87,2.33-34.29,3.58-.78.09-1.49.87-2.23,1.33l.39.85,68.54-6.22,8.84-47.23M23.42,200.59c10.1-2.08,19.91-4.08,29.7-6.14a1.88,1.88,0,0,0,1.18-1.1c1-3.3,1.83-6.63,2.73-10-11.06-2.7-19.8,2.52-26.63,9.22l13.49-3.45a32.31,32.31,0,0,1-9.48,3.14c-5.2.66-8.28,3.78-11,8.29m33.94-6.31a28.65,28.65,0,0,0,19.47,1.81c6-1.42,10.32-4.58,12.32-10.58.71-2.13,1.6-4.19,2.27-6.33a9.72,9.72,0,0,1,5.31-6,45.72,45.72,0,0,0,7.58-4.88c3.4-2.69,3.5-6.4,2.49-10.81-2.58,4.75-6.79,6.43-11.2,7.2a30.23,30.23,0,0,0-18.53,10.88c-4.38,5.2-9.87,8.3-16.95,7.86-.14,0-.29.15-.63.34l-2.14,10.49m55.43-95.6.76.49c6.45-5.32,13.32-5,20.41-1.63,4.37,2.06,8.65,4.34,13.13,6.11,5.49,2.17,10.7,1.08,15.32-2.55,2.51-2,4.67-4.5,7.39-6.09,5.63-3.3,5.74-8,4.11-13.33a11.05,11.05,0,0,0-.94-2.94,3.09,3.09,0,0,0-2.19-1.4c-6.1.6-12.18,1.44-18.28,2.1-1.67.18-2.29,1-2.66,2.52-1.16,4.78-2.44,9.54-3.75,14.28A17.58,17.58,0,0,1,144.76,99l-1.11-.31,3.51-19.15-23.3-7.41a12.53,12.53,0,0,1-1.36,11.47c-1.75,2.86-4,5.41-5.85,8.22-1.43,2.18-2.57,4.54-3.85,6.83m65.78,64.77-.2-1.23a17.61,17.61,0,0,1,2.77-.94c4.43-.73,8.89-1.31,13.3-2.13a3,3,0,0,0,1.94-1.8c.68-2.31,1.06-4.71,1.52-7.09,1-5.13,2-10.26,3.13-16-2.67.61-4.86,1-7,1.62-5.38,1.63-9.43,5.31-13.48,9A27.45,27.45,0,0,1,165.08,152c-3.69.44-7.38.89-11,1.49-5.44.88-10.42,2.77-14.65,7.14.61.43,1,.74,1.46,1a30,30,0,0,0,14.57,4.88c6.4.58,7.47,2,7,8.4a8.15,8.15,0,0,0,1.1,5.1c5,6.61,13.67,7.42,20.11,2.38,2.33-1.83,5.11-3.08,7.66-4.64.53-.32,1.21-.82,1.32-1.34,1-4.61,1.85-9.25,2.79-14.09l-16.84,1.08m35-91.6-39.23,5.09c.65,3.61,1.54,7,1.82,10.36.61,7.54-1.81,14.3-6,20.49-2.93,4.32-4,8.93-2.32,14a21,21,0,0,1,.63,2.78c1.65,8.85-2.57,16.46-11.06,19.54a68.93,68.93,0,0,1-8.53,2.12c-4.15.93-8.28,1.89-11.63,4.73-.55.46-1.36,1.36-1.22,1.76.82,2.27,1.9,4.46,3,6.92,3.26-3.92,7.28-5.69,11.64-6.67a75.06,75.06,0,0,1,10-1.6c8.39-.72,15.74-3.47,21.71-9.69a26.36,26.36,0,0,1,17.2-8.14c.64-.06,1.67-.56,1.78-1,1.1-4.83,2-9.7,3.06-14.67-5.9-.16-11.39,1.47-17,.24a6.23,6.23,0,0,1,2.9-1.42c4.34-.73,8.71-1.3,13.05-2.07a2.72,2.72,0,0,0,1.9-1.49c2.82-13.61,5.52-27.24,8.33-41.26M77.24,103c3.39,1.2,6.64,2.32,9.88,3.51s6.65,1.75,9.38,3.88l-.39,1.19-19.43-5.07c-1.74,4-1.09,8.61-3.89,12l-1.18-.29,2.5-12.28c-2.44.58-4.58,1.21-6.77,1.57a6.62,6.62,0,0,0-4.5,3C58,117.1,52.93,123.58,48,130.12c-.62.81-1.12,1.71-1.82,2.79-1.27-1.38-2-2-2.52-2.76-3-3.88-6-7.79-9-11.64a13.86,13.86,0,0,0-2.22-1.85c-.63.82-1.57,1.56-1.84,2.49-2.07,7-4,14.13-6,21.2-.19.69-.26,1.42-.43,2.4,4.35-1.47,8-.61,11.7,1.32a34.14,34.14,0,0,0,7.89,3.11c3,.72,5.57-1,7.61-3.07,3.47-3.61,6.66-7.51,10.23-11a56.51,56.51,0,0,1,9.3-7.77c6.5-4.06,12-3.44,17.89,1.36,2.55,2.06,5,4.35,7.66,6.18a11.26,11.26,0,0,0,14.7-1.47c4.38-4.34,5.43-9.71,4.14-15.56a61.78,61.78,0,0,0-2.47-7.91c-2.25-6.15-1.19-11.69,2.73-16.83,2-2.68,4.29-5.28,5.79-8.25A21.67,21.67,0,0,0,123.22,75c.17-2.06-1.1-3.49-3.43-4.17-8.37-2.46-16.66-5.16-25-7.79-1.53-.48-3-1-4.37-1.51C86.16,70.92,83.89,80.85,77.5,89c-3.2,4.06-5.77,8.61-8.63,12.93l-2.34,3.51a36.6,36.6,0,0,1,3.84-.81c3.45-.31,5.46-1.95,5.82-5.56a16.67,16.67,0,0,1,1.29-3.73l.88.29L77.24,103M45.6,129.12a12.45,12.45,0,0,0,.85-1c6.46-9.72,12.89-19.45,19.37-29.15,6.93-10.36,13.42-21,17.73-32.74,3.77-10.32,5.07-20.85,2.1-31.56C80.22,15.05,60.32,2.39,39.82,5.33,22.45,7.82,9.47,19.07,5.78,35.11,3.5,45,4.81,54.78,7.94,64.24c2,6.2,4.25,12.56,7.63,18.08,9.64,15.76,19.92,31.14,30,46.79M187,205.74l5-26.22-.62-.51c-1.68,1-3.43,1.83-5,2.93s-3.09,2.5-4.68,3.7a9.35,9.35,0,0,1-9.79,1.39,55,55,0,0,1-8.32-4.68c-2.35-1.56-3.16-4-2.75-6.83a11,11,0,0,0,.27-3.59c-.22-1.07-.9-2.7-1.67-2.88-4.16-1-8.39-2.13-12.62-2.23-3.73-.09-7.48,1.15-11.24,1.73-5.75.9-5.71.89-7.06,6.53-.44,1.83-1.21,3.58-1.82,5.37l-1-.27c-.82-3.68,1.5-7,1.65-10.72l-16.95-6.25.34-1.13c3-.34,5.74.93,8.56,1.65,3,.76,5.95,1.56,8.92,2.34l2.71-8.4.9.21-1.14,8.2,12-1.09c-3.61-2.1-5.29-5.16-6.58-8.7a15.83,15.83,0,0,0-13.38-10.82,15.09,15.09,0,0,0-12.73,3.82c-3.11,2.81-1.76,6.38-1.26,9.76,0,.09,0,.17,0,.26.55,4.26-.57,8-4.1,10.56a58.07,58.07,0,0,1-7.23,4.51,8.91,8.91,0,0,0-4.77,5.47c-.67,2.23-1.6,4.38-2.36,6.58-2,5.87-6.19,9.22-12.2,10.33-2.63.48-5.3.76-8.61,1.22l48.48,14.42c2.19-6.24,2.86-12.7,5.43-18.52l1.33.29L121.47,212,187,205.74M59.9,181.46A14.57,14.57,0,0,0,72,178.06a75.74,75.74,0,0,0,6.16-5.93c4.15-4.43,9-7.48,15.1-8.36a34.84,34.84,0,0,0,6.25-1.65,9.75,9.75,0,0,0,7.06-8.74c.33-3.37,2.19-5.56,4.94-7.13a18,18,0,0,1,22.26,3.58c.49.54,1,1.05,1.56,1.64,2.78-3.51,6.48-4.86,10.4-5.82a107,107,0,0,0,11-2.81c8.12-2.93,11.86-9.83,10.27-18.29-.21-1.1-.39-2.22-.7-3.29a15.53,15.53,0,0,1,2.07-13.37,31.69,31.69,0,0,0,2.88-4.91c1.37-3.28,2.49-6.67,3.71-10l-.72-.34c-3.14,2.67-6.32,5.29-9.41,8-7.08,6.27-14.7,6.48-22.79,2.22-3.36-1.77-6.72-3.57-10.18-5.12-4.6-2.06-9.38-2.54-14-.26-6,3-5.47,3.2-4.17,8.7.9,3.77,2.32,7.43,3.06,11.23a16,16,0,0,1-7.64,17.08c-5.58,3.09-11.09,2-17-3.29-1.73-1.56-3.43-3.17-5.25-4.62-4.14-3.3-8.83-3.87-13.33-1.28A57.41,57.41,0,0,0,63.32,133c-3.66,3.4-6.77,7.39-10.31,10.94-5.22,5.24-9,5.63-15.51,2.18A54.94,54.94,0,0,0,30.18,143c-2.42-.86-6.16.12-6.76,1.93-1.53,4.61-2.72,9.34-4.13,14.3l12.85-2.44.33,1.09A16,16,0,0,1,30,159.21c-3.11,1.05-6.22,2.11-9.39,2.94a3.74,3.74,0,0,0-3,3c-3.43,12.49-7,25-10.45,37.43-.1.36-.14.74-.26,1.42l8.41-1.72c5-1,7-2.53,9.58-7.37L19.65,196c3.54-1.53,7.72-1.73,10-5.4,1.57-2.51,4.23-3.56,6.51-5.08a25.64,25.64,0,0,1,17.5-4.36c2.62.3,4.55.3,5.17-2.75,0-.21.49-.33,1.06-.69ZM91.55,56c5,1.45,10.11,2.92,15.22,4.45,13.4,4,26.83,8,40.17,12.16,3,.94,5.8.5,8.67.21,19.35-1.93,38.68-4,58-5.88,8-.78,6.63.59,5.58,5.7q-13.66,66.52-27.39,133c-1.15,5.55-1.21,5.62-6.82,6.26q-32.72,3.72-65.45,7.3a11.91,11.91,0,0,1-4.81-.54c-19.64-6.35-39.25-12.79-58.88-19.16a4.82,4.82,0,0,0-2.44.06q-25.1,5.87-50.19,11.78c-2.14.5-3-.43-2.53-2.4q11-42.11,22.08-84.22c1.25-4.76,2.67-9.49,3.75-14.28a5.53,5.53,0,0,0-.73-4C18.23,95.8,10.73,85,5.82,72.71,1.16,61-1.29,49,.69,36.44,3.64,17.7,19.3,2.78,38.3.47,58.62-2,74.61,5.29,85.67,22.57c6.25,9.76,7.28,20.71,5.82,32,0,.34-.08.68-.11,1,0,.08.05.16.17.47M66.8,150.12c-1.67,4-1.08,8.67-4.26,12-1.09-4.06,1.31-7.69,1.5-11.67-5.16.46-9.88,3-15,2.76l-.3-.71A16.13,16.13,0,0,1,51.36,151a73.75,73.75,0,0,1,9.59-3.09c3.44-.71,5.17-2.5,5.59-5.89a14.69,14.69,0,0,1,1.05-3l.83.18-.94,7.29,18.57,7.6-.44,1.31c-6.45-.81-12.36-3.86-18.81-5.3m54.54-32c6.35,0,12.09,2.73,18.29,3.69l2.41-7.67.94.14-.93,7.21,14.8-.82.2,1.09a13.3,13.3,0,0,1-2.58,1,96.41,96.41,0,0,1-10,1.53c-2.64.19-3.74,1.32-4.05,3.86a41.86,41.86,0,0,1-1.5,6.55,6.2,6.2,0,0,1-1.78,2.61c-1.14-4.16,1.21-7.73,1.46-11.86-5.5-2.67-12-3.63-17.28-7.35m30.18,86.17c-3.72.67-7.42,1.48-11.17,2a85.77,85.77,0,0,1-12.65.72l23.78-3.1,0,.42M73.68,46.11c-.05-16-11.9-28-27.53-28-15.84,0-28.22,12.3-28.06,27.86C18.24,60.52,31.05,73,45.79,73c15.85,0,27.94-11.66,27.89-26.93M45.83,76.73a30.88,30.88,0,1,1,0-61.76c17.82,0,31.34,13.55,31.33,31.37,0,17.29-13.53,30.42-31.31,30.39M72.1,18.65c-2-1.48-3.6-2.84-5.37-4-14-9.4-28.38-8.5-42.3-.49C10.87,21.93,6.59,34.79,7.95,49.81c1,11.29,5.46,21.52,10.4,31.55.4.81.76,1.63,1.25,2.65-.44-.18-.64-.2-.7-.3C11,70.38,5.44,56.41,7,40.53,8.71,23,20.43,10.67,37.87,7.71c12.22-2.08,23.4-.22,32.8,8.53.5.47,1,.93,1.5,1.42.07.07,0,.3-.07,1M41.4,113.07,35,101.4l.55-.31L42,112.65l-.59.42m58.85-42.48L90.27,67l.21-.59,10,3.62-.27.57"/></g></g></svg>