<svg xmlns="http://www.w3.org/2000/svg" viewBox="0 0 681.79 694.11"><defs><style>.cls-1{fill:#4f5cd6;}.cls-2{fill:#2e21a8;}.cls-3{fill:#fff;}</style></defs><title>11_appel-cta-telephone</title><g id="Calque_2" data-name="Calque 2"><g id="Calque_10" data-name="Calque 10"><path class="cls-1" d="M424.27,647.58c-3.11-3.16-5.73-6.72-6.91-10.94a20,20,0,0,1-.35-8.92,78.76,78.76,0,0,1,12.36-9.87c9.73-6.59,20.2-12.74,31.83-14.44,10.15-1.48,21.4,1.12,28.51,8.26-2.84.7-5.67,1.44-8.48,2.24-11.17,3.15-22.16,7.25-32.2,13.13A96.64,96.64,0,0,0,424.27,647.58Z"/><path class="cls-1" d="M669,577.07q1.08-2.1,2.09-4.22c-21.71,34.77-57.58,64.94-85.54,81.67-22.68,13.56-48.46,22.23-74.13,23.7-28.29,1.63-56.46-5.51-80.19-24.48-.77-.62-1.54-1.25-2.3-1.89l-1.44-1.24c.27-.36.56-.72.84-1.07.64-.77,1.3-1.54,2-2.3a89.26,89.26,0,0,1,24-18.2,145.21,145.21,0,0,1,29.57-11.25c2.95-.81,5.92-1.54,8.91-2.23,1.92,2.92,3.26,6.21,5.24,9.1,5.4,7.85,15.24,11.85,24.77,12s18.79-3.26,27.24-7.65c20.34-10.57,37.07-27.22,50.3-45.94a52.15,52.15,0,0,0,7.32-13.88q.15-.45.27-.9c.08-.28.16-.57.23-.85a.13.13,0,0,1,0-.06c.14-.55.26-1.11.35-1.66.06-.36.12-.71.16-1.06s.08-.61.1-.91a17.61,17.61,0,0,0-.58-6.62,14.8,14.8,0,0,0-.67-1.86c-.13-.31-.28-.62-.43-.92h0c-.18-.36-.37-.7-.58-1l-.08-.13c-.19-.31-.39-.61-.6-.91l-.05-.06a10.69,10.69,0,0,0-.72-.94,10.21,10.21,0,0,0-.8-.94c-.27-.31-.56-.61-.85-.89s-.59-.58-.89-.85-.62-.56-.94-.83-.61-.52-.93-.77c-.67-.54-1.35-1.06-2-1.58L595.49,543c-1-.73-1.91-1.47-2.82-2.25l-.79-.7c-.26-.23-.5-.47-.75-.72-7.46-7.4-9.5-17.68-8.37-28.19,0-.43.1-.86.16-1.3,0,0,0,0,0,0,.06-.43.12-.87.19-1.31s.11-.71.18-1.06c.17-1,.38-2.09.62-3.12l.21-.9c.55-2.27,1.22-4.52,2-6.72.15-.43.3-.85.46-1.27s.31-.85.48-1.27c.32-.83.66-1.66,1-2.48.25-.58.5-1.15.77-1.71s.59-1.28.9-1.91c.13-.27.26-.54.4-.81l.36-.7c.21-.41.42-.81.64-1.21s.41-.77.62-1.14a71.2,71.2,0,0,1,4.35-6.81q.64-.88,1.29-1.71c8.93-11.37,25.82-30.36,42.45-26.57a17.7,17.7,0,0,1,5.79,2.78,50.17,50.17,0,0,1,13.26,13.29c1.06,1.5,2,3,3,4.63,5.37,9.1,9.08,19.41,13.39,29.09C686.76,524.66,682,551.78,669,577.07Z"/><path class="cls-2" d="M585.56,654.52c-22.68,13.56-48.46,22.23-74.13,23.7-28.29,1.63-56.46-5.51-80.19-24.48-.77-.62-1.54-1.25-2.3-1.89l-1.44-1.24c.27-.36.56-.72.84-1.07.64-.77,1.3-1.54,2-2.3a89.26,89.26,0,0,1,24-18.2,145.21,145.21,0,0,1,29.57-11.25c2.95-.81,5.92-1.54,8.91-2.23a4.71,4.71,0,0,0-.3-.47,23.38,23.38,0,0,0-2.83-3.42c-2.84.7-5.67,1.44-8.48,2.24-11.17,3.15-22.16,7.25-32.2,13.13a96.64,96.64,0,0,0-24.76,20.54c-3.11-3.16-5.73-6.72-6.91-10.94a20,20,0,0,1-.35-8.93c-.66.67-1.3,1.37-1.91,2.09-.19.22-.38.44-.55.67a5.74,5.74,0,0,0-.4.49c-.28.35-.55.71-.81,1.07a29.77,29.77,0,0,0-1.67,2.57,28.36,28.36,0,0,0-2.5,5.6c-.2.65-.38,1.31-.53,2a20.28,20.28,0,0,0,.11,10.15,18.69,18.69,0,0,0,1,2.82c-26,7.34-52.17,12.55-77.71,12.55-25.82,0-51-5.33-74.5-19.15A115.1,115.1,0,0,1,228,624.06a97.15,97.15,0,0,1-13.28-19.75A39.61,39.61,0,0,0,226,596.52a22.31,22.31,0,0,0,6.58-15.78A17.22,17.22,0,0,0,227,568.22a13,13,0,0,0-11.79-3.39,15.06,15.06,0,0,0-10.54,9c-3.13,7.38-2.76,16,1.14,26.36-1.46.53-2.9,1-4.22,1.33-31.29,8.24-63.92-5.81-85.77-19.05a247.46,247.46,0,0,1-62.33-54.09C16,482.8.12,426.34,9.8,373.49c5.19-28.36,17.1-53.94,34.46-74,17-19.59,40.73-36.09,70.62-49.06,27.29-11.84,56.63-19.45,85-26.82l7.38-1.92c15.6-4.07,32.21-8.5,48.63-13.9,14.09-4.64,27.72-9.46,39.71-17.38.73-.49,1.51-1,2.37-1.67A97.1,97.1,0,0,0,341,185.85c24.55-7.53,40.33-26.3,41.18-49,.72-19.37-7.76-37.27-16-54.59A257.07,257.07,0,0,1,356,58.65c-6.32-17.83-7.35-37-3.05-56.83L353.33,0h-7.24l-.25,1.2c-.44,2.12-.83,4.22-1.15,6.24A106.57,106.57,0,0,0,346,49.77c3,12.38,8.45,24.1,13.69,35.43.74,1.61,1.49,3.22,2.22,4.82,12.73,27.81,21.52,56.35-.2,76.63-13.09,12.22-34,18.06-56.46,15.88,15.42-15.2,24.8-39,10.3-57.85a37.82,37.82,0,0,0-29.46-14.6A34,34,0,0,0,259,122.74a38.67,38.67,0,0,0-8,30c1.8,10.66,9.26,20.47,20.46,26.92a73.67,73.67,0,0,0,17.13,7.06c-13.65,8.21-30.06,13.16-44.65,17.57l-1.83.55c-14.34,4.34-29.29,8.23-43.74,12C151.82,229,103.67,241.52,64.29,271.45c-43.4,33-67.32,87-64,144.43,1.56,26.83,9.11,53.3,22.44,78.69a235,235,0,0,0,50.47,64.64c23.86,21.65,48.27,36.86,72.57,45.18,15.22,5.21,29.76,7.3,43.21,6.21a82.62,82.62,0,0,0,19.63-3.84,102.86,102.86,0,0,0,20.26,28.35c17.38,17.37,41.36,30.07,67.52,35.75a165,165,0,0,0,35.12,3.64c18.1,0,37.57-2.63,58.79-7.89,7.29-1.8,14.77-4,22.58-6.48.09.11.17.22.27.33s.23.29.35.43.28.34.43.5l.55.62s0,0,0,0l.54.56a0,0,0,0,0,0,0c.26.28.53.56.81.83s.83.82,1.25,1.22.85.79,1.28,1.18c.63.57,1.28,1.12,1.93,1.67a111.35,111.35,0,0,0,31,18.54q2.34.91,4.69,1.73a115,115,0,0,0,16.86,4.37c1.62.29,3.24.55,4.87.77a128.93,128.93,0,0,0,25.09,1c3.21-.18,6.42-.48,9.62-.88q3.61-.46,7.2-1.09c.93-.16,1.87-.33,2.8-.52q3.39-.68,6.75-1.48,7.14-1.74,14.14-4.12a176.36,176.36,0,0,0,33.6-15.61,0,0,0,0,0,0,0l2-1.23c.68-.42,1.37-.84,2.06-1.28l.48-.3,1.6-1q2.32-1.48,4.68-3.08,1.91-1.29,3.84-2.64c2.16-1.51,4.35-3.09,6.55-4.73l2-1.47q3.44-2.59,6.89-5.38l1.95-1.58c5.55-4.54,11.09-9.42,16.51-14.58l1.61-1.54q1.62-1.56,3.21-3.15c.53-.53,1.06-1.06,1.58-1.6s1.06-1.07,1.58-1.61q1.58-1.62,3.12-3.27l1.54-1.66q1.53-1.66,3-3.35c.58-.65,1.16-1.3,1.72-2l1.26-1.46c.49-.57,1-1.14,1.46-1.72l1.45-1.74c.48-.58.95-1.17,1.42-1.75q2.13-2.64,4.17-5.32,1.35-1.8,2.67-3.61c.44-.6.87-1.21,1.3-1.82l1.28-1.83q1.26-1.83,2.48-3.69l1.2-1.85h0a157.79,157.79,0,0,0,9.52-17.1C649.39,607.62,613.52,637.79,585.56,654.52ZM260.23,158.9c-5.24-10.51-2.76-24.73,5.89-33.8s22.14-10.77,33.93-4.58c12.32,6.48,18,19.84,14.56,34-2.57,10.47-8.46,19.21-18,26.72-1.5-.29-2.93-.6-4.28-.92C281.22,177.68,266.65,171.78,260.23,158.9ZM210,591.06c-1.22-5.92-.74-11.53,1.31-15.4a7.35,7.35,0,0,1,5.84-4.16,7.07,7.07,0,0,1,6.2,3c2.46,3.22,3.32,6.43,2.55,9.54-1.17,4.72-6.26,9.59-14,13.49A48.79,48.79,0,0,1,210,591.06Z"/><path class="cls-2" d="M661.87,469.76A87.15,87.15,0,0,0,646.06,475a84.85,84.85,0,0,0-45.11,46.3c-.35.86-.68,1.71-1,2.57.43.41.86.81,1.32,1.2,5.07,4.34,11.46,7.62,14.48,13.57,4.69,9.24-.78,20.27-6.76,28.74l-1.29,1.78c1.58-5,1.81-10.17-.56-14.84-3-6-9.42-9.24-14.48-13.58-.27-.23-.53-.46-.79-.71s-.5-.47-.75-.72c-16.23-16.1-6.78-45.79,5-62-5.71,14-7.74,30.64.36,42.38a95.24,95.24,0,0,1,20-30.18,90.88,90.88,0,0,1,27.82-19,115.19,115.19,0,0,1,14.6-5.41C659.95,466.63,660.93,468.18,661.87,469.76Z"/><path class="cls-3" d="M666.18,518.09a92.43,92.43,0,0,1-5.49,46.26c-2.86,7.15-7.42,14-11.76,20.38-3.15,4.59-8.31,13.09-14,14.56a.77.77,0,0,1-1-.82c.56-3,2.5-4.73,4.33-7.15a85.49,85.49,0,0,0,6-9.46c3.56-6.28,5.67-12.78,7.69-19.67a119.57,119.57,0,0,0,4.82-43c-.42-6.1,8.56-7.23,9.44-1.15Zm-1-18.93a4.31,4.31,0,0,0-1.51-2.41l-1-.61a4.54,4.54,0,0,0-2.37-.35h-1.21a4.68,4.68,0,0,0-4,5.87,4.74,4.74,0,0,0,6.31,3.23l1.1-.42a4.52,4.52,0,0,0,2.66-5.3ZM554.24,630.44c-5.58,1.53-10.77,5-16.11,7.21a76.21,76.21,0,0,1-18.19,5.42c-12.11,1.79-23.8-.88-33.22-8.8-1.36-1.15-3.49.8-2.29,2.2,7.94,9.26,20.54,12.39,32.34,11.58a70,70,0,0,0,20.2-5c6.33-2.44,13.76-5.15,19.1-9.4a1.89,1.89,0,0,0-1.82-3.27Zm20.19-11a1.71,1.71,0,0,0-1.35-1.07c-2.07-.27-3.18,1.62-4.32,3.07a13.29,13.29,0,0,0-2.9,4.89,1.64,1.64,0,0,0,2.22,1.75c1.71-.76,3-2.4,4.23-3.79s2.79-2.82,2.13-4.85Z"/></g></g></svg>