<svg xmlns="http://www.w3.org/2000/svg" viewBox="0 0 367 55"><defs><style>.cls-1{fill:#f8ac3a;}</style></defs><title>header-soulignement-facile</title><g id="header-soulignement-facile"><path class="cls-1" d="M332.53,1.9c.21.53.59.11.83-.92l0,.12c.31,1.21.57-.51.68-.2.41,1.11.69,1,1.15.05.12-.25.67,1.15,1.06,1.37l.29.16a1.21,1.21,0,0,1,1.2-.43c.29.15,1.49.84,2,1.18l.42-1.09a.16.16,0,0,1,.27-.08c.5.51,1,1.45,1.49,1.47h.4c.38-.84.65-.21.6,1.39l.77-1.87.64-1.56c.63.73,1.49,1,1.91.55s1.69,1.6,2.14,1.5,2,1.35,2.42,1.64l0-1.72c0-.1.28-.41.33-.31l.59,1.19a1.23,1.23,0,0,1,1.77.5c.26.64,1.18-.72,1.41-.4s1.11.81,1.41.33,2-.32,2.94-.22l.82,1.08c.27.35.78-.72,1.2-.85l.3-.09c.35.29.76.31.92,0l0,0,.76,1.89c.9-1,1.75-.8,1.88.46s.85,4.25,1,4.16.67,0,.71.31a5.71,5.71,0,0,1-.48,2.16c-.3.5-.33,4.49-.8,6.57l.16,2.59,0,.6c0,.93-.13,1.46-.25,1.18s-.45-.3-.56.34h0c.82,1-.15,2.79.24,4a1.71,1.71,0,0,1,0,.68l-.63,1.74a4.14,4.14,0,0,1-1.5,3.23L362.4,33l-.12-.28a3.09,3.09,0,0,1-1.66,1.16c-.45,0-2-.32-2.38,0l-.39,0-.38,0a3.88,3.88,0,0,0-1.06-.44c-.18,0-.84-.14-1.06.06a7.6,7.6,0,0,1-2.7.34,34,34,0,0,1-4.9-.3c-.6-.22-2.21,1.35-2.35,1.35l-.13,0-.79.18a2.46,2.46,0,0,0-2.27-.23c-.39.32-1.68-.67-2-.53s-1.49.42-1.89.14-2.31.35-3.24.43h-3.42c-.52,0-1.35.51-1.51-.11-.39-1.46-.9.59-1.19-.7-.05-.25-.36-.25-.54-.17-.4.18-1,1-1.14.64l-.57-1.32c-.42.94-1,1.42-1.29,1.07s-.92-.56-1.26-.87-1.38.92-1.68.42-1.33,1.18-1.66,1.37-1.55-1.4-2.17-1.74L318,34.72l-.46.88a7.19,7.19,0,0,1-2-1.23,6.52,6.52,0,0,0-1.52-.86c-.47-.24-2.26,2-3.07,2.92l-.58-2.5a.31.31,0,0,0-.55,0c-.63,1.56-1.35-1.06-2,.38a.78.78,0,0,1-.88.54c-.54-.17-1.07-.86-1.61-.88l-.47,0c-.51.45-1.17.73-1.46.62s-1.35-.18-1.59-.54-1.21,1-1.54,1.38-1.18-1.2-1.49-.81-1.7.09-2.26-.19H296c-.5,0-1,.48-1.49.45l-.92,0a10.69,10.69,0,0,0-3.63-.56l-.83.72-.73.63a5.33,5.33,0,0,0-2.9-.71h-7.88a18.83,18.83,0,0,0-2.36,0l-.49.06-1.15.76a4.57,4.57,0,0,1-1.43-.56c-.6-.31-3.94.46-4.17.21s-.9-.17-1.15-.28-1.46.7-2.09.77H254.56c-.65,0-2.57.18-4.28.35s-6.73,1.27-7.37,2l-.19-.45-.49-1.13c-.33.72-1,.69-1.49-.06l-.6,1.2c-.33.65-1,.11-1.54.11h-.85a4.79,4.79,0,0,0-2.43.46c-.4.29-1.82-.83-2.24-1.6l-.3,1.2-.44,1.74c-.35-1-1-1.6-1.5-1.4a7.72,7.72,0,0,1-2.41.44c-.37-.08-1.84.64-2.52.34l-.62-.14-.65-.15a4.7,4.7,0,0,0-2,.68c-.38.3-1.49.5-2.09,1.24l-.69-.68c-.57-.56-1.3-.12-2-.12h-.66a3,3,0,0,0-2,.93h-.68c-.37-.47-1.95-.75-3.51-.62s-5.89,1.47-6.14,2.49l-.47-1.47c-.11-.34-.74.52-1.14.65l-.39.13c-.43,0-1.09-.63-1.47-1.36s-1.73,1.21-2.16,1.22-1.93,0-2.36,0a7.2,7.2,0,0,0-2.48.63H194c-.43,0-.86-.62-1.27-.55l-.81.12a21.44,21.44,0,0,0-3-.08c-.78.05-3.09,1.08-3.57.79l-.43-.07-.63-.1a2.48,2.48,0,0,1-1.89,0c-.35-.25-1.54,1.26-2,1.43a18.67,18.67,0,0,1-2.74,0,30.14,30.14,0,0,0-4,.27,62.25,62.25,0,0,1-6.2.64c-1.16,0-4.4.18-4.64.56s-1.31-.57-1.62-.7-1.46,1.2-2,1.3-2.77,0-3.67,0a31,31,0,0,0-4.86.27,36.1,36.1,0,0,1-6.33.54H141c-1.81,0-3.67,0-4.15.05l-.36.93c-.34.88-.63-1.94-1.1-.18l-.09.35a1.19,1.19,0,0,0-1.36.26c-.32.36-1.56-1-2.29-.46H131L125.9,48c-5.64,0-10.83-.35-11.55-.8l-.55,1.54-.08.24-1.17-.51c-.41-.18-1.61-.12-1.75.23s-.78-.45-.95-.24a1.92,1.92,0,0,1-1.41.26l-.37-.13-1.79.33-.39,0a1,1,0,0,1-.94-.73c-.09-.42-.89.43-1.27.47l-.35-.12c-.17-.06-.39-.66-.49-.53L101.5,49.9A20.24,20.24,0,0,0,95.77,49H90.71a6.08,6.08,0,0,1-2.5-.26c-.45-.22-2,1.84-2.74,2.54L85,49.17c-.06-.25-.42-.37-.53-.16l-.66,1.18a3.41,3.41,0,0,0-2.71-.42l-.68.17a9.93,9.93,0,0,1-2.36,0H68.27a6.74,6.74,0,0,1-2.53-.46c-.6-.28-2.3,1.17-2.52.93a7.66,7.66,0,0,0-2.48-.68c-.93-.14-3.62,1.06-4,1s-1.35-.09-1.59-.53-1.32.7-1.63.83-1.33-.86-1.73-.55a12.49,12.49,0,0,1-2.15.69c-.37.15-1.61-.85-1.89-.67a7.12,7.12,0,0,1-2.36.36,27.35,27.35,0,0,1-4.93-.6l-1.08,1.63-.2.29A3.88,3.88,0,0,0,37.5,52l-.41-.63-.67-1c-.48.81-1.23,1.3-1.66,1.08l-.49.44-.52.47a3,3,0,0,0-1.76-.1c-.29.16-2.4-1.29-4.2-1.64l-1.5,2.24-.54.8A4.12,4.12,0,0,0,23.95,53a21.39,21.39,0,0,0-2.15.14c-.39.09-1.31-.48-1.47-.3a3.44,3.44,0,0,1-1.57.18,22.47,22.47,0,0,1-2.6-.24c-.42-.12-1.66.2-2-.11s-1.16,1.1-1.26.83-.58-.95-.71-.58A2.36,2.36,0,0,1,10.81,54h-.39C9.69,54,9,54,8.24,54h-.4a5,5,0,0,0-.46-1.47c-.07,0-.28.35-.3.79s-1,.43-1.73.14H4.24c-.57,0-1-.16-.85-.26a2.3,2.3,0,0,0,.15-1.5,17.77,17.77,0,0,1-.19-3.59c.07-.73.13-2.94-.1-2.94s-.76.24-.72.52a2.71,2.71,0,0,1-.05,1.18c-.12.1-.48-.44-.69-1S.55,44.26.35,43.67s-.57-3-.17-3.31.86,2.9,1.14,3.52h.33c.12,0,.27-.51.34-.88l0-.2c-.07-.37-.22-.58-.32-.47s-.43.09-.43-.36A4.45,4.45,0,0,1,2,39.72a5.17,5.17,0,0,0,1.57-2.28c0-.6.14-2.5.32-1.83s.87,1.79,1.15,1l.09-.77c.12-1,.21-.8.47-.32l.18.33c.29,0,1.07.09,1.73.11s2.25-1.64,2.1-1.82S10,32.77,11,31.94l1.16,1.34a1.86,1.86,0,0,0,.69.58l.17.05a1.7,1.7,0,0,0,.21-1.56A6.43,6.43,0,0,1,13,29.83l.17.07c.2.08.45.72.56.57l.66-1a7.61,7.61,0,0,0,1,2.24c.16.06.8,0,.65-.48A4.11,4.11,0,0,1,16.41,29a1.85,1.85,0,0,1,1.75-.85c.22.07,1.13-.09,1.46,0s1.31-.1,1.76.29,1.37-2.19,1.62-2.11.71,1.56.75,1.74.23.39.3.08v-3a8.24,8.24,0,0,1,2.27,2l.62-.93.56-.84a5.13,5.13,0,0,0,2-1.17c.32-.39,1.08,1.26,1.22,1.1l0-.25.08-.46c.17-.16.63,0,1,.29h.36l.53,0c.56-.37,1.21-.79,1.44-.92s1.25-.28,1.69-.43a5.64,5.64,0,0,1,2.44-.22c.46.21,2-1.24,2.43-1.37s1.78.57,2,.15,1.05.43,1.26,0,.92.41,1,.08.6-.91.75-.55.75,1.09,1,.86a2.91,2.91,0,0,1,1.71-.32c.41.11,1.65-.29,2-.21A2.46,2.46,0,0,0,52,21.31a10,10,0,0,1,1.58-.87c.43-.26,1.68,1.53,2,1.8s.59-1.87.73-2.07l.08.11.61.85c.62-.62,1.19-1.22,1.26-1.33l0,0c.34.31.73,1.09,1,.88l.33-.24a.6.6,0,0,0,.84-.26c.17-.32,1,0,1.38.38l.35.2.24.14a5.58,5.58,0,0,1,1.2-.46,2.43,2.43,0,0,1,2.24.8l.58-1.34c.33-.76,1,.5,1.45-.74,0-.12.35.48.55.62l.87.64A4.39,4.39,0,0,0,71.49,19c.22-.46,1,.35,1.19-.18s.87.82,1,.94.64.22,1,.47,1.85-.85,2.55-1.06l.51,1.34.08.2c.21.13.54-.21.72-.74a2,2,0,0,1,.95-1.09,5.12,5.12,0,0,1,2.51.66l.62-1.65c.16-.42.68.2.95-.12l.61-.72a5.79,5.79,0,0,0,1.35,1.53c.22.07,1-.43,1.31-.13l.26.38c.34.49.5-1.92.93-.35,0,.15.49-.61.75-.62h.37c.4.28.84.62,1,.75s1-.2,1.53-.09,1.9-1.47,2-1.29a15,15,0,0,1,1.22,2l.36-1.55.56-2.35a14.36,14.36,0,0,0,2.31,2.32c.46.29,2-.87,2.35-1.28s1.33-.44,1.68-.69l.23.42.25.47c.22.74.63.74.91,0l.24-.58,0-.1c.14-.14.39,0,.57.4s.8,1,1,.64,1.67-.39,2-.16,1,.09,1.27.29.93-.28,1.16-.24a2,2,0,0,0,1.4-.74c.3-.46,1.59.93,2.2,1.2l.39-1.47c0-.16.25-.07.38,0l.8.32a2.08,2.08,0,0,0,2.34-.52c.41-.61,1.93,1.06,2.45,1l.42-.29.39-.27a4.07,4.07,0,0,0,1.56-.59c.43-.28,1.56,1.31,1.7,1.43l.1-.11,1.15-1.33a26,26,0,0,0,3,.3A2.72,2.72,0,0,1,130.23,17l.46-2.08.2-.92a4.42,4.42,0,0,1,1.3,1.75c.16.52,1-.82,1.23-1s1,.91,1.17,1l.1-.24.55-1.26A6.23,6.23,0,0,0,136.9,16c.38.17,1.45-.6,1.71-1s1.17.39,1.3.27A4.68,4.68,0,0,0,140.7,14c.15-.42.74.25.88-.25l.44.57.49.62c.73-.37,1.71-.91,2.17-1.21s1.7.51,1.9.38,1.06.19,1.44.52l.36.09.13,0c.2-.61.41-.63.45,0s.43,2.06.72,1.6,1.19-1.78,1.43-2.09a3.4,3.4,0,0,1,2.17-.19c.29.17,1.23-1.07,1.59-1.18a3,3,0,0,1,1.9.39c.31.33,1.9-.13,2.71-.17l.51-.82.45-.74c.29.6.63,1.35.77,1.68s1.37-.3,2-.81a3.64,3.64,0,0,1,2.83-.12,2,2,0,0,0,1.61.08,5.11,5.11,0,0,1,2-.39c.38.09,1.4-.7,1.61-1s.8.74.87.81l.05,0c.34-.32.67-.85,1-.94s.65.62.95.49l.45-.2a5.69,5.69,0,0,0,1.51-.6c.32-.21,1.08.83,1.15.39l.1-.32.07-.23c.14-.12.66,0,1.15.29s2.71-.5,3.09-.24l.3.39.38.49c.31-.54.85-.7,1.2-.35l.25-.23.45-.41c.44-.81,1-1.26,1.27-1a1.52,1.52,0,0,0,1.54-.14c.32-.31,1-.22,1.24-.36s1,.24,1.25.44.92-.22,1,.09.67.88,1.07.54,2.79-.18,3.61-.26A8.34,8.34,0,0,0,197.95,8l.41.29.79.55c.94-.07,2-.11,2.34-.1l.35-.41.46-.53a3,3,0,0,1,1.63.33c.3.22,1.32-.22,1.58-.09l.24.15.22.14a3.62,3.62,0,0,0,1.81-.26l.68-.31L209,7.5c.64-.24,1.21-.44,1.26-.44s.45.26.8.44a13.09,13.09,0,0,1,1.77.64c.29.26,1,1.13,1.12.68a1.64,1.64,0,0,1,.82-1c.21,0,1-1.1,1.43-1.17s2.2-.16,2.89-.26a10,10,0,0,1,3.13.62c.32.17,1.24-1,1.46-.75s.61.17.75.29,1.16-.41,2-1l.77.24.57.18a1.12,1.12,0,0,1,1.65-.37l.41.09.42.09a.85.85,0,0,1,1.4.36c.3.62,1.63-1.6,2.34-2l.59,1.17c.05.1.27-.13.33-.34l.1-.34a2.54,2.54,0,0,1,.54-1.29c.23-.22,1.05.75,1.35,1s1.44.11,1.74.35.94-.14,1.16-.23a4.15,4.15,0,0,1,1.65.49c.42.22,1.87-.72,2.34-.44l.18-.43c.59-1.37.8,1,1.16.6l.38-.4a4.83,4.83,0,0,1,1.25-1.79c.32-.19,1.54.22,1.86.4a2.23,2.23,0,0,0,1.74-.2c.3-.3,1.39.29,1.68.63s1.41,0,2-.35l.61.66c.43.46,1,.39,1.38-1L257.31,2c1.3,1.32,2.67,1,3.94.18.5-.34,1,1.83,1.44-.23.15-.63,1-.31,1.49-.22l.29.06c.31.41.67.61.81.45a7.68,7.68,0,0,0,.8-1.16c.29-.52,1.09,1.31,1.36,1.21s.93-.94,1.07-1,.73.81,1,1.34h.27c.27,0,.54-.66.83-.89l.47-.38c.5.49,1,1,1.16,1.1s.51-.28.69-.56.8.39,1,.29L274,2c.16-.29.3-1,.42-1,.34.08.67.73,1,.67s.81-.76,1.22-.9L277,.64a1.07,1.07,0,0,0,1.3-.28l.32.7.21.46c.35.07,1.06.24,1.56.39s2-.8,2.37-.36,2.18-.19,3.36.52l1.1-1.3a.71.71,0,0,1,1.16,0l.54.7a8.38,8.38,0,0,0,1.48-1.71h.27c.27,0,.55.61.81,1l.15.22a3.73,3.73,0,0,0,2,1c1,.22,3.36-2,3.43-2s.18.49.26.67.82,0,1.26-.24A6,6,0,0,1,300.9,0a9.15,9.15,0,0,1,2,1.79c.33.43,1.39-.63,1.64-.09s1.43-1.34,2-2l.6,1.48.26.64A6.37,6.37,0,0,1,310.15.64l.65.1.68.1a1.56,1.56,0,0,0,2.19-.73l.63,1.38c.49,1.07,1.05-2,1.71-.5.55,1.24,1,1,1.5-.26,0-.08.14-.06.19,0l.45.5a4.89,4.89,0,0,1,1.24.61c.19.17,1.07-.79,1.5-1.08l.36,0,.75.1c.82,0,2.2-.15,3.06-.24l.79.08.49,0a13.25,13.25,0,0,0,1.47.94c.27.13.94-.48,1.15-.67s.9.7,1.08.78l0-.14.4-1.89c.47,1,1.83,1.56,2,2.08"/></g></svg>