<svg xmlns="http://www.w3.org/2000/svg" viewBox="0 0 117 62"><defs><style>.cls-1{fill:#fff;}</style></defs><title>header-fleche-blanche</title><g id="header-arrow-white"><path class="cls-1" d="M.2,48.73C0,51.36.45,62.05,4.75,62c3,0,.92-12.64,1.26-15.07C7.9,33.31,19.13,22.44,30.91,16.4a52.7,52.7,0,0,1,37.48-4.58c6.77,1.67,12.83,4.49,17.85,9.45.4.4,9.35,10.85,6.89,11.86-3.43,1.4-11.12-3.67-15.7-1.45-5.21,2.53-4,5.72-.25,8.89,5.32,4.53,25.45,10.32,30.26,3.77,2.12-2.89,3.66-10,4.88-13.55a96.44,96.44,0,0,0,4.34-17.58c2.38-18.56-13.52,9.61-13.72,9.6-2.21-.14-6.43-8.05-8.44-9.93A44.66,44.66,0,0,0,77.8,3.45,63,63,0,0,0,42.86,2.29C20.34,8.24.2,23.26.2,48.73c-.29,3.73,0-3.13,0,0"/></g></svg>