<?xml version="1.0" encoding="utf-8"?>
<!-- Generator: Adobe Illustrator 21.0.0, SVG Export Plug-In . SVG Version: 6.00 Build 0)  -->
<svg version="1.1" id="Calque_1" xmlns="http://www.w3.org/2000/svg" xmlns:xlink="http://www.w3.org/1999/xlink" x="0px" y="0px"
	 viewBox="0 0 84.6 78.2" style="enable-background:new 0 0 84.6 78.2;" xml:space="preserve">
<style type="text/css">
	.st0{fill:#0000FF;}
	.st1{fill:#F7941F;}
	.st2{fill:#FFFFFF;}
</style>
<title>00_logo-benoitchangeat</title>
<path class="st0" d="M37.2,30.8L37.2,30.8l-0.1,0.1l0.3-0.1L37.2,30.8 M52.5,50.4L52.5,50.4L52.5,50.4z"/>
<path class="st1" d="M54.7,76.4c-5.2,1.7-10.7,2.2-16.1,1.5c-5.4-0.7-10.6-2.6-15.1-5.6c-4.4-2.8-8.1-6.6-10.9-11l9.2-3.4
	c6.6,8.8,17.9,12.8,28.6,9.9C51.8,70.7,53.2,73.5,54.7,76.4"/>
<path class="st1" d="M26.4,20.8c-6.3,5.1-10,12.8-10,21L7.6,49c-0.6-3-0.8-6.2-0.7-9.3c0.4-7.6,3.2-14.9,8-20.8c2.3-2.8,5-5.3,8-7.4
	L26,20L26.4,20.8z"/>
<path class="st0" d="M45.9,54L45.9,54l0.4-0.1l0.3-0.1L45.9,54 M33.6,33.8l-0.3,0.4v0.1l-0.1,0.2l0.1-0.2v-0.1L33.6,33.8
	c0.2-0.3,0.4-0.5,0.7-0.8C34,33.3,33.8,33.6,33.6,33.8"/>
<path class="st2" d="M52.5,50.4L52.5,50.4L52.5,50.4c-0.4,0.4-0.8,0.7-1.1,1l-0.4,0.3l0,0l-0.4,0.3l0,0l-0.1,0.1L50,52.4l0,0
	l-0.2,0.1h-0.1l-0.3,0.2L48.9,53c-0.3,0.1-0.5,0.3-0.8,0.4l-0.4,0.2c-0.3,0.1-0.6,0.2-1,0.3c0.3-0.1,0.6-0.2,0.9-0.3
	c-0.4,0.1-0.8,0.2-1.1,0.3L46,53.9L45.4,54h-0.2c-0.3,0-0.6,0.1-0.9,0.1h-0.5h-0.6h-0.6l0,0h-0.6c-0.2,0-0.4,0-0.5-0.1h-0.1
	c-4.8-0.7-8.8-4.1-10.2-8.7l0,0c-0.1-0.3-0.2-0.6-0.2-0.9S31.1,44,31,43.8c0-0.1,0-0.1,0-0.2c-0.2-1.3-0.2-2.6,0-3.8
	c0-0.1,0-0.1,0-0.2c0-0.3,0.1-0.5,0.1-0.7s0.1-0.6,0.2-0.9l0,0c0-0.2,0.1-0.3,0.2-0.5s0.1-0.3,0.2-0.5l0.2-0.4l0.1-0.3l0,0l0.2-0.4
	c0.2-0.4,0.4-0.8,0.7-1.1l0,0c0.1-0.1,0.1-0.2,0.2-0.3l0,0l0.1-0.2v-0.1l0.3-0.4c0.2-0.3,0.4-0.5,0.7-0.8l0,0l0.3-0.3l0,0l0,0
	l0.3-0.3l0,0c0.1-0.1,0.2-0.2,0.4-0.3l0.3-0.3l0.2-0.1l0.2-0.1l0,0l0,0c0.2-0.1,0.4-0.3,0.6-0.4l0,0l0,0l0.3-0.2l0,0h0.1h0.1l0,0
	L37,31l0,0l0.5-0.3h0.1l0.6-0.3l0.6-0.2l0.7-0.2l0.3-0.1l0.7-0.2l0,0l0.3-0.1l0.3-0.1h0.3c0.3,0,0.5-0.1,0.8-0.1H43
	c6.9,0,12.6,5.6,12.6,12.6c0,3.2-1.2,6.3-3.5,8.7 M43,21.8c-0.8,0-1.6,0.1-2.4,0.1l0,0c-0.5,0.1-1,0.1-1.4,0.3l0,0L21.7,0.5
	c-0.5-0.6-1.3-0.7-1.9-0.2c-0.5,0.4-0.6,1-0.4,1.5l3.6,9.7l3.1,8.4l0.3,0.9c0,0.1,0.1,0.2,0.1,0.4c0.7,2.1,1.4,4.3,2.1,6.4
	c0,0.1,0,0.2,0,0.3c0,0.1-0.1,0.2-0.2,0.3c-3.2,3.5-5,7.9-5.3,12.6c-0.1,1.1,0,2.3,0.1,3.4l0,0l0,0l-1.4,1.2l-3.2,2.7L0.5,63
	c-0.6,0.5-0.6,1.3-0.2,1.9c0.4,0.4,0.9,0.6,1.5,0.4l10.8-4l9.2-3.4l5-1.8c0.6-0.2,1.2-0.4,1.8-0.6l0,0c2.7,3,6.3,5.1,10.2,6l0.6,0.1
	l0.6,0.1l0,0c11,1.9,21.5-5.6,23.3-16.6c1.9-11-5.6-21.5-16.6-23.3c-1.1-0.2-2.2-0.3-3.3-0.3"/>
<path class="st1" d="M52.4,50.4L52.4,50.4c-0.4,0.4-0.8,0.7-1.1,1l-0.4,0.3l0,0l-0.4,0.3l0,0l-0.1,0.1L50,52.4l0,0l-0.2,0.1h-0.1
	l-0.3,0.2L48.9,53c-0.3,0.1-0.5,0.3-0.8,0.4l-0.4,0.2c-0.3,0.1-0.6,0.2-1,0.3S46.2,53.9,46,54l0,0L45.5,54h-0.1l-0.4,0.1l0,0h-0.5
	H44h-0.6h-0.6l0,0c-3.2-0.2-6.2-1.5-8.4-3.8l0,0c-0.2-0.2-0.4-0.4-0.6-0.7c-0.2-0.2-0.3-0.4-0.5-0.6c0-0.1-0.1-0.1-0.1-0.2
	c-0.4-0.5-0.7-1.1-1-1.6c-0.3-0.6-0.5-1.2-0.7-1.8c0-0.1,0-0.1-0.1-0.2c-0.1-0.2-0.1-0.5-0.2-0.7s-0.1-0.6-0.2-0.9l0,0
	c0-0.2-0.1-0.3-0.1-0.5c-0.3-2.7,0.2-5.4,1.5-7.7l0.2-0.3l0.3-0.4l0,0l0.2-0.3l0,0l0.1-0.2v-0.1l0.3-0.4c0.2-0.3,0.4-0.5,0.7-0.8
	l0,0l0.3-0.3l0,0l0,0l0.3-0.3l0,0l0.4-0.3l0.3-0.3l0.2-0.1l0.2-0.1l0,0l0,0c0.2-0.1,0.4-0.3,0.6-0.4l0,0l0,0l0.3-0.2l0,0H37H37l0,0
	l0.1-0.1l0,0l0.5-0.3h0.1l0.6-0.3l0.6-0.2l0.7-0.2l0.3-0.1l0.7-0.2l0,0l0.3-0.1l0.3-0.1h0.3c-4.7,5.2-4.3,13.2,0.8,17.9
	c2.7,2.4,6.3,3.6,9.8,3.2"/>
<path class="st2" d="M79.4,8.1l-22.3,7.4c-0.5,0.1-0.9,0.7-0.8,1.2c0.1,0.3,0.3,0.6,0.6,0.7l9.1,4.3c0.4,0.2,0.8,0.1,1.1-0.2
	L80.4,9.9c0.5-0.3,0.7-0.9,0.4-1.4C80.5,8,79.9,7.9,79.4,8.1L79.4,8.1"/>
<path class="st1" d="M82.1,11.1l-10,21.3c-0.2,0.5-0.8,0.8-1.3,0.6c-0.3-0.1-0.6-0.4-0.6-0.7l-3.3-9.5c-0.1-0.4,0-0.8,0.3-1.1
	L80.4,9.9c0.3-0.5,1-0.5,1.4-0.2C82.3,10,82.4,10.7,82.1,11.1"/>
<path class="st2" d="M84.5,62.7l-9.4-15.6c-0.2-0.4-0.7-0.5-1.1-0.3c-0.2,0.1-0.3,0.3-0.4,0.5l-1.7,7.6c-0.1,0.3,0.1,0.6,0.3,0.8
	l11.2,8c0.4,0.3,0.9,0.2,1.1-0.2C84.7,63.3,84.7,62.9,84.5,62.7"/>
<path class="st1" d="M82.7,65.2l-17.9-4c-0.4-0.1-0.7-0.5-0.6-0.9c0-0.2,0.2-0.4,0.4-0.5l6.7-4.1c0.3-0.2,0.6-0.2,0.9,0l11.2,8
	c0.4,0.2,0.5,0.7,0.2,1.1c-0.2,0.3-0.5,0.4-0.9,0.3"/>
</svg>
