<svg id="benoitchangeat-logo-vertical" xmlns="http://www.w3.org/2000/svg" viewBox="0 0 66 505"><defs><style>.cls-1{fill:#fff;}.cls-2{fill:#ffa114;}.cls-3{fill:blue;}</style></defs><title>benoitchangeat-logo-vertical</title><path class="cls-1" d="M28.55,114.56a11.78,11.78,0,0,1-4.3-.81,12.67,12.67,0,0,1-3.72-2.22,10.75,10.75,0,0,1-2.61-3.39,9.72,9.72,0,0,1-1-4.36,9.15,9.15,0,0,1,.56-3A12.25,12.25,0,0,1,19,97.81a10.06,10.06,0,0,1,2.25-2.33,6.11,6.11,0,0,1,2.81-1.2h9a14.69,14.69,0,0,1,2.75,1.67,12.85,12.85,0,0,1,2.31,2.28A11,11,0,0,1,39.69,101a8.78,8.78,0,0,1,.59,3.23,9.18,9.18,0,0,1-1,4.19,10.25,10.25,0,0,1-2.61,3.28,12.36,12.36,0,0,1-3.75,2.11,13,13,0,0,1-4.39.75m0,3.83a17.14,17.14,0,0,0,5.53-.92,16,16,0,0,0,4.83-2.61,12.89,12.89,0,0,0,3.42-4.11,11.58,11.58,0,0,0,1.28-5.47,11.23,11.23,0,0,0-1.8-6.33,16.59,16.59,0,0,0-4.75-4.67H54.72V90.5H14.16v3.39h5.61a12.65,12.65,0,0,0-4.44,4.47,12,12,0,0,0-1.72,6.3,12.52,12.52,0,0,0,1.2,5.42A13.7,13.7,0,0,0,18,114.45a15.11,15.11,0,0,0,4.75,2.89,15.86,15.86,0,0,0,5.78,1.06"/><polyline class="cls-1" points="54.72 222.83 49.16 222.83 49.16 226.61 54.72 226.61"/><rect class="cls-1" x="14.17" y="222.83" width="28.94" height="3.78"/><path class="cls-1" d="M30.17,126.66a12.64,12.64,0,0,1,4.22,1A10.66,10.66,0,0,1,37.72,130a10.13,10.13,0,0,1,2.17,3.31,10.34,10.34,0,0,1,.78,4,10.28,10.28,0,0,1-2.94,7.25,11.44,11.44,0,0,1-3.3,2.34,11.78,11.78,0,0,1-4.25,1.08Zm4.27,23.83a15.13,15.13,0,0,0,4.72-2.94,14.34,14.34,0,0,0,3.25-16.11,14.3,14.3,0,0,0-3.22-4.58,14.89,14.89,0,0,0-4.73-3,15.31,15.31,0,0,0-5.75-1.08,15.7,15.7,0,0,0-5.84,1.08,15.29,15.29,0,0,0-4.8,3,14.22,14.22,0,0,0-3.28,4.58,13.93,13.93,0,0,0-1.19,5.81,15.45,15.45,0,0,0,.53,4.06,13.84,13.84,0,0,0,1.5,3.55,13.2,13.2,0,0,0,2.28,2.83,9.71,9.71,0,0,0,2.91,1.89l.89-3.28a7.08,7.08,0,0,1-2.14-1.45,9.5,9.5,0,0,1-1.64-2.11,11.16,11.16,0,0,1-1.05-2.55,10.14,10.14,0,0,1-.39-2.78,9.85,9.85,0,0,1,.81-4,10.6,10.6,0,0,1,2.25-3.31A11.87,11.87,0,0,1,23,127.81a12.22,12.22,0,0,1,4.3-1.08V151.5a2.3,2.3,0,0,0,.61.06h.88a15.25,15.25,0,0,0,5.67-1.06"/><path class="cls-1" d="M36.27,181.27a11.41,11.41,0,0,0,3.95-1.44,6.89,6.89,0,0,0,2.5-2.67,8.53,8.53,0,0,0,.89-4.05,14,14,0,0,0-1.94-7.2,13.65,13.65,0,0,0-5.11-5.09h6.56v-3.44H14.16v3.78H31.89a10.29,10.29,0,0,1,3.3,1.62,13,13,0,0,1,2.64,2.52,11.11,11.11,0,0,1,1.72,3.08,9.61,9.61,0,0,1,.61,3.33,5.22,5.22,0,0,1-2.34,4.7q-2.34,1.53-7.5,1.53H14.16v3.78H31.11a27.38,27.38,0,0,0,5.16-.45"/><path class="cls-1" d="M24.05,211.84a11.91,11.91,0,0,1-3.69-2.28,10.8,10.8,0,0,1-2.5-3.36,9.33,9.33,0,0,1-.92-4.09,9.59,9.59,0,0,1,.89-4.08,10.12,10.12,0,0,1,2.47-3.34A12.26,12.26,0,0,1,24,192.45a12.06,12.06,0,0,1,4.53-.83,12.53,12.53,0,0,1,4.58.83,12.13,12.13,0,0,1,3.75,2.28,10.65,10.65,0,0,1,2.53,3.33,9.12,9.12,0,0,1,.92,4.06,9.31,9.31,0,0,1-.92,4.09,10.89,10.89,0,0,1-2.5,3.36,11.86,11.86,0,0,1-3.72,2.28,12.82,12.82,0,0,1-9.08,0m10.28,3.58a15.13,15.13,0,0,0,4.78-3,14.43,14.43,0,0,0,3.28-4.55,13.52,13.52,0,0,0,1.22-5.75,13.33,13.33,0,0,0-1.22-5.72,14.53,14.53,0,0,0-3.28-4.53,15.11,15.11,0,0,0-4.78-3,15.41,15.41,0,0,0-5.78-1.08,15.7,15.7,0,0,0-5.72,1.05,14.65,14.65,0,0,0-4.78,3,14.19,14.19,0,0,0-3.25,4.52,13.72,13.72,0,0,0-1.19,5.78,13.93,13.93,0,0,0,1.19,5.81,14.18,14.18,0,0,0,3.25,4.56,14.73,14.73,0,0,0,4.78,3,16,16,0,0,0,11.5,0"/><path class="cls-1" d="M18.61,247.83a12.1,12.1,0,0,1-.75-1.56,7,7,0,0,1-.53-2.83,3.87,3.87,0,0,1,.75-2.36,3,3,0,0,1,2.36-1.14H40.11v6.67h3v-6.67h9.78v-3.78H43.11v-4h-3v4H19.39a5.64,5.64,0,0,0-2.45.5A5.07,5.07,0,0,0,15.19,238a5.44,5.44,0,0,0-1,1.94,8.06,8.06,0,0,0-.33,2.34,10.5,10.5,0,0,0,.22,2.22,16.56,16.56,0,0,0,.5,1.89c.19.56.37,1,.56,1.47s.33.75.44,1Z"/><path class="cls-2" d="M24,271.45a5.21,5.21,0,0,1-2.08-2.06,6,6,0,0,1-.8-3.06,5.85,5.85,0,0,1,.56-2.52,6.29,6.29,0,0,1,1.55-2.08,7.15,7.15,0,0,1,2.42-1.39,9.38,9.38,0,0,1,3.14-.5,7.88,7.88,0,0,1,5.5,1.86,6,6,0,0,1,2.05,4.64,5.58,5.58,0,0,1-2.77,5.06l2.61,8.66a13.68,13.68,0,0,0,5.58-5.16,15.81,15.81,0,0,0,2.14-8.5,17,17,0,0,0-1.22-6.64,14.58,14.58,0,0,0-3.31-4.92,14.22,14.22,0,0,0-4.83-3.06,16.22,16.22,0,0,0-11.5,0,14.06,14.06,0,0,0-4.83,3.08,15.12,15.12,0,0,0-3.34,4.94,16.63,16.63,0,0,0-1.25,6.59A16.09,16.09,0,0,0,15.77,275a13.09,13.09,0,0,0,5.56,5.14Z"/><path class="cls-2" d="M54.72,284.11H14.17V293H30.89A7.22,7.22,0,0,1,33,294.11a9.81,9.81,0,0,1,1.64,1.58,7.11,7.11,0,0,1,1.05,1.78,4.65,4.65,0,0,1,.36,1.7,3.77,3.77,0,0,1-1.33,3.06,6.46,6.46,0,0,1-4.17,1.11H14.17v8.89H32.83a23.23,23.23,0,0,0,3.86-.33,10,10,0,0,0,3.55-1.31,7.59,7.59,0,0,0,2.61-2.78,9.55,9.55,0,0,0,1-4.75,12.1,12.1,0,0,0-1.41-5.81,11.14,11.14,0,0,0-4-4.25H54.72"/><path class="cls-2" d="M23.94,335.33a2.76,2.76,0,0,1-2.11-1.28,6.57,6.57,0,0,1-1.33-2.25A8.23,8.23,0,0,1,20,329a4.63,4.63,0,0,1,1-3.11,3.29,3.29,0,0,1,2.63-1.22,3.38,3.38,0,0,1,2.89,1.59,6.86,6.86,0,0,1,1.11,4,14.24,14.24,0,0,1-.25,2.52,14.45,14.45,0,0,1-.7,2.53Zm-1.64,9.31a3.07,3.07,0,0,1,1.86-.42h7.5q6,0,9.11-3.61t3.11-10.22a22.59,22.59,0,0,0-.94-6.61,23.13,23.13,0,0,0-2.83-6l-5.56,2.61A21.83,21.83,0,0,1,37,324.94a12.93,12.93,0,0,1,.81,4.55q0,5.83-5.06,5.83H31.38a11.58,11.58,0,0,0,.92-3,20.33,20.33,0,0,0,.3-3.56,16.69,16.69,0,0,0-.72-5.05,12.66,12.66,0,0,0-2-3.95,9,9,0,0,0-3.06-2.58,8.5,8.5,0,0,0-3.95-.92,8.81,8.81,0,0,0-3.69.78,9.24,9.24,0,0,0-4.89,5.3,11.45,11.45,0,0,0-.69,4,12.74,12.74,0,0,0,1.33,5.7,13.34,13.34,0,0,0,3.83,4.64l-1.33.17a4.27,4.27,0,0,0-2.75,1.61,6.16,6.16,0,0,0-1,3.78c0,.52,0,1.1.08,1.72a14.28,14.28,0,0,0,.36,2.11h7.5a2,2,0,0,1,.64-1.47"/><path class="cls-2" d="M36.61,378.47a10.32,10.32,0,0,0,3.59-1.25,7.35,7.35,0,0,0,2.66-2.66,8.83,8.83,0,0,0,1-4.55,15.47,15.47,0,0,0-1.41-6.78,10.59,10.59,0,0,0-4-4.55h4.9v-8H14.17v8.89H30.89a7.69,7.69,0,0,1,2.05,1.08,8.26,8.26,0,0,1,1.64,1.58,7.77,7.77,0,0,1,1.08,1.83,5,5,0,0,1,.39,1.89,3.55,3.55,0,0,1-1.3,2.86,6.57,6.57,0,0,1-4.2,1.08H14.17v8.89H32.83a24.11,24.11,0,0,0,3.78-.3"/><path class="cls-2" d="M25.17,405.22a7.79,7.79,0,0,1-2.92-2.5,6.23,6.23,0,0,1-1.14-3.67,6.65,6.65,0,0,1,2.11-4.95,7.14,7.14,0,0,1,2.37-1.47,8,8,0,0,1,3-.53,9.18,9.18,0,0,1,2.92.47,8.19,8.19,0,0,1,2.5,1.34A6.6,6.6,0,0,1,35.69,396a5.56,5.56,0,0,1,.64,2.64A6.42,6.42,0,0,1,35,402.5a8,8,0,0,1-3.69,2.72Zm18.17,1.16H38.55a10.94,10.94,0,0,0,3.92-4,11.5,11.5,0,0,0,1.41-5.81,12.79,12.79,0,0,0-4.35-9.78,14.83,14.83,0,0,0-4.78-2.78,17.51,17.51,0,0,0-6-1,17,17,0,0,0-5.72.94,14.7,14.7,0,0,0-4.67,2.64,12.43,12.43,0,0,0-3.17,4.08,12.39,12.39,0,0,0,.08,10.67A8.72,8.72,0,0,0,19,405.22H16.16a8.88,8.88,0,0,1-3.52-.64,6.28,6.28,0,0,1-2.39-1.75,7.37,7.37,0,0,1-1.36-2.56,10.42,10.42,0,0,1-.44-3.06,12.26,12.26,0,0,1,1.08-5.11,11.77,11.77,0,0,1,2.92-4l-4.83-4.78a17.06,17.06,0,0,0-4.33,5.83,19.56,19.56,0,0,0-1.5,8.06,22.43,22.43,0,0,0,1,6.84,15.74,15.74,0,0,0,2.86,5.33,13.12,13.12,0,0,0,4.52,3.47,14,14,0,0,0,6,1.25H43.33Z"/><path class="cls-2" d="M31.49,427.78a6.74,6.74,0,0,1,4.36,2,5.92,5.92,0,0,1,1.64,4.3,6,6,0,0,1-1.61,4.28,6.65,6.65,0,0,1-4.39,2Zm3.06,20.91a14,14,0,0,0,4.81-3,14.63,14.63,0,0,0,3.31-4.89,16.84,16.84,0,0,0,1.22-6.61,17.06,17.06,0,0,0-1.22-6.64,14.13,14.13,0,0,0-8.25-8,16.88,16.88,0,0,0-6-1.05,15.36,15.36,0,0,0-5.64,1.05,13.9,13.9,0,0,0-4.75,3.09,14.64,14.64,0,0,0-3.25,4.94,17.26,17.26,0,0,0-1.19,6.59,16.52,16.52,0,0,0,2.17,8.66,13.61,13.61,0,0,0,5.61,5.33l2.11-7.55a4.85,4.85,0,0,1-2.56-2.42,8,8,0,0,1-.94-3.75,6.82,6.82,0,0,1,1.53-4.36A6,6,0,0,1,26,427.94V449.5a10.1,10.1,0,0,0,1.31.16c.5,0,1,.06,1.53.06a16.07,16.07,0,0,0,5.72-1"/><path class="cls-2" d="M23.94,471a2.76,2.76,0,0,1-2.11-1.28,6.52,6.52,0,0,1-1.33-2.25,8.21,8.21,0,0,1-.5-2.81,4.63,4.63,0,0,1,1-3.11,3.29,3.29,0,0,1,2.63-1.22,3.4,3.4,0,0,1,2.89,1.59,6.86,6.86,0,0,1,1.11,4,14.36,14.36,0,0,1-.25,2.53,14.53,14.53,0,0,1-.7,2.52Zm-1.64,9.31a3.07,3.07,0,0,1,1.86-.42h7.5q6,0,9.11-3.61t3.11-10.22a22.54,22.54,0,0,0-.94-6.61,23.17,23.17,0,0,0-2.83-6l-5.56,2.61A21.8,21.8,0,0,1,37,460.61a13,13,0,0,1,.81,4.56q0,5.83-5.06,5.83H31.38a11.57,11.57,0,0,0,.92-3,20.31,20.31,0,0,0,.3-3.55,16.7,16.7,0,0,0-.72-5.06,12.72,12.72,0,0,0-2-3.95,9,9,0,0,0-3.06-2.58,8.5,8.5,0,0,0-3.95-.92,8.81,8.81,0,0,0-3.69.78A9.24,9.24,0,0,0,14.3,458a11.45,11.45,0,0,0-.69,4,12.73,12.73,0,0,0,1.33,5.69,13.41,13.41,0,0,0,3.83,4.64l-1.33.16a4.3,4.3,0,0,0-2.75,1.61,6.18,6.18,0,0,0-1,3.78c0,.51,0,1.09.08,1.72a14.34,14.34,0,0,0,.36,2.11h7.5a2,2,0,0,1,.64-1.47"/><path class="cls-2" d="M22.77,503.28a12.89,12.89,0,0,1-.72-1.83,6.83,6.83,0,0,1-.33-2.06,2.38,2.38,0,0,1,2.72-2.55H36.61v5.94h6.73v-5.94h9.27v-8.89H43.33v-3.72H36.61v3.72H21.38a9.14,9.14,0,0,0-3.61.64,6.14,6.14,0,0,0-2.42,1.75A6.87,6.87,0,0,0,14,492.92a11.33,11.33,0,0,0-.41,3.14,17.37,17.37,0,0,0,.67,4.75,35.22,35.22,0,0,0,1.44,4.2Z"/><path class="cls-2" d="M41.23,57.69A27.4,27.4,0,0,1,29.16,58.8a26.73,26.73,0,0,1-11.32-4.18,27.42,27.42,0,0,1-8.17-8.24l6.86-2.55A20.23,20.23,0,0,0,38,51.26c1.1,2.13,2.16,4.27,3.27,6.43"/><path class="cls-2" d="M20,16a20.13,20.13,0,0,0-7.5,15.74L6,37.11a26.9,26.9,0,0,1-.5-6.93,27.19,27.19,0,0,1,12-21.13l2.32,6.31Z"/><path class="cls-1" d="M39.54,38.2h0l0,0a9.08,9.08,0,0,1-.81.75l-.29.23h0l-.32.23h0l-.09.06-.24.15h0l-.17.1,0,0-.22.13-.45.23c-.2.1-.4.19-.61.27l-.32.12c-.24.08-.49.16-.73.23q.34-.09.68-.2c-.29.1-.58.18-.86.25l-.29.06-.4.07h-.13a6.13,6.13,0,0,1-.64.08l-.35,0h-.87l-.44,0-.4,0h0a9.43,9.43,0,0,1-7.65-6.49v0c-.07-.22-.13-.43-.18-.66s-.08-.37-.11-.55l0-.16a9.46,9.46,0,0,1,0-2.86l0-.16c0-.18.07-.37.11-.55s.11-.44.18-.65v0l.12-.36c0-.13.09-.25.15-.37l.13-.29.1-.22,0,0,.14-.27a8.24,8.24,0,0,1,.49-.83l0,0,.14-.21,0,0,.11-.15,0,0,.21-.27c.16-.2.33-.39.51-.57h0l.22-.23,0,0h0l.24-.23h0l.26-.23.25-.2.13-.1.13-.09h0l0,0,.47-.32,0,0h0l.23-.14h0l0,0,0,0,0,0,.09,0h0l.4-.21,0,0,.44-.2.43-.16L30,22.7l.24-.07.49-.12h0l.24,0,.25,0,.26,0,.6-.06.6,0A9.41,9.41,0,0,1,39.54,38.2M32.69,16.53a15.11,15.11,0,0,0-1.83.11h0c-.36,0-.72.11-1.07.18h0L16.49.82a1,1,0,0,0-1.71,1l2.68,7.24,2.32,6.31L20,16c0,.1.06.17.08.26.52,1.58,1,3.18,1.54,4.79a.45.45,0,0,1,0,.26.42.42,0,0,1-.12.19,15,15,0,0,0-3.94,9.42,13.91,13.91,0,0,0,.07,2.57l0,0h0l-1,.86-2.4,2L.62,47.63a1,1,0,0,0,1,1.73l8.07-3,6.86-2.55,3.72-1.36c.44-.15.89-.28,1.33-.43h0a15.05,15.05,0,0,0,7.67,4.47l.44.09.43.08h0a15.17,15.17,0,1,0,2.54-30.13"/><path class="cls-2" d="M39.53,38.21l0,0a9.1,9.1,0,0,1-.81.75l-.29.23h0l-.32.23h0l-.09.06-.24.15h0l-.17.1,0,0-.22.13-.45.23c-.2.1-.4.19-.61.27l-.32.12c-.24.09-.49.16-.73.23l-.48.12h0l-.37.07h-.06l-.34,0h0l-.35,0-.35,0h-.87A9.44,9.44,0,0,1,26,38.28v0a6.41,6.41,0,0,1-.46-.5q-.18-.21-.35-.44l-.09-.13A9,9,0,0,1,24.33,36a9.4,9.4,0,0,1-.55-1.33l0-.15c-.06-.18-.11-.36-.15-.54s-.1-.44-.14-.66v0c0-.12,0-.25-.05-.37a9.47,9.47,0,0,1,1.13-5.76l.15-.26.21-.33,0,0,.14-.21,0,0,.11-.15,0,0,.21-.27c.16-.2.33-.39.51-.57h0l.23-.23,0,0h0l.24-.22h0l.26-.23.25-.2.13-.1.13-.09h0l0,0,.47-.32,0,0h0l.23-.14h0l0,0,0,0,0,0,.09,0h0l.4-.21,0,0,.44-.2.43-.16L30,22.7l.24-.07.49-.12h0l.24,0,.25,0,.25,0a9.48,9.48,0,0,0,8,15.82"/><path class="cls-1" d="M60.92,2.72,41.2,9.3a.92.92,0,0,0-.11,1.7l8,3.83a.92.92,0,0,0,1-.14l11.7-10.4a.92.92,0,0,0-.9-1.56"/><path class="cls-2" d="M63.27,5.34,54.42,24.18a.91.91,0,0,1-1.69-.09l-2.87-8.42a.91.91,0,0,1,.26-1L61.83,4.27a.91.91,0,0,1,1.44,1.07"/><path class="cls-1" d="M65.44,50.9,57.11,37.09a.71.71,0,0,0-1.3.21L54.27,44a.71.71,0,0,0,.28.74l9.86,7.09a.71.71,0,0,0,1-.95"/><path class="cls-2" d="M63.85,53.13l-15.76-3.5a.71.71,0,0,1-.22-1.3l5.89-3.6a.71.71,0,0,1,.79,0l9.87,7.1a.71.71,0,0,1-.57,1.27"/><path class="cls-3" d="M34.62,40.93h0l.29-.06.19-.05-.5.12M25.41,25.79l-.21.27,0,0-.11.15.12-.16,0,0,.21-.27c.16-.2.32-.38.5-.57-.18.18-.35.37-.51.57"/><path class="cls-3" d="M28.1,23.52l0,0-.08,0,.19-.11-.08,0M39.54,38.2v0Z"/></svg>