<svg xmlns="http://www.w3.org/2000/svg" viewBox="0 0 230.08 156.23"><defs><style>.cls-1{fill:#212121;}</style></defs><title>accroche-fleche1</title><g id="Calque_2" data-name="Calque 2"><g id="accroche"><path class="cls-1" d="M227.06,153.88c6.76-2.31.39-8.63-2.19-11.52A299.86,299.86,0,0,0,193,112.15l-2.83-.65-2.9,2c2.17,9.93,11.14,16.47,17.35,24-7.89-1.66-15.75-3.34-23.55-5.37-1,2.59-2.06,5.17-3.07,7.76,7.91,1.74,15.87,3.35,23.73,5.22-8.36,2-16.91,3.07-25.16,5.51-2.59,7.08,6,5.59,9.74,5.28,13.56-1.33,27.13-3.35,40.76-2"/><path class="cls-1" d="M171.41,138.29c.87-2.59,1.77-5.19,2.56-7.84-5.39-1.59-10.78-3.2-16.15-5-1.29,2.79-2.61,5.56-3.94,8.3q8.77,2.41,17.53,4.51"/><path class="cls-1" d="M147.1,130.41c1.42-2.8,2.81-5.65,4.16-8.49-3.31-1.74-6.64-3.47-10-5.26-1.78,2.84-3.57,5.65-5.4,8.45,3.78,1.78,7.51,3.52,11.23,5.3"/><path class="cls-1" d="M126.55,122.71c2.16-3.33,4.12-6.74,6.17-10.13q-9.28-5.09-18.39-10.61c-1.23,2.11-3.72,6.32-4.95,8.44,5.12,3.1,10.36,6.1,15.73,8.74.35.88,1.08,2.65,1.44,3.55"/><path class="cls-1" d="M108.6,98c-7.71-5.73-15.4-11.52-23.28-17.08C83.9,83,81.07,87,79.67,89q12,8.79,24,17.46c1.68-2.8,3.3-5.62,4.9-8.48"/><path class="cls-1" d="M79,75.87c-7.17-6-14.17-12.19-21.25-18.33q-3,4.14-6,8.23C58.92,71.95,66,78.16,73.26,84.19c2-2.75,3.9-5.53,5.78-8.32"/><path class="cls-1" d="M51.13,51.78C45,45.88,39,39.67,33.25,33.33c-1.78,2.92-3.63,5.81-5.48,8.7q8.33,9.29,17.22,18c2.11-2.72,4.15-5.47,6.14-8.27"/><path class="cls-1" d="M27.76,27.26c-2.82-3.44-5.65-6.9-8.53-10.34-2.13,2.22-4.26,4.43-6.4,6.62,3,4.21,6.13,8.25,9.24,12.3,1.93-2.83,3.85-5.68,5.7-8.58"/><path class="cls-1" d="M8.66,18.36c1.68-2.63,5.19-4.54,5.44-7.89C10.52,5.86,6.8-.6,0,0A112,112,0,0,0,8.66,18.36"/></g></g></svg>