<svg xmlns="http://www.w3.org/2000/svg" viewBox="0 0 473.38 294.46"><defs><style>.cls-1{fill:#fbc300;}.cls-2{fill:#212121;}</style></defs><title>accroche-bulle1</title><g id="Calque_2" data-name="Calque 2"><g id="accroche"><path class="cls-1" d="M32.93,78.69S167.13,96.32,218.72.87c0,0,182.34,13.05,205.23,18.88S490.21,229,410.6,271.4s-303.56,15.31-355.4,5S.05,157.64,13.42,83.39Z"/><path class="cls-2" d="M430.68,257.49c-1.27.75-2.57,1.46-3.87,2.15h0a4.41,4.41,0,0,0,.36-.68,17.8,17.8,0,0,0,1.56-4.87A15.64,15.64,0,0,0,429,252c3-1.24,6.11-2.27,9.13-3.74a85,85,0,0,0,9.13-4.52l.85-.49a70.75,70.75,0,0,1-17.42,14.27m-10.76-1.62a23.23,23.23,0,0,0-1.36,5,19.9,19.9,0,0,0-.23,2.83c-2.24,1-4.52,1.89-6.83,2.7-3.48,1.27-7,2.4-10.53,3.44h0a21,21,0,0,0,1.82-4,19,19,0,0,0,1-5.07c0-.26,0-.52.06-.78,2-.49,4.06-1.07,6.08-1.69l4.78-1.37,4.74-1.59c.26-.1.52-.16.78-.26h0c-.1.26-.26.52-.36.78m-24.67,7.67a24.48,24.48,0,0,0-.85,5.17,21,21,0,0,0,.07,2.86c-1.17.29-2.34.58-3.54.85-4.45.94-9,1.79-13.49,2.57h0a25.79,25.79,0,0,0,2.21-4.45,20.25,20.25,0,0,0,1.3-5.23,7.94,7.94,0,0,0,.1-.88h0c4.91-.72,9.85-1.53,14.72-2.54h0c-.2.55-.39,1.1-.55,1.66m-23,4.42a24,24,0,0,0-1.07,5.3A19,19,0,0,0,371,276c-5.59.88-11.18,1.69-16.8,2.54h0a30,30,0,0,0,2.73-5,26.4,26.4,0,0,0,1.82-5.75,7.14,7.14,0,0,1,.13-.81c4.1-.36,8.22-.81,12.32-1.3.65-.06,1.3-.16,2-.23h0a17.07,17.07,0,0,0-1,2.54m-22.56,2.63a31.73,31.73,0,0,0-1.59,5.85,23.94,23.94,0,0,0-.32,3.06c-5.92.88-11.86,1.85-17.81,2.63h0c.39-.49.85-1,1.2-1.49a33.64,33.64,0,0,0,3.15-5.43,28.61,28.61,0,0,0,2-5.88,6.24,6.24,0,0,0,.16-.75c4.84-.23,9.65-.55,14.5-.91a29.6,29.6,0,0,0-1.3,2.93m-22.59,1.46a31.44,31.44,0,0,0-1.85,6,23.78,23.78,0,0,0-.46,4.65h-.1a116.22,116.22,0,0,1-15.44.75,1,1,0,0,1,.16-.23,35.58,35.58,0,0,0,3-5.56,27,27,0,0,0,1.92-6c.16-.75.29-1.53.39-2.31,4.62-.07,9.2-.23,13.81-.42h0a27.5,27.5,0,0,0-1.49,3.12m-21.94,2.67a32.31,32.31,0,0,0-1.69,6.08c-.16.81-.26,1.63-.36,2.47-4.52-.1-9-.19-13.52-.19-1.24,0-2.5,0-3.77,0a32.46,32.46,0,0,0,3-5.27,26.24,26.24,0,0,0,1.92-5.91c.16-.72.29-1.46.39-2.21.68,0,1.33,0,2,0,4.88,0,9.75-.07,14.63-.16a28.57,28.57,0,0,0-2.57,5.2m-23.63.1a33.25,33.25,0,0,0-1.72,6c-.13.78-.26,1.56-.33,2.37h0c-5.85.2-11.7.55-17.52,1.2-1.07.13-2.18.26-3.25.36a37.65,37.65,0,0,0,3.22-5.36,31.19,31.19,0,0,0,2.28-6.18,24.39,24.39,0,0,0,.75-3.84c6.37.2,12.77.36,19.14.39h0a28.51,28.51,0,0,0-2.57,5.07m-26.78,1.27a36.1,36.1,0,0,0-2.08,6.24c-.23,1-.42,2-.55,3.09h0c-6.63.65-13.26,1.1-19.89,1.43h-.07c.29-.36.62-.68.88-1a42.26,42.26,0,0,0,3.51-5.79,33.86,33.86,0,0,0,2.4-6.27,25.77,25.77,0,0,0,.94-5.1c6.27.1,12.61.29,18.92.52-.29.39-.58.78-.85,1.17a30.17,30.17,0,0,0-3.19,5.75m-27.56,7a32.19,32.19,0,0,0-.71,4c-2.57.1-5.17.2-7.74.23a112,112,0,0,1-15.11-1h-.07c.49-.52,1-1,1.4-1.53a36.54,36.54,0,0,0,3.64-5.4,29.21,29.21,0,0,0,2.54-5.95,22.66,22.66,0,0,0,1-4.32c1,0,2,0,3.06-.07,6.4-.36,12.84-.49,19.24-.42a22,22,0,0,0-1.69,2.21,32.5,32.5,0,0,0-3.32,5.85,39.14,39.14,0,0,0-2.21,6.4m-27.92-1.3a24.79,24.79,0,0,0-.78,3.8h0c-6.27-.91-12.51-1.88-18.79-2.34a3.08,3.08,0,0,0,.29-.32,33.46,33.46,0,0,0,3.87-5.23,29.17,29.17,0,0,0,2.83-5.82,26.7,26.7,0,0,0,1-3.35c6.11.36,12.19.62,18.3.65-.29.36-.62.71-.88,1.07a32.45,32.45,0,0,0-3.45,5.49,37.66,37.66,0,0,0-2.34,6m-24.87-2.08c-.32,1.07-.65,2.15-.88,3.25-6.53-.23-13.1-.32-19.6-.88a.55.55,0,0,1-.23,0s0,0,0,0a34.68,34.68,0,0,0,4.32-5.2,32.5,32.5,0,0,0,3.35-5.85,27.81,27.81,0,0,0,1.46-4.39h.07c6,.55,12.09,1.07,18.11,1.5-.1.13-.23.23-.33.36a28.27,28.27,0,0,0-3.67,5.33,37.57,37.57,0,0,0-2.63,5.95m-22.88-7.25a40.55,40.55,0,0,0-3.12,6,25.18,25.18,0,0,0-1.11,3.12h0c-4.49-.39-8.94-.81-13.39-1.5l.32-.29a41.76,41.76,0,0,0,4.58-5.33,37.18,37.18,0,0,0,3.58-6,29.9,29.9,0,0,0,1.4-3.48h0c4.36.32,8.68.68,13,1h.07c-.39.39-.81.71-1.17,1.1a34.18,34.18,0,0,0-4.16,5.33m-22.59,3.67a31.27,31.27,0,0,0-1.2,3.05c-4-.71-8-1.66-12-2.66a41.53,41.53,0,0,0,4-3.9,36.76,36.76,0,0,0,4.13-5.56,36,36,0,0,0,1.72-3.35h0c3.71.23,7.38.52,11.05.81v0a37,37,0,0,0-4.39,5.43,43.35,43.35,0,0,0-3.38,6.14m-19-2.93c-.29.52-.55,1.07-.81,1.59h0c-3.48-.88-7-1.53-10.47-2.15.75-.71,1.46-1.43,2.18-2.18a37.4,37.4,0,0,0,4.23-5.56,27.91,27.91,0,0,0,1.49-2.73h0c3.84.36,7.67.68,11.51.94a38.6,38.6,0,0,0-4.23,4.39,41,41,0,0,0-3.9,5.69m-15-7.9A40.17,40.17,0,0,0,90.72,271l-.2.39h0l-.62-.1c-5-.81-10-1.53-15-2.27a35.92,35.92,0,0,0,2.89-3,30.79,30.79,0,0,0,3.84-5.43c.29-.46.49-.94.75-1.43h0c5.3.88,10.6,1.56,15.89,2.15.1,0,.2,0,.29,0a43.18,43.18,0,0,0-3.8,3.93M71.7,261A40.38,40.38,0,0,0,68,266.63c-.19.39-.39.84-.58,1.24h0c-3.19-.49-6.37-1-9.56-1.62a40.62,40.62,0,0,0,4-3.8A32.06,32.06,0,0,0,66,257c.23-.36.39-.75.62-1.1h0c2.7.68,5.36,1.3,8.06,1.85h0a40.83,40.83,0,0,0-3,3.28M52,262.86c-.39.65-.72,1.33-1,2h0c-1.11-.19-2.21-.45-3.32-.71-3.15-.81-6.31-1.63-9.3-2.63,0,0-.07,0-.1,0,.36-.26.75-.46,1.11-.71a37.27,37.27,0,0,0,4.91-4.39,35,35,0,0,0,4-5.2c.23-.39.42-.81.62-1.2,0,0,0,0,.07,0a5.88,5.88,0,0,1,.65.32c1.66.85,3.25,1.27,4.91,1.95s3.15,1.17,4.71,1.59A40.07,40.07,0,0,0,56,257.26,37.63,37.63,0,0,0,52,262.86m-19-3.41h0c-.65-.36-1.37-.65-2-1l-1.85-1.3A26.05,26.05,0,0,1,23,249.33a2.56,2.56,0,0,1-.23-.52,0,0,0,0,0,0,0,25,25,0,0,0,4.23-2.28,37.14,37.14,0,0,0,5.14-4.13,30,30,0,0,0,3.87-4.49,0,0,0,0,1,0,0,38.65,38.65,0,0,0,4,5.59,18.71,18.71,0,0,0,3.15,3,33.1,33.1,0,0,0-4.75,4.55,37.09,37.09,0,0,0-3.8,5.36,32.45,32.45,0,0,0-1.56,3M21,244.43c-.52-1.59-1-3.25-1.37-4.91-.49-2.11-1-4.26-1.53-6.37v0c.85-.39,1.72-.78,2.54-1.2a38.59,38.59,0,0,0,5.56-3.74A36.66,36.66,0,0,0,30,224.57c.85,2.37,1.72,4.74,2.73,7.12,0,0,0,0,0,.07-.46.26-.91.52-1.33.81a31.28,31.28,0,0,0-5,4.29,37.47,37.47,0,0,0-4.1,5.13c-.52.78-1,1.59-1.43,2.44M13.2,213.35v0q1.37-.49,2.63-1.07a36.65,36.65,0,0,0,5.69-3.32,37.57,37.57,0,0,0,3.74-3.15v.06c.71,3.9,1.59,7.77,2.67,11.67v0c-.45.26-.94.46-1.36.71a31.14,31.14,0,0,0-5.43,3.9A38.33,38.33,0,0,0,16.48,227c-1.17-4.49-2.34-9-3.28-13.62M12,207.08a85.93,85.93,0,0,1-1-9.17c-.2-2.76-.29-5.53-.32-8.32a23.23,23.23,0,0,0,2.7-.62,29.79,29.79,0,0,0,5.36-2.15,27.23,27.23,0,0,0,3.54-2.28v0a7.28,7.28,0,0,0,.06.85c.46,4.29,1,8.61,1.66,12.9v0c-.55.26-1.14.45-1.69.75a32.47,32.47,0,0,0-5.52,3.51A36.23,36.23,0,0,0,12,207.08m-1.14-35.33v0l.62-.2A32.46,32.46,0,0,0,17,168.69a29.12,29.12,0,0,0,4.06-3.09v.07c.13,3.83.33,7.67.62,11.51-.52.13-1,.26-1.5.42a24.73,24.73,0,0,0-5.27,2.34A29.81,29.81,0,0,0,10.69,183c0-3.77.1-7.51.19-11.28m.16-14.82v0c.49-.13,1-.23,1.49-.39a24.69,24.69,0,0,0,4.91-2.21,21.22,21.22,0,0,0,3.28-2.4V152c0,2.08,0,4.16.07,6.21v0a19.45,19.45,0,0,0-2.73,1,26.36,26.36,0,0,0-5.39,3c-.55.39-1.11.81-1.62,1.24,0-1.24,0-2.5,0-3.74,0-.91,0-1.82,0-2.73m.32-16.77v0l.75-.2a31.13,31.13,0,0,0,5.39-2.44,26.69,26.69,0,0,0,3.58-2.44v0c-.13,3.12-.23,6.27-.29,9.39a15.06,15.06,0,0,0-2.76.75,21.24,21.24,0,0,0-4.78,2.4c-.75.52-1.46,1-2.18,1.63.07-3,.13-6.08.29-9.1m.39-8.22c.19-3.19.45-6.4.71-9.59v0c.2-.06.42-.1.62-.16a28.16,28.16,0,0,0,5.33-2.4,25,25,0,0,0,4-2.89v.07c-.36,3.48-.65,6.92-.85,10.4a23.46,23.46,0,0,0-2.79.85,25.1,25.1,0,0,0-5.3,2.6c-.58.39-1.17.81-1.72,1.2Zm1.82-19.76c.26-2,.52-4,.81-5.95v0c.71-.29,1.43-.55,2.08-.88A30.82,30.82,0,0,0,21.94,102a27.13,27.13,0,0,0,2.6-2.08c-.36,2.34-.68,4.65-1,7l-.29,2.47v.07a19.38,19.38,0,0,0-3.71.94,25,25,0,0,0-5.2,2.6c-.33.23-.62.46-.91.65,0-.49.1-1,.16-1.5M16,96.79c.32-1.85.71-3.71,1.11-5.56s.94-3.9,1.49-5.82v0c.85-.42,1.69-.81,2.47-1.27a38.62,38.62,0,0,0,5.66-4c.75-.59,1.43-1.24,2.11-1.89-1.07,4.16-2,8.35-2.73,12.58v0a25.41,25.41,0,0,0-3.61,1.49,30.49,30.49,0,0,0-5.33,3.45L16,96.86Zm450.67-4.65c-1.82-12.9-3.84-25.87-7.35-38.65a125.21,125.21,0,0,0-7-18.88L449.85,30c-.88-1.53-2-3-3-4.45a49.81,49.81,0,0,0-3.74-4.19,35.77,35.77,0,0,0-4.88-3.45C431.33,14.49,425,13,418.49,11.6s-13-2.31-19.47-3.22c-13-1.72-26-2.54-39-3.19-6.5-.32-13-.65-19.47-.81a88.56,88.56,0,0,1-9.75-.55L321.11,3c-13-.94-25.91-1.85-38.91-2.41C261-.36,239.88-.1,218.72.87a9,9,0,0,0-1.59,6.63c21.61-.39,43.26-.1,64.91.1,25.81.39,51.78.29,77.33,4.55,12.77,1.82,25.52,3.93,38.16,6.08,6.34,1,12.61,2.28,18.79,3.54s12.58,2.73,17.42,4.78c4.39,2,8.16,6.83,11.25,12a105.36,105.36,0,0,1,7.57,17.1,228.07,228.07,0,0,1,9.2,37.22c4.26,25.48,2.24,51.49,2,77-.13,12.77-.75,25.61-3,38.06a81.23,81.23,0,0,1-5,17.75,24.15,24.15,0,0,1-2,3.74,9,9,0,0,1-1.2,1.46,5.77,5.77,0,0,1-1.43,1.37l-3.57,2.57a31.64,31.64,0,0,1-4,2.21c-10.89,5.69-23.6,8.16-36.08,10.21l-37.87,5.56c-25.42,3.22-51.1,5.92-76.84,7.51-12.9.85-25.81,1.33-38.71,2-6.47.36-12.94.36-19.4.29s-12.9-.68-19.37-1.14c-25.74-2.27-51.68-1.2-77.36-4.23-12.81-1.43-25.58-3.41-38.19-5.69-12.58-2.47-25.26-4.75-37.18-8.13a35.82,35.82,0,0,1-4.36-1.4c-1.36-.52-2.92-.94-4.16-1.56s-2.57-1.2-3.64-1.82a13.56,13.56,0,0,1-2.57-2.27c-3.41-3.8-6-9.49-8-15.21a132.12,132.12,0,0,1-4.91-18.07c-1.36-6.14-2.31-12.45-3.22-18.76a359.62,359.62,0,0,1-1.3-76.64,210.89,210.89,0,0,1,6.27-35.88C28.8,67.08,17,75.76,10.86,81.16c-.94,2.6-1.79,5.23-2.5,7.87a175.48,175.48,0,0,0-4.52,21.81A369.09,369.09,0,0,0,.13,154.78c-.72,14.69,1.66,29.35,3.61,43.88l2.8,21.91c1.07,7.31,2.63,14.69,5.95,21.52s6.66,13.52,12,19.83l2.28,2.24c.81.65,1.69,1.27,2.54,1.89a58.1,58.1,0,0,0,5.2,2.83c3.51,1.66,7,2.93,10.53,4.23a284.88,284.88,0,0,0,42.74,11.08,129.41,129.41,0,0,0,21.81,2.44c7.35.16,14.69.13,21.91.85,7.28.49,14.5,1.5,21.71,2.24l21.71,2.63c14.5,1.59,29.22-1,43.72-.13s29.12,1.75,43.75,1.85,29-1.49,43.42-3.74c14.37-2.86,29-2.5,43.52-4,7.25-.68,14.5-1.76,21.68-3s14.33-3.05,21.42-4.91c14.14-3.84,28.41-8,41.44-15.5a65.49,65.49,0,0,0,17.71-14.11A46.08,46.08,0,0,0,461,231.55a14.93,14.93,0,0,0,1.43-2.76,87.11,87.11,0,0,0,5.95-19.4c1.23-6.53,2.27-13.07,3-19.6s1.4-13.07,1.76-19.6c1.4-26.3-3.32-52.23-6.47-78"/></g></g></svg>