<svg xmlns="http://www.w3.org/2000/svg" viewBox="0 0 406.84 320.7"><defs><style>.cls-1{fill:#fbc300;}.cls-2{fill:#212121;}</style></defs><title>accroche-bulle3</title><g id="Calque_2" data-name="Calque 2"><g id="accroche"><path class="cls-1" d="M190.36,10.57S85.82,9.1,39.39,67.25s-40.94,130-14.68,173.9,70.8,74.93,150.45,76.64S343.23,281.46,370.25,247,423,136.8,366.48,73.61c0,0-65.86,47.82-127.09,15.18-46.64-24.86-49-78.22-49-78.22"/><path class="cls-2" d="M24.7,241.16c1.27,1.83,2.65,3.58,4,5.37-.15.15-.37.33-.56.48-1.23-1.9-2.35-3.88-3.47-5.85m10.18,14.17a2.53,2.53,0,0,1,.22-1.15c.6.63,1.12,1.34,1.72,2l6.56,6.71c.19.19.37.3.52.45a10.71,10.71,0,0,1-1.27.86c-.6.41-.3.75.19,1.08a2,2,0,0,1,.45,1c-2.5-2.61-4.85-5.37-7.12-8.2,0-.15.08-.3.11-.41.08-.45.22-.9-.41-1.23s-1-.67-1-1.12m13.91,12.12c.6.49,1.23,1,1.83,1.46,2.5,1.86,4.81,4,7.57,5.52l3.54,2s0,.07,0,.11c0,.34-.93.82-1.49,1.23s-.22.75.22,1.08c.71.63.34,1.42,1.12,2,.41.3.82.63.63,1a.55.55,0,0,1-.22.19,119.58,119.58,0,0,1-11.45-8.84v0c.08-.33.22-.67-.37-1s-.93-.67-.86-1a2.64,2.64,0,0,1,.37-1.12,4.79,4.79,0,0,1,.48-1.12c0-.19,0-.37-.37-.52a5.86,5.86,0,0,1-1-.45.58.58,0,0,1,0-.6M66.91,280.3a1.44,1.44,0,0,0,.33-.78,77,77,0,0,0,7.49,3.58c2.16.9,4.29,1.9,6.45,2.83a1.93,1.93,0,0,1,.49,1.27c0,.33-.89.89-1.42,1.34s-.19.78.3,1c.75.6.45,1.38,1.31,1.94.41.3.86.6.71,1a4.65,4.65,0,0,1-.9.71c-.07.07-.07.15-.15.19a146.92,146.92,0,0,1-13-7c.08-.26,0-.52-.41-.71s-1-.63-.9-1a2.27,2.27,0,0,1,.34-1.12,4.71,4.71,0,0,1,.45-1.12c0-.19-.07-.37-.41-.52a4.6,4.6,0,0,1-1-.41c-.26-.34.07-.75.41-1.16m20.21,10.25c.52-.78.11-1.34.41-2.09,1.45.56,2.91,1.08,4.32,1.64a73,73,0,0,0,8.69,3.13,2.12,2.12,0,0,0,.45.15c.22.63.86,1.23.67,1.9,0,.37-.93.86-1.49,1.27s-.26.74.22,1c.71.67.33,1.42,1.12,2,.41.33.82.63.63,1a3.9,3.9,0,0,1-.78.56c-4.14-1.34-8.24-2.83-12.27-4.51.08-.37.22-.75-.45-1s-1-.52-1-.9a2.6,2.6,0,0,1,.26-1.15,4.63,4.63,0,0,1,.37-1.16c0-.19-.11-.37-.45-.48a4.66,4.66,0,0,1-1.08-.34c-.26-.3,0-.75.33-1.16m18.64,4.29q7.44,2.29,15,4c.3.6,1,1.12.86,1.79.11.37-.82,1-1.31,1.45s-.15.82.37,1.08c.78.6.52,1.42,1.42,2,.45.26.9.56.75,1a2.54,2.54,0,0,1-.63.63c-3.58-.78-7.16-1.6-10.7-2.57-1.45-.37-2.91-.82-4.32-1.23a2.5,2.5,0,0,1,.26-.67,5.63,5.63,0,0,1,.45-1.16c0-.19-.07-.33-.41-.48a4.67,4.67,0,0,1-1-.45c-.26-.34.07-.71.41-1.12.67-.78.11-1.45.67-2.24.37-.41.6-.78,0-1.08s-1.68-.56-1.72-.89Zm21.51,9.06c.56-.89-.07-1.53.33-2.39.34-.49.52-.9-.15-1.12,6,1.23,12,2.24,18.16,3a1.16,1.16,0,0,1,.22.86c.07.3-.86.82-1.38,1.23s-.22.71.26,1c.75.52.41,1.23,1.27,1.75.41.22.86.48.67.86a4.63,4.63,0,0,1-.86.63c-.3.22-.34.41-.26.56a5.38,5.38,0,0,1,.63.71c-.19,0-.37,0-.52-.07-5.89-.82-11.74-1.79-17.52-2.91a4.51,4.51,0,0,1,.15-.9,8.06,8.06,0,0,1,.3-1.19c0-.22-.11-.37-.45-.48a4.86,4.86,0,0,1-1.08-.3c-.3-.33,0-.78.22-1.23m24,3.32c.6-.78,0-1.34.52-2.09.37-.41.56-.78-.11-1a.54.54,0,0,0-.26-.07c6,.63,12,1,18,1.27,0,.07,0,.11,0,.19.15.34-.67,1-1.12,1.57s0,.78.48,1c.82.41.63,1.27,1.6,1.64.45.22.93.41.86.82-.08.22-.48.56-.75.86s-.22.45-.11.6c.34.26.63.52.93.78a2.93,2.93,0,0,1,.74.78h-.3l-8.76-.63c-2.95-.15-5.85-.52-8.76-.86-.52-.07-1.08-.15-1.64-.19-.6-.22-1-.48-.93-.78a2.24,2.24,0,0,1,.3-1,4.18,4.18,0,0,1,.37-1.08c0-.15-.07-.3-.45-.41a5.09,5.09,0,0,1-1-.3c-.26-.26,0-.67.34-1m24.2.6c.41-.93-.26-1.42.07-2.31v0a101.07,101.07,0,0,0,15.73-1l3.69-.56a1.07,1.07,0,0,1,.41.71c.15.33-.6,1.08-1,1.68s0,.82.56,1c.89.37.78,1.23,1.75,1.57.52.19,1,.33,1,.78a7.64,7.64,0,0,1-.67.93c-.19.3-.19.49,0,.63a6.65,6.65,0,0,1,1,.75,2.31,2.31,0,0,1,.9.78s0,.07,0,.11c-6.08.45-12.15.75-18.19.82h-2.2v-.19c0-.41.08-.82-.6-.93s-1.12-.33-1.12-.71a2.47,2.47,0,0,1,0-1.16c0-.37.07-.78.15-1.19,0-.19-.11-.3-.48-.37a4.5,4.5,0,0,1-1.12-.15c-.34-.22-.11-.71.11-1.15m24.83-4.7,0,0c3-.56,6-1.12,9-1.53,2.35-.26,4.7-.56,7-.86a2.25,2.25,0,0,0,.19.67c.37.6,1.42.86,1.49,1.64.19.34-.52,1.16-.86,1.75s0,.78.6.89c.9.34.86,1.23,1.86,1.49.49.15,1,.3,1,.71a4.26,4.26,0,0,1-.6,1c-.19.3-.15.49,0,.63a9.89,9.89,0,0,1,1,.67c.07,0,.11.11.19.15-5.33.78-10.74,1.45-16.11,2v-.15c0-.37,0-.82-.67-.9s-1.15-.26-1.19-.63a2.54,2.54,0,0,1-.07-1.19,4.58,4.58,0,0,1,0-1.23c0-.19-.19-.33-.56-.37a3.44,3.44,0,0,1-1.12-.07c-.37-.22-.19-.71,0-1.19.34-1-.41-1.45-.19-2.39.26-.52.34-1-.37-1Zm21-3c5.67-.71,11.3-1.46,17-2.24.52.33,1.12.56,1.27,1.15.22.3-.37,1.19-.67,1.83s.19.82.75.86c.93.26,1,1.12,2,1.3.52.07,1,.19,1.08.6a7.93,7.93,0,0,1-.49,1c-.15.33-.11.52,0,.63a7.78,7.78,0,0,1,1.12.6,1.71,1.71,0,0,1,.37.19c-5.26,1.15-10.51,2.2-15.84,3.09a.67.67,0,0,0-.41-.11c-.67,0-1.16-.19-1.23-.56a3.09,3.09,0,0,1-.15-1.19,6.82,6.82,0,0,1,0-1.23.53.53,0,0,0-.56-.34,3.94,3.94,0,0,1-1.16,0c-.37-.19-.22-.71-.07-1.19.3-1-.45-1.42-.26-2.35.22-.52.26-1-.45-1s-1.75.15-1.94-.19a1.3,1.3,0,0,1-.37-.89M246,300c.19-1-.63-1.38-.56-2.35a1.06,1.06,0,0,0,0-.67h.07c5.52-.82,11-1.94,16.48-3.24a1,1,0,0,1,.37.52c.22.3-.37,1.19-.63,1.86s.19.78.75.78c.93.22,1,1.08,2,1.23.52.07,1,.15,1.08.56a5,5,0,0,1-.49,1c-.15.34-.07.52.08.63a2.49,2.49,0,0,1,.45.22c-5,1.45-10.07,2.8-15.17,4h-.07c-.11-.22-.26-.41-.75-.37-.67,0-1.16-.07-1.27-.45a2.46,2.46,0,0,1-.3-1.19,10.8,10.8,0,0,1-.19-1.23c0-.19-.22-.3-.6-.26a4.29,4.29,0,0,1-1.12.11c-.37-.15-.3-.67-.22-1.19m22.82-5.11c.15-1-.63-1.3-.6-2.27a1.12,1.12,0,0,0,0-.48c4.36-1.16,8.65-2.39,13-3.69,1.53-.52,3.06-1.08,4.62-1.6,0,.08.11.15.15.22.22.26-.34,1.19-.56,1.83s.19.75.75.71c.89.15,1,.93,2,1,.49,0,1,0,1,.41a3.75,3.75,0,0,1-.41,1c-.15.34-.08.52.07.6a1.3,1.3,0,0,1,.34.15c-1.68.6-3.36,1.27-5.07,1.83-4.17,1.45-8.35,2.83-12.56,4.14a.39.39,0,0,1-.3-.22,2.31,2.31,0,0,1-.3-1.16,6.05,6.05,0,0,1-.22-1.23c-.07-.15-.22-.26-.6-.22A3.28,3.28,0,0,1,269,296c-.41-.15-.33-.67-.26-1.19m23.45-7.75c.11-1-.67-1.23-.63-2.16a.48.48,0,0,1,0-.22c4.29-1.64,8.57-3.39,12.82-5.22a.79.79,0,0,1,.41.37c.26.22-.15,1.23-.3,1.86s.3.71.82.6c.93,0,1.12.75,2.13.6.49-.07,1-.15,1.08.26a3.72,3.72,0,0,1-.26,1.08.67.67,0,0,0,0,.41c-4.4,2.09-8.87,4-13.38,5.85-.11-.08-.22-.08-.3-.19a3.3,3.3,0,0,1-.3-1.08,5.8,5.8,0,0,1-.22-1.15c-.07-.15-.22-.22-.6-.15a5,5,0,0,1-1.08.22c-.37-.11-.33-.6-.26-1.08M310.09,277c1.79-.82,3.58-1.6,5.37-2.42,2.5-1.19,5-2.46,7.46-3.77-.07.37-.22.86-.3,1.27-.15.67.3.71.82.6.93,0,1.16.78,2.16.67.48,0,1-.11,1.12.3a10.81,10.81,0,0,1-.26,1.08c0,.07,0,.15,0,.22-3.39,2-6.79,4-10.25,5.78-.67.34-1.34.63-2,1a.43.43,0,0,1-.37-.15,2.33,2.33,0,0,1-.45-1c-.15-.37-.3-.71-.41-1.08-.07-.15-.26-.22-.6-.08a4.08,4.08,0,0,1-1,.41c-.41,0-.41-.52-.45-1,0-.93-.67-1.08-.86-1.83m18.19-9.32a109.42,109.42,0,0,0,9.92-6.64,9.07,9.07,0,0,0-.08.93c0,.67.41.63.93.45.89-.15,1.23.6,2.2.33.48-.15,1-.26,1.16.11a4.21,4.21,0,0,1-.07,1.12,1,1,0,0,0,0,.37c-3.43,2.53-7,5-10.59,7.34a4.54,4.54,0,0,1-.19-.52,9.77,9.77,0,0,1-.41-1.12c-.11-.15-.26-.22-.6-.07a4.47,4.47,0,0,1-1,.37c-.41,0-.45-.56-.45-1,0-.82-.56-1.08-.82-1.64M343.2,257c1.12-1,2.27-1.86,3.35-2.87,2.83-2.72,5.48-5.59,8-8.54a.49.49,0,0,1,.22.19c.26.15,0,1.19-.08,1.86s.37.67.9.49c.89-.15,1.16.6,2.13.34.48-.11,1-.26,1.12.11a4.39,4.39,0,0,1-.15,1.08c0,.37.07.52.26.56h.11a146.16,146.16,0,0,1-11.67,10.33,3.43,3.43,0,0,1-.56-.86,5.58,5.58,0,0,1-.56-1c-.15-.11-.3-.15-.63,0a6.32,6.32,0,0,1-1,.6c-.41,0-.49-.52-.6-1-.11-.67-.56-.9-.89-1.23m15.55-15.47a8.1,8.1,0,0,1-1.45.78c4.06-4.92,7.87-10,11.63-15,.48.15,1.15,0,1.42.48.22.15-.11,1.16-.22,1.79s.26.6.74.41c.82-.19,1,.49,1.9.22.45-.15.89-.3,1,0a7.74,7.74,0,0,1-.22,1c-.07.37,0,.48.15.52h.6c-1.34,2.16-2.8,4.29-4.32,6.34-2,2.57-4.25,5.11-6.52,7.61a2.24,2.24,0,0,0-.15-.3,6.81,6.81,0,0,1-.52-1c-.11-.11-.26-.15-.6,0a4.08,4.08,0,0,1-.93.52c-.41,0-.48-.49-.56-1-.15-1-.93-.93-1.15-1.83,0-.56-.15-1-.78-.63m15.55-18c-.56.34-1.38,1-1.6.86-.48-.07-.63-.67-.89-1.08a108.31,108.31,0,0,0,6.79-10.74.54.54,0,0,1,.37.26c.22.15-.15,1.16-.22,1.79s.22.6.71.37c.78-.22,1,.45,1.83.15.41-.15.86-.34.93,0a4.39,4.39,0,0,1-.22,1c-.07.34,0,.49.15.52s.22,0,.34,0c-1.45,3.24-3.1,6.34-4.81,9.43-.08-.15-.22-.15-.52,0a5.5,5.5,0,0,1-.93.56c-.33,0-.37-.45-.37-.9,0-.93-.78-.89-.9-1.71,0-.52-.07-.9-.63-.56m8.54-15c-.56.34-1.34,1-1.57.9s-.49-.3-.6-.6c1.6-3.17,3-6.37,4.36-9.62a.21.21,0,0,1,.19.11c.22.11,0,1.16-.08,1.79s.3.52.71.26c.74-.34,1,.3,1.75-.11.37-.22.78-.41.89-.11a1.77,1.77,0,0,1-.07.56c-.74,2.24-1.53,4.44-2.39,6.6-.41,1.08-.93,2.16-1.38,3.24h0c-.33,0-.37-.41-.37-.86,0-.89-.75-.82-.82-1.64,0-.52,0-.86-.6-.52m5.74-13.94c-.52.41-1.19,1.19-1.42,1.08s-.45-.19-.6-.41c1.34-3.58,2.53-7.16,3.54-10.81.71-.3.93.3,1.71-.11.41-.22.78-.41.89-.11a6.18,6.18,0,0,1-.11,1c0,.34,0,.45.19.49l.3-.07c-.86,3.69-1.86,7.35-3,10.92,0,0,0,0,0-.07-.07-.89-.75-.71-.89-1.49,0-.49-.11-.86-.6-.45m4.21-16.92a9,9,0,0,1-1.27,1.08c.86-3.69,1.57-7.42,2.16-11.15a1,1,0,0,0,.52-.11c.41-.19.78-.41.89-.08a8.74,8.74,0,0,1-.22,1c0,.34,0,.45.15.48a9,9,0,0,1,.9-.15c.11,0,.22,0,.37,0-.3,2.24-.63,4.51-1,6.71-.26,1.49-.6,3-.89,4.47,0-.11,0-.19,0-.3-.11-.89-.75-.71-.93-1.49,0-.49-.11-.86-.6-.45m4.14-14.88c-.07-.75-.67-.67-.74-1.42,0-.48,0-.82-.56-.45s-.93.82-1.23,1c.19-1.75.45-3.5.56-5.29s.22-3.58.3-5.37v0c.41-.19.78-.37.86-.07a8.57,8.57,0,0,1-.22,1c-.07.34,0,.45.11.48a2.67,2.67,0,0,1,.9-.15,2.14,2.14,0,0,1,.48-.08c0,3.47-.15,6.93-.45,10.4m.19-18.23c-.08,0-.15,0-.34.19-.45.33-1.08,1-1.34,1,0-2.94,0-5.93-.19-8.87.15-.08.26-.08.3.07a9,9,0,0,1-.19,1c0,.3,0,.41.11.41a3.63,3.63,0,0,1,.78-.22,1.72,1.72,0,0,0,.26-.11c.26,2.16.49,4.32.6,6.49m-1.64-13.24a2.58,2.58,0,0,1-.56.48c-.15-1.83-.34-3.69-.56-5.56.41,1.68.78,3.36,1.12,5.07M6.85,217.86c6.93,23.3,19.68,45.22,37.92,61.81s40.6,28,64,34.6a170.48,170.48,0,0,0,35.9,6,353.83,353.83,0,0,0,36.13-.15c3.28,0,6.55-.32,9.88-.45,2.23-.09,4.46-.15,6.68-.33,6.42-.52,12.85-1,19.27-1.79,11.89-1.16,23.79-2.94,35.57-5.22,23.56-4.66,46.79-12.08,68.37-23.19s41.49-25.5,57.82-44.4c15.77-19.42,25.13-43.32,27.77-67.85a133.34,133.34,0,0,0-12.75-71.54l-8.58-15.92c-3.28-5.07-6.71-10-10.07-15-1-1.34-2.05-2.68-3.09-4-3.7-3-6.64-1.87-5.2,3.17a162.39,162.39,0,0,1,13.63,19.95,81.32,81.32,0,0,1,3.32,9.92c.82,2.79,1.3,5.7,2,8.54.41,2.94.93,5.82,1.23,8.72,1.57,11.71,1.46,23.56.71,35.31-.93,11.71-2.65,23.45-6.11,34.71a90,90,0,0,1-16,31.09c-7.08,9.43-16.25,17.11-25.76,23.82s-19,13.35-29,19.46a198.37,198.37,0,0,1-32.29,14.24c-2.8,1-5.63,1.79-8.46,2.72s-5.63,1.75-8.54,2.46l-8.58,2.39L244,289.06c-5.78,1.53-11.67,2.61-17.52,3.8-2.95.48-5.93.86-8.87,1.27a79.29,79.29,0,0,1-8.91,1,159.61,159.61,0,0,1-17.93,0c-6,0-11.89-.15-17.78,0s-11.86,0-17.78-.15l-8.84-.6-4.44-.3-4.4-.6-8.8-1.12c-2.94-.41-5.82-1.12-8.69-1.68s-5.85-1-8.69-1.94l-8.46-2.54c-5.7-1.6-11-4.17-16.48-6.41-2.57-1.38-5.15-2.87-7.64-4.36a63.88,63.88,0,0,1-7.42-4.7c-4.7-3.43-9.54-6.67-13.94-10.4-2.2-1.86-4.62-3.51-6.78-5.41l-6.23-6-3.13-3c-1.08-1-1.9-2.2-2.87-3.28l-5.59-6.67c-2-2.12-3.43-4.7-5.14-7l-5-7.27c-3.43-6-6.34-12.26-10-18.25l-3-7.73a134.3,134.3,0,0,1-1.37-14.1c-.15-2.87-.19-5.78-.11-8.69a85.58,85.58,0,0,1,.48-8.72,158.2,158.2,0,0,1,1.86-17.3l1.34-8.57,2-8.43c1.08-5.67,3.06-11,4.66-16.55.75-2.8,2-5.37,3-8.05s2-5.33,3.24-7.94l3.91-7.61c.67-1.27,1.27-2.57,2-3.8L33,82.23,37.6,75l5.29-6.79,2.61-3.39c.93-1.08,1.94-2.13,2.91-3.17l5.93-6.3c8.42-7.79,17.41-15.25,27.51-21.06,19.87-12.15,42.39-20.1,65.47-24.72a275.84,275.84,0,0,1,41.75-5.15l0,0A7.19,7.19,0,0,0,181.67,0c-11.81,1.2-23.55,3-35.2,5.09-23.52,4.4-46.68,11.63-68.08,23.12-10.77,5.55-20.62,12.82-30,20.69l-6.64,6.38L36,61.41l-.52.61-5.93,7-5.22,7.64C10.5,97.14,3,121.41.92,145.6S.1,194.37,6.85,217.86"/></g></g></svg>