<svg xmlns="http://www.w3.org/2000/svg" viewBox="0 0 389.97 137.83"><defs><style>.cls-1{fill:#212121;}</style></defs><title>accroche-fleche2</title><g id="Calque_2" data-name="Calque 2"><g id="accroche"><path class="cls-1" d="M2.94,113c-8.4-6.29,3.37-12.23,8.28-15.1C30,87.47,49.39,77.71,69.48,70.15l4.25.38,3.16,4.05c-7.54,12.89-23,17.95-35.15,25.69,11.77,1.25,23.51,2.48,35.34,3.19.28,4.09.52,8.16.77,12.23-11.84-1.16-23.69-2.51-35.53-3.47,10.78,6.53,22.22,12,32.65,19.12.4,11.07-10.9,5.1-16,3-18.34-8-36.38-17-56-21.31"/><path class="cls-1" d="M87.77,116.47c0-4-.11-8.05,0-12.12,8.25.23,16.52.42,24.81.39.53,4.48,1.12,8.95,1.74,13.39q-13.35-.62-26.53-1.66"/><path class="cls-1" d="M125.3,116.5c-.72-4.56-1.36-9.17-2-13.75,5.41-.93,10.85-1.84,16.34-2.81,1.2,4.77,2.43,9.52,3.71,14.25-6.08.78-12.09,1.51-18.09,2.3"/><path class="cls-1" d="M157.51,115.06c-1.5-5.64-2.7-11.29-4-16.95q15.28-2.9,30.51-6.47c.76,3.51,2.32,10.52,3.08,14-8.56,2-17.24,3.82-25.94,5.07-.89,1.07-2.72,3.21-3.62,4.31"/><path class="cls-1" d="M193.8,88.69c13.37-4.51,26.75-9.1,40.27-13.3,1.07,3.49,3.19,10.42,4.22,13.89q-20.76,6.83-41.49,13.48c-1.07-4.68-2.06-9.35-3-14.08"/><path class="cls-1" d="M245.13,71.2c12.73-5.12,25.33-10.59,38-16q2.27,7.14,4.7,14.24c-12.81,5.36-25.55,10.82-38.4,16-1.48-4.73-2.93-9.5-4.3-14.25"/><path class="cls-1" d="M295.06,50.21c11.3-5.44,22.4-11.42,33.36-17.66,1.16,4.89,2.44,9.77,3.71,14.65q-15.86,9.19-32.24,17.35c-1.71-4.76-3.31-9.53-4.83-14.34"/><path class="cls-1" d="M338.84,26.56c5.5-3.52,11-7.07,16.61-10.58,2,4.06,3.95,8.13,5.94,12.16-6.05,4.54-12.3,8.74-18.49,13-1.41-4.83-2.79-9.69-4.07-14.57"/><path class="cls-1" d="M369.57,22.8c-1.15-4.44-5.19-8.7-4-13.5C372.64,4.5,380.76-2.85,390,1.15A164.51,164.51,0,0,1,369.57,22.8"/></g></g></svg>