<svg xmlns="http://www.w3.org/2000/svg" viewBox="0 0 493.55 258.48"><defs><style>.cls-1{fill:#fbc300;}.cls-2{fill:#212121;}</style></defs><title>accroche-bulle2</title><g id="Calque_2" data-name="Calque 2"><g id="accroche"><path class="cls-1" d="M13.94,60.87c-.23,2.49-.38,5-.48,7.48a8.5,8.5,0,0,0-2.92,1.15c-.24.15-.48.31-.71.48.27-2.1.57-4.19.93-6.27.17-.91.34-1.82.52-2.72a8.64,8.64,0,0,0,1.52,0A7,7,0,0,0,13.94,60.87Z"/><path class="cls-1" d="M13.28,76.38v.18q0,3,0,6l-.37.06a10.6,10.6,0,0,0-4.34,1.81c.13-2.46.29-4.91.51-7.36A9.07,9.07,0,0,0,11,77,10,10,0,0,0,13.28,76.38Z"/><path class="cls-1" d="M13.57,96.21l-.39,0a9.74,9.74,0,0,0-3.4,1,11.62,11.62,0,0,0-1.65,1c0-2.25.08-4.49.15-6.74a11.26,11.26,0,0,0,1.19-.09,11.63,11.63,0,0,0,3.46-1l.46-.22Q13.47,93.21,13.57,96.21Z"/><path class="cls-1" d="M14.28,109.73l-.58.1A11.91,11.91,0,0,0,10,111.16a12.66,12.66,0,0,0-1.88,1.23c-.06-2.36-.08-4.73-.08-7.09v-.4a10.69,10.69,0,0,0,1.27,0,11.5,11.5,0,0,0,3.5-.83c.37-.15.73-.32,1.08-.5C14,105.6,14.14,107.67,14.28,109.73Z"/><path class="cls-1" d="M15.36,122.86a12.09,12.09,0,0,0-1.22.3,14.08,14.08,0,0,0-3.9,1.77,15.41,15.41,0,0,0-1.63,1.19q-.18-3.52-.3-7.05c.43,0,.85-.08,1.26-.14a14.4,14.4,0,0,0,3.78-1.13,12.41,12.41,0,0,0,1.48-.79C15,119,15.16,120.91,15.36,122.86Z"/><path class="cls-1" d="M16.9,136.58c-.48.09-.93.21-1.38.34a14.06,14.06,0,0,0-3.85,1.77,15.76,15.76,0,0,0-2.08,1.6q-.32-3.59-.55-7.17c.33-.06.66-.14,1-.22a16.75,16.75,0,0,0,4-1.58A15.65,15.65,0,0,0,16.1,130C16.35,132.17,16.62,134.38,16.9,136.58Z"/><path class="cls-1" d="M19.05,151.33c-.42.12-.84.26-1.24.41A14.3,14.3,0,0,0,14,153.81a16.93,16.93,0,0,0-2.79,2.57c-.29-3.07-.6-6.13-1-9.19l0-.27c.46-.07.91-.17,1.35-.28a17,17,0,0,0,4-1.58,15.44,15.44,0,0,0,2.34-1.61C18.21,146.08,18.62,148.71,19.05,151.33Z"/><path class="cls-1" d="M21.7,166.13a13.22,13.22,0,0,0-1.58.49,15.51,15.51,0,0,0-3.94,2.1,18.31,18.31,0,0,0-3.3,3.06l-.25.3c-.33-3.21-.61-6.43-.9-9.64a15.87,15.87,0,0,0,2.51-.62,17.55,17.55,0,0,0,3.95-1.89,15.69,15.69,0,0,0,2.06-1.56C20.71,161,21.2,163.55,21.7,166.13Z"/><path class="cls-1" d="M24.68,180a15.8,15.8,0,0,0-1.87.64A17.75,17.75,0,0,0,18.59,183a21.35,21.35,0,0,0-3.57,3.3c-.15.18-.3.35-.45.54-.54-3.11-1-6.23-1.35-9.37a15.37,15.37,0,0,0,3.06-.69,18.24,18.24,0,0,0,4.06-1.92,15.88,15.88,0,0,0,2.73-2.14Q23.84,176.39,24.68,180Z"/><path class="cls-1" d="M28.08,193.76a14.8,14.8,0,0,0-2.36.77,17.09,17.09,0,0,0-4.11,2.32,20.74,20.74,0,0,0-3.44,3.26c-.12.15-.25.3-.36.45-.86-2.78-1.61-5.59-2.23-8.45a17.41,17.41,0,0,0,2.9-.81,21.25,21.25,0,0,0,4.34-2.18,18.47,18.47,0,0,0,3.37-2.77Q27.09,190.06,28.08,193.76Z"/><path class="cls-1" d="M31.74,206.78a15,15,0,0,0-1.8.71,17.4,17.4,0,0,0-4,2.5,20.7,20.7,0,0,0-3.32,3.42l-.15.2c-1-2.6-2-5.22-3-7.88a16.73,16.73,0,0,0,2.18-.66,20.26,20.26,0,0,0,4.23-2.15,17,17,0,0,0,3.56-3.08l.21-.23C30.34,202,31,204.4,31.74,206.78Z"/><path class="cls-1" d="M36.76,221.07c-.31.14-.6.29-.89.44A14.62,14.62,0,0,0,32.36,224a17.19,17.19,0,0,0-2.76,3.38c-.25.41-.49.83-.71,1.27-.13-.27-.26-.54-.38-.81-1.3-3-2.62-6-3.91-9,.59-.19,1.15-.4,1.7-.63a20.24,20.24,0,0,0,4.15-2.33A17.9,17.9,0,0,0,33.64,213,68.39,68.39,0,0,0,36.76,221.07Z"/><path class="cls-1" d="M44.13,231.21c-.28.2-.56.41-.82.62a13.1,13.1,0,0,0-2.77,3,15.37,15.37,0,0,0-1.85,3.69,14.07,14.07,0,0,0-.52,1.91,20.29,20.29,0,0,1-7.05-7.53,14.1,14.1,0,0,0,2.53-1,16.91,16.91,0,0,0,3.66-2.37,13.91,13.91,0,0,0,2.67-2.9A23.89,23.89,0,0,0,44.13,231.21Z"/><path class="cls-1" d="M56.88,236.44a13.13,13.13,0,0,0-2,2.41,11.63,11.63,0,0,0-1.64,3.55,10.08,10.08,0,0,0-.34,1.6,93.93,93.93,0,0,1-9.42-1.82l.12-.08a15.81,15.81,0,0,0,2.95-2.88,13,13,0,0,0,2-3.56,11.82,11.82,0,0,0,.47-1.42A33.12,33.12,0,0,0,56.88,236.44Z"/><path class="cls-1" d="M70.09,254.26a72.84,72.84,0,0,1-9.65-1.67C63.65,253.19,66.87,253.74,70.09,254.26Z"/><path class="cls-1" d="M73.4,238.36a13.73,13.73,0,0,0-2.15,2.69,11.81,11.81,0,0,0-1.48,3.56,10.8,10.8,0,0,0-.22,1.16q-4-.27-8-.68c-.62-.07-1.24-.13-1.86-.21a12.14,12.14,0,0,0,1.52-2.15,14.19,14.19,0,0,0,1.45-3.67,11.9,11.9,0,0,0,.3-1.82C66.43,237.63,69.92,238,73.4,238.36Z"/><path class="cls-1" d="M88.89,239.85a11.61,11.61,0,0,0-2,3,13.58,13.58,0,0,0-1,3.68s0,.05,0,.07q-4.54-.18-9.07-.42a12.28,12.28,0,0,0,.92-1.52A13.73,13.73,0,0,0,79,241a12.34,12.34,0,0,0,.25-2.07Q84.08,239.42,88.89,239.85Z"/><path class="cls-1" d="M106.36,241.26a11.5,11.5,0,0,0-1.71,2.68,13.54,13.54,0,0,0-1.1,3.49h-.07c-3.44-.19-6.89-.34-10.33-.48.16-.25.31-.51.45-.77a11.51,11.51,0,0,0,1.25-3.59,10,10,0,0,0,.17-2.22Q100.69,240.85,106.36,241.26Z"/><path class="cls-1" d="M123.36,242.39a11.79,11.79,0,0,0-1.68,2.77,12.93,12.93,0,0,0-1,3.36c-3.23-.38-6.46-.6-9.69-.77.09-.13.17-.27.25-.41a11.18,11.18,0,0,0,1.32-3.57,9.7,9.7,0,0,0,.23-2.06Q118.08,242.09,123.36,242.39Z"/><path class="cls-1" d="M140.31,243.29a12.81,12.81,0,0,0-1.29,2.35,14.75,14.75,0,0,0-1.09,3.89c0,.35-.08.7-.11,1-3.36-.31-6.71-.73-10.06-1.15a10.45,10.45,0,0,0,.6-1,11.37,11.37,0,0,0,1.26-3.65,10.88,10.88,0,0,0,.19-2C133.31,243,136.81,243.13,140.31,243.29Z"/><path class="cls-1" d="M153.83,249.46a11.85,11.85,0,0,0,0,1.88c-2.75,0-5.49-.13-8.24-.25l-1.29-.06a14,14,0,0,0,1.41-2.21A12.27,12.27,0,0,0,147,245a13,13,0,0,0,.18-1.43q4.1.18,8.19.32a11.93,11.93,0,0,0-.8,1.79A13.29,13.29,0,0,0,153.83,249.46Z"/><path class="cls-1" d="M172.35,246.12a11.93,11.93,0,0,0-.49,3.61,9.5,9.5,0,0,0,.12,1.58q-6.15.13-12.3.1a12.71,12.71,0,0,0,1.81-3,11.41,11.41,0,0,0,1-3.68c0-.21,0-.41,0-.62,3.51.11,7,.2,10.52.27A11.36,11.36,0,0,0,172.35,246.12Z"/><path class="cls-1" d="M189.18,246.14a11.39,11.39,0,0,0-.47,3.48c0,.38,0,.76.08,1.16l-.87,0c-3.32.14-6.63.26-10,.35a11.6,11.6,0,0,0,1.42-2.66,10,10,0,0,0,.71-3.55c0-.13,0-.25,0-.38,3.21.06,6.41.11,9.62.14A10.42,10.42,0,0,0,189.18,246.14Z"/><path class="cls-1" d="M204.86,245.85a11.79,11.79,0,0,0-.48,3.54,11.27,11.27,0,0,0,.18,1.88c-3.17-.22-6.35-.4-9.52-.48a11.13,11.13,0,0,0,1.17-2.24,9.63,9.63,0,0,0,.68-3.4v-.39q4.17,0,8.34,0C205.09,245.14,205,245.49,204.86,245.85Z"/><path class="cls-1" d="M223.72,249.56a9.47,9.47,0,0,0,.58,2.77c-4.81,0-9.62-.35-14.43-.69l.25-.3a11.52,11.52,0,0,0,1.78-3.1,9.73,9.73,0,0,0,.69-3.45q6,0,11.92-.08a10.75,10.75,0,0,0-.49,1.45A10.9,10.9,0,0,0,223.72,249.56Z"/><path class="cls-1" d="M241.62,248.88a9.77,9.77,0,0,0,.27,2.73q-5.8.36-11.62.62l-1.58.06a11,11,0,0,0,.84-1,10.64,10.64,0,0,0,1.61-3,8.83,8.83,0,0,0,.51-3.34c0-.11,0-.22,0-.33,3.66-.05,7.33-.11,11-.19-.14.32-.27.65-.39,1A11.35,11.35,0,0,0,241.62,248.88Z"/><path class="cls-1" d="M258.88,245.52a12.45,12.45,0,0,0-.51,4.95q-5.64.44-11.28.81c0-.07.11-.13.17-.2a11,11,0,0,0,1.9-3,9.44,9.44,0,0,0,.83-3.4c0-.15,0-.3,0-.46l9.48-.27A12.64,12.64,0,0,0,258.88,245.52Z"/><path class="cls-1" d="M276.48,243.4a12.41,12.41,0,0,0-.7,1.74,12.84,12.84,0,0,0-.59,3.69v.34c-.88.05-1.75.12-2.63.19l-7.68.61a10.75,10.75,0,0,0,1-1.94,10,10,0,0,0,.78-3.54c0-.24,0-.48,0-.73Q271.58,243.6,276.48,243.4Z"/><path class="cls-1" d="M295.15,244.28a11.56,11.56,0,0,0-.4,3.55c0,.23,0,.46,0,.7-4.19,0-8.36.08-12.54.25a10.79,10.79,0,0,0,.53-1.15,10.65,10.65,0,0,0,.79-3.61,6.88,6.88,0,0,0,0-.91q6.11-.26,12.21-.54A10.11,10.11,0,0,0,295.15,244.28Z"/><path class="cls-1" d="M313.69,243.28a11.83,11.83,0,0,0-.56,3.55,10.46,10.46,0,0,0,.15,2c-4-.1-8-.2-12-.24a11.66,11.66,0,0,0,1-2,9.8,9.8,0,0,0,.61-3.48,7.58,7.58,0,0,0,0-.82q5.78-.3,11.56-.62A12.12,12.12,0,0,0,313.69,243.28Z"/><path class="cls-1" d="M334.31,242.91a12.05,12.05,0,0,0-.34,3.62,10.47,10.47,0,0,0,.26,1.88l-8.31.56c-2.39.08-4.78.1-7.17,0l.08-.1a11.75,11.75,0,0,0,1.84-3.08,9.6,9.6,0,0,0,.77-3.47,8.82,8.82,0,0,0,0-1.15q6.93-.41,13.87-.85A10.31,10.31,0,0,0,334.31,242.91Z"/><path class="cls-1" d="M355.33,242.14a10,10,0,0,0-.06,3.32,8.27,8.27,0,0,0,.21,1.06c-4.62.41-9.24.91-13.86,1.36h-.09l-1.6.11a11.22,11.22,0,0,0,1.52-3,10.25,10.25,0,0,0,.55-3.56,8.8,8.8,0,0,0-.13-1.51q7.37-.49,14.74-1l-.1.17A8.33,8.33,0,0,0,355.33,242.14Z"/><path class="cls-1" d="M373.44,243.05a9.66,9.66,0,0,0,.45,1.88q-6.11.47-12.19,1a9.69,9.69,0,0,0,.87-2.15,8.49,8.49,0,0,0,.27-3.27,7.79,7.79,0,0,0-.44-2q5.88-.42,11.76-.88a9.06,9.06,0,0,0-.66,2.13A10,10,0,0,0,373.44,243.05Z"/><path class="cls-1" d="M390.93,242.32a10.39,10.39,0,0,0,.29,1.32q-6,.47-12,.89l.08-.12a10.34,10.34,0,0,0,1.39-3,8.5,8.5,0,0,0,.27-3.27,7.58,7.58,0,0,0-.16-1l10.95-.88a8.67,8.67,0,0,0-.88,2.72A10.49,10.49,0,0,0,390.93,242.32Z"/><path class="cls-1" d="M410.78,239.77a10,10,0,0,0,.38,1.87q-6,.72-13,1.44l-1,.08a10,10,0,0,0,1.12-2.75,8.54,8.54,0,0,0,.21-3.35,8.05,8.05,0,0,0-.26-1.39c4.46-.38,8.92-.77,13.38-1.21a10.07,10.07,0,0,0-.6,1.91A10.4,10.4,0,0,0,410.78,239.77Z"/><path class="cls-1" d="M430.74,238.71q-6.9,1.26-13.88,2.22a10.19,10.19,0,0,0,1.27-2.75,8.65,8.65,0,0,0,.37-3.34,8.33,8.33,0,0,0-.14-1.09q6-.66,12-1.49c-.09.33-.16.66-.22,1a10,10,0,0,0,0,3.32A9,9,0,0,0,430.74,238.71Z"/><path class="cls-1" d="M445.28,230.08a11.19,11.19,0,0,0-.12,3.28,23.44,23.44,0,0,1-7.2,3.91c-.6.14-1.19.26-1.79.37a9.72,9.72,0,0,0,1.23-2.89,8.36,8.36,0,0,0,.2-3.28c0-.11,0-.21,0-.32q3.9-.63,7.79-1.39C445.32,229.87,445.3,230,445.28,230.08Z"/><path class="cls-1" d="M457.25,217a58.57,58.57,0,0,1-9.38,2.91c-36.21,8.82-73.58,11.74-110.8,13.5-62.68,3-125.45,2.7-188.19,2.45-29.38-.12-58.92-.26-87.89-5.17-4.64-.78-9.52-1.82-12.95-5-3-2.85-4.48-7-5.74-10.92A413.93,413.93,0,0,1,23.41,63.27c.36-5.83.94-11.92,3.18-17.23,64.38-30.34,257-23.39,257-23.39s15.2,1.22,54.39,36.54C405.35,119.93,473.73,62,473.73,62S479.82,170.11,457.25,217Z"/><path class="cls-2" d="M493,93.38a333.4,333.4,0,0,0-3.81-35.11,7.33,7.33,0,0,0-2.2-4c-.72-.67-2.26-1.57-3.08-.54-.36.44-.22,1-.16,1.48s.18,1.3.26,1.95q.6,4.68,1.07,9.39Q486,76,486.45,85.4t.29,18.89q-.12,9.45-.75,18.88T484.19,142q-1.15,9.38-2.83,18.68t-3.87,18.5q-1.8,7.53-3.94,15c-2.06,7.16-4.62,14.66-10.37,19.39a24.29,24.29,0,0,1-5.93,3.51,58.57,58.57,0,0,1-9.38,2.91c-36.21,8.82-73.58,11.74-110.8,13.5-62.68,3-125.45,2.7-188.19,2.45-29.38-.12-58.92-.26-87.89-5.17-4.64-.78-9.52-1.82-12.95-5-3-2.85-4.48-7-5.74-10.92A413.93,413.93,0,0,1,23.41,63.27c.36-5.83.94-11.92,3.18-17.23a23.33,23.33,0,0,1,3-5.21c5.15-6.7,13.74-9.61,21.86-11.94,13.61-3.89,27.4-7.1,41.29-9.75s27.88-4.71,41.92-6.33S162.87,10,177,9.15s28.4-1.38,42.62-1.71S248.1,7,262.33,7q13.27,0,26.55,0a1.06,1.06,0,0,0,.53-.09c1.1-.63.43-5.15.3-6.19a.76.76,0,0,0-.13-.39.68.68,0,0,0-.4-.19A18.58,18.58,0,0,0,285,.22l-5.58.12L268.29.63C260.85.82,253.41,1,246,1h-.67q-22.1.55-44.2,1.5T157,5q-22,1.56-44,3.83Q103,9.88,93.18,11.09c-3.29.4-6.58.83-9.86,1.26-3.11.42-6.5,1.33-9.63,1.33-5.37.77-10.73,1.62-16,2.73A110.18,110.18,0,0,0,42,20.78,66.68,66.68,0,0,0,27.74,27.9a44.76,44.76,0,0,0-6.06,4.63,5.93,5.93,0,0,0-.94,1.64c-.27.56-.54,1.12-.8,1.69A45.94,45.94,0,0,0,13.44,42a33.76,33.76,0,0,0-5.9,9.81,67.06,67.06,0,0,0-3.1,10.63A232.86,232.86,0,0,0,.08,105.22C-.21,119.49.28,133.76,1.4,148c.9,14.27,4.35,28.26,7.74,42.13C10.93,197,12.47,204,14.43,211S19,224.8,23.2,230.9c1,1.54,2.2,3,3.28,4.48L30,239.67c.68.66,1.3,1.37,1.95,2.05l1,1c.37.34.84.66,1.26,1a17.39,17.39,0,0,0,2.58,1.65,19.61,19.61,0,0,0,2.6,1.29c6.91,3.16,14,4.47,21,5.9,3.21.6,6.43,1.15,9.65,1.67h.08a323.62,323.62,0,0,0,32.73,3.63,144.22,144.22,0,0,0,21.3.3c7.11-.41,14.2-1,21.28-.93,14.16,0,28.29.5,42.44,1.09s28.28-2.36,42.42-2.12,28.29.68,42.45,1,28.29-1,42.37-2.72c14.06-2.12,28.24-1.75,42.38-2.48s28.23-2.26,42.28-4.07S428,244.62,442,241.64a75.27,75.27,0,0,0,10.56-3,19.68,19.68,0,0,0,2.71-1.31l1.35-.74,1.14-.87a32.63,32.63,0,0,0,4.22-3.82,42.63,42.63,0,0,0,6.49-9.05c.32-.57.62-1.15.92-1.73l.26-.2c8-6.45,11.37-17,13.86-26.94A338.12,338.12,0,0,0,493,93.38ZM16,47.68c-.41,1.69-.74,3.4-1,5.12a6,6,0,0,0-1.6.43A29.39,29.39,0,0,1,16,47.68Zm-5.24,16c.17-.91.34-1.82.52-2.72a8.64,8.64,0,0,0,1.52,0,7,7,0,0,0,1.14-.15c-.23,2.49-.38,5-.48,7.48a8.5,8.5,0,0,0-2.92,1.15c-.24.15-.48.31-.71.48C10.1,67.88,10.4,65.79,10.76,63.71ZM9.08,77.07A9.07,9.07,0,0,0,11,77a10,10,0,0,0,2.3-.6v.18q0,3,0,6l-.37.06a10.6,10.6,0,0,0-4.34,1.81C8.7,82,8.86,79.52,9.08,77.07Zm-.8,14.45a11.26,11.26,0,0,0,1.19-.09,11.63,11.63,0,0,0,3.46-1l.46-.22q.07,3,.18,6l-.39,0a9.74,9.74,0,0,0-3.4,1,11.62,11.62,0,0,0-1.65,1C8.16,96,8.21,93.77,8.28,91.52ZM8.06,105.3v-.4a10.69,10.69,0,0,0,1.27,0,11.5,11.5,0,0,0,3.5-.83c.37-.15.73-.32,1.08-.5.1,2.06.23,4.13.37,6.19l-.58.1A11.91,11.91,0,0,0,10,111.16a12.66,12.66,0,0,0-1.88,1.23C8.08,110,8.06,107.66,8.06,105.3Zm.25,13.77c.43,0,.85-.08,1.26-.14a14.4,14.4,0,0,0,3.78-1.13,12.41,12.41,0,0,0,1.48-.79c.16,1.95.33,3.9.53,5.85a12.09,12.09,0,0,0-1.22.3,14.08,14.08,0,0,0-3.9,1.77,15.41,15.41,0,0,0-1.63,1.19Q8.43,122.6,8.31,119.07ZM9,133.12c.33-.06.66-.14,1-.22a16.75,16.75,0,0,0,4-1.58A15.65,15.65,0,0,0,16.1,130c.25,2.2.52,4.41.8,6.61-.48.09-.93.21-1.38.34a14.06,14.06,0,0,0-3.85,1.77,15.76,15.76,0,0,0-2.08,1.6Q9.28,136.71,9,133.12Zm1.18,14.07,0-.27c.46-.07.91-.17,1.35-.28a17,17,0,0,0,4-1.58,15.44,15.44,0,0,0,2.34-1.61c.37,2.63.78,5.26,1.21,7.88-.42.12-.84.26-1.24.41A14.3,14.3,0,0,0,14,153.81a16.93,16.93,0,0,0-2.79,2.57C10.9,153.31,10.59,150.25,10.22,147.19Zm2.41,24.89c-.33-3.21-.61-6.43-.9-9.64a15.87,15.87,0,0,0,2.51-.62,17.55,17.55,0,0,0,3.95-1.89,15.69,15.69,0,0,0,2.06-1.56c.46,2.59.95,5.18,1.45,7.76a13.22,13.22,0,0,0-1.58.49,15.51,15.51,0,0,0-3.94,2.1,18.31,18.31,0,0,0-3.3,3.06Zm1.94,14.78c-.54-3.11-1-6.23-1.35-9.37a15.37,15.37,0,0,0,3.06-.69,18.24,18.24,0,0,0,4.06-1.92,15.88,15.88,0,0,0,2.73-2.14q.77,3.64,1.61,7.28a15.8,15.8,0,0,0-1.87.64A17.75,17.75,0,0,0,18.59,183a21.35,21.35,0,0,0-3.57,3.3C14.87,186.5,14.72,186.67,14.57,186.86Zm3.24,13.7c-.86-2.78-1.61-5.59-2.23-8.45a17.41,17.41,0,0,0,2.9-.81,21.25,21.25,0,0,0,4.34-2.18,18.47,18.47,0,0,0,3.37-2.77q.9,3.7,1.89,7.41a14.8,14.8,0,0,0-2.36.77,17.09,17.09,0,0,0-4.11,2.32,20.74,20.74,0,0,0-3.44,3.26C18.05,200.26,17.92,200.41,17.81,200.56Zm4.79,12.85-.15.2c-1-2.6-2-5.22-3-7.88a16.73,16.73,0,0,0,2.18-.66,20.26,20.26,0,0,0,4.23-2.15,17,17,0,0,0,3.56-3.08l.21-.23c.67,2.4,1.35,4.79,2.07,7.17a15,15,0,0,0-1.8.71,17.4,17.4,0,0,0-4,2.5A20.7,20.7,0,0,0,22.6,213.41Zm7,14c-.25.41-.49.83-.71,1.27-.13-.27-.26-.54-.38-.81-1.3-3-2.62-6-3.91-9,.59-.19,1.15-.4,1.7-.63a20.24,20.24,0,0,0,4.15-2.33A17.9,17.9,0,0,0,33.64,213a68.39,68.39,0,0,0,3.12,8.1c-.31.14-.6.29-.89.44A14.62,14.62,0,0,0,32.36,224,17.19,17.19,0,0,0,29.6,227.42Zm10.94,7.41a15.37,15.37,0,0,0-1.85,3.69,14.07,14.07,0,0,0-.52,1.91,20.29,20.29,0,0,1-7.05-7.53,14.1,14.1,0,0,0,2.53-1,16.91,16.91,0,0,0,3.66-2.37,13.91,13.91,0,0,0,2.67-2.9,23.89,23.89,0,0,0,4.15,4.54c-.28.2-.56.41-.82.62A13.1,13.1,0,0,0,40.54,234.83Zm14.33,4a11.63,11.63,0,0,0-1.64,3.55,10.08,10.08,0,0,0-.34,1.6,93.93,93.93,0,0,1-9.42-1.82l.12-.08a15.81,15.81,0,0,0,2.95-2.88,13,13,0,0,0,2-3.56,11.82,11.82,0,0,0,.47-1.42,33.12,33.12,0,0,0,7.85,2.2A13.13,13.13,0,0,0,54.87,238.85Zm16.38,2.2a11.81,11.81,0,0,0-1.48,3.56,10.8,10.8,0,0,0-.22,1.16q-4-.27-8-.68c-.62-.07-1.24-.13-1.86-.21a12.14,12.14,0,0,0,1.52-2.15,14.19,14.19,0,0,0,1.45-3.67,11.9,11.9,0,0,0,.3-1.82c3.48.39,7,.77,10.45,1.12A13.73,13.73,0,0,0,71.25,241.05Zm15.68,1.84a13.58,13.58,0,0,0-1,3.68s0,.05,0,.07q-4.54-.18-9.07-.42a12.28,12.28,0,0,0,.92-1.52A13.73,13.73,0,0,0,79,241a12.34,12.34,0,0,0,.25-2.07q4.82.47,9.63.9A11.61,11.61,0,0,0,86.93,242.89Zm17.72,1.05a13.54,13.54,0,0,0-1.1,3.49h-.07c-3.44-.19-6.89-.34-10.33-.48.16-.25.31-.51.45-.77a11.51,11.51,0,0,0,1.25-3.59,10,10,0,0,0,.17-2.22q5.67.48,11.34.89A11.5,11.5,0,0,0,104.65,243.94Zm17,1.22a12.93,12.93,0,0,0-1,3.36c-3.23-.38-6.46-.6-9.69-.77.09-.13.17-.27.25-.41a11.18,11.18,0,0,0,1.32-3.57,9.7,9.7,0,0,0,.23-2.06q5.28.38,10.56.68A11.79,11.79,0,0,0,121.68,245.16Zm17.34.48a14.75,14.75,0,0,0-1.09,3.89c0,.35-.08.7-.11,1-3.36-.31-6.71-.73-10.06-1.15a10.45,10.45,0,0,0,.6-1,11.37,11.37,0,0,0,1.26-3.65,10.88,10.88,0,0,0,.19-2c3.5.21,7,.38,10.5.54A12.81,12.81,0,0,0,139,245.64Zm15.56.06a13.29,13.29,0,0,0-.75,3.76,11.85,11.85,0,0,0,0,1.88c-2.75,0-5.49-.13-8.24-.25l-1.29-.06a14,14,0,0,0,1.41-2.21A12.27,12.27,0,0,0,147,245a13,13,0,0,0,.18-1.43q4.1.18,8.19.32A11.93,11.93,0,0,0,154.58,245.7Zm17.77.42a11.93,11.93,0,0,0-.49,3.61,9.5,9.5,0,0,0,.12,1.58q-6.15.13-12.3.1a12.71,12.71,0,0,0,1.81-3,11.41,11.41,0,0,0,1-3.68c0-.21,0-.41,0-.62,3.51.11,7,.2,10.52.27A11.36,11.36,0,0,0,172.35,246.12Zm16.83,0a11.39,11.39,0,0,0-.47,3.48c0,.38,0,.76.08,1.16l-.87,0c-3.32.14-6.63.26-10,.35a11.6,11.6,0,0,0,1.42-2.66,10,10,0,0,0,.71-3.55c0-.13,0-.25,0-.38,3.21.06,6.41.11,9.62.14A10.42,10.42,0,0,0,189.18,246.14Zm15.68-.29a11.79,11.79,0,0,0-.48,3.54,11.27,11.27,0,0,0,.18,1.88c-3.17-.22-6.35-.4-9.52-.48a11.13,11.13,0,0,0,1.17-2.24,9.63,9.63,0,0,0,.68-3.4v-.39q4.17,0,8.34,0C205.09,245.14,205,245.49,204.86,245.85Zm18.86,3.71a9.47,9.47,0,0,0,.58,2.77c-4.81,0-9.62-.35-14.43-.69l.25-.3a11.52,11.52,0,0,0,1.78-3.1,9.73,9.73,0,0,0,.69-3.45q6,0,11.92-.08a10.75,10.75,0,0,0-.49,1.45A10.9,10.9,0,0,0,223.72,249.56Zm18.52-4.16a11.35,11.35,0,0,0-.62,3.48,9.77,9.77,0,0,0,.27,2.73q-5.8.36-11.62.62l-1.58.06a11,11,0,0,0,.84-1,10.64,10.64,0,0,0,1.61-3,8.83,8.83,0,0,0,.51-3.34c0-.11,0-.22,0-.33,3.66-.05,7.33-.11,11-.19C242.49,244.74,242.36,245.07,242.24,245.4Zm16.64.12a12.45,12.45,0,0,0-.51,4.95q-5.64.44-11.28.81c0-.07.11-.13.17-.2a11,11,0,0,0,1.9-3,9.44,9.44,0,0,0,.83-3.4c0-.15,0-.3,0-.46l9.48-.27A12.64,12.64,0,0,0,258.88,245.52Zm16.9-.38a12.84,12.84,0,0,0-.59,3.69v.34c-.88.05-1.75.12-2.63.19l-7.68.61a10.75,10.75,0,0,0,1-1.94,10,10,0,0,0,.78-3.54c0-.24,0-.48,0-.73q4.9-.17,9.81-.36A12.41,12.41,0,0,0,275.78,245.14Zm19.37-.86a11.56,11.56,0,0,0-.4,3.55c0,.23,0,.46,0,.7-4.19,0-8.36.08-12.54.25a10.79,10.79,0,0,0,.53-1.15,10.65,10.65,0,0,0,.79-3.61,6.88,6.88,0,0,0,0-.91q6.11-.26,12.21-.54A10.11,10.11,0,0,0,295.15,244.28Zm18.54-1a11.83,11.83,0,0,0-.56,3.55,10.46,10.46,0,0,0,.15,2c-4-.1-8-.2-12-.24a11.66,11.66,0,0,0,1-2,9.8,9.8,0,0,0,.61-3.48,7.58,7.58,0,0,0,0-.82q5.78-.3,11.56-.62A12.12,12.12,0,0,0,313.69,243.28Zm20.62-.37a12.05,12.05,0,0,0-.34,3.62,10.47,10.47,0,0,0,.26,1.88l-8.31.56c-2.39.08-4.78.1-7.17,0l.08-.1a11.75,11.75,0,0,0,1.84-3.08,9.6,9.6,0,0,0,.77-3.47,8.82,8.82,0,0,0,0-1.15q6.93-.41,13.87-.85A10.31,10.31,0,0,0,334.31,242.91Zm22.2-3.84a8.33,8.33,0,0,0-1.18,3.07,10,10,0,0,0-.06,3.32,8.27,8.27,0,0,0,.21,1.06c-4.62.41-9.24.91-13.86,1.36h-.09l-1.62.14s0,0,0,0a11.22,11.22,0,0,0,1.52-3,10.25,10.25,0,0,0,.55-3.56,8.8,8.8,0,0,0-.13-1.51q7.37-.49,14.74-1Zm16.93,4a9.66,9.66,0,0,0,.45,1.88q-6.11.47-12.19,1a9.69,9.69,0,0,0,.87-2.15,8.49,8.49,0,0,0,.27-3.27,7.79,7.79,0,0,0-.44-2q5.88-.42,11.76-.88a9.06,9.06,0,0,0-.66,2.13A10,10,0,0,0,373.44,243.05Zm17.49-.73a10.39,10.39,0,0,0,.29,1.32q-6,.47-12,.89l.08-.12a10.34,10.34,0,0,0,1.39-3,8.5,8.5,0,0,0,.27-3.27,7.58,7.58,0,0,0-.16-1l10.95-.88a8.67,8.67,0,0,0-.88,2.72A10.49,10.49,0,0,0,390.93,242.32Zm19.85-2.55a10,10,0,0,0,.38,1.87s0,0,0,0q-5.94.75-11.89,1.3l-1.15.1-1,.08a10,10,0,0,0,1.12-2.75,8.54,8.54,0,0,0,.21-3.35,8.05,8.05,0,0,0-.26-1.39c4.46-.38,8.92-.77,13.38-1.21a10.07,10.07,0,0,0-.6,1.91A10.4,10.4,0,0,0,410.78,239.77Zm6.08,1.16a10.19,10.19,0,0,0,1.27-2.75,8.65,8.65,0,0,0,.37-3.34,8.33,8.33,0,0,0-.14-1.09q6-.66,12-1.49c-.09.33-.16.66-.22,1a10,10,0,0,0,0,3.32,9,9,0,0,0,.6,2.13Q423.84,240,416.86,240.93Zm24-4.28c-1,.22-1.94.43-2.91.62-.6.14-1.19.26-1.79.37a9.72,9.72,0,0,0,1.23-2.89,8.36,8.36,0,0,0,.2-3.28c0-.11,0-.21,0-.32q3.9-.63,7.79-1.39c0,.11-.05.21-.07.32a11.19,11.19,0,0,0-.12,3.28,2.48,2.48,0,0,0,0,.26,10.11,10.11,0,0,0,.37,1.8C444,235.86,442.44,236.27,440.87,236.65Zm17.47-8.29a28.58,28.58,0,0,1-3.66,3.24l-1,.73-1,.49a6.37,6.37,0,0,0-.69.35,10.24,10.24,0,0,0,.82-4.95v-.05a63.74,63.74,0,0,0,7.74-2.29C459.86,226.74,459.11,227.57,458.34,228.36Z"/></g></g></svg>