<svg xmlns="http://www.w3.org/2000/svg" viewBox="0 0 807.81 815.65"><defs><style>.cls-1{fill:#ffa014;}.cls-2{fill:#fbc300;}.cls-3{fill:#ff7d03;}</style></defs><title>background-orange-picture</title><g id="Calque_2" data-name="Calque 2"><g id="Calque_1-2" data-name="Calque 1"><path class="cls-1" d="M330.18,0a97.92,97.92,0,0,0-44.74,11C234.71,36.56,246.27,98.29,255,162c85.44,50,215-15.16,272.74,75,49.1,76.64,70.86,129.82,140.4,129.82A178.56,178.56,0,0,0,700,363.67c11.77-48,29.28-97.64,56.12-147.71,23-42.89-11.56-87.29-51.07-95-57.45-11.24-117.71-.55-174-22.16C461,71.89,398.55,0,330.18,0M669.56,621.72c-75.13,63.81-117.44,112-185.8,112a167,167,0,0,1-30-2.85c34.76,34.27,71.74,61.86,106.68,61.86a62.2,62.2,0,0,0,20.73-3.5C647.4,766,662.3,705,669.56,621.72"/><path class="cls-2" d="M176.83,133.2c-69.46,0-71.43,103.44-72.52,178.1-1.39,95-125.44,147.14-101.17,269.29,19.73,99.26,173,12.31,322,97,53.18,30.23,94.3,47,128.58,53.26-50.45-49.74-96.19-113.54-124.1-127.39C229.6,553.87,57.9,569.82,125.22,455.44c31.15-52.93,95.94-124.61,120.35-166.15,20.59-35,15.75-81.69,9.46-127.34l-1.93-1.16c-31.77-19.38-56.7-27.6-76.27-27.6M734.72,359.57a153,153,0,0,0-30.1,3.22q-2.34.47-4.62.89c-23.57,96.12-24.11,185.54-30.43,258,8.6-7.3,17.62-14.8,27.16-22.46C839.8,484.42,836,359.57,734.72,359.57"/><path class="cls-3" d="M255,162c6.28,45.65,11.13,92.3-9.47,127.34-24.41,41.54-89.2,113.22-120.35,166.15C57.9,569.82,229.6,553.87,329.66,603.51c27.9,13.84,73.64,77.64,124.1,127.39a167.07,167.07,0,0,0,30,2.85c68.37,0,110.67-48.23,185.8-112,6.32-72.51,6.86-161.92,30.43-258a178.66,178.66,0,0,1-31.82,3.14c-69.54,0-91.3-53.18-140.4-129.82C470,146.8,340.48,211.91,255,162"/><path class="cls-1" d="M206.84,88.21c0,11.62-9.81,21-21.91,21S163,99.82,163,88.21s9.81-21,21.91-21,21.91,9.42,21.91,21"/><path class="cls-1" d="M229.63,21.6c0,4.84-3.14,8.77-7,8.77s-7-3.92-7-8.77,3.14-8.76,7-8.76,7,3.92,7,8.76"/><path class="cls-1" d="M476.78,790.23c0,14-13.34,25.42-29.8,25.42s-29.8-11.38-29.8-25.42,13.34-25.42,29.8-25.42,29.8,11.38,29.8,25.42"/><path class="cls-1" d="M387.38,766.57c0,8.71-7.85,15.78-17.53,15.78s-17.53-7.06-17.53-15.78,7.85-15.78,17.53-15.78,17.53,7.06,17.53,15.78"/></g></g></svg>