<svg xmlns="http://www.w3.org/2000/svg" viewBox="0 0 163.18 94.23"><defs><style>.cls-1{fill:#fff;}</style></defs><title>credibilite-ethique-deonto</title><g id="Calque_2" data-name="Calque 2"><g id="Calque_6" data-name="Calque 6"><path class="cls-1" d="M155.32,41h0c0-7.74-.05-15.48,0-23.22,0-2-.53-2.91-2.65-2.86-4.13.1-8.27.07-12.4,0-1.63,0-2.37.49-2.36,2.28q.06,23.48,0,47c0,1.86.73,2.48,2.51,2.44,4-.08,8.09-.15,12.13,0,2.26.08,2.84-.82,2.81-2.93-.1-7.56,0-15.12,0-22.69M25.37,40.87c0-7.74-.06-15.47,0-23.21,0-2.11-.75-2.76-2.78-2.71q-6.06.16-12.13,0c-1.94-.05-2.65.65-2.65,2.59q.06,23.34,0,46.68c0,1.86.76,2.46,2.54,2.42,4.13-.08,8.26-.11,12.39,0,2.16.06,2.66-.86,2.63-2.84-.09-7.65,0-15.29,0-22.94m104.78-1.61c0-4.22,0-8.44,0-12.66,0-4.56.06-4.85-4.27-6.19-12.4-3.85-24.83-7.63-37.37-11A37.19,37.19,0,0,0,76,8.21C66.14,9,53.52,24,53.77,34.05c.06,2.24,1.44,3.45,3.48,2.41,2.76-1.42,5.75-3,7.6-5.38,2.48-3.15,5.23-5,9.12-5.45C75,25.52,76,24.94,77,25c1.84,0,3.94-.15,5.48.65a163.35,163.35,0,0,1,42.14,31.3c1.31,1.34,2.47,1.82,3.7.36a6.52,6.52,0,0,0,1.71-3.5c.19-4.83.08-9.67.07-14.5m-77-24.33a8.3,8.3,0,0,0-1.88-.17c-5.43,1-10.88,2-16.26,3.28-.74.17-1.62,1.76-1.63,2.71q-.17,17.67,0,35.35a5.16,5.16,0,0,0,1.45,3.4c4.47,4.1,9,8.18,13.69,12,7.58,6.07,15.64,11.4,25.2,13.91,1.67.44,3.42.57,5.14.84l.23-.8c-.57-.5-1.11-1-1.7-1.5A90.38,90.38,0,0,1,70.25,78,4.89,4.89,0,0,1,69,74.11a4.61,4.61,0,0,1,3-2.83c1.2-.25,2.88.52,4,1.33,3.7,2.68,7.07,5.83,10.9,8.29a26.68,26.68,0,0,0,8.45,3.34,7.37,7.37,0,0,0,7.31-2.64c-1-.61-1.69-1.07-2.42-1.49-2.66-1.54-5.43-2.91-8-4.62-3.65-2.44-7.2-5-10.67-7.73-2.42-1.88-2.84-4.38-1.38-6.19s3.8-1.94,6.31,0a33.51,33.51,0,0,0,2.69,2.12c6,3.62,12,7.3,18.1,10.67,1.45.8,3.53.46,5.32.64l.21-1c-.78-.49-1.57-1-2.33-1.48-5.82-3.93-11.69-7.79-17.42-11.86a3.9,3.9,0,0,1-1-5.79c1.41-1.8,3.66-2,5.84-.41.5.36.95.79,1.46,1.13,5.27,3.49,10.5,7.05,15.86,10.4,1.56,1,3.79,2.15,5.16.18.45-.64-.94-3.08-2-4.19A158.08,158.08,0,0,0,81.33,33.88c-3.05-1.69-7-.79-9.57,1.57a57.26,57.26,0,0,1-9.86,7.74c-3.91,2.24-8.37,2.38-12.21-.54S45.09,35.39,46.22,31A73,73,0,0,1,50,20.9c.83-2,2-3.82,3.11-6m76.62-1.86c1.25-5.73,1.6-6,7.51-6,6.86,0,13.72,0,20.58,0,4.07,0,5.36,1.31,5.36,5.34q0,28.36,0,56.72c0,4.33-1.08,5.38-5.52,5.39q-10.95,0-21.9,0c-4.32,0-5.4-1.06-5.6-5.4,0-.74-.19-1.48-.27-2.14l-8.63,11a11.85,11.85,0,0,1-7.77,4.55,4.53,4.53,0,0,0-3.76,2.61c-2.8,5-7.56,6.95-13.06,7-3.54,0-6.87,0-10.46,1.09-6.56,2-13.23.63-19.61-1.8C55,87.07,45.48,79.67,36.3,71.67c-.71-.62-1.47-1.2-2.49-2-.32.86-.37,1.67-.8,2-1.25,1-2.62,2.68-4,2.73-8.17.26-16.35.18-24.53.1-3,0-4.48-1.67-4.48-4.69Q0,40.92,0,12C0,8.76,1.66,7.14,4.9,7.11c7.82-.06,15.65-.1,23.48,0,1.34,0,2.64,1.08,4,1.6a6.93,6.93,0,0,0,2.93.84c8.18-1,16.34-2.17,24.5-3.31a4.15,4.15,0,0,0,1.92-.69c8-6.23,17.08-6.5,26.38-4.46,13.65,3,27.21,6.35,40.22,11.62a9.7,9.7,0,0,0,1.43.32"/></g></g></svg>