<svg xmlns="http://www.w3.org/2000/svg" viewBox="0 0 163.32 211.58"><defs><style>.cls-1{fill:#fff;}</style></defs><title>credibilite-certification</title><g id="Calque_2" data-name="Calque 2"><g id="Calque_6" data-name="Calque 6"><path class="cls-1" d="M163.32,65.52v-.83C158.39,61,154.47,56.16,150,52c-1.36-1.26-1.2-3-1.38-4.63-.44-4.11-.87-8.22-1.14-12.34-.16-2.48-1-4-3.65-4.61-3.19-.75-6.16-2.49-9.36-3.11-5.59-1.1-8.4-4.89-10.76-9.51-1.42-2.78-3.34-5.3-4.78-8.07-.9-1.71-2.14-1.46-3.48-1.17-5.34,1.17-10.9.67-16.22,2.4-1.17.38-3.18-1.79-4.8-2.8C90.21,5.55,85.66,3.5,82.07,0h-.83c-4.31,3.93-9.77,6.16-14.36,9.71a5.17,5.17,0,0,1-3.88.91c-4.48-.65-9.08-.79-13.45-1.85-3.45-.83-5.26.36-6.41,3.19C38.9,22.3,31.23,28.26,20.28,30.07c-3.29.55-4.66,2.56-4.44,5.71.77,11.06-3.58,19.61-12.51,26-1.19.85-2.22,1.93-3.33,2.9v.83c2.36,4.16,3.25,8.91,5.2,13.22a11.15,11.15,0,0,1,.08,9.4C3.51,92.7-.28,97.7,1,101.94s6.3,7.36,10,10.67A10.61,10.61,0,0,1,14.78,120c.29,3.56.78,7.11.94,10.68.15,3.36,1.1,5.66,4.87,6.33,2.39.42,4.63,1.63,6.94,2.49-5.88,18.59-11.77,37.18-17.78,56.19,8.17-.5,16-.9,23.78-1.49,3.44-.26,6.29.29,9.06,2.71,5.39,4.72,11.12,9,16.76,13.48,1,.8,2.17,2.53,3.08-.46,4.66-15.24,9.5-30.43,14.28-45.63,3.16,2,6.33,3.08,9.54.1,4.69,14.66,9.48,29.29,14,44,1.13,3.67,2.29,3.33,4.74,1.26,4.74-4,9.93-7.5,14.43-11.74,3.72-3.5,7.67-4.08,12.43-3.61,7.1.71,14.24.91,21.71,1.34-6-19-11.86-37.54-17.74-56.13,2.83-1,5.62-2.23,8.51-3a3.48,3.48,0,0,0,3-3.36c.2-2.34.52-4.68.54-7,0-5.74.74-11.06,5.94-14.85,2.53-1.84,4.55-4.38,6.82-6.59,1.77-1.74,2.43-3.51,1.32-6.09-1.78-4.15-3.06-8.51-4.64-12.75-.44-1.2-.93-2.37-.42-3.58C159.15,76.71,160.52,70.84,163.32,65.52ZM58.89,191.92a19,19,0,0,0-.86,2.75c-.43,2.28-1.39,2.29-3,1-3-2.47-6.19-4.65-9-7.28A11,11,0,0,0,36,185.21c-3.11.52-6.34.24-9.48.59-3.43.37-4.57-.26-3.26-4.06,4.37-12.73,8.41-25.57,12.58-38.37a6,6,0,0,0-.81-1,6.07,6.07,0,0,1,.82,1c2.54,4,5.31,8,7.54,12.17,1.43,2.69,3.26,3.24,6,2.83,3.65-.57,7.35-.86,11-1.51s6.76,0,9.38,2.69C65.3,170.08,62.66,181.19,58.89,191.92Zm81.59-8.75c.87,2.58-.12,2.78-2.22,2.62s-4.24.3-6.19-.21c-8-2.08-13.83,1.29-19.55,6.49-6.06,5.52-6.34,5.2-9-2.76q-4.91-14.89-9.82-29.77a9.56,9.56,0,0,1,9.38-2.65,23,23,0,0,0,2.84.46c4,.36,8.89,2.31,11.6.64,3.48-2.14,5.39-7.07,7.48-11.06a27.07,27.07,0,0,1,2.46-3.35C131.82,156.78,136.07,170,140.48,183.17Zm5.44-76.48c-7.14,4.38-5.8,11.84-6.55,18.4-.33,2.91-1.1,4.55-4,5.13-1.47.29-2.83,1.17-4.29,1.46-6.27,1.25-10.84,4.63-13.33,10.55-2.29,5.44-5.54,8.24-11.94,6.25-7.29-2.26-13.53.13-19,5.4-3.42,3.33-7.14,2.11-10.52-.37a16.67,16.67,0,0,1-1.52-1.1c-5.11-5.08-11.47-5.25-17.73-3.84-5.46,1.22-8.81,0-10.81-5.29-2.92-7.66-9.38-10.82-16.74-12.49-4.19-1-5.94-3.13-5.6-7.45.18-2.29-.6-4.65-.64-7-.05-3.11-1-5.71-3.59-7.47-8-5.42-10.78-12-5-20.82,2.43-3.73.68-7.45-.71-11-3.7-9.47-4.15-9.94,3.32-16.07,6.11-5,6.43-11.47,6.67-18.09.13-3.73,1.49-5.52,4.94-6.27,1.88-.4,3.63-1.42,5.51-1.7,5.77-.84,8.77-4.92,10.88-9.6.91-2,2.85-3.29,3.24-5.8.23-1.45,2.8-1.85,4.32-1.26a6.85,6.85,0,0,1,1.19.08c9.53,3,17.7.23,25-6,1.88-1.6,3.48-1.63,5.36,0,7.29,6.27,15.46,8.94,25,6,2.86-.87,5,0,6.17,3,3.51,8.88,10.1,14,19.48,15.51,3.36.54,4.39,2.45,4.33,5.72s.63,6.31.81,9.48A8.11,8.11,0,0,0,144,58.56c8.2,5.42,9.92,12.19,4.69,20.61-2.5,4-.85,7.91,1,11.33C153.37,97.25,152.6,102.6,145.92,106.69ZM81.6,44.61c-19.7-.22-39,15.74-39,38.63,0,18.62,14.22,41.72,45.36,38.87,7.74-.71,15.08-4.7,20.89-10.75,7.54-7.85,11.72-17,11.73-27.84a38.88,38.88,0,0,0-39-38.91Zm-.12,86.58c-26.82-.09-48-21.34-47.5-48.37.5-28.68,22.74-46.78,48-46.91,26.65-.13,47.51,21.76,47.46,48.07,0,25.43-22.29,47.86-47.92,47.2Z"/></g></g></svg>