<svg xmlns="http://www.w3.org/2000/svg" viewBox="0 0 865.94 865.7"><defs><style>.cls-1{fill:#fff;}</style></defs><title>06_credibilite-valeurs</title><g id="Calque_2" data-name="Calque 2"><g id="Calque_1-2" data-name="Calque 1"><path class="cls-1" d="M865.94,436.6q-.06,74.76,0,149.52c0,71.94,0,146.33-.14,219.5,0,29.68-18.48,52-48.1,58.3-.19.08-.58.28-.88.42-.51.26-1,.51-1.54.74l-1.43.62H482.29l-1.5-5.54c-.22-.8-.65-2-1.06-3.11-1.72-4.72-3.85-10.6.9-14.68a26.46,26.46,0,0,1,16.53-5.8c78.64-.16,158.6-.17,235.93-.17H799.7c3.94,0,8.41,0,12.56-.4a27.46,27.46,0,0,0,24.33-24.11A106.39,106.39,0,0,0,837,801q0-174.91,0-349.82c0-1.47,0-3,0-4.31-1.22,0-2.74,0-4.15,0H813c-19.38,0-39.41,0-59.11,0-11.12.06-14.1,3-16.56,9.5-1.9,5-1.06,8.3,3,11.69,1.89,1.57,4,3,6.22,4.58s4.77,3.31,7.12,5.25a70.32,70.32,0,0,1,25.52,60.9c-2.26,23.1-15.56,42.86-36.48,54.19-35,19-70.94,18-104-2.69C619,578,607.32,557.93,606.55,535.22c-.79-23.21,10.35-45.49,29.8-59.6,1.36-1,2.72-1.9,4-2.79s2.8-1.89,4.09-2.84c4.35-3.23,5.68-6.79,4.44-11.91-1.94-8-6.09-9.72-9.89-10.36a56.42,56.42,0,0,0-9.47-.81q-27.95,0-55.87,0c-40.53,0-82.45,0-123.69-.2a22.13,22.13,0,0,0-2.65.14,17.58,17.58,0,0,0-.13,2.54c.25,46.91.21,94.59.18,140.71q0,18.15,0,36.32c0,4.27,0,9.11-.38,13.88-1.35,17-11.88,30.11-28.17,35.16-17.16,5.32-32.41,1.37-44.09-11.41a65.69,65.69,0,0,1-6.2-8.23c-10.17-15.38-23-22.17-39.19-20.8-16.82,1.43-28.67,11.38-35.22,29.59-9.63,26.75-6.8,50.36,8.41,70.16a38.45,38.45,0,0,0,31.83,15.16,41.06,41.06,0,0,0,33-18.09c7.71-11.2,16.63-22.32,33.17-24.55a42.1,42.1,0,0,1,32.91,9.64,37,37,0,0,1,13.38,27.43c.83,31.91.58,64.3.34,95.63l-.07,9.3c0,4.4-2.48,7.87-4.26,10.4-.57.8-1.1,1.56-1.43,2.15l-2.14,3.87H52.51l-1.41-.61c-2.57-1.1-5.18-2.11-7.94-3.18-6.35-2.45-12.92-5-19-8.77C9.09,843.76,3.91,827.77.24,813.52L0,812.6v-331l5.69-1.41c.74-.19,1.86-.58,2.94-1,4.23-1.5,10-3.55,14.3.66,5.28,5.2,5.7,13.81,5.7,16.33q.06,30.4.14,60.83c.19,77.87.39,158.39-.29,237.61-.14,15.88,2.9,26.71,9.3,33.12s17,9.43,32.65,9.43h.9c79.3-.59,159.92-.49,237.89-.4,33.48,0,68.1.09,102.15.07h3.74c1.44,0,2.92,0,4.15,0,0-.5,0-1,0-1.51,0-1.8-.1-4-.08-6.71.19-26.42.11-53,0-75.54,0-11-3-14-9.56-16.56-5.23-2-8.71-1.08-12.42,3.28a65,65,0,0,0-4.12,5.62l-.3.45C378,767.51,354.7,779.8,330.39,778.79c-23.7-1-44.42-14.06-56.85-35.91-19.29-33.92-18.68-70.84,1.74-104,12.33-20,32.52-31.93,55.38-32.69,23.3-.78,45.62,10.53,59.69,30.25.83,1.16,1.59,2.31,2.34,3.43,1.07,1.61,2.08,3.12,3.14,4.48,3.13,4,6.38,5.32,10.85,4.43,8.47-1.68,10.5-5.56,11.37-9.13a41.73,41.73,0,0,0,1.08-9.72q0-31.09,0-62.19c0-39,0-79.34.18-119a19.26,19.26,0,0,0-.09-2.21,20.17,20.17,0,0,0-2.15-.1c-64.57.3-129.55.22-184.6.1-23.37,0-37.84-11-43-32.46-3.72-15.55.79-29.46,13-40.22a67.21,67.21,0,0,1,7.47-5.61c15.68-10.31,22.54-23.34,21-39.81-1.61-16.81-11.66-28.61-29.87-35.08-26.83-9.53-50.45-6.7-70.22,8.4a38.67,38.67,0,0,0-15.31,32.09,41.32,41.32,0,0,0,18.28,33.28c11.53,7.89,22.91,17,24.5,34.41a42.45,42.45,0,0,1-10.43,32,36.53,36.53,0,0,1-26.51,12.57c-31.31.8-63.1.57-93.84.34l-12-.08c-4.31,0-7.59-2.47-10-4.24-.71-.53-1.39-1-1.89-1.33L0,438.61V52.2l.52-1.33c.91-2.3,1.72-4.67,2.58-7.19,2-5.92,4.09-12,7.66-17.63C21.58,9.11,38.64.15,60.11.11,135.79,0,212.74,0,287.15,0h84.7c4.53,0,9.66.52,13.44,4.39,1.79,1.83,3.89,5.15,3.77,10.59-.14,5.69-2.95,10.15-7.71,12.23-3.24,1.42-6.6,1.43-9.3,1.44h-.17c-20.44.1-41.2.1-61.29.09H241.82c-58.47,0-118.93,0-178.4-.06H63.2c-11.25,0-19.26,1.27-24.38,7.51-3.59,4.37-6,10.65-8.37,16.73l-1.18,3c-.34.86-.24,3-.16,4.8.05,1,.1,2.07.1,3.16q0,175.36,0,350.73c0,1.29,0,2.66,0,3.8,1.14,0,2.52,0,3.81,0q10,0,19.92,0c19.32,0,39.31.11,58.91-.25,5.11-.09,10.17-1.38,13.22-3.37a10.43,10.43,0,0,0,4.93-8.23,12.5,12.5,0,0,0-4.73-10.29c-1.43-1.2-3.1-2.33-4.87-3.53l-1.28-.87c-21.31-14.57-33.37-37.86-32.26-62.29,1.1-24,14.32-44.81,36.28-57,34.16-19,71.11-18.28,104,2.15,19.92,12.36,31.77,32.57,32.49,55.44.74,23.35-10.61,45.68-30.35,59.73-1.13.81-2.28,1.58-3.44,2.35-1.61,1.08-3.13,2.1-4.52,3.17-4,3.11-5.26,6.54-4.12,11.47,1.82,7.88,5.63,9.72,9.11,10.48a46.85,46.85,0,0,0,9.93,1q29.28,0,58.56,0c39.94,0,81.24,0,121.87.22a15.28,15.28,0,0,0,2.32-.12,21.8,21.8,0,0,0,.13-2.87c-.28-60.79-.19-121.63-.07-178.74,0-6.38.25-13.2,1.94-19.89,3.87-15.41,15.1-25.31,32.46-28.64,15-2.88,28.29,1.74,38.42,13.36a68.25,68.25,0,0,1,5.62,7.46c10.27,15.72,23.27,22.61,39.75,21.08,16.92-1.57,28.7-11.6,35-29.81,10-28.71,6.7-52.16-10-71.68a38.58,38.58,0,0,0-31.51-13.56,41.23,41.23,0,0,0-31.87,18.1c-7.75,11.24-16.69,22.39-33.23,24.51a42.21,42.21,0,0,1-32.87-9.74,37.13,37.13,0,0,1-13.25-27.47c-.6-24.75-.53-49.88-.47-74.18,0-10.07,0-20.47,0-30.7C419.09,6.36,425,.32,434.62.06c1.62-.05,3.22,0,4.76,0H801.43c19.69,0,36,5.9,47.25,17.06s17.18,27.44,17.18,47q0,111.36,0,222.72v85.61c0,5.29-1.48,9.44-4.44,12.33a14.36,14.36,0,0,1-10.8,3.89c-5.36-.12-9.54-2.61-11.77-7a21.85,21.85,0,0,1-2-9c-.14-2.49-.13-4.91-.11-7.25,0-.77,0-1.55,0-2.32V275q0-106.34,0-212.68c0-17.9-6.76-28.38-20.64-32a49.29,49.29,0,0,0-12.08-1.14l-124.89,0c-75.14,0-152.83,0-229.25-.15a19.28,19.28,0,0,0-2.46.12,16.1,16.1,0,0,0-.07,2c.3,17.43.26,35.12.23,52.23,0,9.34,0,19,0,28.48,0,10.82,3,14.11,8,16.13,6.44,2.59,9.35,1.9,13.55-3.25,1.39-1.71,2.7-3.61,4.09-5.62,1.63-2.37,3.31-4.82,5.3-7.18,15.16-18,37.81-27.53,60.59-25.38s42.52,15.19,54.08,35.79c9.63,17.16,14.36,34.86,14.07,52.59-.29,18-5.73,35.53-16.16,52.24-12.41,19.89-32.67,31.72-55.57,32.44-23.34.75-45.68-10.55-59.76-30.2-.79-1.11-1.55-2.22-2.32-3.34-1.27-1.85-2.46-3.6-3.73-5.22-2.06-2.63-5.05-5.09-11.62-3.44-7.29,1.84-8.92,5.73-9.52,8.92a60.13,60.13,0,0,0-1,11q0,29,0,58c0,39.3,0,79.94-.21,119.92a19.71,19.71,0,0,0,.19,3.14,16.09,16.09,0,0,0,3,.18c60.23-.34,121.47-.24,180.69-.14h.58c25.36,0,40.67,11.11,45.5,32.89,3.68,16.59-1.3,31-14.41,41.54-2.27,1.84-4.6,3.45-6.85,5l-1,.69c-13,9-20.14,22-19.65,35.66s8.49,25.91,21.94,33.86c24.2,14.3,63.09,10.45,81.6-8.07a39.22,39.22,0,0,0,11-30.67A39.71,39.71,0,0,0,734.41,500c-1.36-1-2.78-2-4.28-3-1.95-1.35-4-2.76-6-4.31-15.12-11.78-20.32-28-14.65-45.72,5.61-17.52,19.84-28.12,38.07-28.37,22.5-.3,45.36-.29,67.47-.28,11.06,0,22.12,0,33.19,0h.08c5.46,0,9.79,1.55,12.85,4.61S865.95,430.56,865.94,436.6Z"/></g></g></svg>