<svg xmlns="http://www.w3.org/2000/svg" viewBox="0 0 276.05 265.91"><defs><style>.cls-1{fill:#ffa014;}.cls-2{fill:#1d1d1b;}</style></defs><title>08_offre-pack-orientation_1</title><g id="Calque_2" data-name="Calque 2"><g id="Calque_7" data-name="Calque 7"><path class="cls-1" d="M132.17,211.75c55.8,0,101-44.67,101-99.77S188,12.2,132.17,12.2s-101,44.67-101,99.77,45.23,99.77,101,99.77"/><path class="cls-2" d="M50.35,200.68l0,.09,0,.09.08-.18m.75-1.78-.12.3.31-.73-.18.43M35.26,236.64l3.49-3q29.8-25.8,59.49-51.72l24.86-21.7q7.17-6.28,14.37-12.53c1.88-1.65,3.77-3.27,5.65-4.92,1.12-1,2.26-1.93,3.35-2.93l1.54-1.45a7.38,7.38,0,0,1-1.6-6c-.12.38-.22.78-.37,1.15a27,27,0,0,1-2.29,4.62,26.14,26.14,0,0,1-7.31,7.48,43.45,43.45,0,0,1-8.79,4.28,59.6,59.6,0,0,1-6.83,2.18,61,61,0,0,1-8.46,4,25.92,25.92,0,0,1-10.57,1.9A19.25,19.25,0,0,1,95,156.16,23.33,23.33,0,0,1,91.07,154a19.1,19.1,0,0,1-5.78-6.45,5.9,5.9,0,0,1-3.31,1,6.13,6.13,0,0,1-6.07-6.07c0-.65.05-1.29.07-1.94q-12.34,28.91-24.65,57.82h0l-.23.54,0-.06-.07.15,0-.1v0l-.27.64.14-.34-.2.47v0l-.45,1.08-.23.55Q47.2,208.17,44.3,215l-.82,2,.18-.41q-4.18,10-8.4,20.08M123.32,85.21l-.52.42,6.38,0c3,0,6,0,9,0,1.5,0,3,0,4.51,0,9.08.13,18.19.17,27.24,1l3.86-7.25c-14.22.36-28.44.33-42.65.42a5.08,5.08,0,0,1-.88-.09l-6.94,5.47M200,27.14l-7.61,5.38c-5.92,4.18-11.76,8.5-17.61,12.8,3.82.35,7.63.74,11.46,1A5.67,5.67,0,0,1,190,47.92l9.76-20.3.23-.48m-36.35,41.8-2.19.26h1.62q8,0,16.1,0l1.57-2.95c-5.63,1.24-11.38,1.91-17.1,2.65m-1.24-14.25-8.75,6.67c7.48-.83,15-1.68,22.43-2.66,2.11-.36,4.18-.72,6.26-1.19a4.65,4.65,0,0,1,1-.11,4.35,4.35,0,0,1,1.8.43l.41-.82c-7.31-.66-14.62-1.38-21.94-2.12a9.7,9.7,0,0,1-1.22-.2m-36.52,53.85a29.56,29.56,0,0,1,4,2.38,19.27,19.27,0,0,1,3.76,3.32,22.45,22.45,0,0,1,1.85,2.46,29.62,29.62,0,0,0-2.51-4.26,20.76,20.76,0,0,0-2.25-2.31,22.06,22.06,0,0,0-3-1.71,33.4,33.4,0,0,0-6-1.62,27.37,27.37,0,0,1,4.08,1.74M93.58,128.41a34.84,34.84,0,0,0,0,6.58,30.08,30.08,0,0,0,1.29,5c.3.61.63,1.21,1,1.78a27.18,27.18,0,0,0,3.76,2.16,24.08,24.08,0,0,0,4.54,1.23q.93.1,1.85.15a34.69,34.69,0,0,0,4-1.3,61.11,61.11,0,0,0,11.66-6.58,23.19,23.19,0,0,0,2.46-2.29,20,20,0,0,0,1.26-2.26,31.82,31.82,0,0,0,1.49-5.79,14.2,14.2,0,0,0,.07-1.78,15.44,15.44,0,0,0-.45-1.57c-.2-.39-.41-.76-.64-1.14a16.14,16.14,0,0,0-1.32-1.32,30.26,30.26,0,0,0-4.46-2.47,30.25,30.25,0,0,0-5.53-1.47,35.58,35.58,0,0,0-7.22,0,36.37,36.37,0,0,0-6.12,1.61,28,28,0,0,0-4.06,2.38,28.35,28.35,0,0,0-2.5,2.39,33.57,33.57,0,0,0-1.12,4.71M159.44,106q2.58-4.75,5.17-9.51-17.78,0-35.57,0c.15.05.3.08.45.14a32.65,32.65,0,0,1,5,2.2,22.3,22.3,0,0,1,8.29,8.32,36.3,36.3,0,0,1,3.76,9.51,32,32,0,0,1,.72,12.06c-.07.47-.18.94-.27,1.41,1.26-4.15,3.51-8,5.6-11.74q1.19-2.15,2.37-4.3,2.23-4,4.46-8.1m-19,54.29c-18.6,16.28-37.35,32.41-56,48.63q-31.93,27.75-64,55.33a6,6,0,0,1-4,1.65,5.7,5.7,0,0,1-4-1.65c-2-2.05-2.32-6,0-8l8-6.92-.08-.11a5.33,5.33,0,0,1-.56-4.27c4.35-10.74,9-21.38,13.6-32A5.29,5.29,0,0,1,34,211.8h0q6.22-14.31,12.4-28.61,13.43-31.12,26.78-62.26a3.54,3.54,0,0,1,.49-4.44c.73-.62,1.48-1.23,2.21-1.86l4.28-10a5,5,0,0,1,3.09-2.37,5.09,5.09,0,0,1,1.36-.18,5.1,5.1,0,0,1,4,1.88l14.28-11.78a5.31,5.31,0,0,1-.12-1.1,5.47,5.47,0,0,1,5.42-5.42h2.63c5-4.11,10.1-8.15,15.18-12.19a5.33,5.33,0,0,1,5.16-4.18h.1l2.58-2.05q12.39-9.92,24.94-19.65a5.35,5.35,0,0,1,1.15-1.74A5.47,5.47,0,0,1,163,44.33c3.71-2.86,7.39-5.75,11.13-8.57q11.73-8.89,23.54-17.64,5-3.69,10-7.29c1.16-2.67,2.3-5.36,3.46-8A5.46,5.46,0,0,1,214.54.2,5.61,5.61,0,0,1,216,0a5.74,5.74,0,0,1,2.88.77,5.68,5.68,0,0,1,1.77,1.65,3.81,3.81,0,0,1,.51-.07,4.33,4.33,0,0,1,3.66,2.07,4.13,4.13,0,0,1-.65,5c-1.77,1.59-3.65,3.06-5.56,4.5-1.36,3.18-2.73,6.34-4.21,9.46l-3.85,8L198.89,55.79c-1.93,4-3.85,8-5.9,11.95l-12.9,24.75q-4.42,8.48-8.77,17-1.85,3.58-3.64,7.18c-2.11,4.27-4.32,8.51-6.25,12.87a37.11,37.11,0,0,0-1.26,3.56c0,.23,0,.46,0,.69a8.23,8.23,0,0,1-1.22,3.82,5,5,0,0,1-1,5.64l-.25.29a32.68,32.68,0,0,1-4.38,5.29c-1.3,1.24-2.6,2.46-3.93,3.67q-4.4,3.95-8.86,7.82M16.66,177.08a5.57,5.57,0,0,0,2.4,3.13,5.26,5.26,0,0,0,2.5.68c.84,1.14,1.7,2.25,2.63,3.33,1.66,1.93,4.89,1.7,6.6,0a4.64,4.64,0,0,0,1.37-3.29,4.37,4.37,0,0,0-.81-2.52,5.54,5.54,0,0,0,1.42-1,5.84,5.84,0,0,0,1.7-4.11,6.34,6.34,0,0,0-1.7-4.12l-.54-.68a75.62,75.62,0,0,1-9-15A75.08,75.08,0,0,1,19,137.13a139,139,0,0,1-.76-19.68q5.52-8.38,11-16.83,3.7-5.71,7.38-11.42c1.25-1.93,2.52-3.84,3.74-5.78,3.74-5.9,7.51-11.78,11.27-17.67q8.4-13.19,16.75-26.42a1.5,1.5,0,0,0-.54-2.06,1.45,1.45,0,0,0-.74-.2,1.59,1.59,0,0,0-1.32.74q-7.52,11.9-15.1,23.77c3.52-6.13,7-12.28,10.47-18.44a1.52,1.52,0,0,0-.54-2.06,1.49,1.49,0,0,0-.75-.2,1.51,1.51,0,0,0-1.31.74c-3.71,6.54-7.37,13.1-11.13,19.6-1.63,2.83-3.25,5.67-5,8.44-.78,1.28-1.55,2.57-2.35,3.83-.56.85-1.11,1.71-1.66,2.57-.74,1.15-1.52,2.26-2.3,3.39a1.52,1.52,0,0,0,.55,2.06,1.4,1.4,0,0,0,1.25.09C34.58,86.74,31.24,91.84,27.92,97q-4.73,7.32-9.49,14.6c.28-6.28.74-12.54,1.5-18.78C21.08,84.47,22.67,76.24,24.4,68c.6-2.81,1.23-5.62,1.85-8.43a86.89,86.89,0,0,1,5.38-7.94,58.46,58.46,0,0,1,8.7-9.19A26,26,0,0,1,45,39.95c.38-.14.76-.27,1.14-.4A4.05,4.05,0,0,0,49,34.63a4.15,4.15,0,0,0-3.85-3,3.35,3.35,0,0,0-1.07.18,30.83,30.83,0,0,0-7.25,3.41l1.56-2.08a3.44,3.44,0,0,0,.37-2.79,3.61,3.61,0,0,0-1.66-2.16,3.7,3.7,0,0,0-1.83-.49,3.54,3.54,0,0,0-1,.13,4,4,0,0,0-2.16,1.66C30.42,31.77,28.7,34,27,36.26a5.85,5.85,0,0,0-.85-.33,5.69,5.69,0,0,0-1.52-.2,5.91,5.91,0,0,0-5.74,4.32c-1.35,5.4-2.75,10.79-4,16.22-1,2.19-2,4.4-2.89,6.65s-1.74,4.79-2.6,7.18c-.64,1.74-1.2,3.46-1.75,5.23-.67,2.16-1.42,4.33-2,6.53l-2.08,8C3,92.05,2.67,94.35,2.2,96.6s-.72,4.4-1,6.61A104.9,104.9,0,0,0,0,121.47a110.36,110.36,0,0,0,2.5,19A87.56,87.56,0,0,0,8.82,159.3c1.4,3,3,6,4.72,8.9,1,3,2,5.94,3.12,8.88M270.57,58a5.55,5.55,0,0,0-5.49,5.49c-.09,4.43-.12,8.87-.17,13.3a4,4,0,0,0-2.36,3.64c.19,14.17.31,28.43-1.53,42.51-.82,5.87-1.93,11.71-3.28,17.49-.29.78-.54,1.57-.84,2.34l-3.42,7.74c-1,2.25-2.17,4.43-3.29,6.61.91-2.19,1.8-4.39,2.65-6.61a104.72,104.72,0,0,0,7-40.29c-.13-4.34-.62-8.66-1-13-.28-2.91-.72-5.79-1.14-8.69-.2-1.31-.39-2.63-.59-3.94s-.5-2.32-.75-3.46c-.29-1.34-.57-2.67-.87-4a98.6,98.6,0,0,0-3.39-15.25,5.73,5.73,0,0,0-2-2.82c-1.09-3.13-2.19-6.26-3.35-9.37a5.56,5.56,0,0,0-2.42-3.14,5.27,5.27,0,0,0-4-.54,5.31,5.31,0,0,0-3.13,2.42,5.07,5.07,0,0,0-.53,4c1.36,3.64,2.62,7.3,3.88,11,.8,2.33,1.56,4.62,2.21,7l1.48,5.41c.22.85.5,1.7.67,2.56q.89,4.41,1.8,8.83c.29,2.17.57,4.35.82,6.52,0,.75,0,1.5.08,2.25.11,2.68.17,5.38.07,8.05-.22,6.12-.6,12.19-1.19,18.28-.41,2.89-.87,5.75-1.39,8.63-.58,3.2-1.43,6.36-2.25,9.51-.73,2.8-1.52,5.61-2.44,8.37-.52,1.53-.94,3.12-1.55,4.63l-1.69,4.25c-.9,1.92-1.78,3.85-2.79,5.72-1.29,2.37-2.62,4.71-4,7-2.36,4-5.06,7.75-7.78,11.49-4.25,5.35-8.6,10.63-13.32,15.6-2.69,2.83-5.34,5.67-8.2,8.34-1.28,1.2-2.52,2.48-3.9,3.57l-4.4,3.52-6,4.32c-2.16,1.57-4.47,3-6.7,4.45-2,1.29-4,2.44-6,3.64a110.56,110.56,0,0,1-12,6.23,74.07,74.07,0,0,1-16.49,4.49,80.66,80.66,0,0,1-13.14.31c-1.88-.09-3.76-.34-5.64-.5-2.76-.25-5.5-.64-8.25-1q-13.74-2.06-27.44-4.35a7.1,7.1,0,0,0-5.13.67,6.64,6.64,0,0,0-2.4,9.1,6.4,6.4,0,0,0,4,3.06c7,1.19,14.09,2.39,21.15,3.43,3.25.48,6.5,1,9.76,1.39a4.91,4.91,0,0,0,3.91,2,112,112,0,0,0,12-.49l.3,0a70.94,70.94,0,0,0,10.22-.48l-.9.3-4,1.22c-1.43.44-2.93.73-4.39,1.1-2.56.64-5.16,1.07-7.76,1.54-4,.53-8,1.05-12,1.21-2.37.09-4.76.26-7.13.28l-7.69.07c-4.76,0-9.52-.15-14.28-.28s-9.62-.35-14.43-.55c-1.45-.06-2.89-.13-4.33-.2a4.69,4.69,0,1,0,0,9.38c10.63.5,21.27.9,31.9,1.11,4.54.09,9.07,0,13.61-.17,2.35-.09,4.67-.27,7-.47,2.7-.24,5.35-.61,8-1l1-.17c3.47-.43,6.93-.89,10.39-1.42l8-1.23a97.46,97.46,0,0,0,19-5.17,178,178,0,0,0,35.56-18.1,153.36,153.36,0,0,0,15.84-12.07l.68-.61a4.37,4.37,0,0,0,1.14-.14,4.82,4.82,0,0,0,2.68-2.06c1.21-1.62,2.38-3.27,3.56-4.91,1.88-2,3.71-4,5.45-6.17a155.25,155.25,0,0,0,15.8-24.19q2.08-3.83,4.18-7.66c2.29-4.21,4.26-8.6,6.14-13,.13-.25.28-.49.41-.74,1.47-2.82,2.95-5.64,4.41-8.46.47-.92.85-1.89,1.28-2.82l2.46-5.41a102.24,102.24,0,0,0,6.18-18.48,112,112,0,0,0,2-11.38,89.58,89.58,0,0,0,.87-9.79c.13-5.54.19-11.09.2-16.64s0-10.87.1-16.31c.07-4.16.14-8.34.23-12.51A5.53,5.53,0,0,0,270.57,58M112.89,68.37a2.15,2.15,0,1,0,3.72,2.17c.8-1.36,1.64-2.7,2.45-4.06a1.59,1.59,0,0,0,1.73-.75c3.2-6.06,6.45-12.11,9.7-18.15q2.91-4.78,5.83-9.56c3-4.84,5.95-9.68,8.95-14.51a2.25,2.25,0,0,0-.81-3,2.17,2.17,0,0,0-1.1-.3,2.3,2.3,0,0,0-1.94,1.1q-11.16,18-22.07,36.17-3.28,5.44-6.45,10.94m13.9,154.91a1.81,1.81,0,0,0,.19,1.44,1.85,1.85,0,0,0,1.12.86,1.92,1.92,0,0,0,1.44-.18,2,2,0,0,0,.86-1.13c.32-.83.65-1.68,1-2.51.51-1.2,1-2.41,1.56-3.59.78-1.7,1.56-3.4,2.34-5.1,1.29-2.82,2.68-5.6,4-8.4,1.46-3,3-6,4.43-9.07q1.5-3.06,3-6.09c2.78-5.46,5.54-10.92,8.38-16.34q3-5.83,6.09-11.65c1.28-2.44,2.53-4.89,3.83-7.32,1.09-2,2.13-4.1,3.19-6.15q3.16-6.1,6.34-12.21,3.29-6.32,6.56-12.64Q191,104.12,200.86,85a1.56,1.56,0,0,0-.55-2.11,1.55,1.55,0,0,0-.77-.2,1.63,1.63,0,0,0-.65.16c.56-1,1.09-1.95,1.68-2.9a3.66,3.66,0,0,0-1.3-5,3.53,3.53,0,0,0-1.78-.48,3.76,3.76,0,0,0-3.17,1.78c-2.52,4-4.69,8.29-7,12.46-1.52,2.8-2.8,5.72-4.15,8.61q-5.11,10.84-10.27,21.64c-1.07,2.27-2.13,4.55-3.28,6.77q-3.33,6.42-6.67,12.82L158,148.14c-1.53,3-3.2,5.85-4.79,8.76-3.17,5.8-6.33,11.6-9.54,17.38-1.54,2.79-3.1,5.57-4.64,8.36-1,1.88-2.07,3.77-3.11,5.67-1.32,2.4-2.63,4.8-3.72,7.33l.22-.5a16.57,16.57,0,0,0-1.21,3,5,5,0,0,0,.53,3.72,5.38,5.38,0,0,0,2.91,2.16,2.54,2.54,0,0,0,.74.12c-.38.77-.76,1.53-1.14,2.3-2.67,5.52-5.26,11.06-7.47,16.79m63.36-50.79-.06.13,0-.08,0-.05m26.61-29.29,0-.08v0l0,.1m.1-.22,0-.11h0v0l0,.06-.08.19,0,0,0,.07,0,0,.06-.15,0,0m-8.63,17a5.41,5.41,0,0,0,.53,2.3q-1.24,3-2.47,5.93c-.47,1.12-.94,2.24-1.4,3.37-.74,1.85-1.49,3.69-2.17,5.57-.37,1-.71,2.08-1,3.15a25.65,25.65,0,0,0-.64,3.17,1.68,1.68,0,0,0,.15,1.17,1.51,1.51,0,0,0,.91.68,1.48,1.48,0,0,0,1.15-.15,1.43,1.43,0,0,0,.7-.9c.14-.89.28-1.77.49-2.64s.52-1.77.81-2.64c.63-1.89,1.37-3.75,2.12-5.6.53-1.31,1.07-2.61,1.61-3.92l2-4.74a5.43,5.43,0,0,0,2.8.8,5.53,5.53,0,0,0,1.42-10.87L219.65,144l0,.06,0,.12,0-.07-.1.25.13-.3c1.28-3,2.52-6,3.78-9a1.47,1.47,0,0,0-.15-1.16,1.51,1.51,0,0,0-.91-.68,1.39,1.39,0,0,0-.4-.06,1.5,1.5,0,0,0-.75.2,1.67,1.67,0,0,0-.7.9q-1.8,4.29-3.6,8.57l0,0-.07.16-.09.21v0m-182.16-.89a1.91,1.91,0,0,0,2.59-.68c1.79-3.34,3.67-6.62,5.57-9.91,1.37-2.35,2.79-4.68,4.18-7,1.78-3,3.58-6,5.35-9s3.37-5.81,5.05-8.71C61.22,100.23,65,93.49,68.8,86.76l3.44-5,2.68-3.91c.33-.48.68-1,1-1.43,1-1.61,2.11-3.18,3.17-4.77l7-10.58q6.3-9.46,12.59-18.9c3.14-4.73,6.19-9.5,9.27-14.26a1.52,1.52,0,0,0-.54-2.06,1.45,1.45,0,0,0-.74-.2,1.59,1.59,0,0,0-1.33.75c-3.12,4.8-6.2,9.63-9.38,14.4q-2.55,3.85-5.12,7.69l-3.76,5.65,5.59-10a1.69,1.69,0,0,0-.6-2.31,1.65,1.65,0,0,0-.84-.23,1.7,1.7,0,0,0-1.47.83C82.87,54.74,76,67,69,79.31L63,89.84l-7.43,10.83q-5.11,7.43-10.18,14.84c-3.34,4.86-6.58,9.78-9.82,14.69q-2.92,4.44-5.72,8.93a1.51,1.51,0,0,0,2.6,1.52c2.52-4.06,5.14-8.06,7.79-12-2.17,3.66-4.31,7.34-6.33,11.08a1.91,1.91,0,0,0,.68,2.59m3-44.56a1.62,1.62,0,0,0,.9-.69c3.75-5.37,7.29-10.89,10.74-16.46l11.05-18q2.18-3.53,4.34-7.08a1.52,1.52,0,0,0-.54-2.06,1.48,1.48,0,0,0-.75-.2A1.55,1.55,0,0,0,62,54q-5.75,9.37-11.5,18.74c-1.7,2.73-3.38,5.49-5.1,8.21-1,1.6-2,3.19-3,4.79-.86,1.37-1.77,2.7-2.65,4.05-1.25,1.93-2.56,3.83-3.89,5.72a1.5,1.5,0,0,0,1.7,2.21m164.11,67.85c1-2.17,2-4.28,3-6.43l2.68-5.73q2.35-5.06,4.61-10.14a2.09,2.09,0,0,0,.2-1.49,2,2,0,0,0-.88-1.14,2,2,0,0,0-1-.27,1.9,1.9,0,0,0-.5.07,1.86,1.86,0,0,0-1.14.88q-2.49,5.56-5.07,11.08l-3.07,6.52.46-1.14,4.7-11.74c.7-1.74,1.32-3.48,2-5.24,2.85-7.76,5.76-15.5,8.44-23.32.41-1.22.84-2.44,1.25-3.65a2.34,2.34,0,0,0-1.62-2.87,2.37,2.37,0,0,0-.62-.08,2.42,2.42,0,0,0-2.25,1.71c-1.47,4.27-2.95,8.52-4.49,12.77s-3.08,8.43-4.62,12.64c-.73,2-1.41,4-2.2,6l-4.3,10.86c-2.34,5.91-4.75,11.79-7.14,17.69l.1-.22-.12.27-.11.26.07-.19a192.8,192.8,0,0,1-8.18,17.71,2,2,0,1,0,3.44,2c.58-1,1.16-2,1.7-3l1.24-2.35c.8-1.51,1.49-3.09,2.24-4.64.57-1.19,1.09-2.4,1.62-3.61.72-1.59,1.47-3.17,2.14-4.78q1.23-3,2.48-5.91c-.06.38-.11.75-.14,1.14s.08.63.12.93.17.56.26.84a1.89,1.89,0,0,0,3.65-1l-.17-.7s0-.08,0-.12a20.51,20.51,0,0,1,1.22-3.6"/></g></g></svg>