<svg xmlns="http://www.w3.org/2000/svg" viewBox="0 0 271.08 221.6"><defs><style>.cls-1{fill:#ffa014;}.cls-2{fill:#1d1d1b;}</style></defs><title>08_offre-pack-changement_2</title><g id="Calque_2" data-name="Calque 2"><g id="Calque_7" data-name="Calque 7"><path class="cls-1" d="M268.87,176.24c-2.35-4.71-2.88-8.91-1.16-13.82,3.3-9.39,1.53-18.08-4.45-26-12-15.79-30.88-18.1-45.44-5-7.49,6.73-13.94,13.87-17.57,23.49-2.81,7.44-10.88,8.15-15.49,1.77-.49-.68-1-1.38-1.48-2.05-5.6-7.45-10.59-9.17-19.48-6.48a5.55,5.55,0,0,1-6.87-2.42,58.55,58.55,0,0,0-4.48-6.12c-4.08-4.5-7.65-5.31-13.24-2.91-2.42,1-3.93.33-5.24-1.57a19.81,19.81,0,0,1-3.37-12c.24-19.57.35-39.15.42-58.72,0-5.28-.2-5.27-5.28-4.82-4.69.42-9.39.77-14.09.85-4.45.07-5.3-1.24-4.15-5.59a9,9,0,0,1,1.06-2.68c8.63-13,17.24-25.92,26-38.81,3.12-4.6,6.12-4.75,9.45-.24q15.27,20.69,30.18,41.64c2.64,3.7,1.82,6.16-2.52,7.3-2.41.64-5.17.19-7.73-.1-1.11-.13-2.13-1.07-3.18-1.68-3.78-2.21-5.51-1.3-5.84,3.14-.05.72,0,1.45,0,2.17,0,13.42-.06,26.83,0,40.25,0,7.25-.16,14.52.38,21.74.29,3.85,1,8.07,5.67,11.45a59.09,59.09,0,0,0,.63-5.94c-.2-19-.4-38-.72-56.93-.06-3.79,1.22-5.87,5-7.08a104.15,104.15,0,0,0,14.31-6c5-2.46,5.54-4.9,2.66-9.56-.83-1.33-1.69-2.65-2.62-3.92q-15.92-21.8-31.88-43.56a19.93,19.93,0,0,0-2.74-2.89c-3.23-2.93-6-2.91-9.24.07a20.22,20.22,0,0,0-2.87,3.26q-16.12,23.4-32.18,46.85a7.13,7.13,0,0,0,.06,8.78c2.15,3.07,4.41,5.6,8.89,4.77a36.22,36.22,0,0,1,9.72-.29c4,.36,6.19,2.73,6.09,6.76-.42,15.71-1,31.41-1.56,47.11-.1,2.88-1.55,4.52-4.35,5.48-4.67,1.61-9.17,3.69-13.81,5.4-4.86,1.8-7,5.09-6.65,10.29.27,3.75-.5,7.39-3.75,9.72a13,13,0,0,0-5.26,7.93c-.77,3.22-2.46,3.43-5.39,2.2a33.64,33.64,0,0,0-10-2.63c-4.4-.38-5.41-1.05-5.26-5.66s.41-8.94.38-13.41c-.07-11.41-11.36-19.7-22.13-16-3.6,1.22-7.38,2.88-10.12,5.39s-5.49,6.08-5.9,9.47c-.86,7.16-4.08,11.88-9.87,15.9-7,4.87-8.6,12.67-4.84,19.09s3.7,6.31-.87,12.16c-.45.57-.82,1.2-1.32,1.72-3.67,3.85-4,8.33-2.48,13.15a24.64,24.64,0,0,0,24.49,17.3c4.69-.25,9-.37,13.21,2.25,1.3.82,3.27.82,4.92.79,6.77-.13,13.53-.69,20.29-.61,22.11.26,44.23.55,66.34,1.19,10.33.3,20.38-1.24,30.58-2.35,20-2.16,40.22-2.92,60.36-4,6.61-.37,13.26.11,19.88-.12,1.9-.07,4.38-.72,5.51-2,3.27-3.84,6.7-7.83,8.77-12.35C270.74,192.91,273,184.47,268.87,176.24Zm-33.32-26.33c1.74-1.42,2.86-3,3.63-2.84,2.93.58,3.78,3.14,3.81,5.76,0,.88-1.08,1.77-1.66,2.66ZM105.47,189c1.5-1.93,2.79-3.77,4.31-5.39.31-.33,1.71-.1,2.18.33a2.48,2.48,0,0,1,.3,2.15,18.92,18.92,0,0,1-1.95,4.21,15.09,15.09,0,0,1-2.43,2.42ZM168,192.14c-1.54-.09-3.08-.21-4.63-.27-1.74-.07-3.48-.05-5.21-.14-1,0-2-.23-3-.35.18-1.12,0-2.67.62-3.28a69.81,69.81,0,0,1,6.61-5c2.07,1.63,4.05,2.62,5.12,4.21C168.24,188.55,167.85,190.52,168,192.14ZM42.12,162.88c.34-1,2-1.52,3-2.25.28,1.3,1,2.71.73,3.89s-1.5,2.34-2.31,3.5L42,167.76C42,166.12,41.6,164.34,42.12,162.88Zm21.31,23.85c1.12,2.43,2.11,4.27,2.78,6.23a2.2,2.2,0,0,1-.94,2,2.52,2.52,0,0,1-2.23-.53C61,192.32,60.87,190,63.43,186.73Z"/><path class="cls-2" d="M56.45,178.57C53,176.41,50.25,175,48,173.06c-.82-.73-1.09-3.52-.4-4.29,4.22-4.71,5.51-10.4,6.06-16.35.58-6.36,1.48-12.81-2.11-18.7-3.36-5.51-9.5-7.71-16.07-5.89-6.4,1.78-9.59,5.87-9.71,12.7,0,2.77.19,5.55.3,8.32.17,4.54-.85,5.53-5.42,5.3-5.14-.26-9.22,2.8-10.95,8.2-1.27,4,.24,7.11,4.91,10.08.71.45,1.47.82,2.19,1.28,4.64,3,4.62,5.18,0,8.27-2.81,1.86-5.81,3.53-8.28,5.77C5,190.94,4.4,195,6.69,198.56,12,207,18.83,213,29.79,211.57a20.49,20.49,0,0,1,3.62.09c10.84.53,21.68,1.31,32.53,1.56,15.34.35,30.73-.37,46,.61a310,310,0,0,0,54.93-1.48c20.27-2.29,40.64-3.78,61-5.49a21.68,21.68,0,0,1,6.77.82c4.92,1.2,8.11.26,11.2-3.66,4.14-5.25,5.51-11.41,6-17.91a8.22,8.22,0,0,0-4.43-8.44,19,19,0,0,0-6.68-2.58c-3.74-.43-7.57-.11-11.43-.11a7,7,0,0,1,5-6.61,19.56,19.56,0,0,1,7.42-.65c4.61.37,5.71-.1,7.47-4.33,4.22-10.17.95-18.62-6.08-26.15-11.11-11.89-26.72-12.1-38-.38a75.3,75.3,0,0,0-7.55,9.69c-4.26,6.23-3.89,8,2.37,12.32,5.59,3.83,7,9.32,6.23,15.56-.31,2.5-1.75,4.85-4.66,4.66-3.29-.22-2.82-2.9-2.69-5.26.49-9.22-4.52-13-13-9.08-4.51,2.07-8.39,5.48-12.62,8.18a18,18,0,0,1-3.54,1.33c-.37-1.19-1.4-2.72-1-3.52,3.17-6.38-.33-10.6-4.42-14.67-5.82-5.79-11.75-5.81-17.2.32-2.63,3-4.52,6.55-6.94,9.7-.76,1-2.16,1.47-3.27,2.19-.18-1.39-.72-2.84-.46-4.14.89-4.59,2.43-9.09,3-13.71.53-4.21-2.55-8-6.52-9.38-3.77-1.27-7.25,0-9.88,4-1.05,1.59-1.58,3.52-2.53,5.18a28.9,28.9,0,0,1-2.57,3.31l-1.26-.59c.27-1.56.52-3.11.8-4.66s1.06-3.33.88-4.92c-1.09-10.06-10.89-14.9-19.68-9.84-4.28,2.46-4.94,4.2-3.52,8.94.86,2.88,1.78,5.77,2.4,8.71s-1,4.27-3.87,4.18c-.83,0-1.75-.55-2.48-.33-1.62.49-4.3,1.11-4.44,2-.25,1.55,1,3.41,1.86,5,.28.54,1.3.64,1.81,1.12.81.76,2.19,1.81,2.06,2.49a5.23,5.23,0,0,1-2.32,2.82c-1.69,1.11-3.86,1.59-5.38,2.86-2.73,2.28-4.86,1.76-7.32-.39-2.71-2.37-5.44-4.89-8.59-6.55-6.37-3.37-10.82-.49-11.26,6.76-.13,2.09-.66,4.15-1.2,7.39Zm92.4-40.49c-4.71-3.38-5.38-7.59-5.67-11.44-.54-7.22-.36-14.49-.38-21.74,0-13.42,0-26.83,0-40.25,0-.72,0-1.45,0-2.18.33-4.43,2.06-5.35,5.84-3.14,1,.61,2.07,1.55,3.18,1.68,2.56.29,5.32.74,7.73.1,4.34-1.15,5.16-3.61,2.52-7.3Q147.21,32.88,132,12.17c-3.33-4.51-6.33-4.36-9.45.24-8.73,12.88-17.35,25.85-26,38.81a9,9,0,0,0-1.06,2.68c-1.16,4.35-.3,5.66,4.15,5.59,4.7-.07,9.41-.43,14.1-.85,5.08-.46,5.3-.46,5.28,4.82-.07,19.57-.18,39.15-.42,58.72a19.81,19.81,0,0,0,3.37,12c1.32,1.9,2.83,2.61,5.24,1.57,5.59-2.4,9.16-1.58,13.24,2.92a58.55,58.55,0,0,1,4.48,6.12,5.55,5.55,0,0,0,6.87,2.42c8.88-2.69,13.88-1,19.48,6.48.51.68,1,1.37,1.49,2.05,4.62,6.39,12.68,5.67,15.49-1.77,3.63-9.62,10.08-16.77,17.57-23.49,14.57-13.08,33.45-10.77,45.44,5,6,7.88,7.75,16.56,4.45,26-1.72,4.91-1.19,9.11,1.16,13.81,4.11,8.24,1.87,16.67-1.69,24.44-2.07,4.52-5.5,8.51-8.77,12.35-1.12,1.32-3.61,2-5.51,2-6.62.23-13.27-.24-19.88.12-20.14,1.11-40.33,1.87-60.36,4-10.2,1.1-20.25,2.65-30.58,2.35-22.11-.64-44.22-.93-66.34-1.19-6.76-.08-13.53.47-20.29.61-1.65,0-3.62,0-4.92-.79-4.17-2.62-8.51-2.5-13.21-2.25A24.64,24.64,0,0,1,.84,199.65c-1.5-4.82-1.19-9.29,2.48-13.15.5-.52.87-1.15,1.32-1.72,4.57-5.85,4.57-5.85.87-12.16s-2.16-14.22,4.84-19.09c5.78-4,9-8.73,9.87-15.9.4-3.39,3.21-7,5.9-9.47s6.52-4.16,10.12-5.39c10.77-3.66,22.07,4.62,22.13,16,0,4.47-.24,8.94-.38,13.41s.86,5.28,5.26,5.66a33.64,33.64,0,0,1,10,2.63c2.93,1.24,4.62,1,5.38-2.2a13,13,0,0,1,5.26-7.93c3.24-2.33,4-6,3.75-9.72-.38-5.2,1.79-8.5,6.65-10.29,4.64-1.71,9.14-3.8,13.81-5.4,2.8-1,4.25-2.6,4.35-5.48.55-15.7,1.15-31.4,1.56-47.11.11-4-2.05-6.39-6.09-6.76a36.22,36.22,0,0,0-9.72.29c-4.48.82-6.74-1.71-8.89-4.77a7.13,7.13,0,0,1-.06-8.78q16.07-23.44,32.18-46.85a20.22,20.22,0,0,1,2.87-3.26c3.2-3,6-3,9.24-.07a19.94,19.94,0,0,1,2.74,2.89q16,21.75,31.88,43.56c.93,1.27,1.79,2.58,2.62,3.92,2.88,4.65,2.34,7.1-2.66,9.56a104.16,104.16,0,0,1-14.31,6c-3.83,1.21-5.11,3.29-5,7.08.32,19,.52,38,.72,56.93a59,59,0,0,1-.63,5.94Zm1.48,44.07c2.07,1.63,4.05,2.62,5.12,4.21.79,1.18.4,3.16.53,4.78-1.54-.09-3.08-.21-4.63-.27-1.74-.07-3.48-.05-5.21-.14-1,0-2-.23-3-.35.18-1.12,0-2.67.62-3.28a70,70,0,0,1,6.62-5ZM93.47,188c1.5-1.93,2.79-3.76,4.31-5.39.31-.33,1.71-.1,2.18.33a2.48,2.48,0,0,1,.3,2.15,18.9,18.9,0,0,1-1.95,4.2,15.07,15.07,0,0,1-2.44,2.42L93.47,188Zm130.08-39c1.74-1.41,2.85-3,3.63-2.84,2.93.58,3.78,3.14,3.81,5.76,0,.88-1.08,1.77-1.66,2.66l-5.78-5.58Z"/></g></g></svg>