<svg xmlns="http://www.w3.org/2000/svg" viewBox="0 0 882.19 995.04"><defs><style>.cls-1{fill:#ff8547;}.cls-2{fill:#661a2e;}.cls-3{fill:#2e21a8;}.cls-4{fill:#543d94;}.cls-5{fill:#ffba40;}.cls-6{fill:#fcad9c;}.cls-7{fill:#ffa114;}.cls-8{fill:#303032;}.cls-9{fill:#786bb5;}.cls-10{fill:#f22626;}</style></defs><title>09_faq-perso-questions</title><g id="Calque_2" data-name="Calque 2"><g id="Calque_8" data-name="Calque 8"><path class="cls-1" d="M116.42,248.21s-10.19-28.17,1.69-47.52,54.62-46.82,42.56-70.57-43.16-22.87-53.9-9.21-2.23,25.79-10.32,28.48-56.09,11.14-56.08-17,26-70.71,67-77.26,95.89-13,114.64,39.14,1.12,75.82-26.25,93.38-9.81,47.3-19.82,53-57.07,16.8-59.51,7.59"/><path class="cls-1" d="M112.89,303.52c.33-22.6,11.54-38.11,31.45-40.65s37.8,5.58,46.08,30.57c6.32,19.05-17,39-36.88,41.54s-40.95-11.38-40.65-31.45"/><path class="cls-2" d="M216.84,157.31c-4.83,12.88-14.17,23.23-30.31,33.59-17.18,11-16.79,26.91-16.49,38.49.18,6.94.32,12.42-3.32,14.47-.65.36-1.42.75-2.31,1.14-9.75,4.31-33.06,9.95-46.64,9.94a21.62,21.62,0,0,1-7.84-1.09,3.6,3.6,0,0,1-2.32-2.22v0c-.1-.28-10-28.27,1.67-47.28,3.65-6,10.28-12.72,17.3-19.87,15.79-16.11,33.69-34.38,25.27-51a34.16,34.16,0,0,0-27.64-18.78q-1.85-.18-3.67-.18a36.16,36.16,0,0,0-6.78.63c-6.76,1.29-12.65,4.48-16.27,9.07-5.75,7.32-6,14.31-6.25,19.42-.13,3.14-.23,5.68-1.51,7.33a4.89,4.89,0,0,1-2.43,1.64c-3.41,1.13-12.37,2.87-21.6,3.22-8.38.31-19.9-.41-27.14-5.64-4.64-3.35-7-8.17-7-14.33,0-25.15,21-62.65,55.77-74.28a68.18,68.18,0,0,1,11-2.7c45.91-7.33,96.39-11,114.33,39,8.72,24.25,10.08,43.7,4.17,59.47m-3.66-59.66c-8.39-23.33-24.47-37-49.16-41.75-21.1-4.07-45-.88-65.77,2.43a70.68,70.68,0,0,0-7.38,1.59C53.6,70.12,31,109.65,31,135.86c0,6.34,2.42,11.31,7.21,14.77,7.38,5.33,19,6.07,27.48,5.75,9.28-.34,18.3-2.1,21.74-3.25a5.27,5.27,0,0,0,3-2.29c1.08-1.78,1.18-4.29,1.3-7.17.22-5.31.49-11.93,6.14-19.1,3.24-4.13,8.39-7.09,14.34-8.53a36,36,0,0,1,11.89-.79,33.64,33.64,0,0,1,27.21,18.49c8.24,16.23-9.51,34.34-25.18,50.32-7,7.18-13.69,14-17.37,20-11.72,19.09-2,47-1.72,47.74a4.11,4.11,0,0,0,2.64,2.58,22,22,0,0,0,8,1.15c15.33,0,42.32-7.26,49.22-11.17.16-.09.31-.19.46-.29,3.45-2.38,3.31-7.84,3.14-14.67-.29-11.45-.69-27.15,16.24-38,16.24-10.42,25.65-20.87,30.53-33.86,6-15.9,4.59-35.47-4.17-59.84"/><path class="cls-2" d="M177.83,317.07c-4.47,7.1-11.94,13.29-20.19,17.16a44.68,44.68,0,0,1-13.21,4,38.67,38.67,0,0,1-30.31-9.3c-6.59-5.89-10.15-13.66-10-21.87.17-11.16,3-20.73,8.33-27.69a32.3,32.3,0,0,1,17.84-11.72,40.2,40.2,0,0,1,5-1,52.84,52.84,0,0,1,6.73-.44c18.67,0,32.41,10.75,39.06,30.82,2.12,6.38,1,13.32-3.26,20.06m3.78-20.23c-7.52-22.69-24-33.61-46.37-30.75-1.11.14-2.2.32-3.26.55A33.07,33.07,0,0,0,112,279c-5.35,7.05-8.27,16.74-8.44,28-.12,8.37,3.51,16.29,10.22,22.28A39.18,39.18,0,0,0,139.67,339a38.76,38.76,0,0,0,4.83-.3,46.74,46.74,0,0,0,15.81-5.25c7.36-3.93,13.9-9.65,18-16.13,4.33-6.89,5.49-14,3.32-20.52"/><path class="cls-3" d="M444.76,153s-2.79-23.93,10.08-36.9,51.4-26.6,46.33-47.42-29.59-25.86-40.51-17.14S454.16,71.34,447.32,72s-46-1.61-40.78-23.66S439.91-2.28,473.24.15s77.48,7.49,82.56,51.77S542.71,111.49,518,120.2,501.65,155.44,492.76,158s-47.78,2.64-48-5"/><path class="cls-4" d="M431.81,195.68c4.42-17.64,16.06-27.72,32.12-26S492.5,181,494.38,202.06c1.43,16.08-20.47,27.41-36.53,25.73s-30-16.46-26-32.12"/><path class="cls-2" d="M540.14,100.33c-6.16,9.2-15.39,15.59-29.93,20.72-15.49,5.47-18.1,18-20,27.1-1.14,5.47-2,9.78-5.27,10.73a20.15,20.15,0,0,1-2,.47c-10.48,2-37.71,1.67-44.27-3.11a2.89,2.89,0,0,1-1.41-2.17v0a64.47,64.47,0,0,1,.21-13.54c.83-6.9,3.2-16.52,9.8-23.18,4-4,10.4-8.06,17.21-12.38,15.33-9.71,32.71-20.71,29.18-35.24a27.5,27.5,0,0,0-18.19-19.8,29.41,29.41,0,0,0-8.26-1.57c-.4,0-.8,0-1.2,0a21.2,21.2,0,0,0-13.21,4.13c-5.85,4.67-7.37,10.09-8.47,14.05-.68,2.44-1.23,4.42-2.54,5.47a3.92,3.92,0,0,1-2.2.83c-5.79.52-29-.82-37.72-10.87A13.44,13.44,0,0,1,399,49.4c4.63-19.67,27.92-45.17,57.29-47.88h0a54.6,54.6,0,0,1,9.17-.09C502.78,4.14,543,10.59,547.83,53c2.36,20.59-.16,36.07-7.69,47.33m8.13-47.38C546,33.13,535.92,19.47,517.46,11.19c-15.77-7.07-35.09-9-51.95-10.21a56,56,0,0,0-6.1-.11c-31,1.13-56,27.91-60.83,48.43a13.84,13.84,0,0,0,2.93,12.9c8.83,10.18,32.24,11.55,38.09,11A4.2,4.2,0,0,0,442.38,72c1.17-1.19,1.71-3.14,2.34-5.37,1.15-4.12,2.58-9.25,8.32-13.83a20.69,20.69,0,0,1,12.82-4,28.94,28.94,0,0,1,9.45,1.58,27,27,0,0,1,17.9,19.48c3.47,14.23-13.77,25.14-29,34.77-6.83,4.33-13.29,8.41-17.29,12.44-6.69,6.74-9.1,16.46-9.93,23.44a64.73,64.73,0,0,0-.21,13.63,3.29,3.29,0,0,0,1.59,2.5c4.3,3.14,16.55,4.28,27.64,4.28,8.26,0,15.87-.64,19.05-1.57l.4-.14c3.15-1.22,4.05-5.52,5.18-10.91,1.88-9,4.46-21.39,19.72-26.78,14.64-5.17,23.93-11.61,30.14-20.89,7.59-11.35,10.13-26.93,7.76-47.63"/><path class="cls-2" d="M480.16,218.25a39.11,39.11,0,0,1-19,9.71,36,36,0,0,1-11.08.67,31.12,31.12,0,0,1-22-12.87,23,23,0,0,1-3.83-19c2.18-8.7,6.2-15.67,11.62-20.15A25.88,25.88,0,0,1,452,170.76l.83,0a31.18,31.18,0,0,1,3.34.18c17.83,1.86,28.57,13.31,30.26,32.22.48,5.39-1.68,10.61-6.25,15.12m6.69-15.15c-1.71-19.15-12.59-30.74-30.65-32.62-.91-.09-1.8-.15-2.68-.16h0c-14.41-.32-25.4,9.36-29.66,26.37a23.44,23.44,0,0,0,3.9,19.33,31.59,31.59,0,0,0,22.33,13.06,32,32,0,0,0,3.32.17,40.85,40.85,0,0,0,27.08-10.68c4.67-4.6,6.87-9.95,6.38-15.46"/><path class="cls-5" d="M609.61,353.88s-1-24.08,12.76-36.06,53.21-22.75,49.69-43.88-27.6-28-39.14-20.08-7.93,19.26-14.79,19.36-45.73-5-38.93-26.59,37-48,70.06-43.12,76.72,13.16,78.53,57.7-17.43,58.45-42.68,65.33-18.94,33.93-28,35.87-47.84-.88-47.5-8.53"/><path class="cls-5" d="M593.56,395.47c5.71-17.27,18.05-26.46,33.94-23.61s27.66,13.41,28,34.58c.25,16.15-22.43,25.83-38.33,23s-28.68-18.61-23.61-33.95"/><path class="cls-2" d="M708.61,308.35c-6.81,8.72-16.48,14.41-31.36,18.47-15.85,4.32-19.38,16.59-21.95,25.56-1.54,5.37-2.75,9.6-6,10.3a21,21,0,0,1-2.1.32c-10.62,1.17-37.72-1.13-43.9-6.36a2.88,2.88,0,0,1-1.25-2.27v0a65.09,65.09,0,0,1,1.21-13.49c1.33-6.82,4.41-16.24,11.48-22.39,4.25-3.69,11-7.27,18.08-11.08,16-8.56,34.15-18.25,31.69-33a27.49,27.49,0,0,0-16.69-21.07,29.2,29.2,0,0,0-8.14-2.18h0a26.1,26.1,0,0,0-3.13-.19A20.45,20.45,0,0,0,625,254.16c-6.17,4.23-8.08,9.53-9.48,13.4-.86,2.38-1.55,4.3-2.93,5.26a3.92,3.92,0,0,1-2.26.67c-5.83.1-28.86-2.95-36.81-13.62a13.42,13.42,0,0,1-1.9-12.68c6.08-19.3,31.21-43,60.74-43.55a55.19,55.19,0,0,1,9.08.58c37,5.45,76.62,14.85,78.34,57.49.84,20.71-2.81,36-11.15,46.64m11.59-46.66c-.81-19.93-9.86-34.29-27.66-43.9-15.21-8.21-34.33-11.54-51.06-14a56.87,56.87,0,0,0-6-.56c-31.08-1.19-58,23.71-64.31,43.82a13.84,13.84,0,0,0,2,13.08c8.06,10.81,31.32,13.89,37.17,13.79a4.22,4.22,0,0,0,2.87-1c1.25-1.1,1.93-3,2.72-5.18,1.46-4,3.26-9,9.32-13.18a20.73,20.73,0,0,1,13.08-3.09,29,29,0,0,1,9.3,2.27A27.05,27.05,0,0,1,664,274.46c2.41,14.44-15.58,24.06-31.46,32.54-7.13,3.82-13.87,7.42-18.16,11.14-7.17,6.23-10.28,15.75-11.62,22.65a65.45,65.45,0,0,0-1.21,13.57A3.31,3.31,0,0,0,603,357c5.43,4.6,25.33,6.71,37.74,6.71a47.53,47.53,0,0,0,8.62-.57,3.41,3.41,0,0,0,.41-.11c3.24-1,4.44-5.22,6-10.5,2.54-8.87,6-21,21.64-25.26,15-4.08,24.72-9.82,31.59-18.61,8.41-10.76,12.09-26.11,11.25-46.93"/><path class="cls-2" d="M640.12,421.54a39.11,39.11,0,0,1-19.67,8.29,35.86,35.86,0,0,1-11.06-.14,31.12,31.12,0,0,1-21-14.46,24.09,24.09,0,0,1-3.53-12.34A21.76,21.76,0,0,1,586,396c2.82-8.52,7.34-15.18,13.07-19.23a25.75,25.75,0,0,1,15.12-4.73c.47,0,.93,0,1.4,0a33.56,33.56,0,0,1,4.1.47c17.64,3.17,27.51,15.37,27.8,34.36.09,5.41-2.45,10.46-7.34,14.61m-20.39-49.41c-.89-.15-1.77-.28-2.64-.36-14.37-1.39-26,7.46-31.55,24.12A23.45,23.45,0,0,0,588,415.45a31.6,31.6,0,0,0,21.31,14.66,34.25,34.25,0,0,0,5.93.51,40.78,40.78,0,0,0,7.46-.71,39,39,0,0,0,17.7-8c5-4.24,7.59-9.41,7.5-15-.3-19.22-10.29-31.58-28.17-34.79"/><path class="cls-1" d="M705.29,124.24s-.62-14.56,7.72-21.8,32.18-13.76,30-26.54S726.37,59,719.39,63.76s-4.8,11.64-8.95,11.71-27.65-3-23.54-16.08,22.37-29,42.37-26.07,46.4,8,47.49,34.89-10.54,35.35-25.81,39.5S739.5,128.23,734,129.4s-28.93-.53-28.73-5.16"/><path class="cls-1" d="M695.59,149.39c3.45-10.44,10.92-16,20.53-14.28S732.84,143.22,733,156c.15,9.76-13.57,15.62-23.18,13.9s-17.34-11.26-14.28-20.53"/><path class="cls-2" d="M765.16,96.71c-4.11,5.27-10,8.71-19,11.17-9.59,2.61-11.72,10-13.27,15.45-.93,3.25-1.66,5.81-3.65,6.24a11.82,11.82,0,0,1-1.25.19c-6.41.71-22.82-.67-26.56-3.84a1.76,1.76,0,0,1-.76-1.37h0a39.36,39.36,0,0,1,.73-8.17c.8-4.12,2.66-9.82,6.94-13.54,2.57-2.23,6.63-4.4,10.93-6.7,9.68-5.18,20.65-11,19.17-20a16.62,16.62,0,0,0-10.09-12.74,17.78,17.78,0,0,0-4.92-1.32,16.56,16.56,0,0,0-1.9-.11,12.34,12.34,0,0,0-7,1.95,14.82,14.82,0,0,0-5.73,8.1c-.52,1.44-.94,2.6-1.77,3.18a2.41,2.41,0,0,1-1.37.4h-.16c-3.76,0-17.36-1.87-22.11-8.24a8.11,8.11,0,0,1-1.15-7.67c3.67-11.66,18.84-26,36.66-26.33a32.38,32.38,0,0,1,5.56.34c22.37,3.3,46.33,9,47.37,34.76.51,12.53-1.69,21.75-6.74,28.21m7-28.22c-.49-12.05-6-20.74-16.73-26.55-9.2-5-20.76-7-30.87-8.47a34.6,34.6,0,0,0-3.69-.34h0c-18.76-.67-35,14.35-38.81,26.5a8.38,8.38,0,0,0,1.19,7.91c4.87,6.53,18.94,8.4,22.48,8.34a2.5,2.5,0,0,0,1.73-.63,7.58,7.58,0,0,0,1.65-3.14c.88-2.43,2-5.46,5.63-8a12.54,12.54,0,0,1,7.91-1.86,17.45,17.45,0,0,1,5.63,1.37,16.36,16.36,0,0,1,9.93,12.55c1.46,8.73-9.43,14.55-19,19.68-4.32,2.31-8.39,4.48-11,6.73-4.34,3.76-6.22,9.53-7,13.69a39.54,39.54,0,0,0-.73,8.21,2,2,0,0,0,.85,1.58c3.28,2.78,15.32,4.06,22.82,4.06a28.68,28.68,0,0,0,5.22-.35l.24-.07c2-.59,2.69-3.15,3.61-6.35,1.54-5.36,3.64-12.7,13.09-15.27,9.05-2.47,14.95-5.94,19.1-11.26,5.09-6.51,7.31-15.79,6.8-28.38"/><path class="cls-2" d="M723.75,165.15a23.65,23.65,0,0,1-11.88,5,21.83,21.83,0,0,1-6.7-.08,18.83,18.83,0,0,1-12.71-8.74A13.92,13.92,0,0,1,691,149.73c1.7-5.16,4.44-9.18,7.9-11.64a15.57,15.57,0,0,1,9.15-2.86l.86,0a19.64,19.64,0,0,1,2.47.28c10.67,1.91,16.64,9.3,16.82,20.78.05,3.27-1.48,6.32-4.44,8.84m-12.33-29.87c-.53-.09-1.07-.17-1.58-.22-8.69-.84-15.76,4.5-19.09,14.58a14.2,14.2,0,0,0,1.49,11.83,19.09,19.09,0,0,0,12.89,8.87,20.14,20.14,0,0,0,3.58.31,24.22,24.22,0,0,0,4.48-.43,23.5,23.5,0,0,0,10.73-4.86c3-2.57,4.58-5.69,4.54-9-.18-11.62-6.23-19.1-17-21"/><path class="cls-5" d="M100.35,553.2s-11.66-16.77-7.22-31.6,27.78-40.43,15.67-54-32.45-7.5-37.13,3.38,3.06,17.38-1.81,20.57-35,17.18-39.93-1.38,4.72-51.14,30.6-62.65,60.9-25.38,82.4,5.69S157,483,142,499.38s1.83,32.89-3.77,38.38-34.65,21.07-37.88,15.44"/><path class="cls-5" d="M107.72,590.27c-3.74-15,.92-27.13,13.59-32.3S147.2,555,157,570c7.5,11.45-4.34,28.67-17,33.84s-29-.32-32.3-13.6"/><path class="cls-2" d="M150.58,475.7c-.92,9.33-5.27,17.79-14.08,27.45-9.39,10.28-6.35,20.67-4.12,28.26,1.34,4.54,2.39,8.12.36,10.11a16.85,16.85,0,0,1-1.39,1.21A101.58,101.58,0,0,1,115.83,552c-8.68,4.31-15.52,6.52-18.77,6.06A2.46,2.46,0,0,1,95.14,557v0c-.11-.16-11.56-16.87-7.19-31.45,1.37-4.56,4.55-10.18,7.92-16.13,7.58-13.39,16.17-28.56,7.71-38a23.16,23.16,0,0,0-17.46-7.86,25.19,25.19,0,0,0-4.05.34A24.83,24.83,0,0,0,75.25,466a18.34,18.34,0,0,0-9.12,8.83c-2.51,5.83-1.47,10.48-.71,13.89.46,2.1.84,3.78.29,5.1a3.33,3.33,0,0,1-1.32,1.5,63.62,63.62,0,0,1-13.67,5.91c-5.47,1.67-13.18,3.22-18.87,1a11.38,11.38,0,0,1-7.11-8.22c-4.41-16.58,2.82-45,23.75-58.75a47,47,0,0,1,6.74-3.69c29-12.88,61.59-24.12,82.17,5.63,10,14.45,14.3,27,13.17,38.45M137.71,437C128.08,423.13,115.1,417,98,418.14c-14.62,1-29.81,7.32-42.91,13.14a47.37,47.37,0,0,0-4.61,2.37c-22.75,13.26-30.68,43.24-26.1,60.5a11.73,11.73,0,0,0,7.35,8.47c5.78,2.22,13.58.67,19.11-1a64.41,64.41,0,0,0,13.76-6,3.61,3.61,0,0,0,1.58-2c.4-1.36,0-3-.4-5C65,485.1,64,480.69,66.47,475a17.5,17.5,0,0,1,8-8.13,24.66,24.66,0,0,1,7.69-2.61,22.91,22.91,0,0,1,21.17,7.41c8.28,9.24-.24,24.29-7.76,37.57-3.38,6-6.57,11.6-7.95,16.21-4.37,14.63,7,31.34,7.24,31.76A2.8,2.8,0,0,0,97,558.42a7.28,7.28,0,0,0,1,.06c5,0,14.14-4.24,18-6.16,7.32-3.63,14.47-8.07,17-10.54a3.2,3.2,0,0,0,.24-.27c1.86-2.18.82-5.75-.5-10.22-2.2-7.5-5.21-17.77,4-27.9,8.87-9.72,13.25-18.24,14.18-27.66,1.13-11.52-3.2-24.18-13.24-38.7"/><path class="cls-2" d="M152.88,587.8a33.06,33.06,0,0,1-10.31,14.85,30.41,30.41,0,0,1-8,4.92,26.39,26.39,0,0,1-21.61-.82,19.52,19.52,0,0,1-10.44-12.65c-1.85-7.38-1.63-14.2.63-19.71a22,22,0,0,1,9.69-10.85A27.33,27.33,0,0,1,116,562c14.06-5.73,26.67-1.48,35.5,12,2.51,3.84,3,8.6,1.37,13.79m-1.06-14c-8.93-13.63-21.7-17.93-35.95-12.13-.7.29-1.39.6-2,.93-8.39,4.24-12.91,12.1-12.91,22.05a39.38,39.38,0,0,0,1.25,9.53,19.88,19.88,0,0,0,10.64,12.89,26.3,26.3,0,0,0,11.85,2.78,26.67,26.67,0,0,0,10.07-2,31.64,31.64,0,0,0,9.47-6.2h0a33,33,0,0,0,9-13.8c1.65-5.3,1.16-10.17-1.42-14.1"/><path class="cls-1" d="M757.94,583.14S763.8,569.8,774.48,567s34.95,1.83,38.67-10.58-7.53-22.54-15.9-21.33-9.44,8.34-13.19,6.57-23.5-14.89-14-24.81,32.87-16.19,49.52-4.73,38.14,27.59,27.25,52.25-25,27.08-40.58,24.09-19.32,13.37-24.76,12-25.74-13.23-23.51-17.29"/><path class="cls-1" d="M738.15,601.44c7.7-7.85,16.85-9.55,24.72-3.77s11.44,14.65,6,26.23c-4.17,8.83-19.06,8-26.93,2.26s-10.61-17.75-3.77-24.72"/><path class="cls-2" d="M842.3,562.46c-5.07,11.46-11.11,18.77-18.48,22.34-6,2.92-12.79,3.43-22,1.66-9.75-1.88-14.94,3.85-18.72,8-2.26,2.5-4,4.47-6,4a11.68,11.68,0,0,1-1.2-.38c-6.07-2.18-20.18-10.66-22.15-15.16a1.76,1.76,0,0,1-.08-1.57h0a38.89,38.89,0,0,1,4.25-7c2.54-3.35,6.72-7.65,12.2-9.1,3.29-.87,7.89-1,12.76-1.2,11-.38,23.4-.8,26-9.47a16.63,16.63,0,0,0-3.44-15.89,17.83,17.83,0,0,0-3.86-3.36,14.24,14.24,0,0,0-6.31-2.3,10.19,10.19,0,0,0-2.44,0,14.84,14.84,0,0,0-8.72,4.74c-1.1,1.07-2,1.93-3,2.07a2.34,2.34,0,0,1-1.41-.23c-3.18-1.5-14.87-9.29-16.35-17.2a8.14,8.14,0,0,1,2.35-7.4c8.43-8.85,28.38-15,44.53-7.47a33.06,33.06,0,0,1,4.81,2.75c18.63,12.82,37.63,28.48,27.21,52.09m-3.07-31.1c-6.07-8.52-15.56-15.41-24-21.21a33.17,33.17,0,0,0-3.14-1.92c-16.54-8.9-37.76-2.56-46.54,6.67a8.35,8.35,0,0,0-2.41,7.62c1.49,8,13.29,15.88,16.5,17.4a2.54,2.54,0,0,0,1.84.2,7.54,7.54,0,0,0,2.86-2.09c1.86-1.8,4.17-4,8.57-4.67a12.51,12.51,0,0,1,7.92,1.81,17.3,17.3,0,0,1,4.45,3.71,16.34,16.34,0,0,1,3.38,15.64c-2.54,8.48-14.87,8.91-25.75,9.28-4.89.17-9.51.33-12.82,1.21-5.56,1.47-9.78,5.81-12.35,9.2a39.37,39.37,0,0,0-4.27,7,2,2,0,0,0,.06,1.79c2.25,5.14,19,14.55,23.53,15.69l.27.05.15,0c1.95.18,3.69-1.74,5.86-4.14,3.74-4.13,8.86-9.8,18.47-7.95,9.22,1.78,16,1.26,22.11-1.68,7.43-3.6,13.52-11,18.61-22.48,4.88-11,3.79-21.24-3.31-31.2"/><path class="cls-2" d="M764.36,622c-1.4,3-4.12,5-7.89,6a23.65,23.65,0,0,1-12.86-.73,21.67,21.67,0,0,1-6-3,18.81,18.81,0,0,1-7.55-13.45,13.93,13.93,0,0,1,3.8-11.07c3.8-3.87,8-6.28,12.22-7a15.71,15.71,0,0,1,10.21,1.85,19.87,19.87,0,0,1,2.11,1.36c8.73,6.42,10.84,15.67,5.94,26.06m-5.78-26.27c-.44-.33-.9-.63-1.35-.91a16.42,16.42,0,0,0-7.14-2.46c-5.52-.52-11.26,1.9-16.4,7.15a14.18,14.18,0,0,0-3.88,11.27,19.08,19.08,0,0,0,7.66,13.64,22.54,22.54,0,0,0,7.31,3.45,25.88,25.88,0,0,0,4.49.83,21.62,21.62,0,0,0,7.27-.48c3.84-1,6.62-3.09,8.05-6.11,5-10.52,2.82-19.89-6-26.39"/><path class="cls-4" d="M786.13,366.93S794,354.69,805,353.6s34.21,7.38,39.86-4.28-3.84-23.45-12.29-23.59-10.65,6.73-14.07,4.38-20.82-18.45-9.91-26.73,35-10.74,49.64,3.22,33.25,33.32,18.57,55.92-29,22.74-43.9,17.31-21.21,10.12-26.35,7.91-23.3-17.16-20.45-20.82"/><path class="cls-4" d="M763.67,381.84c8.85-6.52,18.16-6.74,25,.22s9,16.29,1.72,26.84c-5.52,8.05-20.1,4.9-26.94-2.07s-7.64-19.21.22-25"/><path class="cls-2" d="M872.71,360c-6.83,10.51-14,16.76-21.81,19.11-6.4,1.91-13.17,1.34-21.93-1.86-9.33-3.41-15.36,1.42-19.76,4.94-2.64,2.11-4.72,3.77-6.58,3a12.05,12.05,0,0,1-1.15-.57c-5.64-3.13-18.21-13.74-19.43-18.49a1.74,1.74,0,0,1,.18-1.55h0c.08-.12,8-12.2,18.8-13.27.69-.07,1.43-.09,2.2-.09a91.15,91.15,0,0,1,10.58,1c10.89,1.38,23.23,2.93,27.17-5.21a16.63,16.63,0,0,0-.86-16.23,17.6,17.6,0,0,0-3.26-3.91,13.06,13.06,0,0,0-8.29-3.63h-.26a14.88,14.88,0,0,0-9.1,3.3c-1.25.88-2.27,1.58-3.29,1.57a2.42,2.42,0,0,1-1.35-.46c-2.9-2-13.2-11.54-13.39-19.59A8.11,8.11,0,0,1,804.7,301c9.74-7.39,30.42-10.32,45.17-.26h0a33.81,33.81,0,0,1,4.29,3.48c16.34,15.63,32.6,34.11,18.54,55.76m1.93-31.19c-4.63-9.37-12.9-17.7-20.29-24.76a32.88,32.88,0,0,0-2.79-2.39c-14.91-11.43-36.86-8.55-47-.84a8.37,8.37,0,0,0-3.61,7.14c.2,8.15,10.59,17.8,13.52,19.8a2.55,2.55,0,0,0,1.78.5,7.54,7.54,0,0,0,3.16-1.61c2.12-1.48,4.77-3.31,9.21-3.24a12.48,12.48,0,0,1,7.53,3.05,17.53,17.53,0,0,1,3.79,4.37,16.34,16.34,0,0,1,.84,16c-3.85,8-16.1,6.42-26.9,5.06-4.85-.61-9.44-1.19-12.85-.86-10.85,1.08-18.79,13.08-19,13.38a2,2,0,0,0-.22,1.78c1.4,5.44,16.41,17.38,20.73,19.24l.26.09a2.68,2.68,0,0,0,.86.13c1.69,0,3.53-1.47,5.74-3.24,4.35-3.49,10.31-8.25,19.5-4.9,8.82,3.22,15.63,3.8,22.1,1.86,7.91-2.37,15.09-8.66,21.95-19.22,6.57-10.11,7.13-20.36,1.71-31.33"/><path class="cls-2" d="M786.27,406.34c-1.85,2.7-4.87,4.3-8.74,4.65a23.59,23.59,0,0,1-12.59-2.78,22,22,0,0,1-5.42-4,18.83,18.83,0,0,1-5.31-14.48,13.92,13.92,0,0,1,5.52-10.32c4.37-3.22,8.93-4.92,13.17-4.92a15.68,15.68,0,0,1,9.8,3.47,19.29,19.29,0,0,1,1.86,1.66c7.59,7.73,8.2,17.2,1.71,26.67m-1.52-26.86c-.38-.38-.76-.75-1.16-1.09a16.07,16.07,0,0,0-10.7-4.09c-4.27,0-8.84,1.65-13.32,4.94a14.17,14.17,0,0,0-5.63,10.52,19.1,19.1,0,0,0,5.39,14.68A22.67,22.67,0,0,0,766,409a24.38,24.38,0,0,0,9.93,2.28c.54,0,1.07,0,1.6-.07,3.94-.35,7-2,8.93-4.75,6.57-9.59,6-19.18-1.73-27"/><path class="cls-2" d="M232,311a30.25,30.25,0,0,1-6.36-1.19.65.65,0,0,0-.82.44.66.66,0,0,0,.44.83,32,32,0,0,0,6.64,1.24H232A.67.67,0,0,0,232,311m13.74-.61a.65.65,0,0,0-.79-.49,48.68,48.68,0,0,1-6.45,1.05.66.66,0,0,0-.6.72.65.65,0,0,0,.66.6h.06a49.09,49.09,0,0,0,6.62-1.08.66.66,0,0,0,.49-.8M258.24,306a.66.66,0,0,0-.88-.33c-2.06.92-4.11,1.75-6.1,2.44a.66.66,0,0,0,.22,1.29.85.85,0,0,0,.22,0c2-.71,4.12-1.54,6.2-2.49a.66.66,0,0,0,.34-.88m-38.18,1a7.32,7.32,0,0,1-2.6-5.32.66.66,0,0,0-.69-.63.67.67,0,0,0-.63.7,8.58,8.58,0,0,0,3,6.25.64.64,0,0,0,.44.17.66.66,0,0,0,.44-1.16m49.8-7.36a.67.67,0,0,0-.92-.21c-1.89,1.19-3.8,2.31-5.68,3.33a.66.66,0,0,0-.27.9.66.66,0,0,0,.9.27c1.9-1,3.84-2.17,5.76-3.38a.66.66,0,0,0,.21-.91m10.77-7.73a.67.67,0,0,0-.94-.11c-1.73,1.38-3.51,2.71-5.27,4a.66.66,0,0,0-.15.92.65.65,0,0,0,.54.28.66.66,0,0,0,.38-.12c1.78-1.27,3.57-2.62,5.33-4a.67.67,0,0,0,.11-.93m-58.37-2.66a.66.66,0,0,0-.93.11,31.38,31.38,0,0,0-3.61,5.72.67.67,0,0,0,.32.88.73.73,0,0,0,.28.06.67.67,0,0,0,.6-.38,29.92,29.92,0,0,1,3.46-5.47.66.66,0,0,0-.11-.93m68.3-6.13a.66.66,0,0,0-.94,0c-1.58,1.52-3.22,3-4.86,4.47a.66.66,0,0,0-.06.94.68.68,0,0,0,.5.23.65.65,0,0,0,.44-.17c1.66-1.46,3.31-3,4.91-4.51a.66.66,0,0,0,0-.94m-58.89-3.2a.66.66,0,0,0-.94-.08c-1.79,1.5-3.45,3-4.93,4.51a.66.66,0,0,0,.46,1.13.69.69,0,0,0,.47-.2c1.46-1.46,3.09-3,4.85-4.43a.67.67,0,0,0,.08-.94m67.93-6.51a.66.66,0,0,0-.93.08c-1.41,1.65-2.89,3.31-4.4,4.91a.66.66,0,0,0,.48,1.12.7.7,0,0,0,.49-.21c1.52-1.62,3-3.3,4.45-5a.67.67,0,0,0-.08-.94m-57.2-1.28a.66.66,0,0,0-.92-.2c-1.9,1.23-3.75,2.52-5.49,3.79a.67.67,0,0,0,.4,1.2.71.71,0,0,0,.39-.13c1.72-1.27,3.55-2.53,5.43-3.75a.67.67,0,0,0,.2-.92m134.66,0c-1.54-1.62-3.15-3.19-4.8-4.65a.65.65,0,0,0-.93.05.66.66,0,0,0,.05.94c1.62,1.44,3.2,3,4.71,4.57a.66.66,0,0,0,.48.2.69.69,0,0,0,.46-.17.67.67,0,0,0,0-.94m-123.18-6.66a.67.67,0,0,0-.9-.28c-2,1-3.94,2.12-5.83,3.22a.67.67,0,0,0,.34,1.24.64.64,0,0,0,.33-.09c1.88-1.09,3.82-2.16,5.79-3.2a.66.66,0,0,0,.28-.89m53.71-2.67a.67.67,0,0,0-.92.18c-1.21,1.78-2.5,3.58-3.86,5.35a.67.67,0,0,0,.12.93.65.65,0,0,0,.4.14.66.66,0,0,0,.53-.26c1.37-1.79,2.68-3.61,3.9-5.41a.66.66,0,0,0-.18-.92m59.47.47c-1.79-1.32-3.65-2.58-5.56-3.72a.66.66,0,1,0-.69,1.13c1.87,1.13,3.7,2.36,5.45,3.66a.68.68,0,0,0,.4.13.66.66,0,0,0,.39-1.19m-101.16-3.39a.67.67,0,0,0-.87-.35c-2,.86-4.09,1.77-6.09,2.7a.66.66,0,0,0,.28,1.26.71.71,0,0,0,.28-.06c2-.93,4-1.83,6-2.68a.67.67,0,0,0,.36-.87m48.28-8.57a.66.66,0,0,0-.89.3c-.92,1.9-2,3.86-3.11,5.8a.67.67,0,0,0,.24.91.64.64,0,0,0,.33.09.66.66,0,0,0,.57-.32c1.16-2,2.22-4,3.16-5.89a.66.66,0,0,0-.3-.88m-35.83,4a.66.66,0,0,0-.84-.42c-2.1.67-4.21,1.41-6.29,2.18a.66.66,0,0,0,.23,1.28.68.68,0,0,0,.23,0c2.06-.77,4.16-1.5,6.24-2.16a.67.67,0,0,0,.43-.84m77.28,1c-2-1-4-1.85-6.13-2.65a.66.66,0,0,0-.47,1.24c2.05.78,4.07,1.65,6,2.6a.64.64,0,0,0,.29.07.66.66,0,0,0,.6-.37.67.67,0,0,0-.31-.89m-64.48-4.48a.66.66,0,0,0-.8-.5c-2.14.48-4.31,1-6.46,1.62a.66.66,0,0,0-.46.82.66.66,0,0,0,.64.49.57.57,0,0,0,.18,0c2.12-.58,4.27-1.12,6.39-1.6a.66.66,0,0,0,.51-.79m52-.28c-2.1-.61-4.29-1.14-6.49-1.58a.66.66,0,0,0-.26,1.3c2.16.44,4.31,1,6.38,1.56l.18,0a.67.67,0,0,0,.64-.48.66.66,0,0,0-.46-.82m-39.69-2.53c-2.17.27-4.39.6-6.59,1a.66.66,0,0,0,.11,1.32h.11c2.18-.38,4.38-.71,6.53-1a.66.66,0,1,0-.16-1.31m26.62-.14c-2.17-.27-4.41-.47-6.65-.6a.67.67,0,0,0-.7.63.66.66,0,0,0,.63.69c2.21.13,4.42.32,6.55.59H330a.66.66,0,0,0,.08-1.32m-13.31-.76h0c-2.18,0-4.43.1-6.66.26a.66.66,0,0,0-.62.71.67.67,0,0,0,.66.61h0c2.21-.15,4.42-.23,6.59-.25a.67.67,0,0,0,.65-.67.66.66,0,0,0-.66-.65m1.79-9.34a.66.66,0,0,0-.8.49,50.65,50.65,0,0,1-1.9,6.26.67.67,0,0,0,.39.86.72.72,0,0,0,.23,0,.68.68,0,0,0,.63-.43,53.77,53.77,0,0,0,1.94-6.42.66.66,0,0,0-.49-.8m1.06-12.62a.66.66,0,0,0-.77-.53.66.66,0,0,0-.53.78,25.58,25.58,0,0,1,.44,4.8c0,.53,0,1.09,0,1.63a.66.66,0,0,0,.63.7h0a.67.67,0,0,0,.67-.63c0-.57,0-1.15,0-1.71a27,27,0,0,0-.46-5m-2.29-6.41a20.84,20.84,0,0,0-4.24-5.33.66.66,0,1,0-.89,1,19.64,19.64,0,0,1,4,5,.67.67,0,0,0,.58.34.61.61,0,0,0,.32-.09.66.66,0,0,0,.26-.9m-9.83-9.17-.34-.17c-1.86-.93-3.8-1.81-5.74-2.61a.67.67,0,0,0-.86.36.66.66,0,0,0,.36.86c1.91.79,3.82,1.65,5.65,2.57l.32.16a.61.61,0,0,0,.3.07.66.66,0,0,0,.59-.36.67.67,0,0,0-.28-.9m-90.18-2a.66.66,0,0,0-.84-.42c-4,1.29-6.2,2.22-6.3,2.25a.67.67,0,0,0-.36.87.65.65,0,0,0,.86.36s2.3-1,6.2-2.22a.66.66,0,0,0,.43-.84m12.8-3.49a.66.66,0,0,0-.8-.5c-2.16.51-4.33,1.06-6.45,1.64a.66.66,0,0,0,.18,1.3.5.5,0,0,0,.18,0c2.11-.58,4.26-1.13,6.4-1.62a.66.66,0,0,0,.49-.8m65,.43c-2.09-.68-4.25-1.29-6.42-1.83a.66.66,0,1,0-.32,1.29c2.14.53,4.27,1.13,6.32,1.81a.75.75,0,0,0,.21,0,.66.66,0,0,0,.2-1.29m-52.75-3.4c-2.17.32-4.38.68-6.57,1.1a.66.66,0,0,0-.53.78.67.67,0,0,0,.65.54h.12c2.17-.41,4.36-.78,6.51-1.09a.66.66,0,0,0-.19-1.31m39.81.19c-2.16-.38-4.38-.7-6.6-1a.66.66,0,1,0-.15,1.32c2.2.24,4.39.56,6.51.94h.11a.66.66,0,0,0,.65-.55.65.65,0,0,0-.53-.76m-26.56-1.5c-2.19.12-4.42.28-6.65.51a.66.66,0,0,0,.07,1.32h.07c2.2-.22,4.42-.39,6.58-.5a.66.66,0,0,0-.07-1.33m13.32,0c-2.14-.11-4.35-.17-6.55-.17h-.11a.66.66,0,0,0,0,1.33h.11c2.18,0,4.36.05,6.47.17h0a.66.66,0,0,0,0-1.32"/><path class="cls-2" d="M402.83,272.41s-1.5-2-3.92-5.37a.66.66,0,0,0-.92-.16.67.67,0,0,0-.15.92c2.43,3.43,3.93,5.39,3.94,5.41a.66.66,0,0,0,.53.26.7.7,0,0,0,.4-.13.67.67,0,0,0,.12-.93m-7.69-10.82c-1.22-1.8-2.45-3.66-3.67-5.52a.66.66,0,1,0-1.11.72c1.21,1.87,2.46,3.73,3.68,5.54a.67.67,0,0,0,.55.3.68.68,0,0,0,.37-.11.66.66,0,0,0,.18-.92m-7.23-11.11c-1.17-1.87-2.34-3.78-3.46-5.65a.66.66,0,1,0-1.14.68c1.13,1.88,2.3,3.79,3.48,5.67a.64.64,0,0,0,.56.31.6.6,0,0,0,.35-.1.66.66,0,0,0,.21-.91m-6.82-11.36c-1.11-1.93-2.2-3.87-3.25-5.78a.66.66,0,1,0-1.16.64c1.05,1.91,2.14,3.86,3.26,5.79a.66.66,0,0,0,.57.34.64.64,0,0,0,.33-.09.66.66,0,0,0,.25-.9M374.7,227.5c-1-2-2-4-3-5.9a.66.66,0,0,0-.88-.3.67.67,0,0,0-.3.89c1,2,2,3.94,3,5.93a.67.67,0,0,0,.59.36.69.69,0,0,0,.3-.07.67.67,0,0,0,.28-.9m-5.87-11.87c-.94-2-1.85-4-2.72-6a.66.66,0,1,0-1.21.53c.86,2,1.79,4,2.73,6.06a.66.66,0,1,0,1.2-.56m-5.27-12.13c-.83-2.06-1.62-4.14-2.37-6.17a.66.66,0,1,0-1.24.45c.75,2,1.55,4.14,2.38,6.22a.67.67,0,0,0,.62.41.64.64,0,0,0,.24,0,.66.66,0,0,0,.37-.86M359,191.07c-.69-2.12-1.34-4.25-1.93-6.32a.66.66,0,0,0-1.27.36c.59,2.09,1.25,4.23,2,6.37a.66.66,0,0,0,.63.45.57.57,0,0,0,.21,0,.66.66,0,0,0,.42-.84m-3.61-12.7c-.52-2.18-1-4.35-1.37-6.45a.66.66,0,1,0-1.3.24c.4,2.12.86,4.32,1.39,6.52a.66.66,0,0,0,.65.51l.15,0a.65.65,0,0,0,.49-.8m-3.05-19.52a.66.66,0,0,0-.7-.62.67.67,0,0,0-.62.71c.14,2.16.36,4.39.65,6.63a.67.67,0,0,0,.66.58h.08a.66.66,0,0,0,.57-.74c-.28-2.22-.5-4.42-.64-6.55M351.92,145a.67.67,0,0,0-.72.59c-.21,2.16-.32,4.41-.35,6.68a.67.67,0,0,0,.66.67h0a.66.66,0,0,0,.66-.65c0-2.24.14-4.44.34-6.57a.67.67,0,0,0-.6-.72m25.92.72h-.12a55.18,55.18,0,0,1-6.42-.38.66.66,0,1,0-.16,1.31,56.26,56.26,0,0,0,6.57.4h.12a.66.66,0,0,0,0-1.33m13.68-1.52a.66.66,0,0,0-.84-.42,37.85,37.85,0,0,1-6.34,1.47.66.66,0,0,0,.1,1.32h.1a39.89,39.89,0,0,0,6.55-1.52.67.67,0,0,0,.42-.84m-26.68,0c-2.1-.48-4.23-1.07-6.32-1.76a.66.66,0,1,0-.42,1.26c2.14.7,4.32,1.31,6.45,1.79l.15,0a.66.66,0,0,0,.15-1.31m37.73-7.07a.66.66,0,0,0-.94,0,24.43,24.43,0,0,1-5,4,.66.66,0,0,0,.34,1.23.69.69,0,0,0,.34-.09,25.79,25.79,0,0,0,5.31-4.21.66.66,0,0,0,0-.94m-50.2,3c-2-.86-4-1.82-5.91-2.85a.66.66,0,1,0-.63,1.17c2,1.05,4,2,6,2.91a.7.7,0,0,0,.26.05.66.66,0,0,0,.26-1.27m2.26-8.08a.66.66,0,0,0-.83.43,62.14,62.14,0,0,0-1.64,6.49.67.67,0,0,0,.53.78h.13a.66.66,0,0,0,.65-.53,59.71,59.71,0,0,1,1.61-6.35.66.66,0,0,0-.44-.83m-13.83,1.88c-1.83-1.19-3.63-2.48-5.35-3.82a.66.66,0,1,0-.82,1c1.74,1.37,3.57,2.68,5.44,3.89a.62.62,0,0,0,.36.11.66.66,0,0,0,.36-1.22m68.26-8.23a.66.66,0,0,0-.84.41,31.67,31.67,0,0,1-2.68,5.9.67.67,0,0,0,.23.91.68.68,0,0,0,.34.09.66.66,0,0,0,.57-.32,32.79,32.79,0,0,0,2.8-6.15.66.66,0,0,0-.42-.84m-48.83-5.63a.66.66,0,0,0-.91.22,53.32,53.32,0,0,0-3.14,5.92.66.66,0,0,0,.34.88.62.62,0,0,0,.27.06.68.68,0,0,0,.61-.39,51.32,51.32,0,0,1,3.06-5.77.67.67,0,0,0-.22-.92m-29.76,5.76c-1.6-1.51-3.14-3.1-4.55-4.72A.67.67,0,0,0,325,121a.66.66,0,0,0-.06.94c1.44,1.65,3,3.28,4.65,4.81a.65.65,0,0,0,.45.18.69.69,0,0,0,.49-.21.66.66,0,0,0,0-.94m80.82-12.6a.67.67,0,0,0-1.33.07c0,.61.05,1.22.05,1.83a33.83,33.83,0,0,1-.32,4.66.67.67,0,0,0,.57.75h.09A.66.66,0,0,0,411,120a35.36,35.36,0,0,0,.33-4.83c0-.63,0-1.28,0-1.91m-89.44,2.72a60.68,60.68,0,0,1-3.49-5.54.66.66,0,0,0-.9-.26.67.67,0,0,0-.26.9,59.92,59.92,0,0,0,3.57,5.67.65.65,0,0,0,.54.28.66.66,0,0,0,.54-1m46.7-6.17a.67.67,0,0,0-.94,0c-1,1.07-2,2.21-3.06,3.37-.46.53-.92,1.08-1.37,1.63a.67.67,0,0,0,.1.94.68.68,0,0,0,.42.14.65.65,0,0,0,.51-.24c.43-.53.88-1.07,1.34-1.58,1-1.16,2-2.28,3-3.34a.67.67,0,0,0,0-.94m41.64-3.23a22.8,22.8,0,0,0-2.78-6.21.66.66,0,1,0-1.11.73,21.36,21.36,0,0,1,2.61,5.85.67.67,0,0,0,.63.49l.18,0a.66.66,0,0,0,.46-.82m-31.8-5.63a.66.66,0,0,0-.93-.13c-1.67,1.27-3.39,2.72-5.11,4.31a.67.67,0,0,0,.45,1.15.68.68,0,0,0,.45-.18c1.69-1.56,3.38-3,5-4.23a.66.66,0,0,0,.13-.93m-62.85,3.59a52.52,52.52,0,0,1-2.1-6.2.66.66,0,0,0-1.28.34,54.56,54.56,0,0,0,2.15,6.35.66.66,0,0,0,.61.41.66.66,0,0,0,.61-.91m74.52-9.72a.66.66,0,0,0-.83-.44,31.2,31.2,0,0,0-6.18,2.72.66.66,0,0,0,.32,1.24.68.68,0,0,0,.32-.09,30.06,30.06,0,0,1,5.93-2.61.67.67,0,0,0,.44-.83m12.5.71a14,14,0,0,0-6.57-2,.67.67,0,0,0-.08,1.33,12.58,12.58,0,0,1,6,1.85.65.65,0,0,0,.34.1.66.66,0,0,0,.35-1.23m-90.9-10.11a.69.69,0,0,0-.67-.65.66.66,0,0,0-.65.67,53.83,53.83,0,0,0,.49,6.68.66.66,0,0,0,.65.57h.1a.66.66,0,0,0,.57-.74,51.16,51.16,0,0,1-.48-6.52m.72-13.81a.66.66,0,0,0-.77.52c-.41,2.14-.74,4.36-1,6.62a.66.66,0,0,0,.6.72h.06a.66.66,0,0,0,.66-.59c.22-2.22.53-4.4.94-6.49a.66.66,0,0,0-.53-.78M316.47,59a.66.66,0,0,0-.88.33,56.7,56.7,0,0,0-2.35,6.28.66.66,0,0,0,.44.83.65.65,0,0,0,.2,0,.66.66,0,0,0,.63-.46,53.77,53.77,0,0,1,2.3-6.12.67.67,0,0,0-.34-.88m7.06-11.17a.66.66,0,0,0-.94.09,49.55,49.55,0,0,0-3.88,5.47.66.66,0,1,0,1.13.69,48.93,48.93,0,0,1,3.77-5.33.66.66,0,0,0-.09-.93M333.33,39a.66.66,0,0,0-.92-.17,50.32,50.32,0,0,0-5.23,4.22.66.66,0,0,0,.45,1.15.68.68,0,0,0,.45-.17,47.61,47.61,0,0,1,5.08-4.11.66.66,0,0,0,.16-.92m11.77-6a.67.67,0,0,0-.86-.39,57,57,0,0,0-6.11,2.74.66.66,0,0,0,.31,1.25.72.72,0,0,0,.31-.07,54.78,54.78,0,0,1,6-2.68.66.66,0,0,0,.38-.85m12.1-3.69a61.37,61.37,0,0,0-6.56,1.3.66.66,0,0,0,.16,1.3l.16,0a64.49,64.49,0,0,1,6.43-1.27.66.66,0,1,0-.19-1.31m26.58,1.27c-2.16-.51-4.38-.93-6.57-1.24a.66.66,0,1,0-.18,1.31c2.16.3,4.33.71,6.45,1.21l.15,0a.66.66,0,0,0,.15-1.31M370.55,28.7c-2.23-.11-4.49-.12-6.69,0a.66.66,0,0,0-.63.69.65.65,0,0,0,.7.63c2.16-.09,4.38-.09,6.56,0h0a.66.66,0,0,0,0-1.32"/><path class="cls-2" d="M588.3,162.45c-2.2,0-4.39,0-6.59,0a.66.66,0,0,0,0,1.33c1.29,0,2.58.05,3.84.05.94,0,1.88,0,2.82,0a.66.66,0,0,0,.65-.67.67.67,0,0,0-.68-.65m13.13-1c-2.13.3-4.34.53-6.55.7a.66.66,0,0,0,.05,1.32h0c2.24-.18,4.47-.41,6.63-.71a.66.66,0,0,0-.17-1.32m-26.32.65c-2.16-.16-4.37-.38-6.57-.64a.66.66,0,0,0-.16,1.32c2.22.27,4.45.48,6.63.65h0a.66.66,0,0,0,.05-1.32M562,160.53c-2.15-.34-4.34-.74-6.5-1.17a.66.66,0,0,0-.78.52.67.67,0,0,0,.52.78c2.18.43,4.39.83,6.55,1.18h.11a.66.66,0,0,0,.1-1.32m53.13-1.28a.67.67,0,0,0-.82-.47c-2.08.58-4.23,1.1-6.4,1.54a.66.66,0,0,0,.13,1.31h.13c2.2-.44,4.38-1,6.49-1.56a.67.67,0,0,0,.46-.82m-66.08-1.31c-2.14-.51-4.29-1.07-6.4-1.66a.66.66,0,1,0-.36,1.27c2.12.59,4.29,1.15,6.45,1.67h.16a.66.66,0,0,0,.15-1.3m78.49-3.32a.66.66,0,0,0-.88-.33c-2,.9-4,1.74-6.08,2.49a.66.66,0,0,0,.23,1.29.65.65,0,0,0,.22,0c2.11-.76,4.19-1.62,6.18-2.53a.67.67,0,0,0,.33-.88m-91.22-.24c-3.92-1.27-6.2-2.18-6.22-2.19a.66.66,0,0,0-.49,1.23s2.35.94,6.31,2.23a.71.71,0,0,0,.2,0,.66.66,0,0,0,.2-1.29m102.1-7.21a.65.65,0,0,0-.93,0,39.28,39.28,0,0,1-5.12,4,.66.66,0,0,0-.19.92.65.65,0,0,0,.55.3.67.67,0,0,0,.36-.11,40.33,40.33,0,0,0,5.29-4.15.66.66,0,0,0,0-.94m7.8-10.64a.66.66,0,0,0-.9.28,40,40,0,0,1-3.48,5.49.66.66,0,0,0,.13.93.62.62,0,0,0,.4.13.64.64,0,0,0,.53-.26,41,41,0,0,0,3.6-5.68.65.65,0,0,0-.28-.89M650.4,124a.66.66,0,0,0-.78.52,48.36,48.36,0,0,1-1.71,6.3.66.66,0,0,0,.41.84.81.81,0,0,0,.22,0,.66.66,0,0,0,.63-.44,50.81,50.81,0,0,0,1.76-6.48.66.66,0,0,0-.52-.78M652,111.44a.67.67,0,0,0-.69-.64.65.65,0,0,0-.64.68c0,.59,0,1.17,0,1.75,0,1.62-.07,3.23-.19,4.79a.66.66,0,0,0,.61.72h.05a.67.67,0,0,0,.66-.61c.13-1.6.19-3.25.19-4.9,0-.59,0-1.19,0-1.79m7.84-6.19c-1.08,0-2.16.07-3.23.07s-2.24,0-3.34-.07a.66.66,0,0,0-.05,1.32c1.12.05,2.25.07,3.38.07h0c1.08,0,2.18,0,3.28-.06a.67.67,0,0,0,.64-.69.68.68,0,0,0-.69-.63m13-1.55c-2.17.42-4.36.77-6.5,1a.66.66,0,0,0,.08,1.32h.08c2.17-.26,4.39-.61,6.59-1a.66.66,0,0,0,.53-.78.67.67,0,0,0-.78-.53m-26.16,1c-2.18-.3-4.35-.7-6.45-1.19a.66.66,0,0,0-.8.49.67.67,0,0,0,.5.8c2.14.51,4.35.91,6.57,1.21h.09a.66.66,0,0,0,.09-1.32m3.58-6.49a.66.66,0,0,0-1.29.29c.48,2.14.87,4.32,1.15,6.47a.66.66,0,0,0,.65.57h.09a.66.66,0,0,0,.57-.74c-.28-2.19-.67-4.41-1.17-6.59m32,3.9a.66.66,0,0,0-.82-.45c-.74.21-1.46.41-2.19.6a.67.67,0,0,0,.17,1.31.49.49,0,0,0,.17,0l2.23-.61a.67.67,0,0,0,.45-.82M634,101.66a59.11,59.11,0,0,1-6.07-2.47.66.66,0,0,0-.57,1.2,60.34,60.34,0,0,0,6.2,2.52.65.65,0,0,0,.22,0,.67.67,0,0,0,.22-1.29m-11.82-5.59a53.22,53.22,0,0,1-5.34-3.78.66.66,0,1,0-.83,1,53.74,53.74,0,0,0,5.47,3.88.66.66,0,0,0,.7-1.13m26.37-4.34c-.7-2.13-1.5-4.23-2.39-6.25a.66.66,0,0,0-.88-.34.65.65,0,0,0-.34.87c.87,2,1.65,4,2.34,6.14a.66.66,0,0,0,.63.45.54.54,0,0,0,.2,0,.66.66,0,0,0,.42-.84M612,87.85a39.74,39.74,0,0,1-4-5.1.66.66,0,0,0-1.11.73,40.54,40.54,0,0,0,4.19,5.28.67.67,0,0,0,.48.21.66.66,0,0,0,.48-1.11m31.09-8.35a55.12,55.12,0,0,0-3.67-5.62.66.66,0,1,0-1.07.8A54.52,54.52,0,0,1,642,80.15a.66.66,0,1,0,1.15-.65M605,77a17.53,17.53,0,0,1-1.22-6.11v-.11a.67.67,0,0,0-.65-.67.66.66,0,0,0-.67.65v.13a18.93,18.93,0,0,0,1.3,6.57.65.65,0,0,0,.62.43.68.68,0,0,0,.23,0A.67.67,0,0,0,605,77m30-8.2a36.67,36.67,0,0,0-5.18-4.31.66.66,0,0,0-.75,1.1,35.21,35.21,0,0,1,5,4.15.63.63,0,0,0,.46.2.67.67,0,0,0,.47-.2.66.66,0,0,0,0-.94M611.3,60.94a.66.66,0,0,0-.82-.46,10.82,10.82,0,0,0-5.86,3.69.67.67,0,0,0,.11.93.66.66,0,0,0,.41.14.66.66,0,0,0,.52-.25,9.54,9.54,0,0,1,5.16-3.23.66.66,0,0,0,.47-.82m12.6.42a23.68,23.68,0,0,0-6.62-1.46.66.66,0,1,0-.09,1.32,22.39,22.39,0,0,1,6.26,1.38.57.57,0,0,0,.23,0,.66.66,0,0,0,.23-1.29"/><path class="cls-2" d="M607.38,472.59c-1.73,0-3.48.07-5.26.07h-1.34a.66.66,0,0,0,0,1.33h1.41c1.76,0,3.53,0,5.24-.07a.65.65,0,0,0,.64-.68.67.67,0,0,0-.68-.64m-13.21-.08c-2.14-.08-4.36-.2-6.6-.34a.67.67,0,0,0-.08,1.33c2.25.14,4.48.25,6.64.33h0a.66.66,0,0,0,0-1.32m26.38-.76c-2.13.22-4.34.4-6.57.55a.66.66,0,0,0,0,1.33h0c2.24-.14,4.47-.32,6.63-.55a.66.66,0,0,0-.14-1.32M581,471.63c-2.2-.24-4.4-.56-6.51-.94a.66.66,0,0,0-.24,1.31c2.14.39,4.37.7,6.6,1h.08a.66.66,0,0,0,.07-1.32m53.36-1.36a.66.66,0,0,0-.78-.51c-2.1.42-4.28.82-6.49,1.15a.67.67,0,0,0,.1,1.32h.1c2.23-.34,4.43-.72,6.55-1.16a.65.65,0,0,0,.51-.78m-66.29-1c-2.14-.55-4.26-1.19-6.28-1.91a.66.66,0,0,0-.44,1.25c2.06.72,4.21,1.38,6.39,1.93a.46.46,0,0,0,.16,0,.67.67,0,0,0,.17-1.31m79.07-2.48a.66.66,0,0,0-.84-.42c-2,.67-4.16,1.31-6.31,1.87a.66.66,0,0,0,.17,1.3l.17,0c2.18-.57,4.33-1.21,6.39-1.89a.67.67,0,0,0,.42-.84m-91.43-1.88a63.27,63.27,0,0,1-5.82-3,.66.66,0,0,0-.67,1.15,65.25,65.25,0,0,0,5.93,3.09.66.66,0,0,0,.55-1.21m103.63-3.24a.66.66,0,0,0-.89-.3c-1.92,1-3.94,1.87-6,2.72a.66.66,0,0,0,.25,1.27.69.69,0,0,0,.26-.05c2.07-.85,4.11-1.77,6.07-2.75a.66.66,0,0,0,.3-.89m-114.9-3.41a55,55,0,0,1-5-4.21.66.66,0,1,0-.91,1,57.31,57.31,0,0,0,5.12,4.31.69.69,0,0,0,.4.13.66.66,0,0,0,.53-.27.67.67,0,0,0-.13-.93m126.17-3.53a.67.67,0,0,0-.93-.15c-1.75,1.27-3.59,2.49-5.47,3.62a.67.67,0,0,0-.22.91.65.65,0,0,0,.57.32.64.64,0,0,0,.34-.1c1.91-1.15,3.78-2.39,5.56-3.67a.67.67,0,0,0,.15-.93m10-8.7a.66.66,0,0,0-.94,0c-1.54,1.56-3.15,3.06-4.79,4.48a.66.66,0,0,0-.07.94.65.65,0,0,0,.51.23.67.67,0,0,0,.43-.15c1.67-1.44,3.32-3,4.88-4.56a.66.66,0,0,0,0-.94m-145.62,3.25a53.34,53.34,0,0,1-3.86-5.28.66.66,0,0,0-1.12.72,53.67,53.67,0,0,0,4,5.41.64.64,0,0,0,.51.24.68.68,0,0,0,.43-.16.66.66,0,0,0,.09-.93m154-13.44a.66.66,0,0,0-.92.16c-1.28,1.79-2.64,3.53-4,5.19a.66.66,0,0,0,.08.93.65.65,0,0,0,.42.16.68.68,0,0,0,.51-.24c1.41-1.68,2.78-3.45,4.09-5.27a.66.66,0,0,0-.16-.92m-161.08,2.45a53.17,53.17,0,0,1-2.44-6.07.66.66,0,0,0-1.26.42,54,54,0,0,0,2.51,6.22.65.65,0,0,0,.59.38.73.73,0,0,0,.29-.06.67.67,0,0,0,.31-.88m168-13.75a.66.66,0,0,0-.9.27c-1,2-2.14,3.88-3.26,5.72a.65.65,0,0,0,.57,1,.65.65,0,0,0,.56-.31c1.15-1.86,2.26-3.8,3.31-5.78a.66.66,0,0,0-.28-.9m-172.08,1.37a56,56,0,0,1-.91-6.48.66.66,0,0,0-1.32.11,55.86,55.86,0,0,0,.94,6.63.66.66,0,0,0,.65.53h.13a.66.66,0,0,0,.52-.78m177.55-13.43a.66.66,0,0,0-.86.37c-.82,2.07-1.69,4.11-2.59,6.06a.67.67,0,0,0,.61.94.65.65,0,0,0,.6-.38c.9-2,1.79-4,2.62-6.13a.66.66,0,0,0-.37-.86m-178.51-6.86a.67.67,0,0,0-.76.55,56.44,56.44,0,0,0-.65,6.67.66.66,0,0,0,.63.69h0a.66.66,0,0,0,.66-.63,56.92,56.92,0,0,1,.63-6.51.66.66,0,0,0-.55-.76M705.6,400a.67.67,0,0,0-.83.45c-.64,2.14-1.32,4.26-2,6.28a.66.66,0,0,0,.41.84.78.78,0,0,0,.22,0,.67.67,0,0,0,.63-.45c.7-2,1.39-4.17,2-6.34a.66.66,0,0,0-.45-.82m-179.05-7a.66.66,0,0,0-.86.36,55.83,55.83,0,0,0-2.2,6.33.66.66,0,0,0,.46.82.58.58,0,0,0,.18,0,.65.65,0,0,0,.63-.49,56.43,56.43,0,0,1,2.14-6.18.65.65,0,0,0-.36-.86m182.36-5.83a.66.66,0,0,0-.79.5c-.5,2.18-1,4.34-1.56,6.42a.66.66,0,0,0,.48.81l.16,0a.66.66,0,0,0,.64-.5c.55-2.09,1.08-4.26,1.57-6.46a.66.66,0,0,0-.5-.79m-175.67-5.58a.66.66,0,0,0-.93.13,54,54,0,0,0-3.67,5.62.66.66,0,0,0,.25.9.7.7,0,0,0,.32.08.65.65,0,0,0,.58-.33,52.51,52.51,0,0,1,3.58-5.48.66.66,0,0,0-.13-.92m178.9-7.27a.67.67,0,0,0-.82.45c-.61,2.09-1.2,4.25-1.73,6.42a.66.66,0,0,0,.48.8l.16,0a.66.66,0,0,0,.65-.51c.53-2.16,1.11-4.3,1.72-6.37a.67.67,0,0,0-.45-.82M542.6,372.2a.66.66,0,0,0-.93-.11,51.59,51.59,0,0,0-5,4.48.66.66,0,0,0,0,.94.65.65,0,0,0,.47.19.67.67,0,0,0,.47-.2,48.71,48.71,0,0,1,4.86-4.37.66.66,0,0,0,.11-.93m11.47-6.55a.66.66,0,0,0-.87-.35,50.88,50.88,0,0,0-6,3,.66.66,0,0,0-.24.9.66.66,0,0,0,.91.24,49.86,49.86,0,0,1,5.84-2.93.66.66,0,0,0,.35-.87m162.53-3.84a.66.66,0,0,0-.86.36c-.84,2-1.63,4.11-2.37,6.22a.66.66,0,0,0,.4.84.64.64,0,0,0,.22,0,.68.68,0,0,0,.63-.45c.73-2.09,1.52-4.16,2.34-6.16a.66.66,0,0,0-.36-.86m-150.4-1.46a.66.66,0,0,0-.9-.25,50.82,50.82,0,0,1-5.89,2.84.67.67,0,0,0,.26,1.28.68.68,0,0,0,.25-.05,53.37,53.37,0,0,0,6-2.91.67.67,0,0,0,.25-.9M576.37,352a.67.67,0,0,0-.94.06,36.24,36.24,0,0,1-4.73,4.46.66.66,0,0,0-.11.93.65.65,0,0,0,.52.26.67.67,0,0,0,.41-.14,38.1,38.1,0,0,0,4.9-4.62.66.66,0,0,0-.06-.94m146.1-2a.66.66,0,0,0-.9.24c-1.08,1.89-2.12,3.88-3.1,5.91a.66.66,0,0,0,.31.88.61.61,0,0,0,.28.07.66.66,0,0,0,.6-.37c1-2,2-4,3.06-5.82a.66.66,0,0,0-.25-.9m-139.81-9.54a.66.66,0,0,0-.84.43,30.21,30.21,0,0,1-2.6,5.93.66.66,0,0,0,.25.9.63.63,0,0,0,.32.09.66.66,0,0,0,.58-.34,31.72,31.72,0,0,0,2.72-6.18.66.66,0,0,0-.43-.83M729.89,339a.66.66,0,0,0-.93.11c-1.35,1.72-2.66,3.54-3.91,5.41a.66.66,0,0,0,.19.92.64.64,0,0,0,.36.11.66.66,0,0,0,.55-.29c1.23-1.85,2.52-3.64,3.85-5.33a.67.67,0,0,0-.11-.93m-145.48-11.1a.66.66,0,1,0-1.32.13c.11,1.13.17,2.25.17,3.36s-.05,2.1-.16,3.12a.67.67,0,0,0,.6.73h.06a.66.66,0,0,0,.66-.6c.1-1.07.15-2.16.15-3.25s-.06-2.33-.17-3.49M739,329.38a.66.66,0,0,0-.94-.05c-1.63,1.46-3.24,3-4.77,4.69a.66.66,0,0,0,.48,1.11.66.66,0,0,0,.48-.22c1.5-1.61,3.08-3.16,4.68-4.59a.66.66,0,0,0,.05-.94m10.79-7.65a.67.67,0,0,0-.91-.25,62.84,62.84,0,0,0-5.62,3.64.67.67,0,0,0-.14.93.66.66,0,0,0,.92.14,61.3,61.3,0,0,1,5.49-3.56.66.66,0,0,0,.25-.9m-166.66-.47a42,42,0,0,0-2.36-6.3.66.66,0,1,0-1.2.56,40,40,0,0,1,2.28,6.1.67.67,0,0,0,.64.48.55.55,0,0,0,.18,0,.66.66,0,0,0,.45-.82M762,316.74a.67.67,0,0,0-.82-.46,51.16,51.16,0,0,0-6.32,2.22.67.67,0,0,0-.36.87.67.67,0,0,0,.61.4.66.66,0,0,0,.26-.05,50.06,50.06,0,0,1,6.17-2.16.68.68,0,0,0,.46-.82m25.63.48a36.49,36.49,0,0,0-6.46-1.91.67.67,0,0,0-.78.53.66.66,0,0,0,.52.78,35.09,35.09,0,0,1,6.23,1.85.63.63,0,0,0,.25,0,.66.66,0,0,0,.24-1.28m-339.94-5.39a.66.66,0,0,0-.94,0,43.86,43.86,0,0,0-4.25,5.24.66.66,0,0,0,.2.92.68.68,0,0,0,.36.1.67.67,0,0,0,.56-.3,43,43,0,0,1,4.12-5.07.66.66,0,0,0,0-.94m326.79,2.75a43.58,43.58,0,0,0-6.72.36.66.66,0,0,0,.09,1.32H768a43.25,43.25,0,0,1,6.51-.35.66.66,0,1,0,0-1.32m-197-5.47a50.1,50.1,0,0,0-4.07-5.34.65.65,0,0,0-.93-.07.66.66,0,0,0-.07.94,49.68,49.68,0,0,1,4,5.2.65.65,0,0,0,.55.3.66.66,0,0,0,.55-1M457.63,303a.67.67,0,0,0-.93-.13c-1.79,1.37-3.52,2.81-5.14,4.28a.66.66,0,0,0,.44,1.15.64.64,0,0,0,.45-.17c1.6-1.44,3.3-2.86,5.06-4.2a.66.66,0,0,0,.13-.93m11.16-7.15a.67.67,0,0,0-.9-.26c-2,1.07-3.88,2.22-5.73,3.43a.67.67,0,0,0,.36,1.22.65.65,0,0,0,.36-.11c1.81-1.18,3.71-2.32,5.64-3.38a.67.67,0,0,0,.26-.9M568.72,299a56.85,56.85,0,0,0-5.25-4.17.66.66,0,0,0-.76,1.09,56.09,56.09,0,0,1,5.12,4.07.64.64,0,0,0,.44.17.66.66,0,0,0,.45-1.15m-87.88-8.6A.66.66,0,0,0,480,290c-2.08.79-4.15,1.66-6.15,2.58a.67.67,0,0,0-.32.88.67.67,0,0,0,.61.38.72.72,0,0,0,.28-.06c2-.91,4-1.77,6.06-2.56a.66.66,0,0,0,.38-.86m77,.88a63.59,63.59,0,0,0-6-2.92.66.66,0,1,0-.52,1.22,60.91,60.91,0,0,1,5.9,2.86.67.67,0,0,0,.32.08.65.65,0,0,0,.58-.34.66.66,0,0,0-.26-.9m-64.29-4.71a.66.66,0,0,0-.8-.49c-2.16.52-4.33,1.12-6.43,1.77a.66.66,0,0,0,.2,1.29.61.61,0,0,0,.2,0c2.07-.63,4.21-1.22,6.35-1.74a.66.66,0,0,0,.49-.8m52-.51c-2.1-.65-4.28-1.21-6.47-1.66a.66.66,0,1,0-.27,1.29c2.15.45,4.29,1,6.35,1.64a.65.65,0,0,0,.2,0,.66.66,0,0,0,.2-1.29m-39.67-2.35c-2.21.27-4.42.61-6.58,1a.66.66,0,0,0,.11,1.31h.11c2.14-.38,4.33-.71,6.51-1a.65.65,0,0,0,.58-.73.66.66,0,0,0-.74-.58m26.6-.39c-2.18-.26-4.42-.42-6.66-.5a.66.66,0,1,0,0,1.32c2.21.07,4.41.24,6.55.49h.07a.66.66,0,0,0,.08-1.32m-13.32-.53c-2.23,0-4.47.14-6.66.29a.66.66,0,0,0,0,1.33h0c2.16-.15,4.38-.24,6.59-.29a.66.66,0,0,0,.65-.67.64.64,0,0,0-.67-.65"/><path class="cls-2" d="M751.72,515.69a.66.66,0,0,0-.9.26c-1.21,2.18-2.11,3.48-2.12,3.5a.66.66,0,0,0,1.09.76c0-.05,1-1.36,2.19-3.61a.67.67,0,0,0-.26-.9m4.93-12.28a.66.66,0,0,0-.81.46,53.71,53.71,0,0,1-2.16,6.18.66.66,0,0,0,.36.86.57.57,0,0,0,.26.05.67.67,0,0,0,.61-.4,55,55,0,0,0,2.21-6.34.65.65,0,0,0-.46-.81m-42.95-6.12a.66.66,0,0,0-.88-.34,19.72,19.72,0,0,1-6.12,1.79.66.66,0,0,0,.05,1.32h.05a21.11,21.11,0,0,0,6.55-1.89.67.67,0,0,0,.33-.88m45-6.39a.65.65,0,0,0-.7-.62.67.67,0,0,0-.62.71c0,.71.07,1.44.07,2.16a37,37,0,0,1-.27,4.33.65.65,0,0,0,.57.74h.08a.67.67,0,0,0,.66-.58,37,37,0,0,0,.28-4.5c0-.76,0-1.51-.08-2.24m-57.07,5.72a7.26,7.26,0,0,1-.85-3.73,14.63,14.63,0,0,1,.2-2.29.66.66,0,0,0-.55-.76.65.65,0,0,0-.75.55,15.58,15.58,0,0,0-.21,2.49,8.64,8.64,0,0,0,1,4.4.66.66,0,0,0,.91.24.67.67,0,0,0,.24-.91m23-6.84a.66.66,0,0,0-.94,0,30.41,30.41,0,0,1-5,4.06.66.66,0,0,0,.36,1.22.64.64,0,0,0,.36-.11,31.39,31.39,0,0,0,5.26-4.24.67.67,0,0,0,0-.94m6.29-11.49a.67.67,0,0,0-.82.46,25.54,25.54,0,0,1-2.48,5.94.65.65,0,0,0,.24.9.66.66,0,0,0,.91-.24,27,27,0,0,0,2.61-6.25.66.66,0,0,0-.46-.82m26.62,6a27.58,27.58,0,0,0-2.77-6.18.66.66,0,0,0-.91-.22.65.65,0,0,0-.22.91,26.59,26.59,0,0,1,2.63,5.89.66.66,0,0,0,.63.46.69.69,0,0,0,.2,0,.66.66,0,0,0,.44-.83m-51.68-6.42a.66.66,0,0,0-.92.18,38.77,38.77,0,0,0-3.25,5.91.66.66,0,0,0,.34.87.62.62,0,0,0,.26.05.66.66,0,0,0,.61-.4,37.87,37.87,0,0,1,3.14-5.7.66.66,0,0,0-.18-.92m44.77-5.1a36.88,36.88,0,0,0-5.14-4.36.66.66,0,0,0-.77,1.08,35.57,35.57,0,0,1,5,4.2.66.66,0,0,0,.94,0,.66.66,0,0,0,0-.94m-35.6-4.39a.67.67,0,0,0-.93-.13,37.66,37.66,0,0,0-5,4.52.66.66,0,0,0,0,.94.67.67,0,0,0,.94,0,36.35,36.35,0,0,1,4.82-4.36.66.66,0,0,0,.14-.93m17.23-2.63a.66.66,0,0,0-.73-.59.67.67,0,0,0-.59.73,41,41,0,0,1,.26,4.48c0,.68,0,1.37-.06,2a.67.67,0,0,0,.63.7h0a.66.66,0,0,0,.66-.63c0-.69.06-1.4.06-2.1a44,44,0,0,0-.26-4.62m7.44-.78a24.14,24.14,0,0,0-6.47-2,.66.66,0,0,0-.76.55.67.67,0,0,0,.55.76,22.84,22.84,0,0,1,6.12,1.93.72.72,0,0,0,.28.06.66.66,0,0,0,.28-1.26m-13.28-2.1a24.79,24.79,0,0,0-6.51,1.92.66.66,0,0,0,.27,1.27.64.64,0,0,0,.27-.05,23.32,23.32,0,0,1,6.16-1.82.66.66,0,1,0-.19-1.32m4.67-3.73c-.48-2.07-1.11-4.23-1.86-6.43a.66.66,0,0,0-.84-.42.67.67,0,0,0-.42.84c.73,2.16,1.35,4.28,1.83,6.31a.66.66,0,0,0,.65.5h.15a.66.66,0,0,0,.49-.8m-4.25-12.67c-.84-2-1.79-4-2.8-6.05a.66.66,0,0,0-1.19.59c1,2,1.94,4,2.77,6a.67.67,0,0,0,.61.4.73.73,0,0,0,.26-.05.67.67,0,0,0,.35-.87m-5.94-11.95c-1.07-1.89-2.22-3.82-3.42-5.72a.66.66,0,0,0-.91-.21.67.67,0,0,0-.21.92c1.18,1.88,2.32,3.8,3.38,5.67a.66.66,0,0,0,.57.34.66.66,0,0,0,.58-1m-7.09-11.29c-2.32-3.35-3.94-5.39-4-5.41a.66.66,0,0,0-1,.83s1.61,2,3.9,5.33a.65.65,0,0,0,.55.29.67.67,0,0,0,.38-.12.67.67,0,0,0,.16-.92"/><path class="cls-2" d="M767.27,300.44a.66.66,0,0,0-.94,0c-3,2.91-4.83,4.52-4.85,4.54a.66.66,0,0,0,.44,1.16.65.65,0,0,0,.44-.17s1.85-1.65,4.89-4.58a.66.66,0,0,0,0-.94m9.35-9.44a.67.67,0,0,0-.94,0c-1.54,1.62-3.1,3.22-4.62,4.75a.66.66,0,0,0,.47,1.13.66.66,0,0,0,.47-.2c1.54-1.54,3.09-3.15,4.65-4.77a.66.66,0,0,0,0-.94m9-9.79a.65.65,0,0,0-.93.06c-1.46,1.64-3,3.29-4.44,4.91a.66.66,0,0,0,0,.94.68.68,0,0,0,.45.17.66.66,0,0,0,.49-.22c1.5-1.63,3-3.29,4.46-4.93a.66.66,0,0,0-.06-.94m8.6-10.11a.66.66,0,0,0-.93.09c-1.39,1.69-2.82,3.4-4.26,5.08a.67.67,0,0,0,.08.94.65.65,0,0,0,.93-.07c1.44-1.69,2.88-3.4,4.27-5.1a.67.67,0,0,0-.09-.94m8.18-10.45a.67.67,0,0,0-.93.14c-1.32,1.75-2.67,3.51-4,5.24a.66.66,0,0,0,.12.93.66.66,0,0,0,.4.14.69.69,0,0,0,.53-.25c1.37-1.75,2.74-3.52,4.06-5.27a.67.67,0,0,0-.14-.93m7.71-10.79a.67.67,0,0,0-.92.17c-1.23,1.81-2.5,3.63-3.8,5.43a.66.66,0,0,0,.54,1,.65.65,0,0,0,.54-.28c1.29-1.8,2.58-3.63,3.82-5.45a.66.66,0,0,0-.17-.92m7.15-11.18a.66.66,0,0,0-.91.23c-1.12,1.85-2.3,3.73-3.51,5.61a.66.66,0,0,0,.2.91.65.65,0,0,0,.36.11.66.66,0,0,0,.55-.3c1.21-1.88,2.4-3.78,3.53-5.64a.66.66,0,0,0-.22-.91m6.49-11.56a.66.66,0,0,0-.9.28c-1,1.92-2.07,3.88-3.16,5.8a.66.66,0,0,0,.26.9.63.63,0,0,0,.32.09.67.67,0,0,0,.58-.34c1.09-1.94,2.16-3.91,3.18-5.85a.66.66,0,0,0-.28-.89m5.67-12a.66.66,0,0,0-.87.35c-.86,2-1.78,4-2.74,6a.66.66,0,0,0,.31.88.73.73,0,0,0,.29.06A.65.65,0,0,0,827,222c1-2,1.89-4.07,2.76-6.07a.66.66,0,0,0-.34-.87M842.79,211a.67.67,0,0,0-.9-.28,19.91,19.91,0,0,1-6,2,.66.66,0,0,0,.1,1.32h.11a21.21,21.21,0,0,0,6.45-2.16.67.67,0,0,0,.28-.9m-13.29,1.58a20.78,20.78,0,0,1-6-2.31.66.66,0,0,0-.65,1.15,22.23,22.23,0,0,0,6.34,2.46h.13a.66.66,0,0,0,.14-1.32m4.54-9.92a.66.66,0,0,0-.84.42c-.66,2-1.4,4.13-2.18,6.22a.66.66,0,0,0,.39.86.68.68,0,0,0,.23,0,.65.65,0,0,0,.62-.42c.8-2.11,1.54-4.23,2.21-6.29a.65.65,0,0,0-.43-.83m18.61-.38a.66.66,0,0,0-.93.1,38.39,38.39,0,0,1-4.51,4.69.66.66,0,0,0-.07.94.66.66,0,0,0,.94.07,39.58,39.58,0,0,0,4.67-4.85.66.66,0,0,0-.09-.93m-34.32,4.16a42.8,42.8,0,0,1-4.46-4.75.67.67,0,0,0-.94-.09.66.66,0,0,0-.09.93,44.15,44.15,0,0,0,4.6,4.89.64.64,0,0,0,.44.18.66.66,0,0,0,.45-1.15M859.51,191a.67.67,0,0,0-.88.31,60.55,60.55,0,0,1-3.13,5.76.67.67,0,0,0,.22.92.67.67,0,0,0,.91-.22,62.55,62.55,0,0,0,3.2-5.89.66.66,0,0,0-.32-.88m-22.15-1.14a.66.66,0,0,0-.78.52c-.42,2.1-.93,4.26-1.5,6.41a.66.66,0,0,0,.47.81l.17,0a.67.67,0,0,0,.64-.5c.58-2.17,1.09-4.36,1.52-6.49a.67.67,0,0,0-.52-.78m-27.27,6.55a23.82,23.82,0,0,1-2.44-5.95.66.66,0,0,0-.8-.48.67.67,0,0,0-.48.81,25.26,25.26,0,0,0,2.58,6.28.66.66,0,0,0,.57.33.66.66,0,0,0,.57-1m53.84-17.89a.66.66,0,0,0-.8.5c-.15.65-.32,1.31-.51,1.93-.45,1.46-.93,2.91-1.44,4.31a.66.66,0,0,0,.39.85.71.71,0,0,0,.23,0,.66.66,0,0,0,.62-.43c.53-1.42,1-2.9,1.47-4.38.2-.65.38-1.34.53-2a.67.67,0,0,0-.5-.8m-56.65-1.65a.67.67,0,0,0-.8.48,28.6,28.6,0,0,0-.9,6.71.67.67,0,0,0,.65.67h0a.67.67,0,0,0,.67-.65,27.75,27.75,0,0,1,.86-6.4.66.66,0,0,0-.48-.81m31.75-.15a.65.65,0,0,0-.7.63c-.11,2-.34,4.24-.65,6.54a.67.67,0,0,0,.57.75h.09a.67.67,0,0,0,.66-.57c.32-2.34.54-4.57.66-6.65a.67.67,0,0,0-.63-.7m25.84-10.82a.66.66,0,0,0-1.32.17,42.35,42.35,0,0,1,.38,5.54c0,.32,0,.65,0,1a.66.66,0,0,0,.65.68h0a.66.66,0,0,0,.66-.65c0-.33,0-.67,0-1a43.87,43.87,0,0,0-.38-5.71m-51.62-.78a.66.66,0,0,0-.92.14,36.14,36.14,0,0,0-3.51,5.76.67.67,0,0,0,.31.89.62.62,0,0,0,.29.07.66.66,0,0,0,.59-.38,34.83,34.83,0,0,1,3.38-5.54.66.66,0,0,0-.14-.93M838.61,164a.67.67,0,0,0-1.28.36,30.28,30.28,0,0,1,1,6.39.66.66,0,0,0,.66.62h0a.66.66,0,0,0,.62-.7,32.15,32.15,0,0,0-1.05-6.67m-15.24-7.28a.65.65,0,0,0-.88-.31,24.82,24.82,0,0,0-5.62,3.82.66.66,0,0,0-.06.94.67.67,0,0,0,.5.22.64.64,0,0,0,.44-.17,23.3,23.3,0,0,1,5.31-3.61.66.66,0,0,0,.31-.88m40.18,2.55a61.37,61.37,0,0,0-2.08-6.36.66.66,0,0,0-1.23.48,60.11,60.11,0,0,1,2,6.23.66.66,0,0,0,.64.49l.17,0a.66.66,0,0,0,.47-.82m-28.08-1.38a8.89,8.89,0,0,0-6.26-3,.65.65,0,0,0-.7.62.67.67,0,0,0,.63.7,7.61,7.61,0,0,1,5.35,2.58.66.66,0,0,0,.49.22.65.65,0,0,0,.45-.17.66.66,0,0,0,0-.94m23.27-11.1c-1-2-2.1-3.92-3.28-5.82a.66.66,0,0,0-.92-.21.66.66,0,0,0-.21.91c1.17,1.87,2.25,3.79,3.23,5.72a.66.66,0,0,0,.59.36.66.66,0,0,0,.3-.07.67.67,0,0,0,.29-.9m-7.07-11.33c-1.33-1.77-2.76-3.51-4.25-5.16a.66.66,0,0,0-1,.88c1.46,1.63,2.87,3.34,4.18,5.08a.64.64,0,0,0,.53.26.66.66,0,0,0,.53-1.06m-8.91-10c-1.62-1.52-3.32-3-5.05-4.37a.66.66,0,0,0-.83,1c1.71,1.35,3.38,2.8,5,4.29a.66.66,0,0,0,.46.18.64.64,0,0,0,.48-.21.66.66,0,0,0,0-.94m-10.46-8.29c-1.86-1.23-3.79-2.39-5.74-3.43a.66.66,0,0,0-.63,1.17c1.91,1,3.8,2.16,5.64,3.37a.64.64,0,0,0,.36.11.65.65,0,0,0,.55-.3.66.66,0,0,0-.19-.92m-11.76-6.33c-2-.88-4.16-1.66-6.26-2.33a.66.66,0,1,0-.4,1.26c2.07.66,4.13,1.43,6.15,2.29a.66.66,0,0,0,.26.05.68.68,0,0,0,.61-.4.66.66,0,0,0-.35-.87m-12.72-4.07c-2.16-.47-4.38-.85-6.59-1.12a.66.66,0,0,0-.16,1.31c2.16.26,4.34.63,6.47,1.1l.14,0a.67.67,0,0,0,.14-1.32m-13.25-1.62c-2.19-.07-4.45,0-6.68.11a.66.66,0,0,0,0,1.32h0c2.2-.13,4.41-.17,6.57-.1a.66.66,0,0,0,0-1.33"/><path class="cls-6" d="M282.77,494s16.94-32.07,37.55-37.15,51,4.54,38.68,9.88c-6.33,2.73-13.08,2.57-18.66,4.08a35.72,35.72,0,0,0-11,5s25.6-4.24,26.46,3.22c.72,6.17-26.84,14.52-26.84,14.52s31.55-5.34,26.2,2.69-26,12.53-26,12.53,42.39-.63,36,8.55-35,.3-37.67,9.65-2.14,42.08-29,37.93Z"/><path class="cls-7" d="M550.6,995H266.41c-4.1-37.51-6.79-70.06-8.52-97.55l-.05-.89a41.9,41.9,0,0,1,.36-8c.08-.5.16-1,.26-1.48a24.21,24.21,0,0,1,10.41-16.07c20.66-13.95,66.08-2.95,99.86,8.43,10,3.35,18.91,6.74,25.91,9.53q-.26-4.73-.49-9.23c-.67-13.22-1.1-25-1.36-35.27-.93-35.6.11-53.69.11-53.69L516,818.06l29.62,6.54.29,10.55L547.14,882l.4,15.11.32,12.09v0l1.59,59.8Z"/><path class="cls-6" d="M443.84,510.85c-13.23,15.15-48,26.71-66.64,19.07-14.94-6.13-1.78-19.7.28-21.93,5.08-5.53,9.25-6.86,9.53-13.22l.41-9.36.33-7.56q-.88-.07-1.77-.18c-26-3.16-43.68-29.3-39.57-58.37s28.49-50.08,54.45-46.91,43.68,29.3,39.57,58.37c-2.61,18.48-13.41,33.7-27.6,41.52l7.07,21.18C423,502.81,443.74,510.83,443.84,510.85Z"/><path class="cls-6" d="M353.1,429c3.28-4.32,9.32-5.62,13.48-2.9s4.87,8.44,1.59,12.76-9.32,5.62-13.48,2.9-4.87-8.44-1.59-12.76"/><path class="cls-2" d="M466.27,439.19a.67.67,0,0,1-.65-.52c-1.31-5.47-6.95-8.61-7-8.65a.67.67,0,0,1,.65-1.18c.25.14,6.22,3.46,7.66,9.52a.67.67,0,0,1-.5.81l-.16,0"/><path class="cls-2" d="M458.94,427a.67.67,0,0,1,0-1.34c.08,0,7.41-.5,8.46-5.75a.67.67,0,0,1,1.32.26c-1.25,6.28-9.36,6.81-9.7,6.83h0"/><path class="cls-8" d="M455.41,428h0c-5.26,32.58-29.16,51.81-49.08,51-22.55-.92-7.61-13.54-24.53-21.31s-17.88-13.48-14.06-28.05c1.73-6.6-3.26-15.51-9.24-23.29-21.55-2-32.06-14.82-32.34-26.82-.4-17.25,11.29-32.53,24.91-26.11s7.77-9.31,20.87-11c24.47-3.12,29.06,13,49.08,13.82C447.43,357.28,477.54,398.15,455.41,428Zm-100.24-75.6a4.52,4.52,0,0,0,2.6-.82c3.47-2.37,4.21-9.19,4.24-9.48a.67.67,0,1,0-1.34-.14c0,.06-.7,6.48-3.67,8.51a3.35,3.35,0,0,1-2.94.42,18.37,18.37,0,0,1-5.18-2.58c-3-1.95-6.15-4-12.42-2.08a.67.67,0,0,0,.39,1.29c5.67-1.7,8.28,0,11.31,1.92a19.46,19.46,0,0,0,5.55,2.74,5.46,5.46,0,0,0,1.45.21m63.77,1.74a20.83,20.83,0,0,0,3.08-.23.67.67,0,0,0-.2-1.33c-10.38,1.55-19.27-6.13-19.36-6.21a.67.67,0,1,0-.89,1c.34.3,7.8,6.75,17.37,6.75"/><path class="cls-2" d="M360.35,443.62a6.91,6.91,0,0,1-1.86-.22.32.32,0,1,1,.2-.62c.25.08,6.14,1.82,10.29-5.88a.32.32,0,1,1,.57.31c-3,5.5-6.91,6.41-9.2,6.41"/><path class="cls-3" d="M257.89,897.49s196.65-10.74,290,11.75l1.39-26.6L418.4,843.89l-105.65,2.6-32.45,6.92-22.9,35.37Z"/><path class="cls-9" d="M553.67,831.32c-1.74,39.34-5.19,66-5.19,66-172.13-34.31-291.09-8.53-291.09-8.53,3.77-52.84,4.19-101.36,4.53-144.88-12,6-28,11.71-44.8,11.29-33.88-.84-60.71-39.82-48-79.48,14.06-73.84,118.94-190.5,118.94-190.5l36.45,28.72,1.15.9c15.71-8.14,35.36-13.22,59.94-15,6.81-.51,14-.76,21.58-.76,34.46,0,59.55,7.89,77.7,18.53h0c2.24,1.12,146,73.32,163.15,200.41C655.16,763.85,598.11,808.57,553.67,831.32Z"/><path class="cls-9" d="M386,499l-.34.76c-24.58,1.82-44.23,6.9-59.94,15l-1.15-.9C357,499.45,386,499,386,499Z"/><path class="cls-3" d="M203.85,663.75l-1.16-.59c.62-1.22,62.87-122.77,123.42-150.45l.54,1.18c-60.14,27.48-122.18,148.64-122.8,149.86"/><path class="cls-2" d="M554,838.94l-1.3-.07C557.8,745,541.19,648.95,541,648l1.28-.22c.17,1,16.8,97.18,11.66,191.18"/><path class="cls-3" d="M262.25,744.46l-.66-1.12c34.78-20.51,80-74.57,80.49-75.11l1,.83c-.46.55-45.86,54.77-80.83,75.39"/><path class="cls-10" d="M526.62,256.15a4.15,4.15,0,1,1,4.15,4.15,4.15,4.15,0,0,1-4.15-4.15"/><path class="cls-10" d="M388.57,118.1a4.15,4.15,0,1,1,4.15,4.15,4.15,4.15,0,0,1-4.15-4.15"/><path class="cls-10" d="M202.17,233.48a4.15,4.15,0,1,1,4.15,4.15,4.15,4.15,0,0,1-4.15-4.15"/><path class="cls-10" d="M290.6,354a4.15,4.15,0,1,1,4.15,4.15A4.15,4.15,0,0,1,290.6,354"/><path class="cls-10" d="M405.25,282.25a4.15,4.15,0,1,1,4.15,4.15,4.15,4.15,0,0,1-4.15-4.15"/><path class="cls-10" d="M433.39,325.14a4.15,4.15,0,1,1,4.15,4.15,4.15,4.15,0,0,1-4.15-4.15"/><path class="cls-10" d="M57.14,308.75a4.15,4.15,0,1,1,4.15,4.15,4.15,4.15,0,0,1-4.15-4.15"/><path class="cls-10" d="M780.65,327.46a.59.59,0,0,1-.43-1c4-4.14,11.63-4.94,14.08-5.09-2-6.66-9.67-11.73-9.75-11.79a.59.59,0,0,1,.65-1c.35.23,8.64,5.74,10.45,13.2a.59.59,0,0,1-.56.73c-.1,0-9.69.25-14,4.76a.59.59,0,0,1-.43.18"/><path class="cls-10" d="M788.05,115.49a.59.59,0,0,1-.28-.07c-.37-.2-9.08-5-11.5-12.28a.59.59,0,0,1,.5-.78c.1,0,9.63-1.05,13.56-5.9a.59.59,0,1,1,.92.75c-3.61,4.45-11.18,5.88-13.61,6.23,2.59,6.46,10.61,10.89,10.7,10.94a.59.59,0,0,1-.28,1.11"/><path class="cls-10" d="M529.85,160.2a.59.59,0,0,1-.32-.09c-.36-.23-8.73-5.61-10.65-13a.59.59,0,0,1,.55-.74c.1,0,9.68-.4,13.93-5a.59.59,0,1,1,.87.81c-3.9,4.2-11.55,5.12-14,5.31,2.15,6.62,9.86,11.58,9.94,11.63a.59.59,0,0,1-.32,1.09"/><path class="cls-10" d="M12.95,103a.59.59,0,0,1-.58-.47C11.16,97,14.8,90.17,16,88.06,9.39,86,.91,89.49.82,89.53a.59.59,0,0,1-.45-1.09c.39-.16,9.6-3.93,16.78-1.26a.59.59,0,0,1,.29.88c-.05.08-5.22,8.16-3.91,14.26a.59.59,0,0,1-.45.7h-.12"/><path class="cls-10" d="M47.38,543.62a.59.59,0,0,1-.51-.9c0-.08,4.73-8,3.69-14.85-2.27.92-9.53,3.52-14.89,1.51a.59.59,0,0,1,.42-1.11c5.85,2.2,14.6-1.73,14.68-1.77a.59.59,0,0,1,.83.42c1.59,7.5-3.49,16.05-3.71,16.42a.59.59,0,0,1-.51.29"/></g></g></svg>