<svg xmlns="http://www.w3.org/2000/svg" viewBox="0 0 484.34 1043.84"><defs><style>.cls-1{fill:#ffa18c;}.cls-2{fill:#ffa114;}.cls-3{fill:#786bb5;}.cls-4{fill:#303032;}.cls-5{fill:#b57069;}.cls-6{fill:#ffd178;}.cls-7{fill:#ff7d03;}.cls-8{fill:#734f2b;}.cls-9{fill:#ffba40;}</style></defs><title>09_faq-perso-bulle</title><g id="Calque_2" data-name="Calque 2"><g id="Calque_8" data-name="Calque 8"><path class="cls-1" d="M239.95,835.48s-3.92,10.46-.46,54.46,6.59,93.11,6.59,93.11l28,4.13,15.84-148.33Z"/><path class="cls-1" d="M142.17,836.68s-5.11,9.94-6.76,54S131.16,984,131.16,984l28.47-1.12,31.78-137Z"/><path class="cls-2" d="M301.23,594.24l-6.52,266.31c-13,13.15-62.53-.42-62.53-.42s-6.6-238.06-7.22-259.88c0,0,10.57-35,76.27-6"/><path class="cls-2" d="M135,855.89l25.83-248.14s-2.21-53.15,19.5-94.88l118.65,2,2.25,79.37-54,22.08C235.37,669.6,192.8,858.92,192.8,858.92c-24,16.42-57.8-3-57.8-3"/><path class="cls-2" d="M280.78,314.21,371.1,407.7l-21.54,33.37S298.16,417.79,286,395.82s-5.2-81.6-5.2-81.6"/><path class="cls-3" d="M240.94,302.64c1,.81,25.2,5.26,36.56,9.44s24.07,44.6,25.72,69S299,514.87,299,514.87c-10.4,15-118.65-2-118.65-2S148.19,407.12,148.5,350.09c.1-18,5.58-29.71,5.58-29.71l49.15-17.88Z"/><path class="cls-4" d="M275.64,219.84s-1.34,20.81,5.47,41.81,10.54,24.54,10.36,25.4-4,3.52-10,2.52-6.59,1.59-13.11,5.84-9.68-1.44-14.49,2.34-15.47,5.58-17.85,4.79,4.4-33.74,4.4-33.74l16.47-53.57Z"/><path class="cls-1" d="M203.43,301.91a15.08,15.08,0,0,0,9.16,18.41,42.81,42.81,0,0,0,16.53,3.18l.74,0c10.08-.53,17.07-10.71,13.63-20.2-.32-.9-.62-1.8-.9-2.71a80.28,80.28,0,0,1-3.13-20.17l-35.13-15.7a66,66,0,0,1,1.87,23.64,68.51,68.51,0,0,1-2.76,13.58"/><path class="cls-5" d="M206.19,288.33a51.29,51.29,0,0,0,36.39,12.23,80.24,80.24,0,0,1-3.13-20.17l-35.13-15.7a66,66,0,0,1,1.87,23.64"/><path class="cls-1" d="M178.9,232.65c5-2.25,9.44.33,12.39,3.12a129,129,0,0,1-2.23-26.32c.46-29.13,54.78-31.53,67.78-25.9s13.92,40.49,13.94,46.07c0,0,2.84,32.25-11.22,49.78S218,293,207.67,277a114.36,114.36,0,0,1-6.77-12.09c-2.36.4-10,1.05-17.7-5.41-9.21-7.77-13.49-22.74-4.29-26.86"/><path class="cls-4" d="M255.68,179.31s7.63-1.52,14.39,10.5,9.52,26.28,15.38,29.11c0,0-10.56,5-17.42,5,0,0-4.24-13.8-9.3-18.36,0,0,3.46,16.39,3.38,21.1,0,0-17.43,4.34-25.16,3.6l-4.47-14.11-1.58,14.43a76.48,76.48,0,0,1-16.38,1.49l-4.44-13.15s2.69,19.19-4.27,23.24c0,0,1.15,9.48-3,14.43,0,0-7.12-20.93-18.1-19.12s-4.13,19.21,2.58,23.21a30.53,30.53,0,0,0,13.71,4.1s4.25,8.26,5.18,9.8c0,0,1.94,15.76-.93,23.07s-12.17,4.92-14.47,3.3-6.32,1-11.23.24-5.1-4.19-7.91-4.19-6.49.5-8.27-2.82c0,0-.9-2.41-6.24-2s-10.56-2.33-12.41-7.28c0,0,15.9-11.37,13.42-38.34s1.75-38.84,8.92-43.67c0,0,2.12-18.54,30-30.25s49.38-2.87,58.64,6.71"/><path class="cls-6" d="M154.09,320.39s12,16,16,36.48-6.52,34.44-6.52,34.44l-63.46,65.18-23-26.75S99.37,391,122.88,356.06s31.2-35.68,31.2-35.68"/><path class="cls-1" d="M350.07,421.14c3.91-19.87,40.72-75.39,50.18-89.42.21-4.77,3.94-11.26,5.87-14.32,1.9-8.68,4.4-24.55,6.53-19,1.84,4.82,1.34,11.85.88,15.58L432,309.19c3-1.14,11.7-4.15,15.56-2.58,3.17,1.29-5.93,4.82-12.22,7l.46,1.15c3.71-1.4,13.42-4.78,17.19-3.25s-9.66,6.19-15.27,8l.85,2.11c.62-.25,12-4.83,16.56-3,3.61,1.46-8.68,5.84-14.61,7.81l.54,1.34c3.71-1.31,10.86-3.49,14.27-2.11,4.71,1.91-17.65,8.78-17.65,8.78l-18.27,8c-3.84,13.7-22.34,78.36-33.45,91.3-12.44,14.48-24.42,14.82-28.29,14.08s-12.1-3.94-7.61-26.76"/><path class="cls-1" d="M.81,340.8c3.32-1.57,10.59.2,14.37,1.3l.46-1.37c-6-1.63-18.55-5.3-15-7,4.47-2.11,16.06,1.81,16.7,2l.73-2.16c-5.71-1.52-19.37-5.42-15.71-7.15s13.57,1.08,17.35,2.27l.4-1.17c-6.4-1.81-15.69-4.83-12.59-6.29,3.77-1.78,12.61.73,15.68,1.7l18.72,3.78c-.66-3.7-1.56-10.69,0-15.61,1.81-5.71,5.2,10,7.59,18.55,2.09,2.94,6.19,9.22,6.67,14l-.18.13,44.16,112.67c-13.29,13.65-31.28,14.59-38.51,1.09-6.27-11.7-23.92-84.52-28.51-103.7l-14.18-5.31S-3.78,343,.81,340.8"/><path class="cls-7" d="M301.66,997.49c13.63,7.78,24.82,6.55,27,15.76,1.26,5.29-17.61,7.58-29.55,7.92s-26.76-3.32-37.3-4.77-18.17-2.4-19.51-4.11.09-23.17.86-26.69a9.84,9.84,0,0,1,2.74-5.18s5,2.34,14.71,3.67,8.34-4.62,14.12-3.13c4,1,13.29,8.77,26.92,16.54"/><path class="cls-8" d="M163.09,978.74s4.06,13.81,7.36,27.42,10.54,22.14,9.83,28-4.69,9.46-11.68,9.66-17.8-.66-25.59-8.31-11.7-22.11-13.27-26.15-6-17.77-6.09-19.58,8.42-23.59,8.42-23.59,3.17,11,7.05,14.06,12.34-8.76,24-1.49"/><path class="cls-4" d="M292.76,410.19s-27.32-.68-45.45,1.29-42,9.77-53.69,10.1m54.81-117s5.48,4.86,1.11,14.25-26.88,15.6-41.85,7.13-17.31-18.72-17.31-18.72"/><path class="cls-4" d="M194.46,851.54s-36.19,5.34-58.44-5.42m46.3-321.06s-4.07,3.4-8.78,63.41-29.69,260.3-29.69,260.3m61.25-320s-9.87,15.61-23.94,18.16m118.15-20.69s-6.9,5.66-39.19,6.81-84.82-9.29-84.82-9.29"/><path class="cls-4" d="M295,850.71s-9.44,4.38-28.37,2.78a257.17,257.17,0,0,1-34.74-5.43"/><path class="cls-4" d="M309.62,359.73s3.26,27,1.15,40.6m39,5.67s-8.67,8.44-8.23,24.11M94,422.86s6.2,17.29,6,29.05m55.67-116.7s11.17,30.48,5,50.82"/><path class="cls-9" d="M401.49,0c-45.76,0-82.85,36.7-82.85,82a81.74,81.74,0,0,0,39.51,69.87c-7.53,8.22-20,19.84-39.51,32.94,0,0,51.14-1.11,81.6-20.86.42,0,.83,0,1.25,0,45.76,0,82.85-36.7,82.85-82S447.25,0,401.49,0"/></g></g></svg>