<svg xmlns="http://www.w3.org/2000/svg" viewBox="0 0 598.37 27.92"><defs><style>.cls-1{fill:#fff;}</style></defs><title>10_temoignages-soulignement-experience</title><g id="Calque_2" data-name="Calque 2"><g id="Calque_9" data-name="Calque 9"><path class="cls-1" d="M542.56,3.45c.34.38,1,.1,1.37-.62l0,.08c.48.87.94-.33,1.12-.11.65.8,1.11.73,1.87.09.2-.17,1.07.84,1.7,1l.47.13a3.75,3.75,0,0,1,2-.25c.47.11,2.41.65,3.27.92l.7-.75a.46.46,0,0,1,.44,0c.8.38,1.59,1.07,2.4,1.1l.65,0c.64-.58,1.07-.12,1,1l1.29-1.29,1.07-1.08a4.37,4.37,0,0,0,3.1.47c.7-.28,2.72,1.2,3.46,1.15s3.18,1,3.91,1.26l0-1.22c0-.07.46-.28.54-.21l.93.87a3.59,3.59,0,0,1,2.87.43c.41.46,1.94-.46,2.31-.22a3.23,3.23,0,0,0,2.29.3c.5-.32,3.25-.14,4.79,0l1.32.8c.43.26,1.29-.47,2-.55l.49-.05a1.88,1.88,0,0,0,1.49.06l0,0,1.2,1.37c1.49-.67,2.86-.49,3.05.41s1.31,3,1.61,3,1.1,0,1.14.25a2.33,2.33,0,0,1-.83,1.5c-.49.34-.62,3.16-1.43,4.61l.21,1.84,0,.42c0,.66-.24,1-.43.82a.59.59,0,0,0-.92.22h0c1.32.77-.3,2,.32,2.83a.55.55,0,0,1,0,.48l-1.05,1.2a3.07,3.07,0,0,1-2.5,2.22l-1.12-1.22-.18-.2a7.2,7.2,0,0,1-2.72.75,30.71,30.71,0,0,0-3.87-.14h-1.25a12.1,12.1,0,0,0-1.72-.36,6.84,6.84,0,0,0-1.72,0,27.49,27.49,0,0,1-4.4.13c-1.71-.06-7-.24-8-.42s-3.63.86-3.86.85l-.21,0-1.29.1a8.72,8.72,0,0,0-3.69-.26c-.65.21-2.72-.55-3.26-.46a10.75,10.75,0,0,1-3.08,0c-.63-.21-3.77.15-5.28.17l-1.39,0-4.17-.11c-.86,0-2.21.31-2.47-.14-.6-1-1.48.38-1.93-.55-.09-.18-.59-.19-.88-.15-.65.11-1.61.68-1.87.4l-.9-1c-.7.65-1.66,1-2.12.7s-1.49-.44-2-.67-2.27.59-2.74.23-2.19.78-2.72.9-2.51-1.06-3.5-1.32L518.3,26l-.77.6a17.9,17.9,0,0,1-3.23-1,17.62,17.62,0,0,0-2.46-.67c-.75-.19-3.71,1.29-5.06,1.93l-.89-1.79c-.08-.16-.74-.2-.9,0-1.05,1.07-2.18-.81-3.25.19a1.88,1.88,0,0,1-1.44.34,23.8,23.8,0,0,0-2.61-.69l-.76,0a5.91,5.91,0,0,1-2.39.38,12.28,12.28,0,0,1-2.59-.45c-.4-.27-2,.66-2.53.91s-1.9-.9-2.41-.64a9.94,9.94,0,0,1-3.68-.23l-.83,0c-.81,0-1.63.3-2.44.26l-1.5-.08a38.74,38.74,0,0,0-5.9-.55l-1.37.48-1.2.41a18.33,18.33,0,0,0-4.71-.62l-1.28,0-3.85-.1-3.85-.1-3.85-.1c-1.28,0-2.57-.12-3.85-.08l-.8,0-1.89.49a14.71,14.71,0,0,1-2.31-.45c-1-.24-6.42.16-6.81,0a11.75,11.75,0,0,0-1.87-.24c-.4-.08-2.4.43-3.42.46l-1,0-2.89-.08-3.21-.08-2.89-.08-2.89-.08-2.89-.07-1,0c-1.06,0-4.2,0-7,.06s-11,.61-12.05,1.09l-.3-.32-.77-.82a2.09,2.09,0,0,1-2.42-.1l-1,.82c-.55.44-1.66,0-2.51,0l-1.39,0a16.92,16.92,0,0,0-4,.22c-.65.19-2.95-.66-3.62-1.23l-.51.84-.74,1.21a2.86,2.86,0,0,0-2.41-1.05,27.85,27.85,0,0,1-3.94.2c-.6-.07-3,.37-4.11.13l-1-.13-1.06-.13a15.18,15.18,0,0,0-3.29.4,19.21,19.21,0,0,0-3.42.78l-1.11-.51c-.92-.42-2.11-.14-3.18-.17l-1.07,0a8.45,8.45,0,0,0-3.26.57h-1.11c-.59-.35-3.16-.61-5.71-.59s-9.62.79-10.05,1.5l-.74-1.06c-.17-.24-1.21.34-1.86.41l-.63.07a4.52,4.52,0,0,1-2.36-1c-.6-.53-2.84.78-3.54.77s-3.14-.07-3.84-.1a25,25,0,0,0-4.05.34l-.74,0c-.69,0-1.38-.47-2.06-.44l-1.33.05c-1.45-.1-3.67-.19-4.94-.18s-5.05.63-5.83.4L301.2,26l-1-.1a9,9,0,0,1-3.08-.08c-.57-.19-2.53.83-3.3.92s-3.58-.11-4.46-.12-4.7-.1-6.54,0-8.23.21-10.11.19-7.17-.06-7.56.19-2.12-.46-2.62-.57-2.39.78-3.29.83-4.51-.15-6-.15-6.5-.19-7.92,0-7.51.19-10.33.11l-2.57-.07-2.68-.07c-2.94-.08-6-.15-6.77-.14l-.6.64c-.56.61-1-1.4-1.79-.17l-.16.24a4,4,0,0,0-2.22.13c-.54.24-2.52-.75-3.72-.42l-1.1,0L205,27.21c-9.18-.24-17.64-.71-18.8-1.06l-.92,1.06-.14.16-1.9-.41a6.91,6.91,0,0,0-2.86.08c-.24.24-1.26-.35-1.54-.21a6.71,6.71,0,0,1-2.3.13l-.6-.11L173,27h-.64c-.7,0-1.38-.26-1.51-.56s-1.46.27-2.07.28l-.57-.1c-.28,0-.63-.48-.78-.4l-2.22,1.28a73.51,73.51,0,0,0-9.32-.9l-2.35-.06-4.49-.12-1.39,0a22.26,22.26,0,0,1-4.07-.29c-.72-.17-3.36,1.22-4.51,1.68l-.71-1.49a.84.84,0,0,0-.87-.14l-1.09.81a12,12,0,0,0-4.41-.41l-1.12.09a37.55,37.55,0,0,1-3.85-.07l-3.53-.09-3.85-.1-3.53-.09-3.85-.1-1.18,0a24,24,0,0,1-4.12-.43c-1-.22-3.78.73-4.12.55a26,26,0,0,0-4-.58c-1.51-.14-5.92.6-6.46.55a7.72,7.72,0,0,1-2.58-.44c-.38-.32-2.16.44-2.67.51s-2.15-.66-2.81-.47-2.91.3-3.52.39-2.61-.67-3.07-.55a25.76,25.76,0,0,1-3.85.16c-1.18,0-6-.31-8-.63L64,26.31l-.32.2a14.15,14.15,0,0,0-2.8-.22l-.65-.47-1.07-.76a4,4,0,0,1-2.73.69l-.8.29-.86.31a10.93,10.93,0,0,0-2.86-.15c-.48.1-3.89-1-6.82-1.34l-2.49,1.52-.89.54a13.29,13.29,0,0,0-2.94-.54c-.65,0-2.87,0-3.51,0s-2.12-.39-2.39-.27a12.56,12.56,0,0,1-2.57.06c-.82,0-3.55-.18-4.22-.28a26.15,26.15,0,0,1-3.28-.16c-.57-.23-1.91.73-2.07.53s-.92-.69-1.15-.44a5,5,0,0,1-2.26.7l-.64,0-3.53-.09h-.65c-.28-.58-.6-1.06-.72-1.06a.72.72,0,0,0-.51.55c0,.31-1.71.26-2.82,0l-1,0-.79,0c-.93-.06-1.55-.15-1.37-.22a.85.85,0,0,0,.28-1.05,5.6,5.6,0,0,1-.24-2.55c.13-.51.27-2.07-.11-2.08s-1.25.13-1.17.34.09.77-.1.83-.77-.33-1.11-.71-2-1.2-2.32-1.63-.88-2.17-.22-2.34S1.66,18.54,2.09,19l.54,0c.19,0,.45-.35.57-.61l.07-.14c-.12-.26-.35-.42-.52-.35s-.7,0-.7-.28A2.33,2.33,0,0,1,3.3,16.08c.67-.2,2.58-1.12,2.6-1.54s.28-1.76.55-1.28,1.38,1.3,1.85.72l.17-.54c.22-.72.35-.55.78-.2l.29.24c.47,0,1.74.11,2.82.15s3.69-1.06,3.46-1.2.6-.93,2.36-1.47L20,12a3.77,3.77,0,0,0,1.11.44l.27,0a.71.71,0,0,0,.37-1.09c-.27-.44-.7-1.68-.37-1.79l.27.05c.32.06.73.53.9.43l1.09-.67A5.64,5.64,0,0,0,25.32,11c.26.05,1.31,0,1.07-.31s0-1.05.57-1.59,2.51-.59,2.87-.53,1.85,0,2.38.09a16,16,0,0,1,2.87.28c.74.29,2.27-1.49,2.68-1.42S38.89,8.65,39,8.78s.36.29.49.07v-.2l.07-1.94A16.26,16.26,0,0,1,43.2,8.18l1-.63L45.14,7a13.18,13.18,0,0,0,3.23-.74c.52-.26,1.73.93,2,.83l.08-.17.15-.32a3.24,3.24,0,0,1,1.67.25H53.7c.92-.24,2-.51,2.36-.59s2-.14,2.76-.23a20.8,20.8,0,0,1,4-.05c.75.17,3.23-.79,4-.87s2.89.48,3.24.19,1.71.35,2.05,0,1.49.33,1.7.1,1-.62,1.24-.36,1.2.8,1.63.65a10.28,10.28,0,0,1,2.79-.15c.67.09,2.7-.14,3.2-.07a7.83,7.83,0,0,0,2.47-.32C85.48,5,87,4.81,87.7,4.65S90.41,5.8,90.85,6s1-1.3,1.23-1.43l.13.08,1,.62c1-.41,2-.81,2.07-.89l.07,0c.55.24,1.17.8,1.63.67l.55-.16a1.75,1.75,0,0,0,1.38-.14,3.62,3.62,0,0,1,2.24.32l.57.16.39.11a17.78,17.78,0,0,1,2-.27c.62,0,2.85.06,3.64.66l1-.92c.56-.52,1.65.4,2.38-.46.07-.08.57.35.89.46l1.41.49a10.14,10.14,0,0,0,3.53-.94c.37-.31,1.64.29,1.94-.07s1.4.62,1.58.71,1,.19,1.67.38,3-.52,4.18-.64l.81,1,.12.14a1.29,1.29,0,0,0,1.18-.49,3,3,0,0,1,1.56-.73,17.63,17.63,0,0,1,4.08.57l1-1.14c.26-.29,1.1.17,1.55,0l1-.48a8.92,8.92,0,0,0,2.17,1.14c.35.06,1.66-.26,2.13,0l.42.28c.54.36.85-1.33,1.53-.2.07.11.81-.41,1.23-.41h.6c.64.22,1.35.48,1.58.58s1.64-.1,2.5,0,3.12-1,3.34-.82a14.77,14.77,0,0,1,1.95,1.48l.62-1.08.95-1.64a24.87,24.87,0,0,0,3.72,1.74c.74.22,3.27-.53,3.86-.81A23.72,23.72,0,0,1,167,3.36l.37.31.41.34a.91.91,0,0,0,1.49,0l.4-.4.07-.07a1,1,0,0,1,.91.31c.27.26,1.28.77,1.58.49a7.58,7.58,0,0,1,3.21,0c.48.17,1.61.1,2.07.26s1.51-.16,1.9-.12A5.58,5.58,0,0,0,181.64,4c.5-.31,2.58.73,3.56.94l.67-1c.07-.11.41,0,.62,0l1.3.26A6.75,6.75,0,0,0,191.61,4c.68-.41,3.13.83,4,.82l.68-.19.64-.17a12.93,12.93,0,0,0,2.55-.35c.7-.18,2.51,1,2.75,1.08l.16-.08,1.91-.89c2.17.19,4.4.34,4.94.34a7.09,7.09,0,0,1,3.42,1L213.42,4l.34-.64a5.33,5.33,0,0,1,2.09,1.3c.25.37,1.65-.54,2-.64s1.53.69,1.89.76l.17-.16.91-.87A10.85,10.85,0,0,0,223.54,5a6.66,6.66,0,0,0,2.81-.61c.43-.25,1.9.33,2.12.25a4.83,4.83,0,0,0,1.3-.84c.25-.29,1.19.21,1.43-.14l.71.42.79.46c1.2-.23,2.8-.57,3.56-.76s2.75.43,3.09.35a6.73,6.73,0,0,1,2.34.43l.58.08.21,0c.34-.42.67-.43.74,0s.66,1.48,1.14,1.16,2-1.21,2.36-1.42a12.41,12.41,0,0,1,3.54,0c.47.13,2-.71,2.61-.76A10.41,10.41,0,0,1,256,4c.51.25,3.1,0,4.43,0l.84-.56.75-.5c.45.43,1,1,1.23,1.22s2.24-.15,3.27-.49a13.21,13.21,0,0,1,4.61,0,7.11,7.11,0,0,0,2.61.13A18.2,18.2,0,0,1,277,3.62,7.76,7.76,0,0,0,279.67,3c.35-.18,1.28.56,1.4.61l.08,0A6.94,6.94,0,0,1,282.84,3c.5,0,1.05.47,1.54.39l.74-.12a18,18,0,0,0,2.47-.36c.53-.14,1.74.63,1.86.33l.17-.22.13-.16a5.12,5.12,0,0,1,1.87.25c.81.22,4.43-.24,5,0l.48.29.61.36a2.18,2.18,0,0,1,2-.19l.42-.15.74-.27a2.59,2.59,0,0,1,2.09-.65,5.33,5.33,0,0,0,2.51,0,12.9,12.9,0,0,1,2-.2,5.74,5.74,0,0,1,2,.36c.38.15,1.5-.12,1.64.11a2,2,0,0,0,1.74.43,56.38,56.38,0,0,1,5.89,0,21.52,21.52,0,0,0,4.38-1l.66.22,1.27.42c1.53,0,3.25,0,3.82,0l.58-.27.75-.35a10.67,10.67,0,0,1,2.65.3c.48.17,2.16-.1,2.58,0l.39.11.36.11a13.18,13.18,0,0,0,2.95-.11l1.11-.19.94-.16,2.07-.26c.09,0,.73.2,1.29.35s2.4.33,2.87.53,1.64.84,1.82.53a2.22,2.22,0,0,1,1.35-.69A21,21,0,0,1,353,1.83c.72,0,3.58,0,4.72-.06a35.63,35.63,0,0,1,5.08.58c.51.14,2-.62,2.39-.47s1,.15,1.22.24a13.86,13.86,0,0,0,3.26-.61l1.26.2.92.15a3.46,3.46,0,0,1,2.7-.19l.67.08.68.08a2.41,2.41,0,0,1,2.27.31c.48.45,2.69-1.06,3.84-1.3l.94.85c.08.07.44-.08.55-.23l.18-.24a1.68,1.68,0,0,1,.9-.89c.39-.15,1.7.57,2.19.76s2.35.14,2.83.32a5.1,5.1,0,0,0,1.9-.11,13.94,13.94,0,0,1,2.68.42c.67.17,3.06-.43,3.83-.21l.31-.29c1-.94,1.28.73,1.89.47l.63-.26A5.72,5.72,0,0,1,402.84.21a12,12,0,0,1,3,.36A8,8,0,0,0,408.7.51a5.76,5.76,0,0,1,2.73.52A7.89,7.89,0,0,0,414.7.87l1,.49a1.66,1.66,0,0,0,2.26-.67L420,.33a9.2,9.2,0,0,0,6.42.3c.81-.22,1.51,1.34,2.35-.1.26-.44,1.6-.18,2.43-.09l.47.05A1.86,1.86,0,0,0,433,.84a9,9,0,0,0,1.33-.78c.48-.36,1.75,1,2.19.91a14,14,0,0,0,1.76-.69c.21-.06,1.17.6,1.64,1l.44,0c.45,0,.89-.45,1.36-.6l.78-.25c.8.36,1.64.74,1.88.83A1.9,1.9,0,0,0,445.5.91c.29-.19,1.29.31,1.54.24l.19-.15c.26-.2.5-.71.7-.68.55.07,1.07.54,1.6.52.67,0,1.33-.5,2-.58l.6-.07A3.46,3.46,0,0,0,454.26,0l.51.51.33.33c.57.07,1.72.22,2.54.34s3.34-.48,3.87-.15,3.56,0,5.46.51L468.8.72a2.23,2.23,0,0,1,1.89.06l.86.52A12.26,12.26,0,0,0,474,.16l.44,0c.44,0,.88.45,1.3.74l.24.16a10.42,10.42,0,0,0,3.23.76c1.55.2,5.52-1.3,5.62-1.23a5.78,5.78,0,0,1,.41.48A6.26,6.26,0,0,0,487.28,1a21.44,21.44,0,0,1,3.77-.2,17.72,17.72,0,0,1,3.29,1.36c.53.32,2.27-.38,2.68,0s2.36-.88,3.24-1.34l.95,1.07.41.46a19.36,19.36,0,0,1,4.5-.73l1.06.1,1.11.1a4.5,4.5,0,0,0,3.59-.42l1,1c.78.78,1.76-1.36,2.8-.28.87.9,1.65.74,2.44-.12.05-.06.22,0,.31,0l.72.37a13.9,13.9,0,0,1,2,.49,11.16,11.16,0,0,0,2.46-.7l.59,0,1.22.1c1.34,0,3.59,0,5,0l1.28.09.8.05c.87.3,1.94.63,2.38.73a5.24,5.24,0,0,0,1.89-.43c.35-.12,1.45.53,1.75.6l.05-.1.69-1.32c.74.74,2.95,1.18,3.29,1.56"/></g></g></svg>