<svg xmlns="http://www.w3.org/2000/svg" xmlns:xlink="http://www.w3.org/1999/xlink" viewBox="0 0 296.9 156.64"><defs><style>.cls-1{fill:none;}.cls-2{clip-path:url(#clip-path);}.cls-3{fill:#2e21a8;}</style><clipPath id="clip-path" transform="translate(0 0)"><rect class="cls-1" width="296.9" height="156.64"/></clipPath></defs><title>arrow</title><g id="Calque_2" data-name="Calque 2"><g id="Calque_1-2" data-name="Calque 1"><g class="cls-2"><path class="cls-3" d="M.33,33.71C-.2,27,1-.13,11.89,0c7.6.09,2.35,32.13,3.21,38.31,4.79,34.59,33.35,62.23,63.27,77.58,30.07,15.42,62.31,19.75,95.25,11.64,17.22-4.24,32.61-11.42,45.35-24,1-1,23.76-27.58,17.51-30.13-8.71-3.56-28.26,9.32-39.9,3.68-13.24-6.42-10.09-14.55-.63-22.6,13.52-11.51,64.67-26.21,76.89-9.57,5.4,7.35,9.31,25.4,12.41,34.43,4.63,13.49,9.23,30.62,11,44.67,6,47.17-34.37-24.42-34.86-24.39-5.61.35-16.34,20.47-21.46,25.23-12.15,11.3-26.79,18.81-42.43,24-28,9.24-60.39,10.44-88.79,2.94C51.52,136.62.33,98.45.33,33.71c-.75-9.47,0,8,0,0" transform="translate(0 0)"/></g></g></g></svg>