<svg xmlns="http://www.w3.org/2000/svg" xmlns:xlink="http://www.w3.org/1999/xlink" viewBox="0 0 232.38 110.5"><defs><style>.cls-1,.cls-10,.cls-11,.cls-5,.cls-6{fill:none;}.cls-2{isolation:isolate;}.cls-3{clip-path:url(#clip-path);}.cls-4{fill:#ffa014;}.cls-5,.cls-6{stroke:#ffa014;}.cls-10,.cls-5{stroke-miterlimit:10;stroke-width:1.17px;}.cls-11,.cls-6{stroke-width:2.34px;}.cls-7{mix-blend-mode:overlay;}.cls-8{clip-path:url(#clip-path-4);}.cls-9{fill:#1d1d1b;}.cls-10,.cls-11{stroke:#1d1d1b;}</style><clipPath id="clip-path" transform="translate(-18.99 -12.76)"><rect class="cls-1" x="18.99" y="12.76" width="232.38" height="110.5"/></clipPath><clipPath id="clip-path-4" transform="translate(-18.99 -12.76)"><rect class="cls-1" width="277.12" height="124.52"/></clipPath></defs><title>batterie-pleine-icon</title><g class="cls-2"><g id="Calque_2" data-name="Calque 2"><g id="Calque_1-2" data-name="Calque 1"><g class="cls-3"><g class="cls-3"><path class="cls-4" d="M47.2,113.26l-5.93.1-5.66.1L34,20.19l1,0a2.27,2.27,0,0,1,.61-.07h2.55L45.89,20l0,2.66A8.24,8.24,0,0,1,46,23.86q0,2.87,0,5.73l.71,40.47a8.61,8.61,0,0,0,.18.88l-.16.1.73,41.72,0,0,0,0v.45H47.2m-23-27.83c0-.26,0-.5,0-.74a3,3,0,0,1-.46-.77,13.18,13.18,0,0,1-.54-5.55h0l-.1-5.77c-.14-1.81-.32-3.62-.38-5.43,0-.18,0-.37,0-.55-.27-1.1-.53-2.21-.73-3.33a81.63,81.63,0,0,1-.76-9.85c-.1-1.77-.52-3.9.56-5.4-.05-.3.13-.6.54-.93l.22.17a2.84,2.84,0,0,1,1.09-.51l-.46-.29c3.08-.05,5.91-.12,8.75-.11.24,0,.68.54.7.85.1,1.71.09,3.43.13,5.43l-.07,0v0l-.17,1.22c0,.05,0,.09,0,.14a14.85,14.85,0,0,0,0,1.61c.09.27.17.55.28.8l-.23.16c.06.93.14,1.85.13,2.76,0,.45,0,.9,0,1.35a5.43,5.43,0,0,1,0,.59c0,.53,0,1.06,0,1.59,0,.08,0,.16,0,.24l0,0q0,2,.11,4c.1,2.74.06,5.44,0,8.17-.06,2.33.27,4.64,0,7,0,.05,0,.11,0,.16a5.55,5.55,0,0,1,.05,1.05l-.32-.13a2.42,2.42,0,0,1-2.86,1.42c-1-.23-1.31,0-2.13.61a2.11,2.11,0,0,1-2.59,0l-.72.11M99.12,18.78c4.78-.07,9.56-.05,14.34-.12a4.38,4.38,0,0,1,1.44.2,5.51,5.51,0,0,1,.69,0l.2,0c.33,0,.66,0,1,0,.48,0,.79-.06,1.08-.07q21.2-.56,42.4-1.11c4.69-.12,9.39-.07,14.07-.27,7.9-.35,15.79-.84,23.68-1.27,4.45-.25,8.89-.53,13.34-.75a29,29,0,0,1,2.92.12l.35,19.8a7.12,7.12,0,0,1,.12,2.31A4.41,4.41,0,0,1,215,39.1q.57,25.23,1.2,50.46c.11,4.9.18,9.8.26,14.86l-.07-.06c0,.36,0,.72,0,1.09a9.25,9.25,0,0,1,.34,3.8c0,.23-.56.64-.86.64q-10.11.24-20.22.4v0l-6,.11,0,.1c-.54,0-1.09,0-1.63,0l-3.92,0h0c-8.27-.07-16.55-.21-24.82-.08-7.23.12-14.45.94-21.67,1-10.49.16-21-.06-31.48-.1-1.87,0-3.74,0-5.6.22a4.31,4.31,0,0,1-1.15,0,4.75,4.75,0,0,1-.92.07l-1.15,0h0a11.36,11.36,0,0,1-1.24.2c-10.44.36-20.88.74-31.33,1.05-4.64.14-9.29.13-13.93.24-1.05,0-1.82-.14-1.82-1.41q0-10.62,0-21.25A6.6,6.6,0,0,1,49,88a2.32,2.32,0,0,1,0-.33Q48.53,63,48.18,38.37c0-2.16.23-4.32.2-6.48-.06-3.5-.19-7-.42-10.5-.08-1.14.23-1.46,1.29-1.44,3.45.06,6.9.17,10.35.06,5.89-.19,11.78-.6,17.67-.78,7.28-.22,14.57-.33,21.85-.44m131.33,8.89c0,.06,0,.12,0,.18l.93,31.52h0l1.47,49.74-2,.06s0,0,0,.06l-.23-.05-11.92.35L216,15.67l14.1-.42Zm8.65,14.11h0a2.74,2.74,0,0,1,.32,1.07c0,.2,0,.39,0,.59l.19.34-.15.13c0,.35,0,.71,0,1.06,0,.2,0,.41.06.61a18.68,18.68,0,0,1,.91,5.12,99.48,99.48,0,0,1,2,16c.2,3.6.46,9.77-3.29,11.82a3.89,3.89,0,0,1-4.32-.33c-.56,0-.77-.25-.82-1-.78-1.51-.37-3.49-.48-5.1-.18-2.55-.61-4.92-.26-7.48a33.29,33.29,0,0,0,.26-4.86,31.11,31.11,0,0,1-.28-6.12c0-4-.27-8.06-.47-12.08-.06-1.16,0-1.93,1.55-1.81a12.11,12.11,0,0,0,2.67-.51,2,2,0,0,1,2.05,2.53M41.45,115.59c3.54-.18,7.08-.35,10.63-.44q23.22-.54,46.44-1h.25a8.08,8.08,0,0,1,2.81,0,5.59,5.59,0,0,1,.78-.1H122c5.56,0,11.12.2,16.67,0,7-.27,14-1.11,21.08-1.29,10.14-.26,20.29-.18,30.44-.17.51,0,1,0,1.62-.07a16.49,16.49,0,0,1,1.66-.07l.06,0c7.84-.22,15.71-.19,23.53-.74a134.88,134.88,0,0,1,14.1-.36c2.51.09,3.38-.9,3.36-3.42q-.07-12-.25-23.94c-.05-3.31.27-3.62,3.48-2.66s5.68-.36,6-3.85a73.66,73.66,0,0,0,.26-10.64c-.25-5-.75-10.07-1.34-15.08-.46-3.95-1.08-7.89-1.9-11.78-.58-2.77-1.75-3.32-4.54-2.68-1.1.25-2.18.63-3.41,1a13.53,13.53,0,0,1-.1-1.39c.16-4,.3-8,.5-11.95a27,27,0,0,0-.93-9.41,2.68,2.68,0,0,0-2.84-2.16c-1,0-2.09.17-3.13.28a20.79,20.79,0,0,1-3.56.35c-2.56-.19-5.11-.78-7.66.11-.33.11-.76-.06-1.14-.07-3.39-.14-6.79-.4-10.18-.37-2.72,0-5.44.48-8.17.56-17.77.56-35.55,1.14-53.32,1.57-14.47.36-28.94.53-43.42.77-8.24.14-16.49.25-24.73.42-8.76.18-17.53.43-26.29.64-4.74.11-9.48.18-14.22.33-2,.07-2.1.33-2,2.27,0,.29.05.57.07.86.29,7.44.57,14.89.89,22.33.05,1.18-.43,1.31-1.46,1.25-2.29-.14-4.6-.24-6.89-.15C21,44.64,20,45.63,19.7,48.86A41.75,41.75,0,0,0,19.78,56c.35,4.89,1,9.76,1.21,14.65.29,5.49.4,11,.56,16.48l.62.36v-.14a15.59,15.59,0,0,0,2.45.11c2.33-.27,4.66-.56,7-1,1.24-.23,1.64.1,1.63,1.35-.08,8.63-.12,17.27-.19,25.9a2,2,0,0,0,2,2.27c2.13-.06,4.26-.34,6.4-.45" transform="translate(-18.99 -12.76)"/><path class="cls-5" d="M47.2,113.26l-5.93.1-5.66.1L34,20.19l1,0a2.27,2.27,0,0,1,.61-.07h2.55L45.89,20l0,2.66A8.24,8.24,0,0,1,46,23.86q0,2.87,0,5.73l.71,40.47a8.61,8.61,0,0,0,.18.88l-.16.1.73,41.72,0,0,0,0v.45H47.2Zm-23-27.83c0-.26,0-.5,0-.74a3,3,0,0,1-.46-.77,13.18,13.18,0,0,1-.54-5.55h0l-.1-5.77c-.14-1.81-.32-3.62-.38-5.43,0-.18,0-.37,0-.55-.27-1.1-.53-2.21-.73-3.33a81.63,81.63,0,0,1-.76-9.85c-.1-1.77-.52-3.9.56-5.4-.05-.3.13-.6.54-.93l.22.17a2.84,2.84,0,0,1,1.09-.51l-.46-.29c3.08-.05,5.91-.12,8.75-.11.24,0,.68.54.7.85.1,1.71.09,3.43.13,5.43l-.07,0v0l-.17,1.22c0,.05,0,.09,0,.14a14.85,14.85,0,0,0,0,1.61c.09.27.17.55.28.8l-.23.16c.06.93.14,1.85.13,2.76,0,.45,0,.9,0,1.35a5.43,5.43,0,0,1,0,.59c0,.53,0,1.06,0,1.59,0,.08,0,.16,0,.24l0,0q0,2,.11,4c.1,2.74.06,5.44,0,8.17-.06,2.33.27,4.64,0,7,0,.05,0,.11,0,.16a5.55,5.55,0,0,1,.05,1.05l-.32-.13a2.42,2.42,0,0,1-2.86,1.42c-1-.23-1.31,0-2.13.61a2.11,2.11,0,0,1-2.59,0ZM99.12,18.78c4.78-.07,9.56-.05,14.34-.12a4.38,4.38,0,0,1,1.44.2,5.51,5.51,0,0,1,.69,0l.2,0c.33,0,.66,0,1,0,.48,0,.79-.06,1.08-.07q21.2-.56,42.4-1.11c4.69-.12,9.39-.07,14.07-.27,7.9-.35,15.79-.84,23.68-1.27,4.45-.25,8.89-.53,13.34-.75a29,29,0,0,1,2.92.12l.35,19.8a7.12,7.12,0,0,1,.12,2.31A4.41,4.41,0,0,1,215,39.1q.57,25.23,1.2,50.46c.11,4.9.18,9.8.26,14.86l-.07-.06c0,.36,0,.72,0,1.09a9.25,9.25,0,0,1,.34,3.8c0,.23-.56.64-.86.64q-10.11.24-20.22.4v0l-6,.11,0,.1c-.54,0-1.09,0-1.63,0l-3.92,0h0c-8.27-.07-16.55-.21-24.82-.08-7.23.12-14.45.94-21.67,1-10.49.16-21-.06-31.48-.1-1.87,0-3.74,0-5.6.22a4.31,4.31,0,0,1-1.15,0,4.75,4.75,0,0,1-.92.07l-1.15,0h0a11.36,11.36,0,0,1-1.24.2c-10.44.36-20.88.74-31.33,1.05-4.64.14-9.29.13-13.93.24-1.05,0-1.82-.14-1.82-1.41q0-10.62,0-21.25A6.6,6.6,0,0,1,49,88a2.32,2.32,0,0,1,0-.33Q48.53,63,48.18,38.37c0-2.16.23-4.32.2-6.48-.06-3.5-.19-7-.42-10.5-.08-1.14.23-1.46,1.29-1.44,3.45.06,6.9.17,10.35.06,5.89-.19,11.78-.6,17.67-.78C84.55,19,91.83,18.9,99.12,18.78Zm131.33,8.89c0,.06,0,.12,0,.18l.93,31.52h0l1.47,49.74-2,.06s0,0,0,.06l-.23-.05-11.92.35L216,15.67l14.1-.42Zm8.65,14.11h0a2.74,2.74,0,0,1,.32,1.07c0,.2,0,.39,0,.59l.19.34-.15.13c0,.35,0,.71,0,1.06,0,.2,0,.41.06.61a18.68,18.68,0,0,1,.91,5.12,99.48,99.48,0,0,1,2,16c.2,3.6.46,9.77-3.29,11.82a3.89,3.89,0,0,1-4.32-.33c-.56,0-.77-.25-.82-1-.78-1.51-.37-3.49-.48-5.1-.18-2.55-.61-4.92-.26-7.48a33.29,33.29,0,0,0,.26-4.86,31.11,31.11,0,0,1-.28-6.12c0-4-.27-8.06-.47-12.08-.06-1.16,0-1.93,1.55-1.81a12.11,12.11,0,0,0,2.67-.51A2,2,0,0,1,239.1,41.78ZM41.45,115.59c3.54-.18,7.08-.35,10.63-.44q23.22-.54,46.44-1h.25a8.08,8.08,0,0,1,2.81,0,5.59,5.59,0,0,1,.78-.1H122c5.56,0,11.12.2,16.67,0,7-.27,14-1.11,21.08-1.29,10.14-.26,20.29-.18,30.44-.17.51,0,1,0,1.62-.07a16.49,16.49,0,0,1,1.66-.07l.06,0c7.84-.22,15.71-.19,23.53-.74a134.88,134.88,0,0,1,14.1-.36c2.51.09,3.38-.9,3.36-3.42q-.07-12-.25-23.94c-.05-3.31.27-3.62,3.48-2.66s5.68-.36,6-3.85a73.66,73.66,0,0,0,.26-10.64c-.25-5-.75-10.07-1.34-15.08-.46-3.95-1.08-7.89-1.9-11.78-.58-2.77-1.75-3.32-4.54-2.68-1.1.25-2.18.63-3.41,1a13.53,13.53,0,0,1-.1-1.39c.16-4,.3-8,.5-11.95a27,27,0,0,0-.93-9.41,2.68,2.68,0,0,0-2.84-2.16c-1,0-2.09.17-3.13.28a20.79,20.79,0,0,1-3.56.35c-2.56-.19-5.11-.78-7.66.11-.33.11-.76-.06-1.14-.07-3.39-.14-6.79-.4-10.18-.37-2.72,0-5.44.48-8.17.56-17.77.56-35.55,1.14-53.32,1.57-14.47.36-28.94.53-43.42.77-8.24.14-16.49.25-24.73.42-8.76.18-17.53.43-26.29.64-4.74.11-9.48.18-14.22.33-2,.07-2.1.33-2,2.27,0,.29.05.57.07.86.29,7.44.57,14.89.89,22.33.05,1.18-.43,1.31-1.46,1.25-2.29-.14-4.6-.24-6.89-.15C21,44.64,20,45.63,19.7,48.86A41.75,41.75,0,0,0,19.78,56c.35,4.89,1,9.76,1.21,14.65.29,5.49.4,11,.56,16.48l.62.36v-.14a15.59,15.59,0,0,0,2.45.11c2.33-.27,4.66-.56,7-1,1.24-.23,1.64.1,1.63,1.35-.08,8.63-.12,17.27-.19,25.9a2,2,0,0,0,2,2.27C37.19,116,39.31,115.7,41.45,115.59Z" transform="translate(-18.99 -12.76)"/><path class="cls-4" d="M230.45,27.67v.18c0-.06,0-.12,0-.18" transform="translate(-18.99 -12.76)"/><path class="cls-5" d="M230.45,27.67v.18C230.45,27.79,230.45,27.73,230.45,27.67Z" transform="translate(-18.99 -12.76)"/><polyline class="cls-4" points="212.4 46.61 212.4 46.61 212.4 46.62 212.4 46.61"/><polygon class="cls-5" points="212.4 46.61 212.4 46.61 212.4 46.62 212.4 46.61"/><path class="cls-4" d="M35.58,20.1a2.28,2.28,0,0,0-.61.07l3.16-.06H35.58" transform="translate(-18.99 -12.76)"/><path class="cls-5" d="M35.58,20.1a2.28,2.28,0,0,0-.61.07l3.16-.06Z" transform="translate(-18.99 -12.76)"/><path class="cls-4" d="M46,23.86a8.36,8.36,0,0,0-.11-1.23l.12,7q0-2.87,0-5.73" transform="translate(-18.99 -12.76)"/><path class="cls-5" d="M46,23.86a8.36,8.36,0,0,0-.11-1.23l.12,7Q46.05,26.73,46,23.86Z" transform="translate(-18.99 -12.76)"/><path class="cls-4" d="M240.34,50c.06.24.1.48.16.72a18.64,18.64,0,0,0-.91-5.12c.11,1.19.26,2.38.41,3.58a2.58,2.58,0,0,1,.34.81" transform="translate(-18.99 -12.76)"/><path class="cls-5" d="M240.34,50c.06.24.1.48.16.72a18.64,18.64,0,0,0-.91-5.12c.11,1.19.26,2.38.41,3.58A2.58,2.58,0,0,1,240.34,50Z" transform="translate(-18.99 -12.76)"/><path class="cls-4" d="M23.14,72.6l.1,5.77h0c0-.56.05-1.11.06-1.66,0-1.37-.06-2.74-.16-4.1" transform="translate(-18.99 -12.76)"/><path class="cls-5" d="M23.14,72.6l.1,5.77h0c0-.56.05-1.11.06-1.66C23.32,75.33,23.24,74,23.14,72.6Z" transform="translate(-18.99 -12.76)"/><path class="cls-4" d="M47.53,112.77l0,0v0l0,0" transform="translate(-18.99 -12.76)"/><path class="cls-5" d="M47.53,112.77l0,0v0Z" transform="translate(-18.99 -12.76)"/><path class="cls-4" d="M47.26,113.26h0" transform="translate(-18.99 -12.76)"/><path class="cls-5" d="M47.26,113.26h0Z" transform="translate(-18.99 -12.76)"/><path class="cls-4" d="M230.89,109.23s0,0,0-.06h-.23l.23.05" transform="translate(-18.99 -12.76)"/><path class="cls-5" d="M230.89,109.23s0,0,0-.06h-.23Z" transform="translate(-18.99 -12.76)"/><path class="cls-4" d="M184,110.52h0Z" transform="translate(-18.99 -12.76)"/><path class="cls-5" d="M184,110.52h0Z" transform="translate(-18.99 -12.76)"/><path class="cls-4" d="M47.52,113.26v-.45l-.25.46Z" transform="translate(-18.99 -12.76)"/><path class="cls-5" d="M47.52,113.26v-.45l-.25.46Z" transform="translate(-18.99 -12.76)"/></g><rect class="cls-4" x="57.86" y="28.25" width="29.56" height="76.05" transform="translate(-20.7 -10.83) rotate(-1.5)"/><rect class="cls-6" x="57.86" y="28.25" width="29.56" height="76.05" transform="translate(-20.7 -10.83) rotate(-1.5)"/><rect class="cls-4" x="96.75" y="27.23" width="29.56" height="76.05" transform="translate(-20.66 -9.82) rotate(-1.5)"/><rect class="cls-6" x="96.75" y="27.23" width="29.56" height="76.05" transform="translate(-20.66 -9.82) rotate(-1.5)"/><rect class="cls-4" x="135.63" y="26.21" width="29.56" height="76.05" transform="translate(-20.62 -8.8) rotate(-1.5)"/><rect class="cls-6" x="135.63" y="26.21" width="29.56" height="76.05" transform="translate(-20.62 -8.8) rotate(-1.5)"/><rect class="cls-4" x="174.51" y="25.2" width="29.56" height="76.05" transform="translate(-20.58 -7.78) rotate(-1.5)"/><rect class="cls-6" x="174.51" y="25.2" width="29.56" height="76.05" transform="translate(-20.58 -7.78) rotate(-1.5)"/><g class="cls-3"><g class="cls-7"><g class="cls-8"><path class="cls-9" d="M53.83,119.9l-5.93.1-5.66.1L40.61,26.82l1,0a2.27,2.27,0,0,1,.61-.07h2.55l7.76-.14,0,2.66a8.24,8.24,0,0,1,.11,1.23q0,2.87,0,5.73l.71,40.48a8.61,8.61,0,0,0,.18.88l-.16.1.73,41.72,0,0,0,0v.45h-.32m-23-27.83c0-.26,0-.5,0-.74a3,3,0,0,1-.46-.77A13.18,13.18,0,0,1,29.87,85h0l-.1-5.77c-.14-1.81-.32-3.62-.38-5.43,0-.18,0-.37,0-.55-.27-1.1-.53-2.21-.73-3.33a81.63,81.63,0,0,1-.76-9.85c-.1-1.77-.52-3.91.56-5.4-.05-.3.13-.6.54-.93l.22.17a2.84,2.84,0,0,1,1.09-.51l-.46-.29c3.08-.05,5.91-.12,8.75-.11.25,0,.68.54.7.85.1,1.71.09,3.43.13,5.43l-.07,0v0l-.17,1.22s0,.09,0,.14a14.85,14.85,0,0,0,0,1.61c.09.27.17.55.28.8l-.23.16c.06.93.14,1.85.13,2.76,0,.45,0,.9,0,1.35a5.43,5.43,0,0,1,0,.59c0,.53,0,1.06,0,1.59,0,.08,0,.16,0,.24l0,0q0,2,.11,4c.1,2.74.06,5.44,0,8.17-.06,2.33.27,4.64,0,7,0,.05,0,.11,0,.16a5.55,5.55,0,0,1,.05,1.05L39.14,90a2.42,2.42,0,0,1-2.86,1.42c-1-.23-1.31,0-2.13.61a2.11,2.11,0,0,1-2.59,0l-.72.11m74.91-66.64c4.78-.07,9.56-.05,14.34-.12a4.38,4.38,0,0,1,1.44.2,5.51,5.51,0,0,1,.69,0l.2,0c.33,0,.66,0,1,0,.48,0,.79-.06,1.08-.07q21.2-.56,42.4-1.11c4.69-.12,9.39-.07,14.07-.27,7.9-.35,15.79-.84,23.68-1.27,4.45-.25,8.89-.53,13.34-.75a29,29,0,0,1,2.92.12l.35,19.8a7.12,7.12,0,0,1,.12,2.31,4.41,4.41,0,0,1,.24,1.41q.57,25.23,1.2,50.46c.11,4.9.18,9.8.26,14.86L223,111c0,.36,0,.72,0,1.09a9.25,9.25,0,0,1,.34,3.8c0,.23-.56.64-.86.64q-10.11.24-20.22.4v0l-6,.1,0,.1c-.54,0-1.09,0-1.63,0l-3.92,0h0c-8.27-.07-16.55-.21-24.82-.08-7.23.12-14.45.94-21.67,1-10.49.16-21-.07-31.48-.1-1.87,0-3.74,0-5.6.22a4.31,4.31,0,0,1-1.15,0,4.75,4.75,0,0,1-.92.08l-1.15,0h0a11.36,11.36,0,0,1-1.24.2c-10.44.36-20.88.74-31.33,1.05-4.64.14-9.29.13-13.93.24-1.06,0-1.82-.14-1.82-1.41q0-10.62,0-21.25a6.6,6.6,0,0,1,.09-2.44,2.32,2.32,0,0,1,0-.33Q55.16,69.66,54.81,45c0-2.16.23-4.32.2-6.48-.06-3.5-.19-7-.42-10.5-.08-1.14.23-1.46,1.29-1.44,3.45.06,6.9.17,10.35.06,5.89-.19,11.78-.6,17.67-.78,7.28-.22,14.57-.33,21.85-.44m131.33,8.89c0,.06,0,.12,0,.18L238,66h0l1.47,49.74-2,.06s0,0,0,.06l-.23-.05-11.92.35-2.77-93.86,14.1-.42Zm8.65,14.11h0a2.74,2.74,0,0,1,.32,1.07c0,.2,0,.39,0,.59l.19.34-.15.13c0,.35,0,.71,0,1.06,0,.2,0,.41.06.61a18.68,18.68,0,0,1,.91,5.12,99.48,99.48,0,0,1,2,16c.2,3.6.46,9.77-3.29,11.82a3.89,3.89,0,0,1-4.32-.33c-.56,0-.77-.25-.82-1-.78-1.51-.37-3.49-.48-5.1-.18-2.55-.61-4.92-.26-7.48a33.29,33.29,0,0,0,.26-4.86,31.11,31.11,0,0,1-.28-6.12c0-4-.27-8.06-.47-12.08-.06-1.16,0-1.93,1.55-1.81a12.11,12.11,0,0,0,2.67-.51,2,2,0,0,1,2.05,2.53M48.08,122.23c3.54-.18,7.08-.35,10.63-.44q23.22-.54,46.44-1h.25a8.08,8.08,0,0,1,2.81,0,5.59,5.59,0,0,1,.78-.1h19.69c5.56,0,11.12.21,16.67,0,7-.28,14-1.11,21.08-1.3,10.14-.26,20.29-.18,30.44-.17.51,0,1,0,1.62-.07a16.49,16.49,0,0,1,1.66-.07l.06,0c7.84-.22,15.71-.19,23.53-.74a134.88,134.88,0,0,1,14.1-.37c2.51.09,3.38-.9,3.36-3.42q-.07-12-.25-23.94c-.05-3.31.27-3.62,3.48-2.66s5.68-.36,6-3.85a73.66,73.66,0,0,0,.26-10.64c-.25-5-.75-10.07-1.34-15.07-.46-4-1.08-7.9-1.9-11.79-.58-2.77-1.75-3.32-4.54-2.68-1.1.25-2.18.63-3.41,1a13.53,13.53,0,0,1-.1-1.39c.16-4,.3-8,.5-11.95a27,27,0,0,0-.93-9.41A2.68,2.68,0,0,0,236.14,20c-1,0-2.09.17-3.13.28a20.79,20.79,0,0,1-3.56.35c-2.56-.19-5.11-.78-7.66.11-.33.11-.76-.06-1.14-.07-3.39-.14-6.79-.4-10.18-.37-2.72,0-5.44.48-8.17.56C184.53,21.4,166.76,22,149,22.42c-14.47.36-28.94.53-43.42.77-8.24.14-16.49.25-24.73.42-8.76.18-17.53.43-26.29.64-4.74.11-9.48.18-14.22.33-2,.07-2.1.33-2,2.27,0,.29.05.57.07.86.29,7.44.57,14.89.89,22.33.05,1.18-.43,1.31-1.46,1.25-2.29-.14-4.6-.24-6.89-.15-3.26.12-4.27,1.11-4.61,4.33a41.75,41.75,0,0,0,.09,7.19c.35,4.89,1,9.76,1.21,14.65.29,5.49.4,11,.56,16.48l.62.36V94a15.59,15.59,0,0,0,2.45.11c2.33-.27,4.66-.56,7-1,1.24-.23,1.64.1,1.63,1.35-.08,8.63-.12,17.27-.19,25.9a2,2,0,0,0,2,2.27c2.13-.06,4.26-.34,6.4-.45" transform="translate(-18.99 -12.76)"/><path class="cls-10" d="M53.83,119.9l-5.93.1-5.66.1L40.61,26.82l1,0a2.27,2.27,0,0,1,.61-.07h2.55l7.76-.14,0,2.66a8.24,8.24,0,0,1,.11,1.23q0,2.87,0,5.73l.71,40.48a8.61,8.61,0,0,0,.18.88l-.16.1.73,41.72,0,0,0,0v.45h-.32Zm-23-27.83c0-.26,0-.5,0-.74a3,3,0,0,1-.46-.77A13.18,13.18,0,0,1,29.87,85h0l-.1-5.77c-.14-1.81-.32-3.62-.38-5.43,0-.18,0-.37,0-.55-.27-1.1-.53-2.21-.73-3.33a81.63,81.63,0,0,1-.76-9.85c-.1-1.77-.52-3.91.56-5.4-.05-.3.13-.6.54-.93l.22.17a2.84,2.84,0,0,1,1.09-.51l-.46-.29c3.08-.05,5.91-.12,8.75-.11.25,0,.68.54.7.85.1,1.71.09,3.43.13,5.43l-.07,0v0l-.17,1.22s0,.09,0,.14a14.85,14.85,0,0,0,0,1.61c.09.27.17.55.28.8l-.23.16c.06.93.14,1.85.13,2.76,0,.45,0,.9,0,1.35a5.43,5.43,0,0,1,0,.59c0,.53,0,1.06,0,1.59,0,.08,0,.16,0,.24l0,0q0,2,.11,4c.1,2.74.06,5.44,0,8.17-.06,2.33.27,4.64,0,7,0,.05,0,.11,0,.16a5.55,5.55,0,0,1,.05,1.05L39.14,90a2.42,2.42,0,0,1-2.86,1.42c-1-.23-1.31,0-2.13.61a2.11,2.11,0,0,1-2.59,0Zm74.91-66.64c4.78-.07,9.56-.05,14.34-.12a4.38,4.38,0,0,1,1.44.2,5.51,5.51,0,0,1,.69,0l.2,0c.33,0,.66,0,1,0,.48,0,.79-.06,1.08-.07q21.2-.56,42.4-1.11c4.69-.12,9.39-.07,14.07-.27,7.9-.35,15.79-.84,23.68-1.27,4.45-.25,8.89-.53,13.34-.75a29,29,0,0,1,2.92.12l.35,19.8a7.12,7.12,0,0,1,.12,2.31,4.41,4.41,0,0,1,.24,1.41q.57,25.23,1.2,50.46c.11,4.9.18,9.8.26,14.86L223,111c0,.36,0,.72,0,1.09a9.25,9.25,0,0,1,.34,3.8c0,.23-.56.64-.86.64q-10.11.24-20.22.4v0l-6,.1,0,.1c-.54,0-1.09,0-1.63,0l-3.92,0h0c-8.27-.07-16.55-.21-24.82-.08-7.23.12-14.45.94-21.67,1-10.49.16-21-.07-31.48-.1-1.87,0-3.74,0-5.6.22a4.31,4.31,0,0,1-1.15,0,4.75,4.75,0,0,1-.92.08l-1.15,0h0a11.36,11.36,0,0,1-1.24.2c-10.44.36-20.88.74-31.33,1.05-4.64.14-9.29.13-13.93.24-1.06,0-1.82-.14-1.82-1.41q0-10.62,0-21.25a6.6,6.6,0,0,1,.09-2.44,2.32,2.32,0,0,1,0-.33Q55.16,69.66,54.81,45c0-2.16.23-4.32.2-6.48-.06-3.5-.19-7-.42-10.5-.08-1.14.23-1.46,1.29-1.44,3.45.06,6.9.17,10.35.06,5.89-.19,11.78-.6,17.67-.78C91.18,25.64,98.47,25.53,105.75,25.42Zm131.33,8.89c0,.06,0,.12,0,.18L238,66h0l1.47,49.74-2,.06s0,0,0,.06l-.23-.05-11.92.35-2.77-93.86,14.1-.42Zm8.65,14.11h0a2.74,2.74,0,0,1,.32,1.07c0,.2,0,.39,0,.59l.19.34-.15.13c0,.35,0,.71,0,1.06,0,.2,0,.41.06.61a18.68,18.68,0,0,1,.91,5.12,99.48,99.48,0,0,1,2,16c.2,3.6.46,9.77-3.29,11.82a3.89,3.89,0,0,1-4.32-.33c-.56,0-.77-.25-.82-1-.78-1.51-.37-3.49-.48-5.1-.18-2.55-.61-4.92-.26-7.48a33.29,33.29,0,0,0,.26-4.86,31.11,31.11,0,0,1-.28-6.12c0-4-.27-8.06-.47-12.08-.06-1.16,0-1.93,1.55-1.81a12.11,12.11,0,0,0,2.67-.51A2,2,0,0,1,245.74,48.41ZM48.08,122.23c3.54-.18,7.08-.35,10.63-.44q23.22-.54,46.44-1h.25a8.08,8.08,0,0,1,2.81,0,5.59,5.59,0,0,1,.78-.1h19.69c5.56,0,11.12.21,16.67,0,7-.28,14-1.11,21.08-1.3,10.14-.26,20.29-.18,30.44-.17.51,0,1,0,1.62-.07a16.49,16.49,0,0,1,1.66-.07l.06,0c7.84-.22,15.71-.19,23.53-.74a134.88,134.88,0,0,1,14.1-.37c2.51.09,3.38-.9,3.36-3.42q-.07-12-.25-23.94c-.05-3.31.27-3.62,3.48-2.66s5.68-.36,6-3.85a73.66,73.66,0,0,0,.26-10.64c-.25-5-.75-10.07-1.34-15.07-.46-4-1.08-7.9-1.9-11.79-.58-2.77-1.75-3.32-4.54-2.68-1.1.25-2.18.63-3.41,1a13.53,13.53,0,0,1-.1-1.39c.16-4,.3-8,.5-11.95a27,27,0,0,0-.93-9.41A2.68,2.68,0,0,0,236.14,20c-1,0-2.09.17-3.13.28a20.79,20.79,0,0,1-3.56.35c-2.56-.19-5.11-.78-7.66.11-.33.11-.76-.06-1.14-.07-3.39-.14-6.79-.4-10.18-.37-2.72,0-5.44.48-8.17.56C184.53,21.4,166.76,22,149,22.42c-14.47.36-28.94.53-43.42.77-8.24.14-16.49.25-24.73.42-8.76.18-17.53.43-26.29.64-4.74.11-9.48.18-14.22.33-2,.07-2.1.33-2,2.27,0,.29.05.57.07.86.29,7.44.57,14.89.89,22.33.05,1.18-.43,1.31-1.46,1.25-2.29-.14-4.6-.24-6.89-.15-3.26.12-4.27,1.11-4.61,4.33a41.75,41.75,0,0,0,.09,7.19c.35,4.89,1,9.76,1.21,14.65.29,5.49.4,11,.56,16.48l.62.36V94a15.59,15.59,0,0,0,2.45.11c2.33-.27,4.66-.56,7-1,1.24-.23,1.64.1,1.63,1.35-.08,8.63-.12,17.27-.19,25.9a2,2,0,0,0,2,2.27C43.82,122.62,45.95,122.34,48.08,122.23Z" transform="translate(-18.99 -12.76)"/><path class="cls-9" d="M237.08,34.31v.18c0-.06,0-.12,0-.18" transform="translate(-18.99 -12.76)"/><path class="cls-10" d="M237.08,34.31v.18C237.09,34.42,237.09,34.36,237.08,34.31Z" transform="translate(-18.99 -12.76)"/><polyline class="cls-9" points="219.03 53.25 219.03 53.24 219.03 53.25 219.03 53.25"/><polygon class="cls-10" points="219.03 53.25 219.03 53.24 219.03 53.25 219.03 53.25"/><path class="cls-9" d="M42.21,26.74a2.28,2.28,0,0,0-.61.07l3.16-.06H42.21" transform="translate(-18.99 -12.76)"/><path class="cls-10" d="M42.21,26.74a2.28,2.28,0,0,0-.61.07l3.16-.06Z" transform="translate(-18.99 -12.76)"/><path class="cls-9" d="M52.68,30.5a8.36,8.36,0,0,0-.11-1.23l.12,7q0-2.87,0-5.73" transform="translate(-18.99 -12.76)"/><path class="cls-10" d="M52.68,30.5a8.36,8.36,0,0,0-.11-1.23l.12,7Q52.69,33.36,52.68,30.5Z" transform="translate(-18.99 -12.76)"/><path class="cls-9" d="M247,56.61c.06.24.1.48.16.72a18.64,18.64,0,0,0-.91-5.12c.11,1.19.26,2.38.41,3.58a2.58,2.58,0,0,1,.34.81" transform="translate(-18.99 -12.76)"/><path class="cls-10" d="M247,56.61c.06.24.1.48.16.72a18.64,18.64,0,0,0-.91-5.12c.11,1.19.26,2.38.41,3.58A2.58,2.58,0,0,1,247,56.61Z" transform="translate(-18.99 -12.76)"/><path class="cls-9" d="M29.77,79.24l.1,5.77h0c0-.56.05-1.11.06-1.66,0-1.37-.06-2.74-.16-4.1" transform="translate(-18.99 -12.76)"/><path class="cls-10" d="M29.77,79.24l.1,5.77h0c0-.56.05-1.11.06-1.66C29.95,82,29.87,80.6,29.77,79.24Z" transform="translate(-18.99 -12.76)"/><path class="cls-9" d="M54.16,119.41l0,0v0l0,0" transform="translate(-18.99 -12.76)"/><path class="cls-10" d="M54.16,119.41l0,0v0Z" transform="translate(-18.99 -12.76)"/><path class="cls-9" d="M53.89,119.89h0" transform="translate(-18.99 -12.76)"/><path class="cls-10" d="M53.89,119.89h0Z" transform="translate(-18.99 -12.76)"/><path class="cls-9" d="M237.53,115.86s0,0,0-.06h-.23l.23.05" transform="translate(-18.99 -12.76)"/><path class="cls-10" d="M237.53,115.86s0,0,0-.06h-.23Z" transform="translate(-18.99 -12.76)"/><path class="cls-9" d="M190.67,117.16h0Z" transform="translate(-18.99 -12.76)"/><path class="cls-10" d="M190.67,117.16h0Z" transform="translate(-18.99 -12.76)"/><path class="cls-9" d="M54.15,119.89v-.45l-.25.46Z" transform="translate(-18.99 -12.76)"/><path class="cls-10" d="M54.15,119.89v-.45l-.25.46Z" transform="translate(-18.99 -12.76)"/><rect class="cls-9" x="64.5" y="34.88" width="29.56" height="76.05" transform="translate(-20.87 -10.66) rotate(-1.5)"/><rect class="cls-11" x="64.5" y="34.88" width="29.56" height="76.05" transform="translate(-20.87 -10.66) rotate(-1.5)"/><rect class="cls-9" x="142.26" y="32.85" width="29.56" height="76.05" transform="translate(-20.79 -8.62) rotate(-1.5)"/><rect class="cls-11" x="142.26" y="32.85" width="29.56" height="76.05" transform="translate(-20.79 -8.62) rotate(-1.5)"/></g></g></g></g></g></g></g></svg>