<svg xmlns="http://www.w3.org/2000/svg" viewBox="0 0 389.21 160.62"><defs><style>.cls-1{fill:#fff;}</style></defs><title>Fichier 2</title><g id="Calque_2" data-name="Calque 2"><g id="Calque_1-2" data-name="Calque 1"><path class="cls-1" d="M195,62.48a16.05,16.05,0,1,0-16-16.07,16,16,0,0,0,16,16.07m8.11,5.42A23,23,0,0,1,178.18,62l-7.82,2.51A30.63,30.63,0,0,0,202.86,76l4.94,9.7a41.27,41.27,0,0,1-18.22,1.67A40.45,40.45,0,0,1,172.5,81a41.39,41.39,0,0,1-12.75-13.11l-12.54,4,0-.06.26-.23,18.4-14.81,6.48-5.21a.5.5,0,0,0,.21-.58,21.92,21.92,0,0,1-.44-5.79,22.58,22.58,0,0,1,6-14.26.59.59,0,0,0,.14-.67c-.79-2.41-1.55-4.83-2.33-7.24,0-.11-.08-.22-.14-.39a30.5,30.5,0,0,0-10.82,29.23L155,56.84A41.27,41.27,0,0,1,172.29,12L168.47.05l0,0h0l0,0,0,0,.07.09,19.52,24.24,0,0,.05.05.06,0,1.21-.32a22.15,22.15,0,0,1,7.26-.58,22.61,22.61,0,0,1,14,6.25.44.44,0,0,0,.51.15c2.47-.8,4.94-1.59,7.42-2.38l.25-.1a30.53,30.53,0,0,0-31.13-10.79l-5-9.74a41.19,41.19,0,0,1,17.65-1.44,40.55,40.55,0,0,1,16.57,6,41.38,41.38,0,0,1,12.59,12.5c3.41-1.07,6.82-2.18,10.26-3.2l-23.1,18.58c0,.11,0,.22.08.32a22.21,22.21,0,0,1,1,7.44,22.54,22.54,0,0,1-4.73,13.14.62.62,0,0,0-.11.66q1.24,3.81,2.46,7.62c0,.09.07.18.12.33a30.56,30.56,0,0,0,6.62-8.71,30.58,30.58,0,0,0,2.35-21.39l9.72-5A41.28,41.28,0,0,1,236,51a40.48,40.48,0,0,1-5.36,16.24A41.24,41.24,0,0,1,219.11,79.9l4.16,13-.06,0-20.13-25"/><path class="cls-1" d="M204.92,46.42a9.94,9.94,0,1,1-10-9.92,9.93,9.93,0,0,1,10,9.92"/><path class="cls-1" d="M12.23,147.07a9.72,9.72,0,0,0,4.41-1,11.12,11.12,0,0,0,3.44-2.65,12.57,12.57,0,0,0,2.26-3.75,11.83,11.83,0,0,0,.81-4.31,13.08,13.08,0,0,0-.76-4.44,12.19,12.19,0,0,0-2.15-3.78,10.8,10.8,0,0,0-3.31-2.65,9,9,0,0,0-4.23-1,8.78,8.78,0,0,0-3.26.6,11.44,11.44,0,0,0-2.81,1.6A13.12,13.12,0,0,0,4.33,128a15.07,15.07,0,0,0-1.71,2.73v9a5.72,5.72,0,0,0,1.15,2.86,10.29,10.29,0,0,0,2.39,2.31,12.57,12.57,0,0,0,3,1.55,9.14,9.14,0,0,0,3,.58m.53,2.36a11.38,11.38,0,0,1-6-1.68,12.52,12.52,0,0,1-4.36-4.31v5.46H0V110.58H2.63v17a17.24,17.24,0,0,1,4.59-4.62,10.7,10.7,0,0,1,6.12-1.78,11,11,0,0,1,5.22,1.23,12.29,12.29,0,0,1,3.94,3.26A15.16,15.16,0,0,1,25,130.19a16,16,0,0,1,.87,5.17,14.63,14.63,0,0,1-1,5.38,14.18,14.18,0,0,1-2.76,4.46,13.6,13.6,0,0,1-4.15,3.07,11.73,11.73,0,0,1-5.17,1.15"/><path class="cls-1" d="M54.45,134.21a12.4,12.4,0,0,0-1.08-4.41A11.8,11.8,0,0,0,51,126.36a10.63,10.63,0,0,0-3.33-2.26,10.44,10.44,0,0,0-8.09,0,10.63,10.63,0,0,0-3.33,2.26,10.93,10.93,0,0,0-2.31,3.47,13.3,13.3,0,0,0-1,4.38ZM43.74,149.43a12.71,12.71,0,0,1-5.36-1.13,13.21,13.21,0,0,1-4.28-3.1,14.73,14.73,0,0,1-3.86-10.05,14.47,14.47,0,0,1,3.83-9.9,13.06,13.06,0,0,1,4.23-3,13.22,13.22,0,0,1,10.63,0,13.33,13.33,0,0,1,4.25,3A14,14,0,0,1,56,129.77a14.65,14.65,0,0,1,1,5.38v.66a1.44,1.44,0,0,1-.05.5H33a12.16,12.16,0,0,0,1.1,4.38,12.45,12.45,0,0,0,2.39,3.49,10.73,10.73,0,0,0,3.33,2.31,9.85,9.85,0,0,0,4,.84,10,10,0,0,0,2.78-.39,11.33,11.33,0,0,0,2.55-1.08,9.19,9.19,0,0,0,2.1-1.65,7.77,7.77,0,0,0,1.45-2.13l2.31.63a8.71,8.71,0,0,1-1.71,2.7,11.57,11.57,0,0,1-2.62,2.13,13.37,13.37,0,0,1-3.28,1.39,13.58,13.58,0,0,1-3.68.5"/><path class="cls-1" d="M85.06,148.91H82.43V133.68q0-5.3-1.5-7.72a5.18,5.18,0,0,0-4.75-2.42,9.88,9.88,0,0,0-3.44.63A11.65,11.65,0,0,0,69.57,126a13.06,13.06,0,0,0-2.57,2.7A11.14,11.14,0,0,0,65.37,132v16.91H62.74v-27.3h2.47v6.51a12.87,12.87,0,0,1,2.07-2.86,13.06,13.06,0,0,1,2.78-2.2,14,14,0,0,1,3.28-1.42,12.86,12.86,0,0,1,3.57-.5q4.46,0,6.3,3.12t1.84,9Z"/><path class="cls-1" d="M93.72,135.41a12.25,12.25,0,0,0,.84,4.54,11.84,11.84,0,0,0,2.28,3.7,10.76,10.76,0,0,0,3.39,2.49,9.82,9.82,0,0,0,8.29,0,10.76,10.76,0,0,0,3.41-2.55,12.66,12.66,0,0,0,2.31-12.89,12,12,0,0,0-2.31-3.73,11.47,11.47,0,0,0-3.39-2.55,9.21,9.21,0,0,0-4.12-.94,9.36,9.36,0,0,0-4.15.94A10.81,10.81,0,0,0,96.9,127a12.79,12.79,0,0,0-2.31,3.81,12.34,12.34,0,0,0-.87,4.59m10.71,14a12.54,12.54,0,0,1-5.33-1.13,13.19,13.19,0,0,1-4.23-3.07,14.15,14.15,0,0,1-2.78-4.52,14.82,14.82,0,0,1-1-5.41,14.73,14.73,0,0,1,3.83-10,13.22,13.22,0,0,1,4.23-3.07,12.43,12.43,0,0,1,5.28-1.13,12.25,12.25,0,0,1,5.25,1.13,13.63,13.63,0,0,1,4.23,3.07,14.32,14.32,0,0,1,2.83,4.52,14.63,14.63,0,0,1,1,5.46,14.74,14.74,0,0,1-3.83,9.92,13.2,13.2,0,0,1-4.23,3.07,12.41,12.41,0,0,1-5.28,1.13"/><path class="cls-1" d="M124.07,121.61h2.63v27.3h-2.62Zm0-11h2.63v4.83h-2.62Z"/><path class="cls-1" d="M147.12,147.59l-.71.39a7.2,7.2,0,0,1-1.26.55,15.53,15.53,0,0,1-1.71.47,9.49,9.49,0,0,1-2,.21,6.68,6.68,0,0,1-2.07-.31,4.93,4.93,0,0,1-1.71-.95,4.49,4.49,0,0,1-1.15-1.52,4.87,4.87,0,0,1-.42-2.1V123.76h-3.83v-2.15H136v-9.35h2.63v9.35H145v2.15h-6.35v20a2.64,2.64,0,0,0,1.05,2.28,3.93,3.93,0,0,0,2.36.76,6.6,6.6,0,0,0,2.81-.55q1.18-.55,1.45-.71Z"/><path class="cls-1" d="M148.9,135.1a15,15,0,0,1,1-5.43,13.48,13.48,0,0,1,2.89-4.57,13.66,13.66,0,0,1,4.65-3.12,16.13,16.13,0,0,1,6.27-1.15,15,15,0,0,1,8,2,13,13,0,0,1,4.88,5.28l-8.19,2.47a5.28,5.28,0,0,0-4.78-2.62,5.67,5.67,0,0,0-4.38,1.94,7.45,7.45,0,0,0-1.76,5.2,8.87,8.87,0,0,0,.47,3,6.79,6.79,0,0,0,1.31,2.28,6,6,0,0,0,2,1.47,5.6,5.6,0,0,0,2.39.52,5.66,5.66,0,0,0,2.89-.76,4.87,4.87,0,0,0,1.94-2l8.19,2.52a12.37,12.37,0,0,1-4.86,5.25,15.23,15.23,0,0,1-8.11,2,15.66,15.66,0,0,1-6.22-1.18,14.29,14.29,0,0,1-4.67-3.15,13.3,13.3,0,0,1-2.91-4.57,15,15,0,0,1-1-5.43"/><path class="cls-1" d="M207,148.91h-8.4V133.42a6.09,6.09,0,0,0-1.05-3.94,3.56,3.56,0,0,0-2.89-1.26,4.41,4.41,0,0,0-1.6.34,6.5,6.5,0,0,0-1.68,1,9,9,0,0,0-1.5,1.55,6.78,6.78,0,0,0-1.05,2v15.8h-8.4V110.58h8.4V126a10.48,10.48,0,0,1,4-3.81,11.42,11.42,0,0,1,5.49-1.34,9,9,0,0,1,4.49,1,7.17,7.17,0,0,1,2.63,2.47,9.33,9.33,0,0,1,1.23,3.36,21.9,21.9,0,0,1,.32,3.65Z"/><path class="cls-1" d="M222.88,143.39a7.63,7.63,0,0,0,2.65-.47,6.2,6.2,0,0,0,2.13-1.26,2.61,2.61,0,0,0,1.21-2V137a13.58,13.58,0,0,0-2.39-.66,13.24,13.24,0,0,0-2.39-.24,6.46,6.46,0,0,0-3.81,1.05,3.2,3.2,0,0,0-1.5,2.73,3.11,3.11,0,0,0,1.16,2.49,4.41,4.41,0,0,0,2.94,1m-2.47,6a10.82,10.82,0,0,1-3.81-.66,8.92,8.92,0,0,1-3-1.84,8.82,8.82,0,0,1-2-2.78,8.27,8.27,0,0,1-.73-3.49,8,8,0,0,1,.87-3.73,8.56,8.56,0,0,1,2.44-2.89,12,12,0,0,1,3.73-1.89,15.79,15.79,0,0,1,4.78-.68,19.23,19.23,0,0,1,3.36.29,11.11,11.11,0,0,1,2.84.87v-1.26q0-4.78-5.51-4.78a12.24,12.24,0,0,0-4.3.76,20.7,20.7,0,0,0-4.31,2.28l-2.47-5.25a22.09,22.09,0,0,1,5.67-2.68,21.43,21.43,0,0,1,6.25-.89q6.25,0,9.66,2.94t3.41,8.61v7.09a2.92,2.92,0,0,0,.39,1.76,2,2,0,0,0,1.39.6v7.09a14.12,14.12,0,0,1-2,.34q-.89.08-1.63.08a5.84,5.84,0,0,1-3.57-.92,4.06,4.06,0,0,1-1.52-2.6l-.16-1.26a12.6,12.6,0,0,1-4.38,3.62,12,12,0,0,1-5.38,1.26"/><path class="cls-1" d="M269.92,148.91h-8.4V133.42a6.19,6.19,0,0,0-1-4,3.34,3.34,0,0,0-2.71-1.23,4.66,4.66,0,0,0-1.78.37,7.4,7.4,0,0,0-1.73,1,7.89,7.89,0,0,0-1.5,1.55,7.38,7.38,0,0,0-1,1.94v15.8h-8.4V121.34h7.56V126a10,10,0,0,1,4.31-3.81,14.61,14.61,0,0,1,6.41-1.34,8.34,8.34,0,0,1,4.3,1,7,7,0,0,1,2.52,2.52,9.73,9.73,0,0,1,1.18,3.39,23.05,23.05,0,0,1,.29,3.57Z"/><path class="cls-1" d="M289.09,142.34a5.85,5.85,0,0,0,3.47-1.08,7.34,7.34,0,0,0,2.36-2.76v-5.78a7.59,7.59,0,0,0-2.57-3.49,6.07,6.07,0,0,0-3.67-1.29,5.21,5.21,0,0,0-2.49.6,6.19,6.19,0,0,0-1.94,1.63,7.63,7.63,0,0,0-1.26,2.36,8.64,8.64,0,0,0-.45,2.76,7.71,7.71,0,0,0,.5,2.81,6.77,6.77,0,0,0,1.39,2.23,6.27,6.27,0,0,0,4.67,2M286.2,149a11.21,11.21,0,0,1-5-1.1,11.75,11.75,0,0,1-3.86-3,14,14,0,0,1-2.49-4.41,16.06,16.06,0,0,1-.89-5.41,16.4,16.4,0,0,1,.94-5.64,14,14,0,0,1,2.63-4.52,12.08,12.08,0,0,1,9.24-4.12,10.85,10.85,0,0,1,5.49,1.34,10.29,10.29,0,0,1,3.75,3.7v-4.52h7.3V147a13.19,13.19,0,0,1-1.18,5.67,12.34,12.34,0,0,1-3.28,4.28,14.83,14.83,0,0,1-5,2.7,21,21,0,0,1-6.46.94,18.46,18.46,0,0,1-7.61-1.42,16.11,16.11,0,0,1-5.51-4.1l4.52-4.57a11,11,0,0,0,3.78,2.76,11.57,11.57,0,0,0,4.83,1,9.77,9.77,0,0,0,2.89-.42,7,7,0,0,0,2.41-1.29,5.92,5.92,0,0,0,1.65-2.26,8.35,8.35,0,0,0,.6-3.33v-2.68a8.22,8.22,0,0,1-3.62,3.49A11.24,11.24,0,0,1,286.2,149"/><path class="cls-1" d="M328.1,132.53a6.32,6.32,0,0,0-1.89-4.15,5.7,5.7,0,0,0-4-1.52,5.62,5.62,0,0,0-4.07,1.55,6.42,6.42,0,0,0-1.86,4.12Zm-5.83,16.91A16.28,16.28,0,0,1,316,148.3a13.82,13.82,0,0,1-4.67-3.07,13.18,13.18,0,0,1-2.91-4.49,14.48,14.48,0,0,1-1-5.33,15.9,15.9,0,0,1,1-5.64,13.7,13.7,0,0,1,2.89-4.65A13.49,13.49,0,0,1,316,122a16.12,16.12,0,0,1,6.27-1.16,15.93,15.93,0,0,1,6.25,1.16,13.72,13.72,0,0,1,4.62,3.12,13.25,13.25,0,0,1,2.86,4.54,15.19,15.19,0,0,1,1,5.41q0,.73-.05,1.44a10.41,10.41,0,0,1-.16,1.23H316.39a5.66,5.66,0,0,0,2,4.23,6.42,6.42,0,0,0,4.12,1.44,7.55,7.55,0,0,0,3.54-.89,4.56,4.56,0,0,0,2.28-2.42l7.14,2a12.85,12.85,0,0,1-5,5.3,15.65,15.65,0,0,1-8.19,2"/><path class="cls-1" d="M351.1,143.39a7.63,7.63,0,0,0,2.65-.47,6.2,6.2,0,0,0,2.13-1.26,2.61,2.61,0,0,0,1.21-2V137a13.58,13.58,0,0,0-2.39-.66,13.24,13.24,0,0,0-2.39-.24,6.46,6.46,0,0,0-3.81,1.05,3.2,3.2,0,0,0-1.5,2.73,3.11,3.11,0,0,0,1.16,2.49,4.41,4.41,0,0,0,2.94,1m-2.47,6a10.82,10.82,0,0,1-3.81-.66,8.92,8.92,0,0,1-3-1.84,8.82,8.82,0,0,1-2-2.78,8.27,8.27,0,0,1-.73-3.49,8,8,0,0,1,.87-3.73,8.56,8.56,0,0,1,2.44-2.89,12,12,0,0,1,3.73-1.89,15.78,15.78,0,0,1,4.78-.68,19.23,19.23,0,0,1,3.36.29,11.11,11.11,0,0,1,2.84.87v-1.26q0-4.78-5.51-4.78a12.24,12.24,0,0,0-4.3.76,20.7,20.7,0,0,0-4.31,2.28l-2.47-5.25a22.09,22.09,0,0,1,5.67-2.68,21.43,21.43,0,0,1,6.25-.89q6.25,0,9.66,2.94t3.41,8.61v7.09a2.92,2.92,0,0,0,.39,1.76,2,2,0,0,0,1.39.6v7.09a14.12,14.12,0,0,1-2,.34q-.89.08-1.63.08a5.84,5.84,0,0,1-3.57-.92,4.06,4.06,0,0,1-1.52-2.6l-.16-1.26a12.6,12.6,0,0,1-4.38,3.62,12,12,0,0,1-5.38,1.26"/><path class="cls-1" d="M389.21,147.44a33.38,33.38,0,0,1-4,1.37,16.46,16.46,0,0,1-4.49.63,10.83,10.83,0,0,1-3-.39,6.6,6.6,0,0,1-2.44-1.26,5.89,5.89,0,0,1-1.65-2.28,8.69,8.69,0,0,1-.6-3.41V127.7h-3.52v-6.35h3.52v-8.77h8.4v8.77h5.62v6.35H381.5v11.5a2.25,2.25,0,0,0,2.42,2.57,6.46,6.46,0,0,0,1.94-.31,11.82,11.82,0,0,0,1.73-.68Z"/></g></g></svg>