<svg xmlns="http://www.w3.org/2000/svg" viewBox="0 0 74.01 575.08"><defs><style>.cls-1{fill:none;stroke:#fff;}.cls-2{fill:#fff;}</style></defs><title>benoitchangeat-logo-white-vertical</title><g id="Calque_2" data-name="Calque 2"><g id="Calque_1-2" data-name="Calque 1"><path class="cls-1" d="M8.92.5S.5.5.5,8.92V65.08s0,8.42,8.42,8.42H65.08s8.42,0,8.42-8.42V8.92S73.51.5,65.08.5Z"/><path class="cls-2" d="M37.84,46.5a9.51,9.51,0,1,1,9.51-9.45,9.52,9.52,0,0,1-9.51,9.45m12.25,3.84L50,50.15q-.73-2.26-1.46-4.52a.37.37,0,0,1,.06-.39,13.35,13.35,0,0,0,2.8-7.79A13.18,13.18,0,0,0,50.85,33c0-.06,0-.12,0-.19l13.69-11c-2,.6-4.06,1.26-6.08,1.9l-6.35,2-.15.06-4.4,1.41a.27.27,0,0,1-.3-.09,13.4,13.4,0,0,0-8.29-3.71,13.13,13.13,0,0,0-4.3.35l-.72.19,0,0,0,0,0,0L22.25,9.56l0,0v0h0l0,0,2.26,7.06,2,6.37c0,.1.06.17.08.23.46,1.43.92,2.86,1.38,4.29a.35.35,0,0,1-.08.4,13.38,13.38,0,0,0-3.54,8.45,13.08,13.08,0,0,0,.26,3.43.3.3,0,0,1-.13.34l-3.84,3.09L9.67,51.94l-.16.14,0,0L17,49.73l6.28-2,4.64-1.48a13.61,13.61,0,0,0,14.76,3.48L54.58,64.54l0,0-2.47-7.69Z"/><path class="cls-2" d="M45.45,60.25a24.48,24.48,0,0,1-10.8,1A24,24,0,0,1,24.53,57.5,24.51,24.51,0,0,1,17,49.73l6.28-2A18.14,18.14,0,0,0,42.52,54.5l2.93,5.75"/><path class="cls-2" d="M58.41,23.74l-6.35,2a18.1,18.1,0,0,0-18.45-6.4L30.66,13.6a24.4,24.4,0,0,1,10.47-.85,24,24,0,0,1,9.82,3.58,24.51,24.51,0,0,1,7.46,7.41"/><path class="cls-2" d="M26.44,22.93A18.07,18.07,0,0,0,20,40.25l-5.84,2.91a24.41,24.41,0,0,1,4.61-21.49,24.54,24.54,0,0,1,5.61-5.11Z"/><path class="cls-2" d="M62.16,39.68A24,24,0,0,1,59,49.3a24.43,24.43,0,0,1-6.83,7.52l-2.06-6.48A18.08,18.08,0,0,0,54,45.18,18.14,18.14,0,0,0,55.4,32.51l5.76-2.94a24.46,24.46,0,0,1,1,10.11"/><path class="cls-2" d="M43.74,37a5.89,5.89,0,1,1-5.9-5.88A5.88,5.88,0,0,1,43.74,37"/><path class="cls-2" d="M31,115.36a5.46,5.46,0,0,0,1.9-.34,4.93,4.93,0,0,0,2.74-2.43,4,4,0,0,0,.43-1.82V100.55H26v10a4.42,4.42,0,0,0,.41,1.9A5.07,5.07,0,0,0,27.49,114a5.2,5.2,0,0,0,1.62,1,5,5,0,0,0,1.9.38m17.07-14.82H38.23v9.18a4.09,4.09,0,0,0,.41,1.82A4.63,4.63,0,0,0,39.73,113a5,5,0,0,0,1.56.94,5.14,5.14,0,0,0,1.86.34,5.71,5.71,0,0,0,1.92-.32,4.68,4.68,0,0,0,1.56-.9,4.53,4.53,0,0,0,1.05-1.37,3.82,3.82,0,0,0,.4-1.73ZM30.56,118a6.32,6.32,0,0,1-2.76-.6,7,7,0,0,1-2.18-1.62,7.3,7.3,0,0,1-1.43-2.37,8.18,8.18,0,0,1-.51-2.89V97.91h26.7v12.86a5.27,5.27,0,0,1-.6,2.52,6.29,6.29,0,0,1-1.56,1.92A7.17,7.17,0,0,1,46,116.43a7.36,7.36,0,0,1-2.46.43,7,7,0,0,1-3.7-1,6.28,6.28,0,0,1-2.5-2.82,6.67,6.67,0,0,1-2.52,3.63A7.12,7.12,0,0,1,30.56,118"/><polygon class="cls-2" points="26 150.29 23.67 150.29 23.67 132.36 50.37 132.36 50.37 149.96 48.04 149.96 48.04 134.99 38.41 134.99 38.41 148.04 36.2 148.04 36.2 134.99 26 134.99 26 150.29"/><polygon class="cls-2" points="45.48 167.29 23.67 167.29 23.67 164.66 50.37 164.66 50.37 166.69 28.15 184.36 50.33 184.36 50.33 187 23.67 187 23.67 184.7 45.48 167.29"/><path class="cls-2" d="M37,204a12.42,12.42,0,0,0-4.19.71,11.41,11.41,0,0,0-3.57,2,10,10,0,0,0-2.48,3.12,8.72,8.72,0,0,0-.92,4,8.62,8.62,0,0,0,1,4.1,10,10,0,0,0,2.56,3.12A11.82,11.82,0,0,0,33,223a12.29,12.29,0,0,0,8.25,0,11.49,11.49,0,0,0,3.55-2,10.12,10.12,0,0,0,2.46-3.12,8.64,8.64,0,0,0,.92-4,8.74,8.74,0,0,0-1-4.1,9.76,9.76,0,0,0-2.54-3.12,11.84,11.84,0,0,0-3.57-2A12.24,12.24,0,0,0,37,204m-13.54,9.89a11.3,11.3,0,0,1,1.15-5.09,12.65,12.65,0,0,1,3-4A13.8,13.8,0,0,1,32,202.22a14.32,14.32,0,0,1,5-.9,13.89,13.89,0,0,1,5.11,1,14.1,14.1,0,0,1,4.32,2.65,12.83,12.83,0,0,1,3,4,11.25,11.25,0,0,1,1.11,5,11,11,0,0,1-1.18,5.1,12.78,12.78,0,0,1-3.1,3.95,14.31,14.31,0,0,1-4.34,2.54,14.07,14.07,0,0,1-4.95.9,13.89,13.89,0,0,1-5.11-1,14,14,0,0,1-4.31-2.63,12.74,12.74,0,0,1-3-4,11.26,11.26,0,0,1-1.11-5"/><rect class="cls-2" x="23.67" y="240.73" width="26.7" height="2.63"/><polygon class="cls-2" points="48.04 278.4 48.04 268.89 23.67 268.89 23.67 266.26 48.04 266.26 48.04 256.75 50.37 256.75 50.37 278.4 48.04 278.4"/><path class="cls-2" d="M37.21,308a14.27,14.27,0,0,1,4.79.85,13.29,13.29,0,0,1,4.27,2.46,12.64,12.64,0,0,1,3.06,4,11.87,11.87,0,0,1,1.18,5.38,11.13,11.13,0,0,1-1.62,6.11,9.84,9.84,0,0,1-4.21,3.74l-1.28-2.07a7.94,7.94,0,0,0,2.22-1.56,8.71,8.71,0,0,0,1.47-2,8.35,8.35,0,0,0,.81-2.18,10.45,10.45,0,0,0,.24-2.22,8.93,8.93,0,0,0-1-4.25,9.76,9.76,0,0,0-2.56-3.1,11.14,11.14,0,0,0-3.55-1.9,12.93,12.93,0,0,0-4-.64,11.87,11.87,0,0,0-4.25.77,12.06,12.06,0,0,0-3.59,2.11,10.11,10.11,0,0,0-2.48,3.16,8.66,8.66,0,0,0-.92,4,10,10,0,0,0,.28,2.31,8.9,8.9,0,0,0,.9,2.29,9.62,9.62,0,0,0,1.54,2,8,8,0,0,0,2.24,1.58L29.65,331A8.17,8.17,0,0,1,27,329.2a11.88,11.88,0,0,1-1.94-2.59,12.93,12.93,0,0,1-1.2-3,12.5,12.5,0,0,1-.41-3.14,10.67,10.67,0,0,1,1.2-5,13.2,13.2,0,0,1,3.14-3.95,14.53,14.53,0,0,1,4.4-2.58,14.2,14.2,0,0,1,5-.92"/><polygon class="cls-2" points="50.37 365.98 23.67 365.98 23.67 363.38 36.16 363.38 36.16 347.56 23.67 347.56 23.67 344.92 50.37 344.92 50.37 347.56 38.49 347.56 38.49 363.38 50.37 363.38 50.37 365.98"/><path class="cls-2" d="M34.09,396.81l13.2-5.38L34.09,386Zm16.28-6.47v2.22l-26.7,11.09v-2.78L32,397.42v-12L23.67,382v-2.82Z"/><polygon class="cls-2" points="45.48 419.52 23.67 419.52 23.67 416.89 50.37 416.89 50.37 418.92 28.15 436.6 50.33 436.6 50.33 439.23 23.67 439.23 23.67 436.94 45.48 419.52"/><path class="cls-2" d="M27.58,474.61a11.3,11.3,0,0,1-4.1-8.57,10.76,10.76,0,0,1,1.17-5,13.15,13.15,0,0,1,3.08-3.95,14.52,14.52,0,0,1,4.34-2.61,13.67,13.67,0,0,1,5-.94,14.37,14.37,0,0,1,5.11.92,13.65,13.65,0,0,1,4.31,2.58,12.64,12.64,0,0,1,3,3.91,11,11,0,0,1,1.11,4.93,13.87,13.87,0,0,1-.43,3.57,10.87,10.87,0,0,1-1.2,2.88,9.15,9.15,0,0,1-1.84,2.18,11.5,11.5,0,0,1-2.35,1.56l-1.35-2A8.64,8.64,0,0,0,47,470.63a9.7,9.7,0,0,0,1.17-4.77,8.47,8.47,0,0,0-.94-4,9.67,9.67,0,0,0-2.5-3,11.44,11.44,0,0,0-3.57-1.94,13,13,0,0,0-4.15-.68,12,12,0,0,0-4.29.77,11.34,11.34,0,0,0-3.55,2.12,10.36,10.36,0,0,0-2.43,3.18,8.81,8.81,0,0,0-.9,4,9.46,9.46,0,0,0,1.07,4.38,13,13,0,0,0,3.4,4h4.44v-5.94h2v8.16H23.67v-2.22Z"/><polygon class="cls-2" points="26 509.58 23.67 509.58 23.67 491.64 50.37 491.64 50.37 509.24 48.04 509.24 48.04 494.28 38.41 494.28 38.41 507.33 36.2 507.33 36.2 494.28 26 494.28 26 509.58"/><path class="cls-2" d="M34.09,538.69l13.2-5.38-13.2-5.45Zm16.28-6.47v2.22l-26.7,11.09v-2.78L32,539.29v-12l-8.35-3.42v-2.82Z"/><polygon class="cls-2" points="48.04 553.43 48.04 562.94 23.67 562.94 23.67 565.57 48.04 565.57 48.04 575.09 50.37 575.09 50.37 553.43 48.04 553.43"/></g></g></svg>