<svg xmlns="http://www.w3.org/2000/svg" xmlns:xlink="http://www.w3.org/1999/xlink" viewBox="0 0 74.01 74.01"><defs><style>.cls-1,.cls-3{fill:none;}.cls-2{clip-path:url(#clip-path);}.cls-3{stroke:#fff;}.cls-4{fill:#fff;}</style><clipPath id="clip-path" transform="translate(0 0)"><rect class="cls-1" width="74.01" height="74.01"/></clipPath></defs><title>benoitchangeat-icon-white</title><g id="Calque_2" data-name="Calque 2"><g id="Calque_1-2" data-name="Calque 1"><g class="cls-2"><path class="cls-3" d="M8.92.5S.5.5.5,8.92V65.08s0,8.42,8.42,8.42H65.08s8.42,0,8.42-8.42V8.92S73.51.5,65.08.5Z" transform="translate(0 0)"/><path class="cls-4" d="M37.84,46.5a9.51,9.51,0,1,1,9.51-9.44,9.52,9.52,0,0,1-9.51,9.44m12.25,3.84L50,50.15q-.73-2.26-1.46-4.52a.37.37,0,0,1,.06-.39,13.35,13.35,0,0,0,2.8-7.79A13.18,13.18,0,0,0,50.85,33c0-.06,0-.12,0-.19l13.69-11c-2,.61-4.06,1.26-6.08,1.9l-6.35,2-.15.06-4.4,1.41a.27.27,0,0,1-.3-.09,13.4,13.4,0,0,0-8.29-3.71,13.13,13.13,0,0,0-4.3.35l-.72.19,0,0,0,0,0,0L22.25,9.56l0,0v0h0l0,0,2.26,7.06,2,6.37c0,.1.06.17.08.23.46,1.43.92,2.86,1.38,4.29a.35.35,0,0,1-.08.4,13.38,13.38,0,0,0-3.54,8.45,13.08,13.08,0,0,0,.26,3.43.3.3,0,0,1-.13.34l-3.84,3.09L9.67,51.94l-.16.14,0,0L17,49.73l6.28-2,4.64-1.49a13.61,13.61,0,0,0,14.76,3.48L54.58,64.54l0,0-2.47-7.69Z" transform="translate(0 0)"/><path class="cls-4" d="M45.45,60.25a24.48,24.48,0,0,1-10.8,1A24,24,0,0,1,24.53,57.5,24.51,24.51,0,0,1,17,49.73l6.28-2A18.14,18.14,0,0,0,42.52,54.5l2.93,5.75" transform="translate(0 0)"/><path class="cls-4" d="M58.41,23.74l-6.35,2a18.1,18.1,0,0,0-18.45-6.4L30.66,13.6a24.4,24.4,0,0,1,10.47-.85,24,24,0,0,1,9.82,3.58,24.51,24.51,0,0,1,7.46,7.41" transform="translate(0 0)"/><path class="cls-4" d="M26.44,22.93A18.07,18.07,0,0,0,20,40.25l-5.84,2.91a24.41,24.41,0,0,1,4.61-21.49,24.54,24.54,0,0,1,5.61-5.1Z" transform="translate(0 0)"/><path class="cls-4" d="M62.16,39.68A24,24,0,0,1,59,49.3a24.43,24.43,0,0,1-6.83,7.52l-2.06-6.48A18.08,18.08,0,0,0,54,45.18,18.14,18.14,0,0,0,55.4,32.51l5.76-2.94a24.46,24.46,0,0,1,1,10.11" transform="translate(0 0)"/><path class="cls-4" d="M43.74,37a5.89,5.89,0,1,1-5.9-5.88A5.88,5.88,0,0,1,43.74,37" transform="translate(0 0)"/></g></g></g></svg>