<svg xmlns="http://www.w3.org/2000/svg" xmlns:xlink="http://www.w3.org/1999/xlink" viewBox="0 0 111.87 169.18"><defs><style>.cls-1{fill:none;}.cls-2{isolation:isolate;}.cls-3{clip-path:url(#clip-path);}.cls-4{fill:#ffa014;}.cls-5{mix-blend-mode:overlay;}.cls-6{clip-path:url(#clip-path-3);}.cls-7{fill:#1d1d1b;}</style><clipPath id="clip-path" transform="translate(-10.9 -11.55)"><rect class="cls-1" x="10.9" y="11.55" width="111.87" height="169.18"/></clipPath><clipPath id="clip-path-3" transform="translate(-10.9 -11.55)"><rect class="cls-1" width="139.77" height="181.73"/></clipPath></defs><title>le-com-show-icon</title><g class="cls-2"><g id="Calque_2" data-name="Calque 2"><g id="Calque_1-2" data-name="Calque 1"><g class="cls-3"><g class="cls-3"><path class="cls-4" d="M51.87,40.86H76.16a2.58,2.58,0,0,0,0-5.17H51.87a2.58,2.58,0,0,0,0,5.17" transform="translate(-10.9 -11.55)"/><path class="cls-4" d="M57.44,30.18H70.59a2.58,2.58,0,0,0,0-5.17H57.44a2.58,2.58,0,0,0,0,5.17" transform="translate(-10.9 -11.55)"/><path class="cls-4" d="M82.76,46.38H45.27a2.58,2.58,0,0,0,0,5.17h37.5a2.58,2.58,0,0,0,0-5.17" transform="translate(-10.9 -11.55)"/><path class="cls-4" d="M82.76,57.38H45.27a2.58,2.58,0,0,0,0,5.17h37.5a2.58,2.58,0,0,0,0-5.17" transform="translate(-10.9 -11.55)"/><path class="cls-4" d="M114.21,71.81h0a3.19,3.19,0,0,0-.75-.1h-6a3.22,3.22,0,0,0-.48,6.41V96.67a43,43,0,0,1-85.92,0V78a3.21,3.21,0,0,0,0-6.14v-.06h-.2a3.19,3.19,0,0,0-.75-.1h-6a3.22,3.22,0,0,0-.3,6.43V96.67A50.25,50.25,0,0,0,57.5,146.41h-.07v19.43H70.59V146.41h-.07a50.25,50.25,0,0,0,43.68-49.74V78.06a3.22,3.22,0,0,0,0-6.25" transform="translate(-10.9 -11.55)"/><path class="cls-4" d="M34.57,46.17a29.45,29.45,0,1,1,58.89,0V71.74H34.57Zm12.95,81.72A34.64,34.64,0,0,0,86,124.16q1.28-1.06,2.46-2.23A34.5,34.5,0,0,0,98.63,97.45V46.17a34.62,34.62,0,1,0-69.24,0V97.45a34.6,34.6,0,0,0,18.12,30.43" transform="translate(-10.9 -11.55)"/><path class="cls-4" d="M79.2,169.55H48.83a4.86,4.86,0,0,0,0,9.72H79.2a4.86,4.86,0,0,0,0-9.72" transform="translate(-10.9 -11.55)"/><g class="cls-5"><g class="cls-6"><path class="cls-7" d="M58,42.31H82.26a2.58,2.58,0,0,0,0-5.17H58a2.58,2.58,0,0,0,0,5.17" transform="translate(-10.9 -11.55)"/><path class="cls-7" d="M63.54,31.63H76.69a2.58,2.58,0,0,0,0-5.17H63.54a2.58,2.58,0,0,0,0,5.17" transform="translate(-10.9 -11.55)"/><path class="cls-7" d="M88.87,47.83H51.37a2.58,2.58,0,0,0,0,5.17h37.5a2.58,2.58,0,0,0,0-5.17" transform="translate(-10.9 -11.55)"/><path class="cls-7" d="M88.87,58.83H51.37a2.58,2.58,0,0,0,0,5.17h37.5a2.58,2.58,0,0,0,0-5.17" transform="translate(-10.9 -11.55)"/><path class="cls-7" d="M120.31,73.26h0a3.19,3.19,0,0,0-.75-.1h-6a3.22,3.22,0,0,0-.48,6.41V98.12a43,43,0,0,1-85.92,0V79.46a3.21,3.21,0,0,0,0-6.14v-.06H27a3.19,3.19,0,0,0-.75-.1h-6a3.22,3.22,0,0,0-.3,6.43V98.12a50.25,50.25,0,0,0,43.68,49.74h-.07V167.3H76.69V147.87h-.07a50.25,50.25,0,0,0,43.68-49.74V79.52a3.22,3.22,0,0,0,0-6.25" transform="translate(-10.9 -11.55)"/><path class="cls-7" d="M40.67,47.62a29.45,29.45,0,1,1,58.89,0V73.2H40.67Zm12.95,81.72a34.64,34.64,0,0,0,38.52-3.73q1.28-1.06,2.46-2.23a34.5,34.5,0,0,0,10.14-24.47V47.62a34.62,34.62,0,0,0-69.24,0V98.91a34.6,34.6,0,0,0,18.12,30.43" transform="translate(-10.9 -11.55)"/><path class="cls-7" d="M85.3,171H54.94a4.86,4.86,0,0,0,0,9.72H85.3a4.86,4.86,0,0,0,0-9.72" transform="translate(-10.9 -11.55)"/></g></g></g></g></g></g></g></svg>