<svg xmlns="http://www.w3.org/2000/svg" xmlns:xlink="http://www.w3.org/1999/xlink" viewBox="0 0 258.25 173.32"><defs><style>.cls-1{fill:none;}.cls-2{isolation:isolate;}.cls-3{clip-path:url(#clip-path);}.cls-4{fill:#ffa014;}.cls-5{mix-blend-mode:overlay;}.cls-6{clip-path:url(#clip-path-4);}.cls-7{fill:#1d1d1b;}</style><clipPath id="clip-path" transform="translate(-14.49 -8.82)"><rect class="cls-1" x="14.49" y="8.82" width="258.25" height="173.32"/></clipPath><clipPath id="clip-path-4" transform="translate(-14.49 -8.82)"><rect class="cls-1" width="289.74" height="183.14"/></clipPath></defs><title>nouvelle-aube-icon</title><g class="cls-2"><g id="Calque_2" data-name="Calque 2"><g id="Calque_1-2" data-name="Calque 1"><g class="cls-3"><g class="cls-3"><path class="cls-4" d="M71.8,126.57l1.1.32c3.76,1,7.59,1.7,11.34,2.75,3.06.85,6.23,1.2,9.31,2,4.25,1,17.74,2.06,20.16,2.21a52.7,52.7,0,0,0,10-.21,30.62,30.62,0,0,0,9.57-3.11c2.24-1.09,4.45-2.2,6.77-3.1,3.14-1.21,15.1-5.21,18-5.73a56.77,56.77,0,0,1,5.88-1.06c1.73-.13,3.46-.19,5.2-.19a15.87,15.87,0,0,1,4.34.67c2.87.8,14.52,3.18,17.35,4.13,1.36.46,2.76.8,4.15,1.17.74.2.83.13.69-.6-.83-4.36-7.43-18.35-8.8-21.06A26.25,26.25,0,0,0,182,98.36c-2.39-1.93-6.2-5-8.51-7-4.22-3.74-8.53-5.43-13.89-6.92-3.28-.91-6.6-1.66-9.94-2.27A68.56,68.56,0,0,0,138,80.7a73.68,73.68,0,0,0-12.62.64,127.62,127.62,0,0,0-17.39,3.93,42.77,42.77,0,0,0-8.55,3.43,59.23,59.23,0,0,0-12,8.69,32.26,32.26,0,0,0-7.31,9.76c-1.31,2.89-2.65,5.76-4,8.64-1,2.25-2.11,4.5-3,6.84-.47,1.28-1,2.55-1.34,3.91m197.65,11.31a.59.59,0,0,1-.55.66,10.8,10.8,0,0,1-2.13.3,48.12,48.12,0,0,0-16.14,2.83,29,29,0,0,1-7.16,1.47,86.72,86.72,0,0,1-11.15,0,107.83,107.83,0,0,1-19.71-3.26c-6.23-1.54-12.44-3.1-18.55-5.07-3.83-1.24-7.73-2.24-11.63-3.23-2-.5-4-.7-6-1.15-2.49-.56-5-1.15-7.42-1.88a15,15,0,0,0-7.75-.23,56.4,56.4,0,0,0-8.74,2.58c-1.12.45-2.31.72-3.47,1.07a17.43,17.43,0,0,0-2.16.65c-3.58,1.61-7.31,2.84-10.81,4.65a41.25,41.25,0,0,1-13.76,4.41,77.24,77.24,0,0,1-13.14.29c-4-.16-8-.59-11.93-1a37.64,37.64,0,0,1-6.91-1.41c-5.41-1.55-10.69-3.51-16-5.25-3-1-5.86-2.08-8.9-2.77a42.76,42.76,0,0,0-12.08-1.1c-1.43.09-2.85.36-4.27.58-4.13.63-8.24,1.45-12.31,2.35q-9.62,2.13-19,5.19a.85.85,0,0,1-1.18-.85c0-.75,0-1.51,0-2.26a.78.78,0,0,1,.59-.88c1.11-.4,15.22-4.79,21.32-6,4.86-1,9.69-2.11,14.61-2.84a23,23,0,0,1,2.77-.24c2,0,7.4-.06,8.12,0,.35,0,.52-.06.6-.45.88-4.55,2.9-8.67,4.78-12.84,1.24-2.74,2.39-5.53,3.77-8.2a42.18,42.18,0,0,1,9.09-11.86A70.69,70.69,0,0,1,99.94,80.45a69.88,69.88,0,0,1,12.34-4.2,150.59,150.59,0,0,1,15.57-3.14c1.77-.26,3.57-.37,5.37-.5,2.95-.21,5.89-.11,8.84-.17,5.09,0,16.06,2.12,20.22,3.16a59.21,59.21,0,0,1,8.32,2.63,29.9,29.9,0,0,1,7,4c2.56,2,4.55,4.26,7.12,6.24,2.83,3.19,5.1,4.91,7.11,7.57a47.82,47.82,0,0,1,4,6.31c.92,1.71,1.9,3.39,2.83,5.09a87,87,0,0,1,7.73,18.3,26.53,26.53,0,0,1,.77,3.69,1,1,0,0,0,.9,1c6.48,1.6,12.93,3.31,19.51,4.43,2.58.44,5.19.68,7.8.9,2.13.18,4.26.11,6.38.21a24.77,24.77,0,0,0,8.78-1.33,69.17,69.17,0,0,1,10.27-2.56,46.52,46.52,0,0,1,8.69-.71c.8,0,.86.07.68.85-.26,1.15-.67,5.06-.69,5.64" transform="translate(-14.49 -8.82)"/><path class="cls-4" d="M40,168.53c.12-1.43.26-2.87.37-4.3a.72.72,0,0,1,.51-.64,2.12,2.12,0,0,1,.86-.17c2.13-.05,4.23-.36,6.34-.53,1.17-.1,2.35-.12,3.53-.2,3.78-.26,7.55-.67,11.34-.88,2-.11,4-.25,6.07-.39,5.1-.34,10.21-.34,15.32-.32a51.28,51.28,0,0,1,6.64.62c7.75,1.06,15.38,2.76,23,4.5,3.51.8,7,1.71,10.52,2.4a73.42,73.42,0,0,0,8.95,1.15c3.7.25,7.4.17,11.1.13a30.38,30.38,0,0,0,7.42-1.3,106.34,106.34,0,0,0,12.79-4.72,111.57,111.57,0,0,1,13.44-4.66,74.19,74.19,0,0,1,9.81-1.9c3.15-.4,6.3-.71,9.47-.82,1.24,0,2.48-.1,3.73-.13a.77.77,0,0,0,1,0h9.24a.54.54,0,0,0,.79,0c2.38.17,4.76.43,7.13.7,2.21.25,4.43.44,6.64.66,3,.31,6,.64,9,.93,2.44.23,4.88.54,7.31.83,3.64.44,7.27,1,10.86,1.65a82.16,82.16,0,0,0,9.32,1.35,1.33,1.33,0,0,1,.85.25,3.14,3.14,0,0,1-.6,1.2c-.75,1.23-1.52,2.44-2.28,3.67a17.54,17.54,0,0,0-1.48,3.09c-.32.84-.33.86-1.2.8a54.81,54.81,0,0,1-5.45-.7c-4.38-.75-8.74-1.66-13.15-2.2-3.08-.38-6.17-.71-9.26-1-2.86-.31-5.72-.65-8.58-.9-3.23-.28-6.45-.63-9.65-1.07a76.29,76.29,0,0,0-10.39-.4c-2.49,0-5,0-7.47.06a70.35,70.35,0,0,0-8.09.79,73.77,73.77,0,0,0-14.35,3.54c-3.61,1.28-7.15,2.73-10.72,4.12a64.59,64.59,0,0,1-15.33,4,29.54,29.54,0,0,1-3.32.22c-2.56,0-5.11.06-7.67,0a77.11,77.11,0,0,1-13.94-1.44c-4-.83-7.95-1.91-11.91-2.92-6.08-1.55-12.21-3-18.4-4q-4.45-.75-8.94-1.19c-.49,0-1,0-1.47,0-2.13,0-4.26,0-6.39,0-2.36-.05-4.71.14-7.06.23-2.81.11-5.61.34-8.41.58a86.63,86.63,0,0,1-10.37.57,42.89,42.89,0,0,1-7.3-.76.44.44,0,0,0-.12-.44" transform="translate(-14.49 -8.82)"/><path class="cls-4" d="M132.76,55.37l-.17-1.77c.17-.14.15-.27,0-.39q-.09-1.77-.18-3.54a1.69,1.69,0,0,0,0-1.57q0-2.46,0-4.91a2.14,2.14,0,0,0,0-1.77q.09-3.83.18-7.66a.76.76,0,0,0,0-1c.22-6.24.17-12.49.21-18.74a19.68,19.68,0,0,1,.41-3.5,4.44,4.44,0,0,1,.24-.75,1.33,1.33,0,0,1,1.47-1c1.4.07,2.81,0,4.22,0,.5,0,.71.15.68.67-.06,1.33-.18,2.66-.17,4,.05,4.41,0,8.83,0,13.25,0,1.57,0,3.14-.07,4.71-.19,2.81-.06,5.62-.2,8.42-.17,3.27-.09,6.53-.2,9.79-.08,2.47-.22,4.95-.53,7.41,0,.22-.14.44-.16.66,0,.4-.25.55-.65.57-1,0-2.09.12-3.13.18-.14-.17-.27-.16-.39,0-1.06.05-.91.12-1.2-.83a7,7,0,0,1-.35-1.92c.17-.14.14-.27,0-.39" transform="translate(-14.49 -8.82)"/><path class="cls-4" d="M17.56,92.19a6.88,6.88,0,0,1,2.85.75c1.15.55,2.26,1.19,3.37,1.82a145,145,0,0,0,20.1,9.36L53,107.64c.68.26.69.27.47,1-.35,1.16-.59,2.35-.84,3.53-.16.76-.17.72-.93.61-1.91-.28-3.8-.71-5.68-1.12a77.82,77.82,0,0,1-16.29-5c-2.7-1.25-5.48-2.36-8.08-3.8a29.4,29.4,0,0,1-5.44-3.69,9.88,9.88,0,0,1-1.76-2.09,11.56,11.56,0,0,1,1-2.12c.42-.82.88-1.61,1.32-2.41.15-.28.33-.5.75-.37" transform="translate(-14.49 -8.82)"/><path class="cls-4" d="M87.37,71.41c-.06.11-.14.29-.24.45-.79,1.21-1.78,2.26-2.62,3.43-.29.4-.59.18-.84,0a20.44,20.44,0,0,1-3-2.52c-1.83-2-3.45-4.2-5.06-6.38C70.68,59.75,66,53,61.28,46.19a27.32,27.32,0,0,1-3.08-5.68c-.28-.73-.29-.77.33-1.21,1.15-.81,2.31-1.6,3.46-2.42a.61.61,0,0,1,.93.09,21,21,0,0,1,2.51,3C72,49.52,78.62,59,85.36,68.46c.55.77,1.15,1.51,1.72,2.27a1,1,0,0,1,.28.68" transform="translate(-14.49 -8.82)"/><path class="cls-4" d="M181.21,70.19a.58.58,0,0,1-.41-.2,20.53,20.53,0,0,0-3-2.19c-.44-.27-.46-.51-.18-.94,4.59-7,9.22-13.92,14.47-20.43a83,83,0,0,1,6.21-7.09,6.61,6.61,0,0,1,2-1.36.78.78,0,0,1,1,.18c1.09,1.09,2,2.32,3.06,3.45.31.34.1.6-.09.86a39.13,39.13,0,0,1-2.6,3.2c-3.92,4.41-7.48,9.1-10.95,13.87-1.65,2.28-3.31,4.56-5.14,6.7a23.28,23.28,0,0,1-3.66,3.55,1.88,1.88,0,0,1-.69.39" transform="translate(-14.49 -8.82)"/><path class="cls-4" d="M220.9,113.44a2.34,2.34,0,0,1-2.35-2.44,3.29,3.29,0,0,1,2.41-3c7.32-2.82,15-4.26,22.56-6.26,2.91-.77,5.81-1.57,8.67-2.48,1.31-.42,2.69-.58,4-1.11.41-.17.54.05.6.38.31,1.5.6,3,.91,4.52a.39.39,0,0,1-.19.49,13.92,13.92,0,0,1-3.15,1.55c-5.87,1.83-11.82,3.34-17.82,4.69-4.59,1-9.21,1.93-13.72,3.3a15.93,15.93,0,0,1-1.89.37" transform="translate(-14.49 -8.82)"/><path class="cls-4" d="M41.67,78.9a9.07,9.07,0,0,1,1.9.48c5.31,2,10.4,4.46,15.55,6.81,2.08,1,4.19,1.86,6.28,2.79.45.2.87.46,1.32.66s.4.43.2.78a52.09,52.09,0,0,1-4.11,6.22c-.32.41-.59.25-.93.11-2.58-1-5.12-2.17-7.64-3.36-2-.92-3.92-1.82-5.88-2.74a8.23,8.23,0,0,1-.8-.38c-2-1.23-4.18-2.3-6.27-3.45a13.37,13.37,0,0,1-2.59-1.93.79.79,0,0,1-.16-1.17c.82-1.38,1.56-2.8,2.32-4.21.22-.4.47-.74.81-.61" transform="translate(-14.49 -8.82)"/><path class="cls-4" d="M157.53,61.65a13.43,13.43,0,0,1-3.11-1.13c-.74-.44-.83-.88-.61-1.76a2.2,2.2,0,0,1,.35-.8,38.61,38.61,0,0,0,3-5.4q2.41-4.6,4.44-9.4a18.41,18.41,0,0,1,2.3-4c.54-.71.57-.73,1.37-.42a26,26,0,0,1,3.4,1.53.78.78,0,0,1,.43.95,17.1,17.1,0,0,1-1.3,4.1A62.85,62.85,0,0,1,160.81,58c-.64.91-1.19,1.87-1.81,2.8a1.47,1.47,0,0,1-1.47.82" transform="translate(-14.49 -8.82)"/><path class="cls-4" d="M112.52,59.5A1.48,1.48,0,0,1,111.8,61c-1.22.7-2.53,1.23-3.77,1.9-.35.19-.56,0-.72-.25a12.68,12.68,0,0,1-1-1.91c-.83-2.45-2-4.77-3-7.12-.83-1.85-1.72-3.67-2.52-5.53a15.75,15.75,0,0,1-.75-2.43c-.17-.7,0-.89.61-1.25s1.45-.76,2.14-1.19a.92.92,0,0,1,1.16.05,7.5,7.5,0,0,1,2,2.28q2.15,3.8,4,7.74c.68,1.44,1.37,2.89,2,4.35a17.28,17.28,0,0,1,.6,1.88" transform="translate(-14.49 -8.82)"/><path class="cls-4" d="M209.16,70.13c.52-.1.83.09,1,.69.33,1,.79,2,1.2,3,.34.82.36.84-.33,1.4a71.86,71.86,0,0,1-8.41,6.1c-1.2.71-2.41,1.4-3.63,2.1a2.44,2.44,0,0,1-.55.21.66.66,0,0,1-.92-.44c-.35-.92-.74-1.81-1.14-2.71a.62.62,0,0,1,0-.64,5.09,5.09,0,0,1,1.11-1.35c2.69-2.29,5.5-4.44,8.25-6.65a8.33,8.33,0,0,1,2.17-1.5,2.5,2.5,0,0,1,1.19-.21" transform="translate(-14.49 -8.82)"/><path class="cls-4" d="M132.39,41.42a2.14,2.14,0,0,1,0,1.77,2.28,2.28,0,0,1,0-1.77" transform="translate(-14.49 -8.82)"/><path class="cls-4" d="M132.37,48.1a1.69,1.69,0,0,1,0,1.57,1.82,1.82,0,0,1,0-1.57" transform="translate(-14.49 -8.82)"/><path class="cls-4" d="M132.58,32.78a.76.76,0,0,1,0,1,.82.82,0,0,1,0-1" transform="translate(-14.49 -8.82)"/><path class="cls-4" d="M202.18,156.35a.77.77,0,0,1-1,0,.81.81,0,0,1,1,0" transform="translate(-14.49 -8.82)"/><path class="cls-4" d="M212.2,156.36a.54.54,0,0,1-.79,0,.57.57,0,0,1,.79,0" transform="translate(-14.49 -8.82)"/><path class="cls-4" d="M132.57,53.21c.17.12.19.25,0,.39-.16-.12-.18-.25,0-.39" transform="translate(-14.49 -8.82)"/><path class="cls-4" d="M132.76,55.37c.17.12.2.25,0,.39-.16-.12-.19-.25,0-.39" transform="translate(-14.49 -8.82)"/><path class="cls-4" d="M134.34,58.51c.12-.17.25-.19.39,0-.12.16-.25.17-.39,0" transform="translate(-14.49 -8.82)"/><path class="cls-4" d="M40,168.53a.44.44,0,0,1,.13.44c-.24-.09-.35-.22-.12-.44" transform="translate(-14.49 -8.82)"/></g><polygon class="cls-4" points="57.03 110.37 57.03 119.81 91.27 126.89 126 123.32 149.12 113.91 185.72 120.99 183.36 104.46 168.01 84.57 149.12 71.4 113.7 69.63 90.09 72.58 74.74 84.57 62.93 96.2 57.03 110.37"/><g class="cls-3"><g class="cls-5"><g class="cls-6"><path class="cls-7" d="M74.31,130.75l1.1.32c3.76,1,7.59,1.7,11.34,2.75,3.06.85,6.23,1.2,9.31,2,4.25,1,17.75,2.06,20.16,2.21a52.7,52.7,0,0,0,10-.21,30.62,30.62,0,0,0,9.57-3.11c2.24-1.09,4.45-2.2,6.77-3.1,3.14-1.21,15.1-5.21,18-5.73a56.77,56.77,0,0,1,5.88-1.06c1.73-.13,3.46-.19,5.2-.19a15.87,15.87,0,0,1,4.34.67c2.87.8,14.52,3.18,17.35,4.13,1.36.46,2.76.8,4.15,1.17.74.2.83.13.69-.6-.83-4.36-7.43-18.35-8.8-21.06a26.23,26.23,0,0,0-4.91-6.35c-2.39-1.94-6.2-5-8.51-7-4.22-3.74-8.53-5.43-13.89-6.92-3.28-.92-6.6-1.66-9.94-2.27a68.56,68.56,0,0,0-11.66-1.45,73.68,73.68,0,0,0-12.62.64,127.62,127.62,0,0,0-17.39,3.93,42.77,42.77,0,0,0-8.55,3.43,59.26,59.26,0,0,0-12,8.69,32.26,32.26,0,0,0-7.31,9.76c-1.31,2.89-2.65,5.76-4,8.64-1,2.25-2.11,4.5-3,6.84-.47,1.28-1,2.55-1.34,3.91M272,142.06a.59.59,0,0,1-.55.66,10.8,10.8,0,0,1-2.13.3,48.12,48.12,0,0,0-16.14,2.83,29,29,0,0,1-7.16,1.47,86.72,86.72,0,0,1-11.15,0A107.83,107.83,0,0,1,215.13,144c-6.23-1.54-12.44-3.1-18.55-5.07-3.83-1.24-7.73-2.24-11.63-3.23-2-.5-4-.7-6-1.15-2.49-.56-5-1.15-7.42-1.88a15,15,0,0,0-7.75-.23,56.4,56.4,0,0,0-8.74,2.58c-1.12.45-2.31.72-3.47,1.07a17.43,17.43,0,0,0-2.16.65c-3.58,1.61-7.31,2.84-10.81,4.65a41.25,41.25,0,0,1-13.76,4.41,77.23,77.23,0,0,1-13.14.29c-4-.16-8-.59-11.93-1a37.64,37.64,0,0,1-6.91-1.41c-5.41-1.55-10.69-3.51-16-5.25-3-1-5.86-2.08-8.9-2.77a42.76,42.76,0,0,0-12.08-1.1c-1.43.09-2.85.36-4.27.58-4.13.63-8.24,1.45-12.31,2.35q-9.62,2.13-19,5.19a.85.85,0,0,1-1.18-.85c0-.75,0-1.51,0-2.26a.78.78,0,0,1,.59-.88c1.11-.4,15.22-4.79,21.32-6,4.86-1,9.69-2.11,14.61-2.84a23,23,0,0,1,2.77-.24c2,0,7.4-.06,8.12,0,.35,0,.52-.06.6-.45.88-4.54,2.9-8.67,4.78-12.84,1.24-2.74,2.39-5.53,3.77-8.2a42.17,42.17,0,0,1,9.1-11.86,70.67,70.67,0,0,1,17.71-11.71,69.88,69.88,0,0,1,12.34-4.2,150.59,150.59,0,0,1,15.57-3.14c1.77-.26,3.57-.37,5.37-.5,2.95-.21,5.89-.11,8.84-.17,5.09,0,16.06,2.12,20.22,3.16a59.21,59.21,0,0,1,8.32,2.63,29.9,29.9,0,0,1,7,4c2.56,2,4.55,4.26,7.12,6.24,2.83,3.19,5.1,4.91,7.11,7.57a47.82,47.82,0,0,1,4,6.31c.92,1.71,1.9,3.39,2.83,5.09a87,87,0,0,1,7.73,18.3,26.53,26.53,0,0,1,.77,3.69,1,1,0,0,0,.9,1c6.48,1.6,12.93,3.31,19.51,4.43,2.58.44,5.19.68,7.8.9,2.13.18,4.26.11,6.38.21a24.77,24.77,0,0,0,8.78-1.33,69.17,69.17,0,0,1,10.27-2.56,46.54,46.54,0,0,1,8.69-.71c.8,0,.86.07.68.85-.26,1.15-.67,5.06-.69,5.64" transform="translate(-14.49 -8.82)"/><path class="cls-7" d="M42.49,172.71c.12-1.43.26-2.87.37-4.3a.72.72,0,0,1,.51-.64,2.12,2.12,0,0,1,.86-.17c2.13-.05,4.23-.36,6.34-.53,1.17-.1,2.35-.12,3.52-.2,3.78-.26,7.55-.67,11.34-.88,2-.11,4-.25,6.07-.39,5.1-.34,10.21-.34,15.32-.32a51.29,51.29,0,0,1,6.64.62c7.75,1.05,15.38,2.76,23,4.5,3.51.8,7,1.71,10.52,2.4a73.42,73.42,0,0,0,8.95,1.15c3.7.25,7.4.17,11.1.13a30.38,30.38,0,0,0,7.42-1.3A106.34,106.34,0,0,0,167.24,168a111.61,111.61,0,0,1,13.44-4.66,74.2,74.2,0,0,1,9.82-1.9c3.15-.4,6.3-.71,9.47-.82,1.24,0,2.48-.1,3.73-.13a.77.77,0,0,0,1,0h9.24a.54.54,0,0,0,.79,0c2.38.17,4.76.43,7.13.7,2.21.25,4.43.44,6.64.66,3,.31,6,.64,9,.93,2.44.23,4.88.54,7.31.83,3.64.44,7.27,1,10.86,1.65a82.16,82.16,0,0,0,9.32,1.35,1.33,1.33,0,0,1,.85.25,3.14,3.14,0,0,1-.6,1.2c-.75,1.23-1.52,2.44-2.28,3.67a17.54,17.54,0,0,0-1.48,3.09c-.32.84-.33.86-1.2.8a54.81,54.81,0,0,1-5.45-.7c-4.38-.75-8.74-1.66-13.15-2.2-3.08-.38-6.17-.71-9.26-1-2.86-.31-5.72-.65-8.58-.9-3.23-.28-6.45-.63-9.65-1.07a76.29,76.29,0,0,0-10.39-.4c-2.49,0-5,0-7.47.06a70.35,70.35,0,0,0-8.09.79,73.77,73.77,0,0,0-14.35,3.54c-3.61,1.28-7.15,2.73-10.72,4.12a64.59,64.59,0,0,1-15.33,4,29.54,29.54,0,0,1-3.32.22c-2.56,0-5.11.06-7.67,0a77.11,77.11,0,0,1-13.94-1.44c-4-.83-7.95-1.91-11.91-2.92-6.08-1.55-12.21-3-18.4-4q-4.45-.75-8.94-1.19c-.49,0-1,0-1.47,0-2.13,0-4.26,0-6.39,0-2.36-.05-4.71.14-7.06.23-2.81.11-5.61.34-8.41.58a86.63,86.63,0,0,1-10.37.57,42.89,42.89,0,0,1-7.3-.76.44.44,0,0,0-.12-.44" transform="translate(-14.49 -8.82)"/><path class="cls-7" d="M135.27,59.55l-.17-1.77c.17-.14.15-.27,0-.39q-.09-1.77-.18-3.54a1.69,1.69,0,0,0,0-1.57q0-2.46,0-4.91a2.14,2.14,0,0,0,0-1.77q.09-3.83.18-7.66a.76.76,0,0,0,0-1c.22-6.24.17-12.49.21-18.74a19.77,19.77,0,0,1,.41-3.5A4.44,4.44,0,0,1,136,14a1.33,1.33,0,0,1,1.47-1c1.4.07,2.81,0,4.22,0,.5,0,.71.15.68.67-.06,1.33-.18,2.66-.17,4,.05,4.41,0,8.83,0,13.25,0,1.57,0,3.14-.07,4.71-.19,2.81-.06,5.62-.2,8.42-.17,3.27-.09,6.53-.2,9.79-.08,2.47-.22,4.95-.53,7.41,0,.22-.14.44-.16.66,0,.4-.25.55-.65.57-1,0-2.09.12-3.13.18-.14-.17-.27-.16-.39,0-1.06.05-.91.12-1.2-.83a7,7,0,0,1-.35-1.92c.17-.14.14-.27,0-.39" transform="translate(-14.49 -8.82)"/><path class="cls-7" d="M20.07,96.37a6.88,6.88,0,0,1,2.85.75c1.15.55,2.26,1.19,3.37,1.82a145,145,0,0,0,20.1,9.36l9.16,3.52c.68.26.69.27.47,1-.35,1.16-.59,2.35-.84,3.53-.16.76-.17.72-.93.61-1.91-.28-3.8-.71-5.68-1.12a77.85,77.85,0,0,1-16.29-5c-2.7-1.25-5.47-2.36-8.08-3.8a29.4,29.4,0,0,1-5.44-3.69A9.88,9.88,0,0,1,17,101.27a11.56,11.56,0,0,1,1-2.12c.42-.82.88-1.61,1.32-2.41.15-.28.33-.5.75-.37" transform="translate(-14.49 -8.82)"/><path class="cls-7" d="M89.88,75.59a5,5,0,0,1-.25.45c-.79,1.21-1.78,2.26-2.62,3.43-.29.4-.59.18-.84,0a20.39,20.39,0,0,1-3-2.52c-1.83-2-3.45-4.2-5.06-6.38-4.91-6.63-9.62-13.4-14.31-20.18a27.32,27.32,0,0,1-3.08-5.68c-.28-.73-.29-.77.33-1.21,1.15-.81,2.31-1.6,3.46-2.42a.61.61,0,0,1,.93.09,21.06,21.06,0,0,1,2.51,3c6.58,9.54,13.19,19.05,19.93,28.47.55.77,1.15,1.51,1.72,2.27a1,1,0,0,1,.28.68" transform="translate(-14.49 -8.82)"/><path class="cls-7" d="M183.72,74.37a.58.58,0,0,1-.41-.2,20.53,20.53,0,0,0-3-2.19c-.44-.27-.46-.51-.18-.94,4.59-7,9.22-13.92,14.47-20.43a83,83,0,0,1,6.21-7.09,6.62,6.62,0,0,1,2-1.36.78.78,0,0,1,1,.18c1.09,1.09,2,2.32,3.06,3.45.31.34.1.6-.09.86a39.13,39.13,0,0,1-2.6,3.2c-3.92,4.41-7.48,9.1-10.95,13.87-1.65,2.28-3.31,4.56-5.14,6.7A23.28,23.28,0,0,1,184.41,74a1.88,1.88,0,0,1-.69.39" transform="translate(-14.49 -8.82)"/><path class="cls-7" d="M223.41,117.62a2.34,2.34,0,0,1-2.35-2.44,3.29,3.29,0,0,1,2.41-3c7.32-2.82,15-4.26,22.56-6.26,2.91-.77,5.81-1.57,8.67-2.48,1.31-.42,2.69-.58,4-1.11.41-.17.54.05.6.38.31,1.5.6,3,.91,4.52a.39.39,0,0,1-.19.49,13.92,13.92,0,0,1-3.15,1.55C251,111.09,245,112.61,239,114c-4.59,1-9.21,1.93-13.72,3.3a15.93,15.93,0,0,1-1.89.37" transform="translate(-14.49 -8.82)"/><path class="cls-7" d="M44.18,83.08a9.07,9.07,0,0,1,1.9.48c5.31,2,10.4,4.46,15.55,6.81,2.08,1,4.19,1.86,6.28,2.79.45.2.87.46,1.32.66s.4.43.2.78a52.09,52.09,0,0,1-4.11,6.22c-.32.41-.59.25-.93.11-2.58-1-5.12-2.17-7.64-3.36-2-.92-3.92-1.82-5.88-2.74a8.23,8.23,0,0,1-.8-.38c-2-1.23-4.18-2.3-6.27-3.45a13.37,13.37,0,0,1-2.59-1.93A.79.79,0,0,1,41,87.9c.82-1.38,1.56-2.8,2.32-4.21.22-.4.47-.74.81-.61" transform="translate(-14.49 -8.82)"/><path class="cls-7" d="M160,65.83a13.43,13.43,0,0,1-3.11-1.13c-.74-.44-.83-.88-.61-1.76a2.2,2.2,0,0,1,.35-.8,38.61,38.61,0,0,0,3-5.4q2.41-4.6,4.44-9.4a18.41,18.41,0,0,1,2.3-4c.54-.71.57-.73,1.37-.42a26,26,0,0,1,3.4,1.53.78.78,0,0,1,.43.95,17.1,17.1,0,0,1-1.3,4.1,62.85,62.85,0,0,1-6.95,12.71c-.64.91-1.19,1.87-1.81,2.8a1.47,1.47,0,0,1-1.47.82" transform="translate(-14.49 -8.82)"/><path class="cls-7" d="M115,63.68a1.48,1.48,0,0,1-.72,1.46c-1.22.7-2.53,1.23-3.77,1.9-.35.19-.56,0-.72-.25a12.68,12.68,0,0,1-1-1.91c-.83-2.45-2-4.77-3-7.12-.83-1.85-1.72-3.67-2.52-5.53a15.75,15.75,0,0,1-.75-2.43c-.17-.7,0-.89.61-1.25s1.45-.76,2.14-1.19a.92.92,0,0,1,1.16.05,7.5,7.5,0,0,1,2,2.28q2.15,3.8,4,7.74c.68,1.44,1.37,2.89,2,4.35a17.28,17.28,0,0,1,.6,1.88" transform="translate(-14.49 -8.82)"/><path class="cls-7" d="M211.67,74.31c.52-.1.83.09,1,.69.33,1,.79,2,1.2,3,.34.82.36.84-.33,1.4a72,72,0,0,1-8.41,6.1c-1.2.71-2.41,1.4-3.63,2.1a2.44,2.44,0,0,1-.55.21.66.66,0,0,1-.92-.44c-.35-.92-.74-1.81-1.14-2.71a.62.62,0,0,1,0-.64,5.09,5.09,0,0,1,1.11-1.35c2.69-2.29,5.5-4.44,8.25-6.65a8.34,8.34,0,0,1,2.17-1.5,2.5,2.5,0,0,1,1.19-.21" transform="translate(-14.49 -8.82)"/><path class="cls-7" d="M134.9,45.61a2.14,2.14,0,0,1,0,1.77,2.28,2.28,0,0,1,0-1.77" transform="translate(-14.49 -8.82)"/><path class="cls-7" d="M134.88,52.29a1.69,1.69,0,0,1,0,1.57,1.81,1.81,0,0,1,0-1.57" transform="translate(-14.49 -8.82)"/><path class="cls-7" d="M135.09,37a.76.76,0,0,1,0,1,.82.82,0,0,1,0-1" transform="translate(-14.49 -8.82)"/><path class="cls-7" d="M204.69,160.53a.77.77,0,0,1-1,0,.81.81,0,0,1,1,0" transform="translate(-14.49 -8.82)"/><path class="cls-7" d="M214.71,160.54a.54.54,0,0,1-.79,0,.57.57,0,0,1,.79,0" transform="translate(-14.49 -8.82)"/><path class="cls-7" d="M135.08,57.39c.17.12.19.25,0,.39-.16-.12-.18-.25,0-.39" transform="translate(-14.49 -8.82)"/><path class="cls-7" d="M135.27,59.55c.17.12.2.25,0,.39-.16-.12-.19-.25,0-.39" transform="translate(-14.49 -8.82)"/><path class="cls-7" d="M136.85,62.7c.12-.17.25-.19.39,0-.12.16-.25.17-.39,0" transform="translate(-14.49 -8.82)"/><path class="cls-7" d="M42.49,172.71a.44.44,0,0,1,.13.44c-.24-.09-.35-.22-.12-.44" transform="translate(-14.49 -8.82)"/></g></g></g></g></g></g></g></svg>