<svg xmlns="http://www.w3.org/2000/svg" xmlns:xlink="http://www.w3.org/1999/xlink" viewBox="0 0 464.27 472.65"><defs><style>.cls-1,.cls-4{fill:none;}.cls-2{clip-path:url(#clip-path);}.cls-3{fill:#2e21a8;}.cls-4{stroke:#2e21a8;stroke-miterlimit:10;stroke-width:3px;}.cls-5{fill:#4f5cd6;}.cls-6{fill:#fff;}</style><clipPath id="clip-path"><rect class="cls-1" x="0.48" y="0.48" width="463.79" height="472.17"/></clipPath></defs><title>Fichier 1</title><g id="Calque_2" data-name="Calque 2"><g id="Calque_1-2" data-name="Calque 1"><g class="cls-2"><path class="cls-3" d="M142.36,402.75c-.74-3.57-.76-7.87,1-11.16,2.13-4,7.09-4.62,9.91-.91,6,7.85-1.77,14.23-9.21,17.69a35.61,35.61,0,0,1-1.69-5.62m56.72-278.59c-8.87-2.15-18.23-6.59-22.49-15.14-3.93-7.88-1.8-17.88,4.18-24.16,6.38-6.7,16.28-7.52,24.29-3.31,9,4.73,12.81,14.57,10.42,24.31-2,8.13-6.78,14.25-13,19-1.16-.21-2.3-.45-3.42-.72M297.9,441.45c-39.44,13-84.55,23.49-122.72,1.07a79.7,79.7,0,0,1-20.36-16.87,66,66,0,0,1-9.62-14.59,26.63,26.63,0,0,0,8.31-5.52c4.78-4.82,6.05-12.81.67-17.79-4.64-4.3-11.24-2-13.56,3.46-2.52,5.93-1.15,12.37,1.16,18.12a36,36,0,0,1-3.93,1.3C117.52,416,96,408.06,78.72,397.57a168.31,168.31,0,0,1-42.66-37C11.77,331-.84,292.48,6.14,254.36c3.4-18.57,11.26-36.47,23.67-50.8,13-15.05,30.27-25.77,48.41-33.64,20.23-8.77,41.71-14.05,63-19.6,11.08-2.89,22.14-5.86,33-9.44,9.21-3,18.62-6.32,26.76-11.7.64-.43,1.28-.89,1.92-1.36a65,65,0,0,0,29.25-1.89c14.93-4.58,26.69-16.15,27.29-32.39.7-18.87-11.7-35.7-17.77-52.82A71.36,71.36,0,0,1,239.57,1.5h-2.83q-.43,2.08-.78,4.2a71.87,71.87,0,0,0,.9,28.39c2.32,9.5,6.71,18.35,10.76,27.2,7.74,16.9,15.6,38.38-.37,53.29-10.67,10-27,12.71-41.41,10.82,11-9.86,18.53-26.43,8.5-39.5-9-11.74-27.42-13.16-36.89-1.3a25.21,25.21,0,0,0-5.23,19.62c1.3,7.69,6.83,13.8,13.42,17.59a50.21,50.21,0,0,0,13.71,5.29c-10.17,6.69-23.14,10.45-33.88,13.7-41,12.38-85.68,18.54-120.65,45.12-30.24,23-45.31,59.76-43.12,97.38s21.8,71.86,49.27,96.8C65.2,393,81.71,404.39,100,410.65c9.27,3.17,19.17,5,29,4.17a54.58,54.58,0,0,0,14-2.86,69.14,69.14,0,0,0,14,19.83c12.27,12.26,28.55,20.38,45.43,24,20.94,4.55,42.81,2.23,63.42-2.89a266.4,266.4,0,0,0,32.42-10.51c.6-.23.36-1.19-.27-1"/><path class="cls-4" d="M142.36,402.75c-.74-3.57-.76-7.87,1-11.16,2.13-4,7.09-4.62,9.91-.91,6,7.85-1.77,14.23-9.21,17.69A35.61,35.61,0,0,1,142.36,402.75Zm56.72-278.59c-8.87-2.15-18.23-6.59-22.49-15.14-3.93-7.88-1.8-17.88,4.18-24.16,6.38-6.7,16.28-7.52,24.29-3.31,9,4.73,12.81,14.57,10.42,24.31-2,8.13-6.78,14.25-13,19C201.34,124.67,200.2,124.43,199.08,124.16ZM297.9,441.45c-39.44,13-84.55,23.49-122.72,1.07a79.7,79.7,0,0,1-20.36-16.87,66,66,0,0,1-9.62-14.59,26.63,26.63,0,0,0,8.31-5.52c4.78-4.82,6.05-12.81.67-17.79-4.64-4.3-11.24-2-13.56,3.46-2.52,5.93-1.15,12.37,1.16,18.12a36,36,0,0,1-3.93,1.3C117.52,416,96,408.06,78.72,397.57a168.31,168.31,0,0,1-42.66-37C11.77,331-.84,292.48,6.14,254.36c3.4-18.57,11.26-36.47,23.67-50.8,13-15.05,30.27-25.77,48.41-33.64,20.23-8.77,41.71-14.05,63-19.6,11.08-2.89,22.14-5.86,33-9.44,9.21-3,18.62-6.32,26.76-11.7.64-.43,1.28-.89,1.92-1.36a65,65,0,0,0,29.25-1.89c14.93-4.58,26.69-16.15,27.29-32.39.7-18.87-11.7-35.7-17.77-52.82A71.36,71.36,0,0,1,239.57,1.5h-2.83q-.43,2.08-.78,4.2a71.87,71.87,0,0,0,.9,28.39c2.32,9.5,6.71,18.35,10.76,27.2,7.74,16.9,15.6,38.38-.37,53.29-10.67,10-27,12.71-41.41,10.82,11-9.86,18.53-26.43,8.5-39.5-9-11.74-27.42-13.16-36.89-1.3a25.21,25.21,0,0,0-5.23,19.62c1.3,7.69,6.83,13.8,13.42,17.59a50.21,50.21,0,0,0,13.71,5.29c-10.17,6.69-23.14,10.45-33.88,13.7-41,12.38-85.68,18.54-120.65,45.12-30.24,23-45.31,59.76-43.12,97.38s21.8,71.86,49.27,96.8C65.2,393,81.71,404.39,100,410.65c9.27,3.17,19.17,5,29,4.17a54.58,54.58,0,0,0,14-2.86,69.14,69.14,0,0,0,14,19.83c12.27,12.26,28.55,20.38,45.43,24,20.94,4.55,42.81,2.23,63.42-2.89a266.4,266.4,0,0,0,32.42-10.51C298.77,442.2,298.53,441.24,297.9,441.45Z"/><path class="cls-5" d="M392.95,456.37c-15.43,9.23-33,15.13-50.42,16.13-19.88,1.14-39.66-4.07-56.12-17.94-.44-.37-.88-.75-1.31-1.14-.78-.7-1.55-1.44-2.27-2.2a17.1,17.1,0,0,1-4.29-7c-1.33-4.7.26-9.84,3.12-13.8s6.87-6.9,10.9-9.65c6.62-4.48,13.74-8.67,21.65-9.82,6.9-1,14.56.76,19.39,5.62a15.9,15.9,0,0,1,1.93,2.33,3.17,3.17,0,0,1,.2.32c1.31,2,2.22,4.22,3.56,6.19,3.67,5.34,10.37,8.06,16.85,8.13s12.78-2.22,18.53-5.2c13.84-7.19,25.22-18.52,34.22-31.25,4.07-5.75,7.8-13.26,4.6-19.54-1.69-3.33-4.92-5.42-7.93-7.71-.65-.5-1.3-1-1.92-1.53-.37-.31-.71-.63-1-1-11.44-11.35-4.12-32.63,4.26-43.3,6.07-7.73,17.56-20.65,28.88-18.07a12,12,0,0,1,3.94,1.89,34.13,34.13,0,0,1,9,9c.72,1,1.39,2.07,2,3.15,3.65,6.19,6.18,13.2,9.11,19.79,20.05,45-32.31,95.87-66.88,116.55"/><path class="cls-3" d="M398.8,445.71c-15.43,9.23-33,15.13-50.42,16.13-19.88,1.14-39.65-4.07-56.12-17.94-3.37-2.84-6.69-6.11-7.88-10.35a13.6,13.6,0,0,1-.24-6.08,26.32,26.32,0,0,0-2.5,2.94c-2.86,4-4.44,9.1-3.12,13.79,1.19,4.24,4.51,7.51,7.88,10.35,16.46,13.87,36.24,19.08,56.12,17.94,17.46-1,35-6.9,50.42-16.13,21.83-13.06,50.75-38.16,64.05-66.21-14.77,23.65-39.17,44.17-58.19,55.55"/><path class="cls-3" d="M403.64,368.3c3.45,3,7.8,5.19,9.85,9.24,1.62,3.18,1.46,6.68.38,10.1l.88-1.21c4.07-5.76,7.79-13.26,4.6-19.55-2.06-4-6.4-6.28-9.85-9.24-9.17-7.86-8-21.36-3.52-32.45-8.24,11.33-14.81,32.42-2.33,43.11"/><path class="cls-3" d="M450.71,320A59.29,59.29,0,0,0,440,323.59a57.72,57.72,0,0,0-30.69,31.5,64.16,64.16,0,0,0-3.71,14.75c-.65-.5-1.3-1-1.92-1.53-.37-.31-.71-.63-1-1,1.56-12.62,8.88-25.48,17.24-33.84a61.82,61.82,0,0,1,18.92-12.92,78.36,78.36,0,0,1,9.93-3.68c.72,1,1.39,2.07,2,3.15"/><path class="cls-3" d="M335.73,419.22c-2,.47-4.05,1-6.06,1.52a98.78,98.78,0,0,0-20.12,7.65,60.72,60.72,0,0,0-16.34,12.38,50.84,50.84,0,0,0-8.12,12.66c-.78-.7-1.55-1.44-2.27-2.2,4.06-10.31,14.26-19,23.11-24.2a93.18,93.18,0,0,1,21.9-8.93c1.91-.54,3.84-1,5.77-1.52a15.9,15.9,0,0,1,1.93,2.33,3.17,3.17,0,0,1,.2.32"/><path class="cls-6" d="M453.65,352.91c-.6-4.13-6.71-3.37-6.42.78a81.34,81.34,0,0,1-3.28,29.22,61.12,61.12,0,0,1-5.23,13.38,58.15,58.15,0,0,1-4.07,6.43c-1.24,1.65-2.56,2.81-2.94,4.86a.52.52,0,0,0,.7.56c3.85-1,7.37-6.78,9.51-9.9,3-4.31,6.05-9,8-13.86a62.88,62.88,0,0,0,3.74-31.47"/><path class="cls-6" d="M453,340a2.93,2.93,0,0,0-1-1.64l-.68-.41a3.09,3.09,0,0,0-1.61-.24h-.82a3.18,3.18,0,0,0-2.71,4,3.22,3.22,0,0,0,4.29,2.2l.75-.29A3.07,3.07,0,0,0,453,340"/><path class="cls-6" d="M377.5,429.34c-3.79,1-7.32,3.38-11,4.9a51.84,51.84,0,0,1-12.38,3.69c-8.24,1.22-16.19-.6-22.6-6-.93-.78-2.37.54-1.56,1.5,5.4,6.3,14,8.43,22,7.88a47.61,47.61,0,0,0,13.74-3.37c4.31-1.66,9.36-3.51,13-6.39a1.29,1.29,0,0,0-1.24-2.22"/><path class="cls-6" d="M391.24,421.86a1.16,1.16,0,0,0-.92-.73c-1.41-.18-2.16,1.1-2.94,2.09a9,9,0,0,0-2,3.33,1.12,1.12,0,0,0,1.51,1.19,9.07,9.07,0,0,0,2.88-2.58c.84-1,1.9-1.92,1.45-3.3"/></g></g></g></svg>